<?xml version="1.0" encoding="UTF-8"?>
<svg version="1.1" xmlns="http://www.w3.org/2000/svg" width="1024" height="1024">
<path d="M0 0 C337.92 0 675.84 0 1024 0 C1024 337.92 1024 675.84 1024 1024 C686.08 1024 348.16 1024 0 1024 C0 686.08 0 348.16 0 0 Z " fill="#F5F1E8" transform="translate(0,0)"/>
<path d="M0 0 C337.92 0 675.84 0 1024 0 C1024 337.92 1024 675.84 1024 1024 C686.08 1024 348.16 1024 0 1024 C0 686.08 0 348.16 0 0 Z M314 130 C312.76636719 130.60642334 312.76636719 130.60642334 311.5078125 131.22509766 C292.35534685 140.74672915 274.20589286 152.32781138 257 165 C256.43748535 165.41088867 255.8749707 165.82177734 255.29541016 166.24511719 C247.99169952 171.58693269 240.9442742 177.2013223 234 183 C233.49659088 183.41765625 232.99318176 183.8353125 232.47451782 184.265625 C223.52298788 191.71143891 215.12849413 199.58311707 206.93823242 207.85595703 C205.04473083 209.76794262 203.14312 211.67157649 201.24023438 213.57421875 C195.28764373 219.54358464 189.39477977 225.51349557 184 232 C183.4944458 232.59876953 182.9888916 233.19753906 182.46801758 233.81445312 C160.17870003 260.38759285 140.9787399 289.7125999 125.96972656 320.99560547 C124.9655869 323.07113081 123.9335238 325.13115913 122.8984375 327.19140625 C95.05632214 383.34112039 82.73321092 446.28089343 82.86962891 508.65014648 C82.875001 511.56304102 82.8696386 514.47578189 82.86328125 517.38867188 C82.85479095 534.4593212 83.73716382 551.15731534 86.125 568.0625 C86.23259644 568.83046906 86.34019287 569.59843811 86.4510498 570.38967896 C92.80547654 615.22682243 106.37590703 658.19113508 126 699 C126.40154297 699.85078125 126.80308594 700.7015625 127.21679688 701.578125 C136.91313055 722.10014903 148.71769304 741.60360183 162 760 C162.53979492 760.75474609 163.07958984 761.50949219 163.63574219 762.28710938 C174.09613308 776.88327805 185.42314047 790.35952753 197.62792969 803.51025391 C199.04803257 805.05215209 200.45140735 806.60794585 201.8515625 808.16796875 C206.39776903 813.21904963 210.96519267 818.05857062 216.18359375 822.43359375 C217.99932645 823.99941916 219.64942704 825.6490212 221.3125 827.375 C224.96467624 831.08488557 228.94842462 834.30490824 233.00390625 837.5625 C235.5427851 839.62802855 238.02396723 841.74411778 240.49316406 843.8918457 C257.7908189 858.86179807 277.23427213 871.5424615 297 883 C297.65210449 883.38091797 298.30420898 883.76183594 298.97607422 884.15429688 C358.60754004 918.80598743 428.94709692 939.95759385 498.11328125 940.203125 C499.40654831 940.20882507 500.69981537 940.21452515 502.03227234 940.22039795 C504.75239439 940.2307888 507.47248798 940.23670722 510.19262695 940.24023438 C512.91965309 940.24459181 515.64635798 940.25840159 518.37329102 940.28125 C536.45869403 940.42958241 554.08968779 939.60307329 572 937 C573.03390366 936.85022202 574.06780731 936.70044403 575.13304138 936.54612732 C654.80504388 924.83839188 728.29293043 890.41922534 790 839 C791.01223633 838.15945068 792.02447266 837.31890137 793.06738281 836.45288086 C801.57376644 829.31631106 809.55538598 821.75697856 817.37915039 813.8815918 C819.32150484 811.92844512 821.27442958 809.9863238 823.22851562 808.04492188 C830.28025595 801.00060232 836.83682829 793.84303908 843 786 C843.86270556 784.97187672 844.73111398 783.9484612 845.609375 782.93359375 C888.31585423 733.13534516 918.34640503 669.01685552 932 605 C932.25475098 603.81664062 932.50950195 602.63328125 932.77197266 601.4140625 C938.94118386 572.31948235 942.23022062 543.12461925 942.1875 513.375 C942.18656342 512.52417847 942.18562683 511.67335693 942.18466187 510.79675293 C942.09771459 474.05274705 938.09165615 437.6431224 929 402 C928.71817871 400.89205078 928.43635742 399.78410156 928.14599609 398.64257812 C919.97544761 367.15145254 907.79647836 337.89384794 893 309 C892.50677246 308.02643555 892.01354492 307.05287109 891.50537109 306.04980469 C880.43189944 284.3556649 866.21716647 263.97529609 851 245 C850.19304688 243.98164063 849.38609375 242.96328125 848.5546875 241.9140625 C844.08616829 236.35566055 839.39370274 231.03897452 834.5546875 225.80078125 C832.59183069 223.6488419 830.68346638 221.47321192 828.78515625 219.265625 C824.58317854 214.44934629 820.09125143 209.94466881 815.5625 205.4375 C814.35110352 204.22030273 814.35110352 204.22030273 813.11523438 202.97851562 C808.23951481 198.11065379 803.23914923 193.47251384 798 189 C796.55367187 187.7315625 796.55367187 187.7315625 795.078125 186.4375 C774.67305129 168.85080663 752.35321554 153.40723222 729 140 C728.30245605 139.59249512 727.60491211 139.18499023 726.88623047 138.76513672 C703.18092196 124.96683365 677.99939163 114.60121419 652 106 C651.01370605 105.67306152 650.02741211 105.34612305 649.01123047 105.00927734 C605.1522348 90.66427705 559.29464218 83.74988497 513.1875 83.8125 C512.28860046 83.81343658 511.38970093 83.81437317 510.46356201 83.81533813 C442.07934889 83.96888984 375.3401709 99.76373484 314 130 Z " fill="#F6F2E8" transform="translate(0,0)"/>
<path d="M0 0 C1.56376328 1.20092931 3.10682575 2.42943253 4.625 3.6875 C5.66914062 4.51121094 5.66914062 4.51121094 6.734375 5.3515625 C13.59914853 11.3914989 20.96937398 23.38970422 21.80200195 32.65771484 C22.21559129 47.78091371 21.26312164 60.34094418 11.625 72.6875 C11.20863281 73.27789062 10.79226563 73.86828125 10.36328125 74.4765625 C4.35291057 82.3820951 -5.18423029 88.22589901 -14.375 91.6875 C-15.365 91.6875 -16.355 91.6875 -17.375 91.6875 C-17.36339844 92.57953125 -17.35179687 93.4715625 -17.33984375 94.390625 C-17.32630859 96.14632812 -17.32630859 96.14632812 -17.3125 97.9375 C-17.30089844 99.09765625 -17.28929687 100.2578125 -17.27734375 101.453125 C-17.35817118 104.13012939 -17.67611355 106.14345658 -18.375 108.6875 C-17.14136719 109.05359375 -15.90773438 109.4196875 -14.63671875 109.796875 C-8.47884809 111.85549687 -2.90338104 114.88959049 2.8125 117.9375 C5.21120662 119.19994221 7.61069135 120.46074289 10.01171875 121.71875 C10.6304184 122.04349304 11.24911804 122.36823608 11.88656616 122.70281982 C20.0790145 126.99095664 28.36902909 131.08499238 36.65698242 135.18457031 C43.39372728 138.52920691 50.07263151 141.96288345 56.71875 145.484375 C66.93495387 150.89293833 77.27046777 156.05005901 87.625 161.1875 C98.67166878 166.6683472 109.67323428 172.2062018 120.5657959 177.98800659 C126.13463763 180.93241748 131.75148171 183.76356858 137.40625 186.5390625 C138.20909424 186.9341803 139.01193848 187.3292981 139.83911133 187.73638916 C143.09097508 189.33557389 146.34348735 190.93313689 149.60351562 192.515625 C167.14709629 201.04510068 182.31738054 209.55596406 189.625 228.6875 C192.43107916 237.10573749 191.35046877 247.68366603 187.625 255.6875 C181.68723381 265.99803974 174.11963106 273.09453313 162.625 276.6875 C160.89659946 276.90547084 159.16382609 277.09034238 157.42895508 277.2487793 C156.52913406 277.3327446 155.62931305 277.4167099 154.70222473 277.5032196 C154.01674057 277.56403214 153.33125641 277.62484467 152.625 277.6875 C152.74504395 278.4114093 152.86508789 279.1353186 152.98876953 279.88116455 C163.26650941 341.88963116 163.26650941 341.88963116 168 372.9375 C168.1637915 374.01154083 168.32758301 375.08558167 168.49633789 376.19216919 C169.12484524 380.3151633 169.75315104 384.43818801 170.38092041 388.56129456 C172.2568719 400.86308558 174.24184491 413.14663796 176.2545166 425.42675781 C176.99082009 429.91978601 177.72576609 434.41303645 178.4609375 438.90625 C178.62543396 439.91127563 178.78993042 440.91630127 178.95941162 441.95178223 C179.81684865 447.19212214 180.67265941 452.43272027 181.52539062 457.67382812 C181.69504333 458.71647827 181.86469604 459.75912842 182.03948975 460.83337402 C182.38353505 462.94802379 182.7274882 465.06268856 183.0713501 467.17736816 C184.09678642 473.47462836 185.13579172 479.76946354 186.18582153 486.06266785 C186.84944267 490.05141049 187.50403344 494.04160309 188.15679932 498.03213501 C188.4641234 499.89817429 188.77531784 501.76358112 189.09075928 503.62826538 C194.29757169 534.44174643 194.29757169 534.44174643 186.3046875 546.71484375 C182.13707184 552.10086071 176.97399047 554.57116984 170.625 556.6875 C167.81406427 556.79341745 165.02728779 556.84234907 162.21589661 556.84571838 C161.34762023 556.85065636 160.47934386 556.85559434 159.58475608 556.86068195 C156.6643348 556.87608621 153.74393555 556.88442551 150.82348633 556.89282227 C148.73439845 556.90239849 146.64531252 556.91240841 144.55622864 556.92282104 C138.87478173 556.9499039 133.1933265 556.97089516 127.5118506 556.99082303 C121.57809056 557.01266175 115.64435631 557.04006077 109.71061707 557.06687927 C98.46970305 557.11683479 87.22877474 557.16176301 75.98783273 557.20490164 C63.19234264 557.25424959 50.39687844 557.30917677 37.60141337 557.36458123 C11.27596638 557.47844516 -15.04950543 557.58527459 -41.375 557.6875 C-37.20281535 559.59499407 -33.02816678 561.49695983 -28.85134888 563.39428711 C-27.43683447 564.03770506 -26.02295237 564.6825153 -24.60977173 565.32885742 C44.56660367 596.95725838 119.91351856 603.34940338 192.015625 576.7421875 C201.87587373 572.96396135 211.39371111 568.58657197 220.73681641 563.67431641 C222.61101836 562.69480719 224.49694804 561.74203175 226.38671875 560.79296875 C245.12891867 551.25810674 261.93938916 538.29490292 277.19921875 523.90234375 C281.2066802 520.24335721 283.26303387 519.44919039 288.625 519.6875 C289.06662623 526.18157756 288.01220478 530.01801889 284.8125 535.625 C284.41087646 536.35372314 284.00925293 537.08244629 283.59545898 537.83325195 C278.99992803 546.03622632 273.90492764 553.91215987 268.625 561.6875 C268.20605469 562.30753906 267.78710938 562.92757812 267.35546875 563.56640625 C261.43176499 572.2733105 254.89765626 580.31055375 247.93359375 588.20410156 C246.25656842 590.10514745 244.5986407 592.02257392 242.9375 593.9375 C241.83525852 595.18919795 240.73099829 596.43912032 239.625 597.6875 C238.93019531 598.47511719 238.23539063 599.26273438 237.51953125 600.07421875 C230.02564123 608.49678361 222.20826797 616.37912157 213.625 623.6875 C212.70332031 624.49832031 211.78164063 625.30914063 210.83203125 626.14453125 C167.3809823 664.09247201 112.04881279 686.20829111 54.25 686.0625 C53.01792313 686.06168427 53.01792313 686.06168427 51.76095581 686.06085205 C-7.57366019 685.88169948 -59.28567459 660.13803352 -108.96240234 630.13793945 C-158.09271491 600.49269517 -210.76295072 574.49710226 -269.3125 574.4375 C-270.47761108 574.43549088 -270.47761108 574.43549088 -271.66625977 574.43344116 C-286.72922321 574.43907327 -300.62517355 575.83467853 -315.140625 580.1171875 C-318.39456034 580.94773743 -321.03423061 581.03549681 -324.375 580.6875 C-325.365 580.0275 -326.355 579.3675 -327.375 578.6875 C-327.9375 575.875 -327.9375 575.875 -327.375 572.6875 C-323.35399343 568.82489672 -319.19380874 566.31591024 -314.0625 564.125 C-313.03286133 563.68003174 -313.03286133 563.68003174 -311.98242188 563.22607422 C-299.45963199 558.03846601 -285.93698459 555.59882112 -272.4140625 555.44921875 C-271.30518425 555.43445999 -271.30518425 555.43445999 -270.17390442 555.41940308 C-252.22046806 555.23014675 -234.99897056 555.88380438 -217.375 559.6875 C-216.24835938 559.92887695 -215.12171875 560.17025391 -213.9609375 560.41894531 C-171.66995609 569.73749582 -133.31445596 588.59366237 -96.5 610.98828125 C-86.92928422 616.79885664 -77.18842106 622.29881257 -67.375 627.6875 C-66.43446777 628.20441406 -65.49393555 628.72132813 -64.52490234 629.25390625 C-18.00315985 654.6337391 34.25136275 670.49139893 87.625 661.6875 C88.91664063 661.48125 90.20828125 661.275 91.5390625 661.0625 C135.43559339 653.65512987 177.22078201 633.30177072 209.625 602.6875 C210.95361796 601.53620242 212.28684718 600.39020122 213.625 599.25 C221.14051085 592.69100872 228.43954724 585.53196492 234.625 577.6875 C234.625 577.3575 234.625 577.0275 234.625 576.6875 C233.59503906 577.3165625 232.56507813 577.945625 231.50390625 578.59375 C193.54751036 601.52348631 149.07012292 614.81484694 104.625 615.6875 C103.7498877 615.70796387 102.87477539 615.72842773 101.97314453 615.74951172 C44.10754987 616.92568121 -6.9157653 597.99085767 -58.26661682 572.86102295 C-97.22350526 553.79665161 -136.54865497 535.75167484 -179.75195312 529.09423828 C-181.97954331 528.74882082 -184.20003014 528.37602696 -186.421875 527.99609375 C-222.48208708 522.64691291 -261.03378518 527.00391008 -294.375 541.6875 C-295.06432617 541.98350098 -295.75365234 542.27950195 -296.46386719 542.58447266 C-306.34217283 546.85461365 -315.49547816 551.94445899 -324.51318359 557.8269043 C-329.30318886 560.85317059 -332.51372231 562.48710802 -338.375 561.6875 C-340.3125 560.5625 -340.3125 560.5625 -341.375 558.6875 C-342 556 -342 556 -341.375 552.6875 C-337.33360121 546.91891123 -332.24242344 542.72104755 -326.375 538.9375 C-325.22028198 538.18388184 -325.22028198 538.18388184 -324.04223633 537.41503906 C-299.55957126 521.77839796 -271.64534633 508.98871242 -242.375 506.6875 C-242.34124268 505.93500977 -242.30748535 505.18251953 -242.27270508 504.40722656 C-241.67958535 494.05155354 -240.16688108 483.91523346 -238.56768799 473.6751709 C-237.65843986 467.84794171 -236.76938436 462.0176221 -235.87890625 456.1875 C-235.68254578 454.90405701 -235.4861853 453.62061401 -235.28387451 452.29827881 C-233.65423182 441.62192125 -232.08306301 430.93735442 -230.52734375 420.25 C-230.40478525 419.40819624 -230.28222675 418.56639248 -230.15595436 417.69907951 C-229.52567466 413.36877671 -228.89596148 409.03839169 -228.26644897 404.70797729 C-222.98405326 368.37644566 -217.53471148 332.07359725 -211.85565186 295.80184937 C-211.51040028 293.56481644 -211.17427797 291.32636741 -210.84405518 289.08706665 C-210.66944763 287.91147186 -210.49484009 286.73587708 -210.31494141 285.5246582 C-210.15861237 284.45504349 -210.00228333 283.38542877 -209.84121704 282.28340149 C-209.375 279.6875 -209.375 279.6875 -208.375 277.6875 C-208.95765625 277.68492187 -209.5403125 277.68234375 -210.140625 277.6796875 C-220.72162575 277.18058369 -229.74929561 272.23316213 -237.3984375 265.04296875 C-245.681606 255.17192012 -247.43148969 244.08207177 -246.375 231.6875 C-244.16861409 220.09732824 -237.67122483 211.65542816 -228.375 204.6875 C-225.29547085 202.79987268 -222.10311355 201.17992152 -218.875 199.5625 C-217.40921509 198.81323242 -217.40921509 198.81323242 -215.91381836 198.04882812 C-213.67473584 196.90483313 -211.43362483 195.76480304 -209.19091797 194.62792969 C-204.98316231 192.49265893 -200.79051077 190.32840725 -196.59765625 188.1640625 C-177.89814238 178.52083177 -159.13544509 169.01183056 -140.28735352 159.66210938 C-132.48065761 155.78344997 -124.71766709 151.84079755 -117.015625 147.7578125 C-106.0129442 141.92626402 -94.86329018 136.39899782 -83.70898438 130.86474609 C-81.05508978 129.54704751 -78.40231069 128.22713358 -75.75 126.90625 C-74.88818115 126.47803955 -74.0263623 126.0498291 -73.13842773 125.60864258 C-68.762978 123.42359294 -64.41991737 121.19303307 -60.11328125 118.875 C-59.2639502 118.41903442 -58.41461914 117.96306885 -57.53955078 117.49328613 C-55.94366138 116.63187392 -54.35182588 115.76288696 -52.76513672 114.88464355 C-48.01819726 112.32048164 -43.6624717 110.78980342 -38.375 109.6875 C-38.36098145 108.70523438 -38.36098145 108.70523438 -38.34667969 107.703125 C-38.2925474 104.69719095 -38.20898611 101.69274225 -38.125 98.6875 C-38.11082031 97.65753906 -38.09664063 96.62757813 -38.08203125 95.56640625 C-37.81924327 87.31486355 -36.25651659 81.33830484 -30.3125 75.4375 C-27.38011833 73.09536218 -24.55071852 71.92695145 -21 70.75 C-12.72707933 67.98857181 -6.54645099 63.25327334 -2.3046875 55.57421875 C1.17651018 48.50943523 1.98426635 40.88852515 -0.02734375 33.19140625 C-3.7503003 23.97189581 -10.29646585 17.59747866 -19.375 13.6875 C-27.62643939 11.1747827 -34.88145092 12.6107786 -42.60546875 16.140625 C-49.4509697 19.96406418 -53.63446959 25.40551919 -56.375 32.6875 C-56.84479175 34.41358879 -57.3028431 36.1429095 -57.75 37.875 C-59.20836674 42.96360222 -60.76555108 45.02820255 -65.375 47.6875 C-69.70445942 48.37109886 -71.56550994 48.2154283 -75.25 45.8125 C-78.25403789 42.80846211 -78.59192975 41.02738401 -78.75 36.875 C-78.62007191 25.85998509 -73.63214557 16.68452809 -66.375 8.6875 C-65.85292969 8.07390625 -65.33085937 7.4603125 -64.79296875 6.828125 C-47.92127859 -11.72662915 -20.33732333 -13.47579479 0 0 Z " fill="#1E2026" transform="translate(540.375,165.3125)"/>
<path d="M0 0 C1.08864349 0.00539291 1.08864349 0.00539291 2.19927979 0.01089478 C2.96020432 0.01074875 3.72112885 0.01060272 4.50511169 0.01045227 C7.03202113 0.01115155 9.55885776 0.01894462 12.08575439 0.02676392 C13.83310404 0.02862804 15.58045421 0.03005197 17.32780457 0.03105164 C21.93591749 0.03487724 26.54399909 0.04470788 31.15209961 0.05575562 C35.85068335 0.06596883 40.54927214 0.07054906 45.24786377 0.07559204 C54.47378902 0.08633011 63.69969098 0.10340704 72.92559814 0.12442017 C72.97952212 2.89551323 73.01923269 5.66555835 73.05059814 8.43692017 C73.06735596 9.22260376 73.08411377 10.00828735 73.10137939 10.81777954 C73.10782471 11.57510376 73.11427002 12.33242798 73.12091064 13.11270142 C73.13138428 13.809198 73.14185791 14.50569458 73.15264893 15.22329712 C72.92559814 17.12442017 72.92559814 17.12442017 70.92559814 20.12442017 C70.23057028 24.89263455 70.23122653 28.88998174 72.61309814 33.12442017 C76.69022605 36.65058484 79.60073065 37.32263326 84.92559814 37.06192017 C88.75447154 36.59401015 89.84485579 36.18868449 92.98809814 33.68692017 C95.61825231 30.20832917 96.08151846 28.48807331 96.11309814 24.18692017 C96.12727783 23.31164673 96.14145752 22.43637329 96.15606689 21.53457642 C96.09223164 18.86197681 96.09223164 18.86197681 93.92559814 16.12442017 C93.92559814 11.17442017 93.92559814 6.22442017 93.92559814 1.12442017 C129.89559814 1.12442017 165.86559814 1.12442017 202.92559814 1.12442017 C202.92559814 17.12442017 202.92559814 17.12442017 200.92559814 22.12442017 C200.70618718 26.46144356 201.12460826 30.04722687 203.73809814 33.56192017 C208.30911056 36.82692903 211.16802981 37.62076226 216.92559814 37.12442017 C221.14166052 35.50285771 223.56505149 33.96542528 225.92559814 30.12442017 C226.39692372 27.71106944 226.39692372 27.71106944 226.30059814 25.18692017 C226.30833252 24.35289673 226.31606689 23.51887329 226.32403564 22.65957642 C226.08311048 20.02344038 226.08311048 20.02344038 224.41778564 17.76113892 C222.46606502 14.31241792 222.59329009 11.80874508 222.67559814 7.87442017 C222.69106689 6.63176392 222.70653564 5.38910767 222.72247314 4.10879517 C222.92559814 1.12442017 222.92559814 1.12442017 223.92559814 0.12442017 C226.45100816 0.02937766 228.94896941 -0.00115141 231.47467041 0.01089478 C232.26485565 0.01074875 233.05504089 0.01060272 233.86917114 0.01045227 C236.49347636 0.0111516 239.1177115 0.01894489 241.74200439 0.02676392 C243.5566148 0.02862803 245.37122571 0.03005196 247.18583679 0.03105164 C251.97150044 0.03487737 256.75713394 0.04470813 261.54278564 0.05575562 C266.42233879 0.06596854 271.30189678 0.070549 276.18145752 0.07559204 C285.76285101 0.08633035 295.34422207 0.10340744 304.92559814 0.12442017 C306.30390825 16.36065706 307.59174878 32.6018875 308.80841064 48.85098267 C308.98559283 51.20807327 309.16283566 53.56515932 309.34013367 55.92224121 C309.91199398 63.53117343 310.48151866 71.14027952 311.05059814 78.74942017 C311.1964995 80.69958542 311.1964995 80.69958542 311.34534836 82.68914795 C312.56856306 99.04110881 313.78809525 115.39334208 315.00444126 131.74581528 C315.51248476 138.57564411 316.02095774 145.40544026 316.53076172 152.23513794 C317.58877551 166.41010321 318.6433213 180.58531229 319.68703079 194.76133919 C320.12859352 200.75849466 320.57194133 206.75550334 321.0201416 212.75216675 C321.43957056 218.36573419 321.85330508 223.97969322 322.262743 229.59399796 C322.41245596 231.63415427 322.56411669 233.67416885 322.71798515 235.71401596 C323.17994739 241.84810621 323.5919284 247.98198377 323.92559814 254.12442017 C323.97168591 254.91132233 324.01777367 255.69822449 324.06525803 256.50897217 C324.18320293 258.72267702 324.26277945 260.93399013 324.32769775 263.14981079 C324.37276962 264.38364502 324.41784149 265.61747925 324.46427917 266.88870239 C323.74100864 271.23320163 322.38872256 272.43837425 318.92559814 275.12442017 C315.98768997 275.85365163 313.13193334 275.82546562 310.11599731 275.79971313 C308.78446694 275.81776316 308.78446694 275.81776316 307.42603695 275.83617783 C304.45015539 275.87017954 301.47538815 275.86841683 298.49932861 275.86660767 C296.36507051 275.88320732 294.23082741 275.90184314 292.09660339 275.92236328 C286.29149605 275.97087139 280.48674169 275.98664855 274.68145132 275.99363708 C271.04437121 275.99941765 267.40738131 276.01206827 263.77032852 276.02713013 C251.05022337 276.0794399 238.330378 276.1046824 225.61016846 276.10586548 C213.81019427 276.10768992 202.01155964 276.1689158 190.21195495 276.25850105 C180.04755462 276.33290105 169.88358928 276.36395822 159.71891892 276.36274529 C153.66402689 276.36277342 147.61039493 276.37943488 141.55578232 276.4402771 C94.26406314 276.88478821 94.26406314 276.88478821 73.35819817 265.39739227 C69.71381549 263.49029803 65.92007563 262.16841899 62.01934814 260.89004517 C61.38234608 260.67488125 60.74534401 260.45971733 60.08903885 260.23803329 C58.20481238 259.60603206 56.31520325 258.99015347 54.42559814 258.37442017 C53.74890076 258.15173462 53.07220337 257.92904907 52.375 257.69961548 C21.18330087 247.45500403 -8.45957387 242.75034509 -41.07440186 241.12442017 C-38.88577615 223.95424382 -36.51040086 206.81357195 -34.05619049 189.67948914 C-33.75613621 187.58415763 -33.45658557 185.48875456 -33.15710449 183.39334106 C-30.81251334 166.99707917 -28.4296846 150.6086138 -25.86575317 134.24499512 C-23.101017 116.57979649 -20.52834844 98.88639297 -17.94117737 81.19452667 C-17.3360002 77.05699254 -16.73008599 72.91956636 -16.12420654 68.78213501 C-15.88637101 67.15786771 -15.64853734 65.53360013 -15.41070557 63.90933228 C-15.29424179 63.11396057 -15.17777802 62.31858887 -15.05778503 61.49911499 C-14.70934176 59.11941806 -14.36092368 56.73971745 -14.01251221 54.36001587 C-13.46661216 50.63146642 -12.92062478 46.90292976 -12.37458801 43.17440033 C-12.08984383 41.2298739 -11.80520337 39.28533228 -11.52056885 37.34078979 C-10.62688386 31.2380493 -9.72993167 25.13582116 -8.824646 19.03479004 C-8.57655179 17.35851982 -8.32994413 15.68202885 -8.0848999 14.00531006 C-7.75971552 11.78140321 -7.42956442 9.55829669 -7.09783936 7.33535767 C-6.83366211 5.54557495 -6.83366211 5.54557495 -6.56414795 3.71963501 C-5.72920478 -0.70481457 -4.16957164 0.00871514 0 0 Z " fill="#EDBC46" transform="translate(360.07440185546875,428.8755798339844)"/>
<path d="M0 0 C0.90295807 0.00060425 1.80591614 0.0012085 2.73623657 0.00183105 C17.28536113 0.02816635 31.66258531 0.49259691 46.125 2.1875 C47.29498535 2.32172363 48.4649707 2.45594727 49.67041016 2.59423828 C102.96435076 8.8514777 154.58447573 23.36388167 202.24902344 48.21484375 C204.1918901 49.22218118 206.14584468 50.2053751 208.1015625 51.1875 C246.49947076 70.7078423 280.59262085 98.66850095 311 128.9375 C311.70165283 129.63447998 312.40330566 130.33145996 313.1262207 131.04956055 C317.66230639 135.59966814 321.94401336 140.31075794 326.125 145.1875 C326.970625 146.15171875 327.81625 147.1159375 328.6875 148.109375 C391.76212995 221.29211873 427.14325124 315.16693332 430.375 427.6875 C430.37601212 428.9379158 430.37601212 428.9379158 430.37704468 430.21359253 C430.25198253 528.99282275 394.14283343 627.42994213 303.21826172 732.27954102 C301.62046107 733.87954519 300.03088449 735.48743615 298.44140625 737.09570312 C291.99164062 743.58017897 285.29170509 749.48985187 278.125 755.1875 C277.03496532 756.11063439 275.95033935 757.04025708 274.875 757.98046875 C260.61676099 770.39566834 245.16682957 781.2136149 229.125 791.1875 C228.52864746 791.56148926 227.93229492 791.93547852 227.31787109 792.32080078 C181.35686066 821.0351705 131.23244098 840.0035817 78.125 850.1875 C77.28759277 850.34943848 76.45018555 850.51137695 75.58740234 850.67822266 C70.45054161 851.65224754 65.30001358 852.44649759 60.125 853.1875 C59.25064804 853.31341019 58.37629608 853.43932037 57.47544861 853.56904602 C39.90397928 856.02309886 22.60833135 856.63061555 4.88122559 856.5100708 C2.19868618 856.49660506 -0.48368832 856.50192014 -3.16624641 856.50693512 C-18.84447763 856.52906151 -34.30008683 856.01372559 -49.875 854.1875 C-51.07833984 854.052229 -52.28167969 853.91695801 -53.52148438 853.77758789 C-120.59298037 845.68544733 -186.51052685 820.96112872 -241.875 782.1875 C-242.57544434 781.69813965 -243.27588867 781.2087793 -243.99755859 780.70458984 C-255.00191875 772.97771461 -265.56818494 764.81978881 -275.875 756.1875 C-276.49922852 755.66768555 -277.12345703 755.14787109 -277.76660156 754.61230469 C-284.7011402 748.82445062 -291.32662795 742.90111174 -297.63671875 736.42578125 C-299.70461756 734.35788244 -301.83211676 732.45171564 -304.0625 730.5625 C-307.28734537 727.79194833 -310.03461221 724.84020219 -312.77734375 721.59765625 C-314.93720698 719.11602569 -317.1776798 716.7324636 -319.44042969 714.34521484 C-326.41231163 706.96714499 -332.77488235 699.29558141 -338.875 691.1875 C-339.69701904 690.10227051 -339.69701904 690.10227051 -340.53564453 688.99511719 C-378.71011298 638.47227895 -406.28779325 580.12505089 -419.875 518.1875 C-420.0596582 517.3816748 -420.24431641 516.57584961 -420.43457031 515.74560547 C-422.94289966 504.7564112 -424.59345422 493.66990663 -426.0625 482.5 C-426.22959473 481.24179443 -426.39668945 479.98358887 -426.56884766 478.68725586 C-428.67946807 461.9424934 -429.08170418 445.29396772 -429.0625 428.4375 C-429.06189575 427.4526059 -429.0612915 426.46771179 -429.06066895 425.45297241 C-429.01853569 400.04071286 -427.3724669 375.23373811 -422.875 350.1875 C-422.59849609 348.63385742 -422.59849609 348.63385742 -422.31640625 347.04882812 C-416.02508075 312.31637253 -405.20314564 279.40704547 -390.875 247.1875 C-390.49375977 246.32576172 -390.11251953 245.46402344 -389.71972656 244.57617188 C-381.08945466 225.23753923 -370.40417887 207.16971677 -358.6875 189.5625 C-358.27406342 188.93951019 -357.86062683 188.31652039 -357.43466187 187.6746521 C-351.59098155 178.89715895 -345.40168007 170.46815076 -338.875 162.1875 C-338.28759033 161.43678223 -337.70018066 160.68606445 -337.0949707 159.91259766 C-326.04250774 145.86737663 -313.84738468 133.08655927 -301.27090454 120.40917969 C-300.23316409 119.3627389 -299.19679625 118.31493471 -298.16195679 117.265625 C-291.415873 110.4363479 -284.39992036 104.16185299 -276.875 98.1875 C-275.56923906 97.10337255 -274.26675613 96.01527523 -272.96875 94.921875 C-263.0466354 86.64778519 -252.64120509 79.3164429 -241.875 72.1875 C-240.48301316 71.25269314 -239.09108377 70.31780073 -237.69921875 69.3828125 C-167.80725941 22.86639874 -83.61431622 -0.10393447 0 0 Z M-51.875 23.1875 C-53.05094727 23.33203613 -54.22689453 23.47657227 -55.43847656 23.62548828 C-99.44821896 29.20862925 -141.94480948 41.92260942 -181.875 61.1875 C-182.63635254 61.55230469 -183.39770508 61.91710937 -184.18212891 62.29296875 C-188.78983005 64.51027228 -193.34717585 66.81155811 -197.875 69.1875 C-198.90488037 69.72528076 -198.90488037 69.72528076 -199.95556641 70.27392578 C-222.88951871 82.35070945 -244.07330262 97.50794525 -263.875 114.1875 C-264.38675781 114.61434082 -264.89851562 115.04118164 -265.42578125 115.48095703 C-279.22848629 127.00654516 -292.65767295 139.10451236 -304.51953125 152.64501953 C-305.96907842 154.29455826 -307.4372727 155.92634536 -308.90625 157.55859375 C-326.51694479 177.30416358 -341.7557159 199.22742442 -354.875 222.1875 C-355.32311035 222.97012207 -355.7712207 223.75274414 -356.23291016 224.55908203 C-399.94768167 301.4704516 -418.34570107 392.34162402 -405.875 480.1875 C-405.73578125 481.20602051 -405.5965625 482.22454102 -405.453125 483.27392578 C-391.62580369 581.9696324 -339.78054456 680.01613694 -260.875 742.1875 C-259.73811575 743.11408766 -258.60279757 744.04259894 -257.46875 744.97265625 C-248.24763136 752.50323647 -238.72060322 759.49591908 -228.875 766.1875 C-227.86663086 766.87344238 -227.86663086 766.87344238 -226.83789062 767.57324219 C-177.5810395 800.81802655 -121.78247798 822.20204414 -63.25 831.9375 C-62.07348877 832.13625732 -60.89697754 832.33501465 -59.68481445 832.53979492 C-40.69217988 835.54568438 -21.60218923 836.52747492 -2.39282227 836.44824219 C0.69079164 836.43748852 3.77382491 836.44824479 6.85742188 836.4609375 C103.36552637 836.52786572 198.1826214 798.25695765 296 711.4375 C296.51127441 710.93089844 297.02254883 710.42429687 297.54931641 709.90234375 C358.0381367 649.15846194 395.32195882 563.15173861 407.125 479.1875 C407.29491455 477.99954834 407.29491455 477.99954834 407.46826172 476.78759766 C421.23452102 378.55348505 394.31822365 273.00733793 330.77050781 183.34423828 C326.53209997 177.78903132 322.12659768 172.37708157 317.64550781 167.01660156 C316.264302 165.35507395 314.90683184 163.67736193 313.5546875 161.9921875 C306.58921787 153.45050291 298.82932476 145.67935752 291.0625 137.875 C290.50768951 137.31492249 289.95287903 136.75484497 289.3812561 136.17779541 C282.28422473 129.02876202 275.01591216 122.46072233 267.125 116.1875 C266.02309978 115.25280542 264.92677485 114.31143532 263.83984375 113.359375 C240.08075828 92.64118514 212.50842088 75.7728568 184.13818359 62.16162109 C182.03618889 61.14452688 179.94989749 60.09902727 177.86328125 59.05078125 C134.00210143 37.30179134 82.9719202 24.5999209 34.125 21.1875 C32.422229 21.06157471 32.422229 21.06157471 30.68505859 20.93310547 C20.49462527 20.22975293 10.33884951 19.9463956 0.125 19.9375 C-0.69215485 19.93649292 -1.50930969 19.93548584 -2.35122681 19.93444824 C-19.00784911 19.94814828 -35.33855937 21.13631588 -51.875 23.1875 Z " fill="#1E2026" transform="translate(511.875,83.8125)"/>
<path d="M0 0 C3.63957734 1.30891776 7.0487253 3.01133068 10.5 4.75 C11.50683838 5.24443604 12.51367676 5.73887207 13.55102539 6.24829102 C21.52698336 10.19131494 29.4211293 14.29373706 37.29199219 18.44189453 C45.12540568 22.56873359 53.02568518 26.54876063 60.96655273 30.46459961 C66.09041707 33.00299007 71.17105893 35.60980115 76.22186279 38.28988647 C89.36377039 45.26241485 102.67888057 51.87803624 116 58.5 C142.68119123 71.76329084 142.68119123 71.76329084 155.77827454 78.72151184 C162.56444853 82.32170717 169.45038699 85.69840238 176.40429688 88.96289062 C183.394443 92.36336405 189.38215969 96.40046957 194 102.75 C195.82146732 108.6697688 196.31344953 115.20987528 193.4375 120.875 C189.9866222 125.29920231 186.97528735 128.36621098 181.359375 129.5625 C178.87942857 129.84592245 176.49534693 130.06692501 174 130 C172.1364121 128.1364121 172.33684921 124.86498523 171.98828125 122.32421875 C170.56162071 118.96902895 168.23341836 117.4497864 165 116 C161.83135979 115.42831852 158.71996414 115.4356497 155.50634766 115.45410156 C154.56912872 115.44376389 153.63190979 115.43342621 152.66629028 115.42277527 C149.58203827 115.39338115 146.49844349 115.39184879 143.4140625 115.390625 C141.27028148 115.3756411 139.126512 115.35891351 136.98275757 115.34051514 C131.35051946 115.29685324 125.71843709 115.27684495 120.08605957 115.26177979 C114.33462317 115.24220466 108.58335485 115.20023503 102.83203125 115.16015625 C91.55473935 115.08486656 80.2774851 115.03456744 69 115 C68.81026611 113.85837402 68.62053223 112.71674805 68.42504883 111.54052734 C68.16514377 110.01395183 67.90495615 108.48742441 67.64453125 106.9609375 C67.52082153 106.21191162 67.39711182 105.46288574 67.26965332 104.69116211 C63.87640487 84.97291523 53.99015029 67.50931096 38.15234375 55.13671875 C21.15823894 43.61779021 1.88140104 38.66709692 -18.58984375 41.49609375 C-35.30175175 44.76461056 -48.89764168 52.12289708 -61 64 C-61.62777344 64.60328125 -62.25554687 65.2065625 -62.90234375 65.828125 C-73.82177351 77.21800638 -79.32605496 93.03496067 -81.1015625 108.41015625 C-81.23365112 109.51043152 -81.23365112 109.51043152 -81.3684082 110.63293457 C-81.58260151 112.42152155 -81.79182102 114.21070302 -82 116 C-83.12895187 116.00142502 -84.25790375 116.00285004 -85.42106628 116.00431824 C-96.059479 116.02098644 -106.69750912 116.06375476 -117.33571911 116.13209057 C-122.80500461 116.16638397 -128.27401009 116.19147424 -133.7434082 116.19555664 C-139.02156555 116.19983449 -144.29909094 116.22825499 -149.57705116 116.27343178 C-151.59083691 116.28642314 -153.60469823 116.29070868 -155.61852074 116.28615379 C-158.43932742 116.2812595 -161.25827877 116.30728793 -164.07885742 116.34057617 C-164.91179825 116.33195053 -165.74473907 116.32332489 -166.60292053 116.31443787 C-170.9181201 116.39982721 -172.51714676 116.61126666 -175.99971008 119.41499329 C-177.7521877 121.67974819 -178.71968517 123.06399486 -179.3125 125.8125 C-179.539375 126.864375 -179.76625 127.91625 -180 129 C-185.18858849 129.64857356 -188.95490193 129.53131256 -193.3125 126.4375 C-198.17078164 122.29680886 -200.67577448 118.55327598 -201.5 112.0625 C-201.10228267 105.62445075 -198.24670222 100.84893802 -193.4921875 96.60546875 C-188.91496679 92.71193286 -183.9823423 90.04623556 -178.625 87.375 C-177.14290039 86.61848145 -177.14290039 86.61848145 -175.63085938 85.84667969 C-172.42750304 84.21695462 -169.2152209 82.60618061 -166 81 C-164.88979492 80.4440918 -163.77958984 79.88818359 -162.63574219 79.31542969 C-158.14454312 77.06789151 -153.6520967 74.82293685 -149.15527344 72.58666992 C-142.25133948 69.14874379 -135.42227327 65.60660883 -128.6394043 61.93701172 C-125.14461604 60.06367795 -121.60955967 58.2758024 -118.05859375 56.51171875 C-117.38194168 56.17441742 -116.70528961 55.83711609 -116.00813293 55.48959351 C-114.49933507 54.73758521 -112.99030515 53.98604239 -111.4810791 53.2348938 C-103.76106769 49.39245515 -96.0448609 45.54237345 -88.32885742 41.69189453 C-86.24035025 40.65015683 -84.15148479 39.6091371 -82.06225586 38.56884766 C-70.88978981 33.00497184 -59.75489357 27.39038203 -48.7285614 21.54165649 C-40.88717354 17.38984228 -32.95129904 13.43606268 -25 9.5 C-22.20716172 8.11692852 -19.41570946 6.73111086 -16.625 5.34375 C-15.68769043 4.88131897 -15.68769043 4.88131897 -14.73144531 4.4095459 C-4.82919277 -0.51333939 -4.82919277 -0.51333939 0 0 Z " fill="#F4F1E8" transform="translate(515,293)"/>
<path d="M0 0 C1.08498779 0.30357422 1.08498779 0.30357422 2.19189453 0.61328125 C12.53904417 3.53904417 12.53904417 3.53904417 14 5 C14.08874135 8.10251201 14.11518455 11.1826812 14.09765625 14.28515625 C14.0962413 15.21597519 14.09482635 16.14679413 14.09336853 17.1058197 C14.08775172 20.09141191 14.0751964 23.07693029 14.0625 26.0625 C14.05748716 28.08137913 14.05292388 30.10025943 14.04882812 32.11914062 C14.03777683 37.07945572 14.02050095 42.03971532 14 47 C10.37 47 6.74 47 3 47 C2.63648438 45.80503906 2.27296875 44.61007812 1.8984375 43.37890625 C-2.22136938 30.19801773 -6.61315778 19.60339969 -18.7265625 11.90234375 C-25.9605034 8.47657879 -36.56918119 8.58483354 -44.08203125 10.984375 C-46.53250619 12.17471065 -48.74980894 13.46861997 -51 15 C-51.886875 15.556875 -52.77375 16.11375 -53.6875 16.6875 C-69.33922116 32.33922116 -72.32820013 53.30198441 -72.4375 74.375 C-72.40661754 95.66499098 -68.78932974 116.09562819 -53.37109375 131.94140625 C-44.87186545 139.32047267 -37.69939457 141.4509792 -26.609375 141.3359375 C-18.5238126 140.58338516 -12.34639031 136.33961353 -6.8828125 130.5 C-1.22522385 122.98784909 2.37200823 113.96608957 5 105 C8.63 105 12.26 105 16 105 C15.859247 109.27101628 15.71145337 113.54176247 15.5625 117.8125 C15.52318359 119.00810547 15.48386719 120.20371094 15.44335938 121.43554688 C15.35902925 123.81625127 15.26178966 126.19653496 15.15136719 128.57617188 C15.05373647 130.78451565 14.98939226 132.99470297 14.96582031 135.20507812 C14.87048959 137.93789221 14.712408 140.36024511 14 143 C11.2890625 145.4296875 11.2890625 145.4296875 7.625 146.875 C6.96959229 147.14199707 6.31418457 147.40899414 5.63891602 147.68408203 C-18.11562396 156.93133568 -47.03748652 161.12257531 -70.953125 150.71484375 C-88.06741303 142.1337971 -100.39159045 127.10830267 -106.66845703 109.08007812 C-107.93638504 105.09258008 -109.00314023 101.06247154 -110 97 C-110.1757959 96.40767578 -110.3515918 95.81535156 -110.53271484 95.20507812 C-111.64046421 89.97770493 -111.22867614 84.44530304 -111.25 79.125 C-111.270625 77.8771875 -111.29125 76.629375 -111.3125 75.34375 C-111.36179707 63.43850859 -109.47261023 52.21407024 -104.75 41.25 C-104.44626465 40.53320068 -104.1425293 39.81640137 -103.82958984 39.07788086 C-96.41962971 22.17331218 -82.25849172 7.23299781 -65.265625 -0.1953125 C-43.96116776 -8.31989365 -21.51063097 -6.13955728 0 0 Z " fill="#1E2027" transform="translate(622,490)"/>
<path d="M0 0 C41.58 0 83.16 0 126 0 C126.58925223 14.73130564 127.15784525 29.28531466 127 44 C125.35 44 123.7 44 122 44 C121.64808594 43.10539063 121.29617188 42.21078125 120.93359375 41.2890625 C116.3614835 30.09157056 111.52029506 19.36423584 99.98046875 14.07421875 C95.58137693 12.40177123 91.38584324 11.76879443 86.69921875 11.421875 C85.62889404 11.3403418 84.55856934 11.25880859 83.45581055 11.17480469 C82.64539307 11.11711914 81.83497559 11.05943359 81 11 C81.03718608 27.19450667 81.09707514 43.3887461 81.18390274 59.5830555 C81.22369165 67.10257443 81.25608483 74.62198874 81.27099609 82.14160156 C81.28401346 88.69663755 81.31098001 95.25144331 81.35461307 101.80634964 C81.37722635 105.2763441 81.39291079 108.74605462 81.39188385 112.2161293 C81.3909983 116.09240274 81.42125901 119.9680967 81.45410156 123.84423828 C81.4490712 124.99150894 81.44404083 126.1387796 81.43885803 127.32081604 C81.51966239 133.47730127 81.73252799 137.39433361 86 142 C89.91561358 144.06459625 93.62781244 145.33754734 98 146 C98 148.64 98 151.28 98 154 C75.23 154 52.46 154 29 154 C29 151.36 29 148.72 29 146 C29.66386719 145.82984375 30.32773437 145.6596875 31.01171875 145.484375 C36.14269378 144.07616579 40.13937572 142.86062428 44 139 C45.24742968 136.50514065 45.13863155 134.80652974 45.15821838 132.01400757 C45.17290161 130.43222969 45.17290161 130.43222969 45.18788147 128.8184967 C45.19363693 127.65684494 45.1993924 126.49519318 45.20532227 125.29833984 C45.21522186 124.07885147 45.22512146 122.8593631 45.23532104 121.60292053 C45.2615435 118.25397739 45.28339119 114.90505854 45.30332303 111.55607557 C45.325167 108.05799747 45.35256345 104.55996305 45.37937927 101.06192017 C45.4293277 94.43568317 45.47425853 87.80942196 45.51740164 81.18313754 C45.56675566 73.64027965 45.62168058 66.09746559 45.67708123 58.55465007 C45.79093426 43.03647386 45.89776605 27.51825737 46 12 C43.61482137 12.10794542 41.23167321 12.22971965 38.84765625 12.359375 C37.84442322 12.40263916 37.84442322 12.40263916 36.82092285 12.44677734 C28.05089752 12.95083261 21.21123319 16.91116071 15 23 C13.25913274 25.18985412 11.77687048 27.49378381 10.3125 29.875 C9.93544922 30.46152344 9.55839844 31.04804687 9.16992188 31.65234375 C6.66646215 35.62816984 4.75514504 39.6427828 3 44 C0.69 44 -1.62 44 -4 44 C-3.71388046 40.04124633 -3.41998647 36.08310203 -3.125 32.125 C-3.04636719 31.03574219 -2.96773438 29.94648437 -2.88671875 28.82421875 C-2.16126122 19.17005311 -1.07142432 9.64281888 0 0 Z " fill="#212228" transform="translate(381,489)"/>
<path d="M0 0 C10.53615394 8.29697132 18.37502548 22.67948521 20 36 C20 38.64 20 41.28 20 44 C-15.97 44 -51.94 44 -89 44 C-89 28.54749015 -84.53180243 15.75013498 -73.9375 4.25 C-52.95496366 -15.4435068 -23.31581258 -16.17341344 0 0 Z " fill="#F5F1E8" transform="translate(543,365)"/>
<path d="M0 0 C0.33 0 0.66 0 1 0 C1.09276718 0.61702286 1.18553436 1.23404572 1.28111267 1.86976624 C5.93557944 32.8054348 10.71383929 63.71214366 15.81616211 94.57763672 C18.40090664 110.22980745 20.87720825 125.89534656 23.23706055 141.58300781 C23.3508757 142.33578506 23.46469086 143.08856232 23.58195496 143.864151 C23.88263984 145.855366 24.1806901 147.84697836 24.47851562 149.83862305 C24.88153932 152.28185983 25.37873579 154.6089102 26 157 C26.55373963 162.30798986 26.88711668 166.54054998 24.0625 171.1875 C19.90208728 173.64978508 16.69267645 173.38170096 12 173 C12.01572556 172.07123047 12.03145111 171.14246094 12.0476532 170.18554688 C12.1500464 159.22673457 11.51195025 148.42022528 10.64453125 137.5 C10.50062435 135.63361547 10.35718311 133.76719499 10.21417236 131.90074158 C9.83320799 126.95187232 9.44417176 122.00366989 9.05318069 117.05558395 C8.8116371 113.98904495 8.57270348 110.92231388 8.33468628 107.85549927 C6.22004897 80.61096658 4.00214172 53.37877331 1.4230957 26.17382812 C1.32526794 25.12731583 1.22744019 24.08080353 1.12664795 23.00257874 C0.94984571 21.11711686 0.7692781 19.23200112 0.58355713 17.34739685 C0.04045123 11.54980119 -0.09454492 5.82165314 0 0 Z " fill="#EDC246" transform="translate(688,531)"/>
<path d="M0 0 C71.28 0 142.56 0 216 0 C211.66194767 2.16902616 208.5486748 2.29021242 203.85028076 2.2784729 C203.02198549 2.2842653 202.19369021 2.2900577 201.34029508 2.29602563 C198.56113399 2.31304894 195.78213873 2.31590414 193.00292969 2.31884766 C191.01221305 2.32814422 189.02150032 2.33831248 187.03079224 2.34928894 C181.62211899 2.37663361 176.21347185 2.3917516 170.80474758 2.40471697 C165.15391984 2.42032796 159.50314557 2.44712464 153.85235596 2.4727478 C143.14980393 2.5195716 132.44724188 2.55629829 121.74463964 2.58942068 C109.5609488 2.62761662 97.37731162 2.6770334 85.19366598 2.72740483 C60.1291504 2.83077825 35.06460037 2.92002106 10 3 C10.66 3.66 11.32 4.32 12 5 C7.61110675 4.33501617 4.0188515 2.81242323 0 1 C0 0.67 0 0.34 0 0 Z " fill="#FCFBF7" transform="translate(497,722)"/>
<path d="M0 0 C2 3 2 3 0 15 C34.32 15 68.64 15 104 15 C104 12.69 104 10.38 104 8 C104.66 7.01 105.32 6.02 106 5 C107.15136852 9.60547409 107 12.93994143 107 18 C71.03 18 35.06 18 -2 18 C-2 10.78070863 -1.93824084 6.54156284 0 0 Z " fill="#E7E5E1" transform="translate(456,391)"/>
<path d="M0 0 C0.33 0 0.66 0 1 0 C2.03525034 6.32826264 3.04789956 12.65985899 4.0456543 18.99414062 C4.38693639 21.14404046 4.73319408 23.29315707 5.0847168 25.44140625 C8.82848526 48.36200293 8.82848526 48.36200293 7 58 C6.01 57.67 5.02 57.34 4 57 C3.91435791 55.89599854 3.82871582 54.79199707 3.74047852 53.65454102 C3.41954761 49.52258755 3.09665322 45.3907894 2.77319336 41.2590332 C2.63399335 39.47749887 2.49531179 37.69592394 2.35717773 35.91430664 C2.15748244 33.33989551 1.95586603 30.76564061 1.75390625 28.19140625 C1.6934462 27.40665421 1.63298615 26.62190216 1.57069397 25.81336975 C1.20487314 21.17795027 0.74856734 16.56276852 0.20178223 11.94506836 C-0.0585855 9.43526835 -0.09801816 6.95928903 -0.0625 4.4375 C-0.05347656 3.59058594 -0.04445313 2.74367188 -0.03515625 1.87109375 C-0.02355469 1.25363281 -0.01195312 0.63617187 0 0 Z " fill="#E0C245" transform="translate(688,531)"/>
<path d="M0 0 C0.99 0.495 0.99 0.495 2 1 C4.47189082 1.09284346 6.91531511 1.12583159 9.38720703 1.11352539 C10.14827759 1.11367142 10.90934814 1.11381744 11.69348145 1.1139679 C14.21495389 1.11326993 16.73635292 1.10548294 19.2578125 1.09765625 C21.00373291 1.09579166 22.74965384 1.09436795 24.49557495 1.09336853 C29.09545328 1.08954659 33.69530014 1.07971905 38.29516602 1.06866455 C42.9871376 1.05844349 47.67911425 1.05386942 52.37109375 1.04882812 C61.58074301 1.03809651 70.79036889 1.02102394 80 1 C80 1.33 80 1.66 80 2 C54.59 2 29.18 2 3 2 C3 6.29 3 10.58 3 15 C3 15.99 3 16.98 3 18 C0.54394629 15.44725126 0.01197061 14.14109357 -0.29296875 10.546875 C-0.25816406 9.29390625 -0.22335937 8.0409375 -0.1875 6.75 C-0.16042969 5.48671875 -0.13335938 4.2234375 -0.10546875 2.921875 C-0.07066406 1.95765625 -0.03585937 0.9934375 0 0 Z " fill="#DCAC42" transform="translate(583,430)"/>
<path d="M0 0 C1.31806641 0.00193359 2.63613281 0.00386719 3.99414062 0.00585938 C5.02027466 0.01516479 5.02027466 0.01516479 6.06713867 0.0246582 C8.14970191 0.04287729 10.23181858 0.0451679 12.31445312 0.04492188 C23.42008948 0.09374978 23.42008948 0.09374978 28.22265625 1.23046875 C28.22265625 1.56046875 28.22265625 1.89046875 28.22265625 2.23046875 C20.76670226 3.14132552 13.41714417 3.38342774 5.91015625 3.35546875 C4.32364258 3.36126953 4.32364258 3.36126953 2.70507812 3.3671875 C1.68349609 3.36589844 0.66191406 3.36460937 -0.390625 3.36328125 C-1.30626221 3.36215332 -2.22189941 3.36102539 -3.1652832 3.35986328 C-5.79334451 3.22967611 -8.21475551 2.8129146 -10.77734375 2.23046875 C-7.17895469 -0.01929068 -4.18973571 -0.01429753 0 0 Z " fill="#292A2C" transform="translate(626.77734375,777.76953125)"/>
<path d="M0 0 C2.87996222 2.53297882 4.42956191 5.3983523 6.25 8.75 C9.26212691 14.02760372 12.48398753 17.98700872 17 22 C18.00575029 22.99421645 19.00750156 23.9925543 20 25 C11.66650675 22.72722911 6.96151042 14.81348947 2.578125 7.94140625 C2.05734375 7.30074219 1.5365625 6.66007813 1 6 C0.01 6 -0.98 6 -2 6 C-1.34 4.02 -0.68 2.04 0 0 Z " fill="#141425" transform="translate(554,602)"/>
<path d="M0 0 C0.66 0.33 1.32 0.66 2 1 C1.91902776 4.58425201 1.80619302 8.16681439 1.6875 11.75 C1.66494141 12.76578125 1.64238281 13.7815625 1.61914062 14.828125 C1.5659668 16.29765625 1.5659668 16.29765625 1.51171875 17.796875 C1.48553467 18.69760742 1.45935059 19.59833984 1.43237305 20.52636719 C0.92987939 23.4011643 -0.09621932 24.82804998 -2 27 C-2.02717692 24.93757383 -2.0464758 22.87504297 -2.0625 20.8125 C-2.07410156 19.66394531 -2.08570312 18.51539063 -2.09765625 17.33203125 C-2.01150172 14.39243858 -1.60667623 11.86140994 -1 9 C-0.95982704 7.58390305 -0.95676315 6.16600672 -1 4.75 C-1 1 -1 1 0 0 Z " fill="#EAE7E3" transform="translate(83,466)"/>
<path d="M0 0 C9.24 0 18.48 0 28 0 C28 0.66 28 1.32 28 2 C25.59940183 3.20029908 24.10639351 3.11459743 21.4296875 3.09765625 C20.53378906 3.09443359 19.63789063 3.09121094 18.71484375 3.08789062 C17.77769531 3.07951172 16.84054687 3.07113281 15.875 3.0625 C14.93011719 3.05798828 13.98523438 3.05347656 13.01171875 3.04882812 C10.67441613 3.03702357 8.33723939 3.02055759 6 3 C6 2.67 6 2.34 6 2 C3.03 1.505 3.03 1.505 0 1 C0 0.67 0 0.34 0 0 Z " fill="#D5D3CB" transform="translate(264,718)"/>
<path d="M0 0 C3.63 0 7.26 0 11 0 C10.67 5.28 10.34 10.56 10 16 C9.67 16 9.34 16 9 16 C8.34 11.05 7.68 6.1 7 1 C5.02 1 3.04 1 1 1 C0.67 1.99 0.34 2.98 0 4 C0 2.68 0 1.36 0 0 Z " fill="#100F23" transform="translate(627,595)"/>
<path d="M0 0 C2.31243792 -0.02685412 4.6249627 -0.04632841 6.9375 -0.0625 C8.22527344 -0.07410156 9.51304687 -0.08570313 10.83984375 -0.09765625 C14 0 14 0 15 1 C16.84891946 1.23363881 18.70488031 1.41303635 20.5625 1.5625 C21.57441406 1.64628906 22.58632813 1.73007812 23.62890625 1.81640625 C24.80259766 1.90728516 24.80259766 1.90728516 26 2 C26 2.33 26 2.66 26 3 C22.41682042 3.08720919 18.83391433 3.14046112 15.25 3.1875 C14.23421875 3.21263672 13.2184375 3.23777344 12.171875 3.26367188 C11.1921875 3.27333984 10.2125 3.28300781 9.203125 3.29296875 C7.85202637 3.31653442 7.85202637 3.31653442 6.47363281 3.34057617 C3.54691237 2.93761772 2.18658651 1.9344597 0 0 Z " fill="#ECEAE6" transform="translate(484,917)"/>
<path d="M0 0 C2.27024968 -0.08097324 4.54132075 -0.13917704 6.8125 -0.1875 C8.07707031 -0.22230469 9.34164063 -0.25710938 10.64453125 -0.29296875 C14 0 14 0 17 3 C11.06 3 5.12 3 -1 3 C-0.67 2.01 -0.34 1.02 0 0 Z " fill="#282A2D" transform="translate(500,333)"/>
<path d="M0 0 C6.258654 -0.5326514 10.45108785 1.18150494 16 4 C15.01 4.66 14.02 5.32 13 6 C12.34 5.67 11.68 5.34 11 5 C11 4.34 11 3.68 11 3 C7.7 3 4.4 3 1 3 C0.67 2.01 0.34 1.02 0 0 Z " fill="#E8E6E1" transform="translate(508,293)"/>
<path d="M0 0 C2.96426799 0.59601127 5.53352783 1.0625 8.5625 1.0625 C8.5625 2.0525 8.5625 3.0425 8.5625 4.0625 C6.64460287 3.77903722 4.72820817 3.4853972 2.8125 3.1875 C1.74515625 3.02507813 0.6778125 2.86265625 -0.421875 2.6953125 C-3.11458871 2.13026118 -5.07322439 1.42827086 -7.4375 0.0625 C-4.65602723 -1.32823638 -3.01968804 -0.61356211 0 0 Z " fill="#E4E3E0" transform="translate(422.4375,907.9375)"/>
<path d="M0 0 C0.66 0.33 1.32 0.66 2 1 C-4.07439825 7.70459519 -4.07439825 7.70459519 -7.9375 8.9375 C-8.9584375 8.9684375 -8.9584375 8.9684375 -10 9 C-8.77946141 5.33838422 -7.63217696 4.83729526 -4.4375 2.8125 C-3.61121094 2.28269531 -2.78492188 1.75289062 -1.93359375 1.20703125 C-1.29550781 0.80871094 -0.65742187 0.41039062 0 0 Z " fill="#F1F0ED" transform="translate(776,740)"/>
<path d="M0 0 C4.9723422 1.49170266 9.41845739 3.60457417 14 6 C13.01 6.66 12.02 7.32 11 8 C7.37 6.02 3.74 4.04 0 2 C0 1.34 0 0.68 0 0 Z " fill="#E4E2DF" transform="translate(476,735)"/>
<path d="M0 0 C0.33 0 0.66 0 1 0 C1.33 2.64 1.66 5.28 2 8 C2.33 8 2.66 8 3 8 C3 9.98 3 11.96 3 14 C2.34 14 1.68 14 1 14 C1 15.98 1 17.96 1 20 C0.67 20 0.34 20 0 20 C0 13.4 0 6.8 0 0 Z " fill="#EDEAE1" transform="translate(919,487)"/>
<path d="M0 0 C0.99 0 1.98 0 3 0 C2.91214662 1.41777182 2.80395353 2.83429039 2.6875 4.25 C2.62949219 5.03890625 2.57148437 5.8278125 2.51171875 6.640625 C1.9150147 9.39184062 0.81336211 10.88035957 -1 13 C-1.02708567 11.39592672 -1.04643483 9.7917215 -1.0625 8.1875 C-1.07410156 7.29417969 -1.08570313 6.40085937 -1.09765625 5.48046875 C-1 3 -1 3 0 0 Z " fill="#E7B545" transform="translate(697,602)"/>
<path d="M0 0 C2.1640625 0.0234375 2.1640625 0.0234375 4.625 0.375 C5.85089844 0.54128906 5.85089844 0.54128906 7.1015625 0.7109375 C7.72804688 0.80632813 8.35453125 0.90171875 9 1 C9 1.66 9 2.32 9 3 C10.32 3 11.64 3 13 3 C13 3.66 13 4.32 13 5 C8.05 4.01 3.1 3.02 -2 2 C-1.34 1.34 -0.68 0.68 0 0 Z " fill="#E8E6E3" transform="translate(540,820)"/>
<path d="M0 0 C1.6274637 0.61855631 3.25190356 1.24507305 4.875 1.875 C5.77992188 2.22304688 6.68484375 2.57109375 7.6171875 2.9296875 C10 4 10 4 12 6 C9 7 9 7 6.73828125 6.00390625 C5.93777344 5.52824219 5.13726562 5.05257812 4.3125 4.5625 C3.50425781 4.08941406 2.69601562 3.61632812 1.86328125 3.12890625 C1.24839844 2.75636719 0.63351562 2.38382813 0 2 C0 1.34 0 0.68 0 0 Z " fill="#EAE9E6" transform="translate(378,766)"/>
<path d="M0 0 C0.99 0 1.98 0 3 0 C3.042721 1.66611905 3.04063832 3.33382885 3 5 C2.67 5.33 2.34 5.66 2 6 C1.95936168 7.66617115 1.957279 9.33388095 2 11 C1.01 11 0.02 11 -1 11 C-0.67 7.37 -0.34 3.74 0 0 Z " fill="#2D2E31" transform="translate(317,536)"/>
<path d="M0 0 C4.75 0.875 4.75 0.875 7 2 C7 2.66 7 3.32 7 4 C8.32 4.66 9.64 5.32 11 6 C6.61110675 5.33501617 3.0188515 3.81242323 -1 2 C-0.67 1.34 -0.34 0.68 0 0 Z " fill="#141518" transform="translate(344,904)"/>
<path d="M0 0 C0 0.33 0 0.66 0 1 C2.97 1.495 2.97 1.495 6 2 C6 2.33 6 2.66 6 3 C1.38 3 -3.24 3 -8 3 C-8.33 2.34 -8.66 1.68 -9 1 C-6.04335481 -0.4783226 -3.25770263 -0.06032783 0 0 Z " fill="#2D3034" transform="translate(624,759)"/>
<path d="M0 0 C0.99 0 1.98 0 3 0 C2.67 2.97 2.34 5.94 2 9 C1.01 9.33 0.02 9.66 -1 10 C-0.67 6.7 -0.34 3.4 0 0 Z " fill="#EAE8E3" transform="translate(935,585)"/>
<path d="M0 0 C0.66 0.33 1.32 0.66 2 1 C1.67 2.98 1.34 4.96 1 7 C1.66 7 2.32 7 3 7 C3 8.65 3 10.3 3 12 C2.01 11.67 1.02 11.34 0 11 C-0.19406478 9.35492782 -0.38007935 7.70890406 -0.5625 6.0625 C-0.66691406 5.14597656 -0.77132812 4.22945313 -0.87890625 3.28515625 C-0.91886719 2.53105469 -0.95882812 1.77695312 -1 1 C-0.67 0.67 -0.34 0.34 0 0 Z " fill="#E6E5E1" transform="translate(696,457)"/>
<path d="M0 0 C0.33 0 0.66 0 1 0 C1 2.64 1 5.28 1 8 C0.34 8 -0.32 8 -1 8 C-1.33 9.98 -1.66 11.96 -2 14 C-2.66 14 -3.32 14 -4 14 C-3.52188823 12.22888156 -3.0424722 10.45811517 -2.5625 8.6875 C-2.29566406 7.70136719 -2.02882813 6.71523438 -1.75390625 5.69921875 C-1.21920575 3.78482474 -0.62855462 1.88566385 0 0 Z " fill="#E9E8E6" transform="translate(125,375)"/>
<path d="M0 0 C0 0.66 0 1.32 0 2 C-2.8125 4.6875 -2.8125 4.6875 -6 7 C-6.99 6.67 -7.98 6.34 -9 6 C-8.07213211 4.99105628 -7.13231567 3.99309093 -6.1875 3 C-5.66542969 2.443125 -5.14335938 1.88625 -4.60546875 1.3125 C-3 0 -3 0 0 0 Z " fill="#E5E4DE" transform="translate(829,804)"/>
<path d="M0 0 C0 0.99 0 1.98 0 3 C-4.62 3 -9.24 3 -14 3 C-14 2.67 -14 2.34 -14 2 C-12.22978678 1.663389 -10.45880326 1.33082707 -8.6875 1 C-7.70136719 0.814375 -6.71523438 0.62875 -5.69921875 0.4375 C-3 0 -3 0 0 0 Z " fill="#E9E8E5" transform="translate(696,774)"/>
<path d="M0 0 C0.99 0 1.98 0 3 0 C2.67 3.63 2.34 7.26 2 11 C-0.10814567 6.78370866 -0.17700355 4.60209225 0 0 Z " fill="#E9E8E4" transform="translate(313,547)"/>
<path d="M0 0 C0.33 0 0.66 0 1 0 C1.33 4.29 1.66 8.58 2 13 C1.01 12.67 0.02 12.34 -1 12 C-0.67 8.04 -0.34 4.08 0 0 Z " fill="#2D2929" transform="translate(379,507)"/>
<path d="M0 0 C1.32 0.33 2.64 0.66 4 1 C3.67 1.33 3.34 1.66 3 2 C3.020625 3.093125 3.04125 4.18625 3.0625 5.3125 C3 9 3 9 1 13 C0.67 8.71 0.34 4.42 0 0 Z " fill="#E7E6E4" transform="translate(693,443)"/>
<path d="M0 0 C1.8871875 0.061875 1.8871875 0.061875 3.8125 0.125 C3.8125 1.115 3.8125 2.105 3.8125 3.125 C0.1825 2.795 -3.4475 2.465 -7.1875 2.125 C-4.09861478 0.06574319 -3.47814073 -0.1140374 0 0 Z " fill="#292B2E" transform="translate(454.1875,933.875)"/>
<path d="M0 0 C0 4.38968456 -2.12805101 5.76905739 -5 9 C-5.99 8.67 -6.98 8.34 -8 8 C-5.36 5.36 -2.72 2.72 0 0 Z " fill="#E0DFDC" transform="translate(223,220)"/>
<path d="M0 0 C0.33 0.66 0.66 1.32 1 2 C-0.98 4.31 -2.96 6.62 -5 9 C-5.66 8.34 -6.32 7.68 -7 7 C-4.69 4.69 -2.38 2.38 0 0 Z " fill="#E3E1DE" transform="translate(814,816)"/>
<path d="M0 0 C0.99 0 1.98 0 3 0 C3 0.66 3 1.32 3 2 C5.31 2 7.62 2 10 2 C10 2.99 10 3.98 10 5 C8.51793505 4.745504 7.03931385 4.47088238 5.5625 4.1875 C4.73878906 4.03667969 3.91507813 3.88585937 3.06640625 3.73046875 C2.38449219 3.48941406 1.70257812 3.24835937 1 3 C0.67 2.01 0.34 1.02 0 0 Z " fill="#EBE9E4" transform="translate(560,746)"/>
<path d="M0 0 C-3.22515763 1.73662334 -6.51329166 2.8905928 -10 4 C-10.33 3.01 -10.66 2.02 -11 1 C-3.375 -1.125 -3.375 -1.125 0 0 Z " fill="#E8E8E3" transform="translate(282,696)"/>
<path d="M0 0 C2 2 2 2 2.1953125 4.1640625 C2.16050781 5.38222656 2.16050781 5.38222656 2.125 6.625 C2.10695313 7.44226563 2.08890625 8.25953125 2.0703125 9.1015625 C2.04710938 9.72804688 2.02390625 10.35453125 2 11 C1.01 10.67 0.02 10.34 -1 10 C-1.125 3.375 -1.125 3.375 0 0 Z " fill="#2D2F33" transform="translate(85,541)"/>
<path d="M0 0 C0.66 0 1.32 0 2 0 C2.1953125 6.0546875 2.1953125 6.0546875 2 8 C1.34 8.66 0.68 9.32 0 10 C-0.19412181 8.52168779 -0.38012131 7.04230684 -0.5625 5.5625 C-0.66691406 4.73878906 -0.77132812 3.91507812 -0.87890625 3.06640625 C-0.91886719 2.38449219 -0.95882812 1.70257813 -1 1 C-0.67 0.67 -0.34 0.34 0 0 Z " fill="#E5E2DE" transform="translate(700,483)"/>
<path d="M0 0 C1.485 0.99 1.485 0.99 3 2 C3.375 5.5 3.375 5.5 3 9 C2.01 9.66 1.02 10.32 0 11 C0 7.37 0 3.74 0 0 Z " fill="#DEB444" transform="translate(665,464)"/>
<path d="M0 0 C0.33 0 0.66 0 1 0 C1 1.65 1 3.3 1 5 C2.65 5.33 4.3 5.66 6 6 C6 6.33 6 6.66 6 7 C4.00045254 7.04254356 1.99958364 7.04080783 0 7 C-1 6 -1 6 -1.125 3.5 C-1 1 -1 1 0 0 Z " fill="#E2E1DD" transform="translate(689,416)"/>
<path d="M0 0 C0 3.3 0 6.6 0 10 C-0.66 10 -1.32 10 -2 10 C-2.33 7.03 -2.66 4.06 -3 1 C-1 0 -1 0 0 0 Z " fill="#2C2E32" transform="translate(436,398)"/>
<path d="M0 0 C0.33 0.66 0.66 1.32 1 2 C-4.41538462 3.23076923 -4.41538462 3.23076923 -7.375 2.0625 C-7.91125 1.711875 -8.4475 1.36125 -9 1 C-6.04335481 -0.4783226 -3.25770263 -0.06032783 0 0 Z " fill="#EDEBE6" transform="translate(563,84)"/>
<path d="M0 0 C4.67692308 1.47692308 4.67692308 1.47692308 6.3125 4.125 C6.539375 4.74375 6.76625 5.3625 7 6 C4 6 4 6 1.8125 4.125 C0 2 0 2 0 0 Z " fill="#E0DEDA" transform="translate(224,800)"/>
<path d="M0 0 C0 0.66 0 1.32 0 2 C-0.99 2 -1.98 2 -3 2 C-3 2.66 -3 3.32 -3 4 C-5.375 4.625 -5.375 4.625 -8 5 C-8.66 4.34 -9.32 3.68 -10 3 C-8.70990357 2.49596232 -7.41786211 1.99690074 -6.125 1.5 C-5.04605469 1.08234375 -5.04605469 1.08234375 -3.9453125 0.65625 C-2 0 -2 0 0 0 Z " fill="#EBEBE6" transform="translate(735,762)"/>
<path d="M0 0 C0.33 0 0.66 0 1 0 C1.33 3.63 1.66 7.26 2 11 C1.01 11 0.02 11 -1 11 C-0.67 7.37 -0.34 3.74 0 0 Z " fill="#2E2F31" transform="translate(309,590)"/>
<path d="M0 0 C1.485 0.99 1.485 0.99 3 2 C3.3125 5 3.3125 5 3 8 C2.34 8.66 1.68 9.32 1 10 C0 9 0 9 -0.09765625 6.93359375 C-0.08605469 6.10988281 -0.07445313 5.28617188 -0.0625 4.4375 C-0.05347656 3.61121094 -0.04445313 2.78492188 -0.03515625 1.93359375 C-0.02355469 1.29550781 -0.01195313 0.65742187 0 0 Z " fill="#2D2F33" transform="translate(102,542)"/>
<path d="M0 0 C2.35333796 4.70667591 2.17102038 6.8693886 2 12 C1.01 11.67 0.02 11.34 -1 11 C-0.67 7.37 -0.34 3.74 0 0 Z " fill="#DCB943" transform="translate(341,517)"/>
<path d="M0 0 C0.33 0 0.66 0 1 0 C1.33 3.3 1.66 6.6 2 10 C1.01 10 0.02 10 -1 10 C-1.125 3.375 -1.125 3.375 0 0 Z " fill="#2B2D30" transform="translate(702,504)"/>
<path d="M0 0 C3.63 1.65 7.26 3.3 11 5 C7 6 7 6 3.8125 4.75 C1 3 1 3 0 0 Z " fill="#DFDFDD" transform="translate(574,323)"/>
<path d="M0 0 C3.63 1.65 7.26 3.3 11 5 C7 6 7 6 5.078125 5.22265625 C3.38541667 4.1484375 1.69270833 3.07421875 0 2 C0 1.34 0 0.68 0 0 Z " fill="#E3E2E1" transform="translate(474,819)"/>
<path d="M0 0 C1.27875 -0.061875 2.5575 -0.12375 3.875 -0.1875 C4.95394531 -0.23970703 4.95394531 -0.23970703 6.0546875 -0.29296875 C6.69664062 -0.19628906 7.33859375 -0.09960938 8 0 C8.66 0.99 9.32 1.98 10 3 C8.72125 3.061875 7.4425 3.12375 6.125 3.1875 C5.40570313 3.22230469 4.68640625 3.25710938 3.9453125 3.29296875 C3.30335938 3.19628906 2.66140625 3.09960938 2 3 C1.34 2.01 0.68 1.02 0 0 Z " fill="#EDEBE5" transform="translate(333,691)"/>
<path d="M0 0 C0.33 0 0.66 0 1 0 C1.33 3.63 1.66 7.26 2 11 C1.01 11 0.02 11 -1 11 C-0.67 7.37 -0.34 3.74 0 0 Z " fill="#DBB843" transform="translate(349,463)"/>
<path d="M0 0 C0.33 0 0.66 0 1 0 C1.33 3.3 1.66 6.6 2 10 C1.01 9.01 0.02 8.02 -1 7 C-0.6875 3.3125 -0.6875 3.3125 0 0 Z " fill="#E6E5E1" transform="translate(913,427)"/>
<path d="M0 0 C0.99 0 1.98 0 3 0 C2.67 3.3 2.34 6.6 2 10 C-0.4294516 6.3558226 -0.16179575 4.28758728 0 0 Z " fill="#2D2E33" transform="translate(728,397)"/>
<path d="M0 0 C1.25541557 3.76624671 0.37061958 5.37188934 -1 9 C-1.99 9 -2.98 9 -4 9 C-3.38461538 3.46153846 -3.38461538 3.46153846 -1.4375 1.125 C-0.963125 0.75375 -0.48875 0.3825 0 0 Z " fill="#25272C" transform="translate(101,390)"/>
<path d="M0 0 C0 0.99 0 1.98 0 3 C-3.375 3.625 -3.375 3.625 -7 4 C-7.66 3.34 -8.32 2.68 -9 2 C-2.25 0 -2.25 0 0 0 Z " fill="#E7E6E2" transform="translate(641,921)"/>
<path d="M0 0 C0.66 0.66 1.32 1.32 2 2 C-2.455 3.485 -2.455 3.485 -7 5 C-7 4.01 -7 3.02 -7 2 C-4.69 1.34 -2.38 0.68 0 0 Z " fill="#EAE8E5" transform="translate(738,738)"/>
<path d="M0 0 C2.31 0 4.62 0 7 0 C7.33 0.99 7.66 1.98 8 3 C5.125 3.1875 5.125 3.1875 2 3 C1.34 2.01 0.68 1.02 0 0 Z " fill="#2B2D30" transform="translate(286,737)"/>
<path d="M0 0 C0.99 0 1.98 0 3 0 C2.67 2.97 2.34 5.94 2 9 C-0.29013653 5.5647952 -0.17842973 4.014669 0 0 Z " fill="#E1DFDC" transform="translate(88,425)"/>
<path d="M0 0 C1.10191901 4.40767604 0.58706842 5.8922935 -1 10 C-1.66 9.67 -2.32 9.34 -3 9 C-2.01 6.03 -1.02 3.06 0 0 Z " fill="#E9E8E4" transform="translate(134,352)"/>
<path d="M0 0 C1.98 0 3.96 0 6 0 C6 0.99 6 1.98 6 3 C4.35 3 2.7 3 1 3 C0.67 2.01 0.34 1.02 0 0 Z " fill="#E5E4DF" transform="translate(513,331)"/>
<path d="M0 0 C0.33 0.99 0.66 1.98 1 3 C-0.65 3.66 -2.3 4.32 -4 5 C-4.66 4.34 -5.32 3.68 -6 3 C-4.02 2.01 -2.04 1.02 0 0 Z " fill="#27282B" transform="translate(702,873)"/>
<path d="M0 0 C0.78375 0.04125 1.5675 0.0825 2.375 0.125 C2.705 1.115 3.035 2.105 3.375 3.125 C0.735 2.795 -1.905 2.465 -4.625 2.125 C-2.625 0.125 -2.625 0.125 0 0 Z " fill="#E5E3DF" transform="translate(584.625,751.875)"/>
<path d="M0 0 C0.99 0.33 1.98 0.66 3 1 C3.33 2.98 3.66 4.96 4 7 C3.01 7.33 2.02 7.66 1 8 C0.67 5.36 0.34 2.72 0 0 Z " fill="#282B2E" transform="translate(112,605)"/>
<path d="M0 0 C2.17766075 4.35532149 2.03039555 5.46625958 1 10 C0.34 9.67 -0.32 9.34 -1 9 C-0.67 6.03 -0.34 3.06 0 0 Z " fill="#E0E0DC" transform="translate(110,430)"/>
<path d="M0 0 C4.455 1.98 4.455 1.98 9 4 C4.70600835 5.07349791 3.80504787 4.79682816 0 3 C0 2.01 0 1.02 0 0 Z " fill="#E9E7E4" transform="translate(623,348)"/>
<path d="M0 0 C0.99 0 1.98 0 3 0 C2.67 1.32 2.34 2.64 2 4 C1.34 4 0.68 4 0 4 C-0.33 4.99 -0.66 5.98 -1 7 C-1.66 6.67 -2.32 6.34 -3 6 C-2.01 4.02 -1.02 2.04 0 0 Z " fill="#E9E7E3" transform="translate(148,322)"/>
<path d="M0 0 C-1.1875 1.5 -1.1875 1.5 -3 3 C-5.6875 3.1875 -5.6875 3.1875 -8 3 C-8.33 2.34 -8.66 1.68 -9 1 C-5.92677456 0.08941469 -3.19902639 -0.08886184 0 0 Z " fill="#E3E3E1" transform="translate(419,115)"/>
<path d="M0 0 C2.31 0 4.62 0 7 0 C7 0.66 7 1.32 7 2 C4.36 2.33 1.72 2.66 -1 3 C-0.67 2.01 -0.34 1.02 0 0 Z " fill="#EAE8E3" transform="translate(468,106)"/>
</svg>
