<?xml version="1.0" encoding="UTF-8"?>
<svg version="1.1" xmlns="http://www.w3.org/2000/svg" width="1024" height="1024">
<path d="M0 0 C337.92 0 675.84 0 1024 0 C1024 337.92 1024 675.84 1024 1024 C686.08 1024 348.16 1024 0 1024 C0 686.08 0 348.16 0 0 Z " fill="#F9F8F7" transform="translate(0,0)"/>
<path d="M0 0 C29.76077099 25.81657243 50.51302731 62.07907547 54.45410156 101.6796875 C55.64555169 120.11832215 55.95424654 139.66707512 51.45410156 157.6796875 C51.14811035 158.93724854 51.14811035 158.93724854 50.8359375 160.22021484 C47.838807 172.23709398 43.89760236 183.56067735 38.45410156 194.6796875 C38.15810059 195.30004883 37.86209961 195.92041016 37.55712891 196.55957031 C19.7428779 233.57394598 -14.23994256 261.02600305 -52.54589844 274.6796875 C-58.79272636 276.72449868 -65.12341964 278.29654933 -71.54589844 279.6796875 C-72.28710938 279.84339844 -73.02832031 280.00710938 -73.79199219 280.17578125 C-112.71619637 288.45316035 -155.06574604 280.38165466 -188.65527344 259.2734375 C-194.95476003 255.15286153 -200.83458141 250.5765356 -206.54589844 245.6796875 C-207.1026123 245.20273437 -207.65932617 244.72578125 -208.23291016 244.234375 C-236.88881834 219.37543696 -255.5349999 185.11268096 -261.54589844 147.6796875 C-261.6615918 146.96506348 -261.77728516 146.25043945 -261.89648438 145.51416016 C-264.47338609 128.8560581 -264.23924304 112.30001018 -261.54589844 95.6796875 C-261.36285156 94.49503906 -261.17980469 93.31039062 -260.99121094 92.08984375 C-255.3916466 60.25528355 -239.98298895 32.62027513 -217.54589844 9.6796875 C-216.82273438 8.89464844 -216.09957031 8.10960937 -215.35449219 7.30078125 C-204.35586829 -4.36569078 -190.7248804 -13.04519537 -176.54589844 -20.3203125 C-175.93423828 -20.63838867 -175.32257813 -20.95646484 -174.69238281 -21.28417969 C-119.12594281 -49.84330057 -47.26712701 -40.36964985 0 0 Z " fill="#01B1A7" transform="translate(349.5458984375,352.3203125)"/>
<path d="M0 0 C27.71070291 24.25765582 44.98307918 59.06463677 47.5078125 95.8828125 C49.37800415 137.05642276 37.44501454 177.00485235 9.5078125 207.8828125 C7.27497604 204.53355782 7.15565959 203.02139807 6.8671875 199.07421875 C6.76929932 197.87063721 6.67141113 196.66705566 6.57055664 195.42700195 C6.41574829 193.45606567 6.41574829 193.45606567 6.2578125 191.4453125 C5.23429305 179.42159416 3.6319191 167.5834705 1.5703125 155.6953125 C1.43938202 154.93803864 1.30845154 154.18076477 1.17355347 153.40054321 C0.65100067 150.37966434 0.12834766 147.35880346 -0.39585876 144.33821106 C-1.61173415 137.28703327 -2.67549817 130.21720949 -3.6796875 123.1328125 C-3.92041992 121.45264038 -3.92041992 121.45264038 -4.16601562 119.73852539 C-4.94366198 114.20023542 -5.63958548 108.66341033 -6.2265625 103.1015625 C-6.34620361 102.01198242 -6.46584473 100.92240234 -6.58911133 99.79980469 C-6.80783725 97.76588884 -7.00966533 95.73004499 -7.19018555 93.69238281 C-7.85849656 87.49860111 -9.07788547 82.47404956 -13.4921875 77.8828125 C-16.6034951 75.68711513 -19.88818649 74.16246898 -23.3671875 72.6328125 C-24.35372314 72.1788208 -25.34025879 71.7248291 -26.35668945 71.25708008 C-36.25686506 66.79405445 -46.40178045 62.89787727 -56.57958984 59.11816406 C-77.22106834 51.4170549 -77.22106834 51.4170549 -84.4921875 44.8828125 C-84.4921875 44.2228125 -84.4921875 43.5628125 -84.4921875 42.8828125 C-85.1521875 42.8828125 -85.8121875 42.8828125 -86.4921875 42.8828125 C-86.4921875 42.2228125 -86.4921875 41.5628125 -86.4921875 40.8828125 C-85.4196875 40.4909375 -84.3471875 40.0990625 -83.2421875 39.6953125 C-78.72930352 37.7118272 -76.49375967 35.30903474 -74.5859375 30.6875 C-71.976599 22.9802872 -71.04030844 15.71432416 -74.2421875 8.0703125 C-77.71558876 1.21999334 -81.38193797 -2.28419745 -88.4921875 -5.1171875 C-97.78274135 -8.04594247 -107.97920685 -6.52326694 -116.4921875 -2.1171875 C-121.25353052 0.98727791 -124.69433996 4.38351414 -126.4921875 9.8828125 C-127.00135564 15.05661782 -127.14499921 19.2958791 -124.4921875 23.8828125 C-121.0271875 23.3878125 -121.0271875 23.3878125 -117.4921875 22.8828125 C-117.32203125 22.29113281 -117.151875 21.69945312 -116.9765625 21.08984375 C-115.1004152 14.97240602 -113.27825775 10.76179011 -107.8046875 7.0703125 C-102.11766427 5.03156832 -97.43838291 5.30852533 -91.6796875 7.0078125 C-87.86529737 9.2515714 -86.31949813 10.84750153 -84.4921875 14.8828125 C-84.31472048 19.14202105 -85.10187517 22.297344 -87.4921875 25.8828125 C-89.515625 26.25390625 -89.515625 26.25390625 -91.8671875 26.3203125 C-94.88805593 26.58700233 -96.30367402 26.76680421 -98.9296875 28.3828125 C-100.58818082 31.03640182 -100.60980552 32.06051912 -100.8671875 35.0703125 C-101.54791715 38.44651196 -102.27729367 39.69144463 -104.8828125 42.01171875 C-108.6637145 44.49122332 -112.53693381 46.69697109 -116.4921875 48.8828125 C-118.22956358 49.88212275 -119.96651944 50.88216383 -121.703125 51.8828125 C-132.99264698 58.28004615 -144.55906229 63.91573489 -156.4296875 69.1328125 C-157.06753174 69.4172522 -157.70537598 69.70169189 -158.36254883 69.99475098 C-165.52852547 73.1740223 -171.66731033 75.37668595 -179.4921875 75.8828125 C-182.66676542 77.7065062 -184.08118154 78.92409091 -185.52197266 82.28491211 C-186.89832025 87.38889664 -187.46078207 92.51845667 -188.078125 97.76171875 C-188.37239543 100.15299484 -188.66666628 102.54427088 -188.9609375 104.93554688 C-189.4124003 108.66668259 -189.86151766 112.398092 -190.30957031 116.12963867 C-191.86965554 129.05741812 -193.53330064 141.87812763 -196.10015869 154.64805603 C-197.71030971 162.72566018 -198.72076637 170.82479612 -199.6171875 179.0078125 C-200.62583871 188.02486074 -201.70221778 196.98000649 -203.4921875 205.8828125 C-204.1521875 205.8828125 -204.8121875 205.8828125 -205.4921875 205.8828125 C-207.42884452 203.63359374 -209.22212113 201.38428539 -210.9921875 199.0078125 C-211.52537598 198.29254395 -212.05856445 197.57727539 -212.60791016 196.84033203 C-218.36037112 188.94288562 -223.09248877 180.59388734 -227.4921875 171.8828125 C-228.06710938 170.74714844 -228.64203125 169.61148438 -229.234375 168.44140625 C-244.87852117 134.76191022 -246.00986928 94.18228682 -233.97924805 59.29541016 C-220.8993416 23.61564081 -194.37375146 -5.22168443 -160.4921875 -22.1171875 C-106.11748001 -47.16225642 -45.3182739 -38.49922328 0 0 Z " fill="#F9F8F7" transform="translate(342.4921875,366.1171875)"/>
<path d="M0 0 C3 1 3 1 4.89115906 3.52404785 C9.77654433 7.41488061 14.67186447 6.68108753 20.74145508 6.61523438 C22.68374245 6.62355789 22.68374245 6.62355789 24.66526794 6.63204956 C28.21113422 6.64628299 31.75622357 6.62924859 35.30201554 6.60576439 C39.01918608 6.58562495 42.7363253 6.59153677 46.45353699 6.59387207 C52.69872811 6.59381851 58.94361659 6.5740745 65.1887207 6.54199219 C72.39545928 6.50514824 79.60180077 6.49631014 86.80862123 6.5032897 C93.75356363 6.50961059 100.69837069 6.49880805 107.64328575 6.47932434 C110.59245428 6.47117737 113.54155337 6.46843582 116.49073219 6.47001648 C120.61747641 6.47106429 124.74370459 6.4468048 128.87036133 6.41992188 C130.08674286 6.42285248 131.30312439 6.42578308 132.55636597 6.42880249 C140.78449433 6.34625129 146.72565186 4.94027191 154 1 C155.76882226 11.41221615 157.24341627 21.81111468 158.375 32.3125 C159.41477433 41.88281231 160.84024209 51.33089445 162.5 60.8125 C165.06437824 75.4936374 166.66917338 90.16037163 168 105 C167.47325684 104.60312988 166.94651367 104.20625977 166.40380859 103.79736328 C158.2855857 97.69241501 150.748546 92.18811461 141 89 C140.0925 88.69964844 139.185 88.39929688 138.25 88.08984375 C112.32031545 80.83088258 90.46884278 89.52810287 68 102 C64.46640059 104.08634316 61.0087177 106.28262566 57.5546875 108.49731445 C37.58776206 121.26166455 15.58962064 126.96559711 -8.06640625 122.1015625 C-11.034329 121.41913041 -12.355959 120.762694 -15 119 C-15.29638672 117.13085938 -15.29638672 117.13085938 -15.1796875 114.84375 C-15.14061279 113.99594971 -15.10153809 113.14814941 -15.0612793 112.2746582 C-14.99980713 111.359021 -14.93833496 110.44338379 -14.875 109.5 C-14.81932861 108.55020264 -14.76365723 107.60040527 -14.70629883 106.62182617 C-14.1643511 98.48173049 -12.92984113 90.57601985 -11.45458984 82.56298828 C-10.5516853 77.4723911 -9.7824953 72.36024178 -9 67.25 C-8.82879639 66.13230225 -8.65759277 65.01460449 -8.48120117 63.86303711 C-5.25292603 42.62778466 -2.63177069 21.31553316 0 0 Z " fill="#FDCB33" transform="translate(168,455)"/>
<path d="M0 0 C5.41115321 4.19850577 7.90646751 9.36002753 10.03515625 15.74609375 C10.8220365 23.99320402 9.86515875 32.6117704 4.53515625 39.24609375 C2.03515625 41.74609375 2.03515625 41.74609375 -0.96484375 43.74609375 C-2.28484375 43.74609375 -3.60484375 43.74609375 -4.96484375 43.74609375 C-4.96484375 44.40609375 -4.96484375 45.06609375 -4.96484375 45.74609375 C-4.30484375 45.74609375 -3.64484375 45.74609375 -2.96484375 45.74609375 C-2.22790283 46.50059814 -1.49096191 47.25510254 -0.73168945 48.0324707 C7.31931566 55.92860781 20.10164947 59.45232517 30.54019165 63.25845337 C40.99316434 67.09074717 51.42334449 70.98392533 61.34765625 76.05859375 C62.08008545 76.41800049 62.81251465 76.77740723 63.56713867 77.14770508 C68.71812238 79.92035334 71.79148167 83.31413139 74.03515625 88.74609375 C74.90996415 92.30839704 75.27461238 95.84675965 75.59765625 99.49609375 C75.82684572 101.63569475 76.05872857 103.77500855 76.29296875 105.9140625 C76.4105957 107.02958496 76.52822266 108.14510742 76.64941406 109.29443359 C77.3037321 115.14933763 78.13398616 120.97766766 78.97265625 126.80859375 C79.14087891 127.98526611 79.30910156 129.16193848 79.48242188 130.37426758 C80.56612512 137.83399859 81.77795168 145.2622335 83.09765625 152.68359375 C85.83773694 168.15487904 88.08851964 183.59402841 89.53515625 199.24609375 C89.66100098 200.41043945 89.7868457 201.57478516 89.91650391 202.77441406 C90.5806944 210.78481092 90.5806944 210.78481092 88.984375 213.59765625 C87.62890625 214.96484375 87.62890625 214.96484375 85.03515625 216.74609375 C84.70515625 217.07609375 84.37515625 217.40609375 84.03515625 217.74609375 C78.96427705 218.48817363 76.10599344 216.94752691 71.96484375 214.328125 C70.03515625 212.74609375 70.03515625 212.74609375 68.171875 210.38671875 C61.50199024 202.143863 52.2036889 196.42650194 42.03515625 193.74609375 C41.01808594 193.45089844 40.00101563 193.15570312 38.953125 192.8515625 C19.59222724 187.7245533 5.7849259 193.01757598 -10.96484375 202.74609375 C-12.83066741 203.84946778 -14.69513259 204.95514068 -16.55859375 206.0625 C-53.50153007 227.98348579 -53.50153007 227.98348579 -73.96484375 228.74609375 C-75.145625 228.79765625 -76.32640625 228.84921875 -77.54296875 228.90234375 C-89.80517961 229.26237672 -104.07947062 228.80640077 -113.703125 220.3359375 C-114.55261719 219.46066406 -115.40210938 218.58539062 -116.27734375 217.68359375 C-117.13972656 216.80574219 -118.00210938 215.92789063 -118.890625 215.0234375 C-122.73410278 210.80357395 -122.207486 207.21831507 -121.96484375 201.74609375 C-121.65897846 198.60217749 -121.19963297 195.49192433 -120.71484375 192.37109375 C-120.58207031 191.48188232 -120.44929687 190.5926709 -120.3125 189.67651367 C-120.02271341 187.73790121 -119.73029368 185.79968092 -119.43554688 183.86181641 C-118.93955227 180.57868199 -118.45850488 177.29360787 -117.98046875 174.0078125 C-117.64210974 171.69137956 -117.30357039 169.37497296 -116.96484375 167.05859375 C-116.81112305 166.00430176 -116.65740234 164.95000977 -116.49902344 163.86376953 C-115.80299709 159.15370307 -115.09437728 154.44877466 -114.27734375 149.75805664 C-112.78687642 141.17777217 -111.51822155 132.59878189 -110.46484375 123.953125 C-110.34117432 122.94125626 -110.21750488 121.92938751 -110.09008789 120.88685608 C-109.58302393 116.71403226 -109.0802105 112.54078841 -108.58984375 108.3659668 C-108.22421187 105.2688077 -107.84547828 102.17347109 -107.46484375 99.078125 C-107.35849609 98.14265335 -107.25214844 97.2071817 -107.14257812 96.24336243 C-106.34216369 89.83547587 -105.27069606 84.3232228 -100.83984375 79.37109375 C-97.99936045 77.76560319 -96.91021438 77.53778245 -93.78833008 77.34521484 C-89.031242 76.88048011 -85.23493424 75.51144035 -80.9140625 73.53515625 C-80.18129089 73.21110306 -79.44851929 72.88704987 -78.69354248 72.55317688 C-76.33994309 71.50640454 -73.9958751 70.44019536 -71.65234375 69.37109375 C-70.45038864 68.82970261 -70.45038864 68.82970261 -69.22415161 68.27737427 C-57.47951448 62.9870964 -45.93181201 57.46761946 -34.85986328 50.85986328 C-33.06165199 49.80299135 -31.24088113 48.81306185 -29.3984375 47.8359375 C-24.22565307 45.12431148 -24.22565307 45.12431148 -21.04296875 40.49609375 C-20.56497482 38.14396248 -20.56497482 38.14396248 -20.3203125 35.83203125 C-19.96484375 33.74609375 -19.96484375 33.74609375 -17.90234375 30.74609375 C-13.99583583 28.08634368 -10.60844661 27.85737835 -5.96484375 27.74609375 C-4.17189714 23.31646095 -3.49385937 20.35517814 -4.96484375 15.74609375 C-8.43825297 11.52167714 -10.78377971 10.16465481 -16.04296875 9.47265625 C-21.25495984 9.22893005 -24.98202498 9.99951088 -29.31640625 12.98046875 C-31.90269689 15.75061891 -32.50956454 18.78178956 -33.19921875 22.44140625 C-34.16741073 25.35586169 -35.35265419 26.20720534 -37.96484375 27.74609375 C-40.52734375 28.24609375 -40.52734375 28.24609375 -42.96484375 27.74609375 C-45.80987643 24.80295649 -46.23968978 21.88291606 -46.46484375 17.93359375 C-46.23513006 11.492039 -43.75598277 7.4219466 -39.16796875 3.0234375 C-28.28212407 -5.83764007 -12.09460499 -7.71842585 0 0 Z M-92.96484375 91.74609375 C-93.06506836 92.57407471 -93.16529297 93.40205566 -93.26855469 94.25512695 C-95.2707715 110.72120363 -97.39947453 127.14979324 -99.88671875 143.55078125 C-100.71903233 149.0519029 -101.51371608 154.55758296 -102.29296875 160.06640625 C-102.46240746 161.26280983 -102.46240746 161.26280983 -102.63526917 162.48338318 C-103.08560518 165.66615604 -103.53541433 168.84899552 -103.98141479 172.03237915 C-104.29050854 174.23798822 -104.60210336 176.44323218 -104.9140625 178.6484375 C-105.09283936 179.92195068 -105.27161621 181.19546387 -105.45581055 182.50756836 C-105.96484375 185.74609375 -105.96484375 185.74609375 -106.51074219 187.87817383 C-107.07006001 190.1788946 -107.18030814 192.36554521 -107.28125 194.73046875 C-107.32314453 195.66503906 -107.36503906 196.59960938 -107.40820312 197.5625 C-107.44751953 198.53058594 -107.48683594 199.49867188 -107.52734375 200.49609375 C-107.57052734 201.47964844 -107.61371094 202.46320313 -107.65820312 203.4765625 C-107.76406427 205.8996065 -107.86614546 208.32274915 -107.96484375 210.74609375 C-95.49556486 217.57450838 -75.99995443 216.6315787 -62.40234375 213.24609375 C-50.78498847 209.78380822 -40.60703156 203.8371344 -30.40234375 197.43359375 C-23.47860143 193.09282562 -16.38717376 189.29769848 -9.02734375 185.74609375 C-8.09269287 185.28936279 -7.15804199 184.83263184 -6.19506836 184.36206055 C3.63317695 179.71637646 12.82354962 177.18393718 23.72265625 177.30859375 C25.15158203 177.32104126 25.15158203 177.32104126 26.609375 177.33374023 C44.61493774 177.75877074 61.26547515 183.73993707 74.03515625 196.74609375 C76.05146417 192.71347792 74.40871238 187.35389995 73.91015625 182.99609375 C73.77544922 181.7954126 73.64074219 180.59473145 73.50195312 179.35766602 C72.30342785 169.14050206 70.63882075 159.03089272 68.87695312 148.89819336 C67.27816529 139.5765599 66.07840062 130.25912591 65.06518555 120.85766602 C64.04052662 111.43036068 62.62306438 102.09335438 61.03515625 92.74609375 C60.5040625 93.02324219 59.97296875 93.30039062 59.42578125 93.5859375 C58.719375 93.94816406 58.01296875 94.31039062 57.28515625 94.68359375 C56.5890625 95.04324219 55.89296875 95.40289062 55.17578125 95.7734375 C51.25429373 97.55528128 47.79200819 97.87554263 43.50062561 97.8999939 C42.37485611 97.90859436 41.24908661 97.91719482 40.08920288 97.92605591 C38.24305893 97.93244583 38.24305893 97.93244583 36.35961914 97.93896484 C35.06008804 97.94714233 33.76055695 97.95531982 32.42164612 97.96374512 C28.11705584 97.98989899 23.81245613 98.00526106 19.5078125 98.01953125 C18.02452527 98.02489271 16.54123809 98.03027022 15.05795097 98.0356636 C8.88910927 98.05727809 2.72027013 98.076016 -3.44859982 98.087286 C-12.2848223 98.10353711 -21.12060599 98.13675882 -29.95666307 98.19368684 C-36.173331 98.23237328 -42.38988147 98.25191681 -48.60666662 98.25720656 C-52.31871107 98.26086041 -56.03028679 98.27288516 -59.74220085 98.3053093 C-63.88170431 98.34095343 -68.0202619 98.33702249 -72.15991211 98.32958984 C-74.00301971 98.35419785 -74.00301971 98.35419785 -75.88336182 98.37930298 C-84.24567624 98.31766696 -84.24567624 98.31766696 -88.07765198 95.27212524 C-88.70042526 94.43853485 -89.32319855 93.60494446 -89.96484375 92.74609375 C-90.95484375 92.41609375 -91.94484375 92.08609375 -92.96484375 91.74609375 Z " fill="#0E2B34" transform="translate(260.96484375,363.25390625)"/>
<path d="M0 0 C5.28 0 10.56 0 16 0 C16 32.01 16 64.02 16 97 C11.05 97 6.1 97 1 97 C0.505 92.545 0.505 92.545 0 88 C-0.66 88.9075 -1.32 89.815 -2 90.75 C-6.24209572 95.8622692 -12.45421127 98.54011476 -19.0078125 99.203125 C-27.78658709 99.39748901 -34.50393711 97.65507655 -41.3125 91.9375 C-50.11993206 83.42042284 -53.14290321 73.17592466 -53.375 61.1875 C-53.35421383 50.60122599 -50.35590174 41.72878155 -43 34 C-36.11803346 27.71770689 -28.99486323 24.31941253 -19.5859375 24.65234375 C-11.16156871 25.78492505 -7.06244249 28.93755751 -1 35 C-0.67 23.45 -0.34 11.9 0 0 Z " fill="#01B1A6" transform="translate(671,428)"/>
<path d="M0 0 C5.43088642 4.4653955 9.04286772 9.47709812 10.8125 16.3125 C11.08375852 20.22816348 11.04515316 24.13129554 11.0078125 28.0546875 C11.0049826 29.17819611 11.00215271 30.30170471 10.99923706 31.45925903 C10.98807303 35.03544927 10.96297501 38.6113859 10.9375 42.1875 C10.92746533 44.61718387 10.91834033 47.04687169 10.91015625 49.4765625 C10.888146 55.4219722 10.8536418 61.36719315 10.8125 67.3125 C5.8625 67.3125 0.9125 67.3125 -4.1875 67.3125 C-4.6825 62.8575 -4.6825 62.8575 -5.1875 58.3125 C-5.991875 59.385 -6.79625 60.4575 -7.625 61.5625 C-12.0763473 66.66602144 -16.65538148 68.89262807 -23.375 69.69140625 C-31.24649437 69.97383255 -37.06667918 69.11988031 -42.93359375 63.69921875 C-48.32085263 57.87271094 -49.81002134 52.05864798 -49.6171875 44.1953125 C-48.84598892 39.02127112 -46.70206219 35.15222838 -43.1875 31.3125 C-37.01051738 27.08767698 -30.9774792 25.17531926 -23.546875 25.21484375 C-21.94199219 25.21967773 -21.94199219 25.21967773 -20.3046875 25.22460938 C-19.19351563 25.23298828 -18.08234375 25.24136719 -16.9375 25.25 C-15.24753906 25.25676758 -15.24753906 25.25676758 -13.5234375 25.26367188 C-10.74473783 25.27544603 -7.96614591 25.2918916 -5.1875 25.3125 C-5.29348726 23.7087602 -5.4149644 22.10603906 -5.54296875 20.50390625 C-5.60895264 19.61131104 -5.67493652 18.71871582 -5.74291992 17.79907227 C-6.41162221 14.0589664 -8.17197262 12.48648486 -11.1875 10.3125 C-18.34298523 8.09735997 -23.81550896 8.83301182 -30.5 12.1875 C-32.40243806 13.21705471 -34.29901401 14.2575715 -36.1875 15.3125 C-37.51684153 15.98709122 -38.84849085 16.65730787 -40.1875 17.3125 C-41.22362271 15.90697701 -42.24094925 14.48758306 -43.25 13.0625 C-43.81847656 12.27359375 -44.38695312 11.4846875 -44.97265625 10.671875 C-46.1875 8.3125 -46.1875 8.3125 -45.99609375 6.140625 C-43.78748096 1.14723955 -38.16756702 -0.77905489 -33.46875 -2.85546875 C-22.3161767 -6.9231025 -10.28704505 -5.44608267 0 0 Z " fill="#03B1A6" transform="translate(597.1875,457.6875)"/>
<path d="M0 0 C1.24112549 0.01244751 1.24112549 0.01244751 2.50732422 0.02514648 C13.93832832 0.33827888 22.21798201 3.7787098 30.6875 11.4375 C31.52861328 12.14132812 31.52861328 12.14132812 32.38671875 12.859375 C33.8125 14.125 33.8125 14.125 35.6875 16.4375 C35.41080355 20.24009976 33.39393737 22.10571667 30.75 24.6875 C30.03972656 25.39390625 29.32945312 26.1003125 28.59765625 26.828125 C26.6875 28.4375 26.6875 28.4375 24.6875 28.4375 C24.15125 27.715625 23.615 26.99375 23.0625 26.25 C18.29623677 20.60574092 11.59538267 16.94306636 4.22265625 16.18359375 C-4.21855446 15.81658459 -11.24866441 17.8868938 -18.0625 22.9375 C-24.22200357 28.62993221 -27.97668279 37.5984291 -28.55078125 45.87109375 C-28.86796141 57.26671984 -27.74563174 68.59907588 -20.15234375 77.71875 C-12.77573496 84.6098495 -5.16842917 86.83467434 4.7109375 86.71484375 C13.29774828 85.91476033 19.61750471 82.37260651 25.6875 76.4375 C29.13178265 77.88531793 31.04880962 79.71444609 33.4375 82.5625 C34.05109375 83.28695312 34.6646875 84.01140625 35.296875 84.7578125 C35.75578125 85.31210937 36.2146875 85.86640625 36.6875 86.4375 C28.85651784 96.47722071 20.21434917 100.99827854 7.6875 103.4375 C-4.4268215 104.77684735 -17.11657204 102.0255878 -26.8125 94.49609375 C-35.44142727 87.11271104 -40.73494545 79.18736343 -44.3125 68.4375 C-44.539375 67.76589844 -44.76625 67.09429687 -45 66.40234375 C-49.14452826 51.46477315 -46.35982262 35.36039873 -39 22 C-30.27474274 8.08025696 -16.56855724 -0.21634863 0 0 Z " fill="#112E36" transform="translate(773.3125,424.5625)"/>
<path d="M0 0 C0.64410828 0.01230148 1.28821655 0.02460297 1.95184326 0.03727722 C4.11987415 0.08569332 6.28597031 0.16016506 8.453125 0.23828125 C9.62016968 0.27480804 9.62016968 0.27480804 10.81079102 0.31207275 C15.89966299 0.47328589 20.98473626 0.68461092 26.0703125 0.92797852 C28.71317319 1.05124993 31.356407 1.15742992 34 1.26367188 C57.76409409 2.32628264 57.76409409 2.32628264 64.453125 9.23828125 C65.62985698 11.59174521 65.61936366 13.11888455 65.640625 15.73828125 C65.65480469 16.53234375 65.66898437 17.32640625 65.68359375 18.14453125 C65.453125 20.23828125 65.453125 20.23828125 63.453125 22.23828125 C61.578125 22.46875 61.578125 22.46875 59.453125 22.42578125 C58.751875 22.41933594 58.050625 22.41289062 57.328125 22.40625 C55.453125 22.23828125 55.453125 22.23828125 53.453125 21.23828125 C53.3603125 23.03265625 53.3603125 23.03265625 53.265625 24.86328125 C52.27248623 33.58083272 49.44813661 43.49534188 43.1953125 49.91015625 C36.09325547 55.32428044 28.21503728 56.44613369 19.578125 56.55078125 C18.78792969 56.57978516 17.99773437 56.60878906 17.18359375 56.63867188 C11.80114843 56.69688468 8.55957107 56.0394376 4.453125 52.23828125 C0.79941158 46.86644342 -0.74982167 40.65777908 -2.296875 34.42578125 C-2.51730469 33.58080078 -2.73773438 32.73582031 -2.96484375 31.86523438 C-4.546875 25.67959045 -4.546875 25.67959045 -4.546875 22.23828125 C-5.59875 22.48578125 -6.650625 22.73328125 -7.734375 22.98828125 C-11.546875 23.23828125 -11.546875 23.23828125 -14.484375 21.80078125 C-16.78786344 18.93887138 -17.27522307 17.06803039 -17.03515625 13.3984375 C-15.93449466 8.52911064 -13.37873833 4.57281074 -9.35717773 1.64306641 C-5.9622439 -0.05395812 -3.78406739 -0.09028596 0 0 Z " fill="#0D2B37" transform="translate(221.546875,471.76171875)"/>
<path d="M0 0 C5.28 0 10.56 0 16 0 C16 23.1 16 46.2 16 70 C11.05 70 6.1 70 1 70 C0.505 65.545 0.505 65.545 0 61 C-0.886875 62.093125 -1.77375 63.18625 -2.6875 64.3125 C-6.99876048 69.33385044 -11.10629987 71.60035336 -17.6640625 72.2734375 C-26.11173338 72.5631993 -32.382719 71.0218177 -38.84765625 65.390625 C-45.81819295 57.92341615 -46.43388078 49.83899928 -46.29296875 40.0625 C-46.28872391 38.94182129 -46.28447906 37.82114258 -46.28010559 36.66650391 C-46.26340311 33.11075126 -46.22576568 29.55557941 -46.1875 26 C-46.17244231 23.57943531 -46.1587558 21.15886167 -46.14648438 18.73828125 C-46.11352706 12.82529935 -46.06180241 6.91274792 -46 1 C-41.05 1 -36.1 1 -31 1 C-30.98541748 2.29623291 -30.97083496 3.59246582 -30.95581055 4.92797852 C-30.89764901 9.75702908 -30.82041709 14.58562207 -30.73754883 19.41430664 C-30.70438339 21.50049387 -30.67632557 23.58676902 -30.65356445 25.6730957 C-30.61986431 28.67957879 -30.56754032 31.68526225 -30.51171875 34.69140625 C-30.50532883 35.61772354 -30.4989389 36.54404083 -30.49235535 37.49842834 C-30.36705623 43.07135447 -29.67217849 47.07495719 -27 52 C-23.69760913 55.06650581 -21.0537314 56.26329194 -16.625 56.5 C-11.12703521 56.24924823 -6.6754427 54.15029621 -2.41911316 50.72941589 C-0.54822001 48.44943397 -0.6052651 47.08962492 -0.56762695 44.16137695 C-0.54783279 43.1805867 -0.52803864 42.19979645 -0.50764465 41.18928528 C-0.50125473 40.13295395 -0.49486481 39.07662262 -0.48828125 37.98828125 C-0.47033005 36.90491989 -0.45237885 35.82155853 -0.43388367 34.70536804 C-0.37965015 31.24111843 -0.34584256 27.77700762 -0.3125 24.3125 C-0.27933851 21.96547542 -0.24484996 19.61846919 -0.20898438 17.27148438 C-0.1239159 11.51442287 -0.0571666 5.75740346 0 0 Z " fill="#112E36" transform="translate(864,455)"/>
<path d="M0 0 C22.11 0 44.22 0 67 0 C67 4.29 67 8.58 67 13 C58.42 13 49.84 13 41 13 C41 40.72 41 68.44 41 97 C35.72 97 30.44 97 25 97 C25 69.28 25 41.56 25 13 C16.75 13 8.5 13 0 13 C0 8.71 0 4.42 0 0 Z " fill="#00B0A5" transform="translate(439,428)"/>
<path d="M0 0 C5.28 0 10.56 0 16 0 C16 6.6 16 13.2 16 20 C20.95 20 25.9 20 31 20 C31 23.96 31 27.92 31 32 C26.05 32 21.1 32 16 32 C16.09337866 37.94510801 16.19943682 43.88980119 16.31738281 49.83447266 C16.35572521 51.85784666 16.39056871 53.88129006 16.421875 55.90478516 C16.46741169 58.80917203 16.52542409 61.71307894 16.5859375 64.6171875 C16.59748871 65.52556366 16.60903992 66.43393982 16.62094116 67.36984253 C16.64081085 68.21056305 16.66068054 69.05128357 16.68115234 69.91748047 C16.69447601 70.65916473 16.70779968 71.400849 16.7215271 72.16500854 C16.85199729 74.2473364 16.85199729 74.2473364 19 76 C23.53942698 76.22325051 27.57117061 76.10720735 32 75 C33.45184478 79.53701494 34.23509196 83.18061476 34 88 C29.32916044 90.72465641 25.88833437 91.4078557 20.5 91.375 C19.2315625 91.38273438 17.963125 91.39046875 16.65625 91.3984375 C11.17527081 90.80115131 8.03700158 89.08413802 4.25 85.125 C-0.18962545 78.95885355 -0.27486081 74.0545143 -0.1953125 66.66796875 C-0.1924826 65.67622147 -0.18965271 64.68447418 -0.18673706 63.66267395 C-0.17556804 60.50415841 -0.15046927 57.34592943 -0.125 54.1875 C-0.11496597 52.04232181 -0.10584086 49.89713917 -0.09765625 47.75195312 C-0.07563939 42.50119216 -0.0411319 37.25064462 0 32 C-3.3 32 -6.6 32 -10 32 C-10 28.04 -10 24.08 -10 20 C-6.7 20 -3.4 20 0 20 C0 13.4 0 6.8 0 0 Z " fill="#102E36" transform="translate(927,436)"/>
<path d="M0 0 C2.79238709 1.27583203 4.80249205 2.62116417 7 4.75 C16.53005113 13.02399836 30.09396958 17.14000058 41.59472656 21.98095703 C43.66133404 22.85651729 45.71934914 23.74793171 47.7734375 24.65234375 C52.90395406 26.88159843 57.39655612 28.61794701 63 29 C62.67 29.66 62.34 30.32 62 31 C59.11154189 31.96281937 57.31129362 32.12355478 54.31135559 32.12025452 C53.34801804 32.12162918 52.38468048 32.12300385 51.39215088 32.12442017 C50.33695251 32.12082489 49.28175415 32.11722961 48.19458008 32.11352539 C47.08223495 32.11367142 45.96988983 32.11381744 44.82383728 32.1139679 C41.13904892 32.11327 37.45431081 32.10548331 33.76953125 32.09765625 C31.21791105 32.09579163 28.66629049 32.09436794 26.1146698 32.09336853 C20.07987877 32.08993763 14.04510939 32.08205231 8.01032704 32.07201904 C1.13977402 32.06084404 -5.73077986 32.05534395 -12.6013397 32.05032361 C-26.73423649 32.03986934 -40.86711726 32.02227852 -55 32 C-55.33 31.01 -55.66 30.02 -56 29 C-54.84628906 28.56171875 -53.69257813 28.1234375 -52.50390625 27.671875 C-42.43724805 23.7828414 -32.57011463 19.54931875 -22.8125 14.9375 C-21.77488525 14.45571289 -20.73727051 13.97392578 -19.66821289 13.47753906 C-13.77717831 10.65212563 -8.74536374 7.54424419 -3.7487793 3.32250977 C-2 2 -2 2 0 2 C0 1.34 0 0.68 0 0 Z " fill="#F7F7F6" transform="translate(245,417)"/>
<path d="M0 0 C0.495 0.495 0.495 0.495 1 1 C0.909084 3.70108504 0.76259234 6.36930311 0.5625 9.0625 C0.51029297 9.82111328 0.45808594 10.57972656 0.40429688 11.36132812 C0.27424165 13.24121722 0.13771962 15.12065685 0 17 C-0.556875 16.95359375 -1.11375 16.9071875 -1.6875 16.859375 C-7.71186656 16.57443874 -12.02257959 17.51241971 -17 21 C-20.75489836 24.95252459 -23.21673593 28.7037404 -23.31884766 34.21777344 C-23.33871735 35.03832214 -23.35858704 35.85887085 -23.37905884 36.70428467 C-23.39638565 38.01855438 -23.39638565 38.01855438 -23.4140625 39.359375 C-23.43342865 40.26375305 -23.4527948 41.1681311 -23.4727478 42.09991455 C-23.53243831 44.98318099 -23.57888686 47.86648758 -23.625 50.75 C-23.66318947 52.70704848 -23.70224177 54.66408033 -23.7421875 56.62109375 C-23.83813125 61.41392711 -23.92220127 66.20683915 -24 71 C-29.28 71 -34.56 71 -40 71 C-40 48.23 -40 25.46 -40 2 C-34.72 2 -29.44 2 -24 2 C-23.67 4.64 -23.34 7.28 -23 10 C-22.63648438 9.52949219 -22.27296875 9.05898438 -21.8984375 8.57421875 C-15.59154776 0.76337838 -9.93641351 -0.88022743 0 0 Z " fill="#04B1A6" transform="translate(545,454)"/>
<path d="M0 0 C4.95 0 9.9 0 15 0 C15 32.01 15 64.02 15 97 C10.05 97 5.1 97 0 97 C0 64.99 0 32.98 0 0 Z " fill="#0F2C33" transform="translate(893,428)"/>
<path d="M0 0 C5.4006633 3.13521653 8.65552307 7.1071942 10.6484375 13.0859375 C11.42585912 22.24840655 11.46237532 30.48542504 5.6484375 38.0859375 C0.79885799 42.62029435 -4.44446346 43.44709505 -10.8515625 43.36328125 C-15.9563478 42.79696913 -18.65127682 39.80213877 -22.1015625 36.2734375 C-26.70001596 29.75896176 -27.06492362 22.83259344 -26.3515625 15.0859375 C-25.12657673 9.42994853 -22.84754573 5.83259019 -18.3515625 2.0859375 C-17.6503125 1.4878125 -16.9490625 0.8896875 -16.2265625 0.2734375 C-11.00472767 -1.88340732 -5.30199569 -2.06090862 0 0 Z " fill="#F8F9F7" transform="translate(660.3515625,468.9140625)"/>
<path d="M0 0 C5.28 0 10.56 0 16 0 C16 23.1 16 46.2 16 70 C10.72 70 5.44 70 0 70 C0 46.9 0 23.8 0 0 Z " fill="#00B2A8" transform="translate(700,455)"/>
<path d="M0 0 C3.4375 1.875 3.4375 1.875 6 4 C6 4.99 6 5.98 6 7 C5.08863281 7.35449219 4.17726563 7.70898438 3.23828125 8.07421875 C-13.05798114 14.6719045 -27.53251691 24.35972049 -41.7421875 34.60668945 C-48.94020402 39.76144772 -56.47136069 44.31275906 -64.07763672 48.83398438 C-65.74419184 49.84483874 -67.3775647 50.91001673 -69.00390625 51.984375 C-74.64564452 55.69255978 -79.22883593 56.97118654 -86 57 C-86 56.34 -86 55.68 -86 55 C-84.49389648 53.67822266 -84.49389648 53.67822266 -82.37109375 52.1640625 C-81.59072754 51.60033936 -80.81036133 51.03661621 -80.00634766 50.45581055 C-79.15862793 49.85164307 -78.3109082 49.24747559 -77.4375 48.625 C-70.63997319 43.70989451 -63.96555324 38.710417 -57.51342773 33.34814453 C-52.19966435 28.9930703 -46.54016691 25.14271621 -40.86798096 21.275177 C-38.9313051 19.95310543 -36.9994684 18.62415611 -35.06787109 17.29467773 C-31.63744435 14.93862617 -28.18959617 12.60981266 -24.73193359 10.29394531 C-23.31160678 9.3374054 -21.89631429 8.37335286 -20.48583984 7.40234375 C-18.41144192 5.97598717 -16.32143816 4.5757356 -14.2265625 3.1796875 C-13.60351227 2.74341034 -12.98046204 2.30713318 -12.33853149 1.8576355 C-7.86324894 -1.0711102 -5.13182374 -1.38143811 0 0 Z " fill="#0C2932" transform="translate(312,563)"/>
<path d="M0 0 C11.88 0.33 23.76 0.66 36 1 C33.890625 22.09375 33.890625 22.09375 27 28 C21.9438667 30.12357599 15.42558861 31.35639715 10 30 C7.54276348 26.51685052 6.28790325 23.13473836 5.17578125 19.04296875 C4.89903564 18.04031982 4.62229004 17.0376709 4.3371582 16.00463867 C3.82995239 14.11515503 3.82995239 14.11515503 3.3125 12.1875 C2.219375 8.165625 1.12625 4.14375 0 0 Z " fill="#F9CB33" transform="translate(227,485)"/>
<path d="M0 0 C1.18239258 0.01353516 1.18239258 0.01353516 2.38867188 0.02734375 C4.32174666 0.05077496 6.2546638 0.08664162 8.1875 0.125 C8.55983816 4.77922701 8.65257989 8.17695253 6.5625 12.4375 C2.19120539 17.38396496 -2.08657227 19.94913369 -8.6875 20.375 C-12.47799729 20.33311605 -14.77994917 19.51428247 -17.8125 17.125 C-19.38705739 13.97588521 -19.16049118 11.60491184 -18.8125 8.125 C-13.71118589 0.40015291 -8.59043264 -0.18721815 0 0 Z " fill="#F7F9F7" transform="translate(583.8125,493.875)"/>
<path d="M0 0 C2.41520217 1.87849058 3.13944323 2.94836816 4.25 5.75 C4.57809026 9.57088448 4.30665367 13.25622901 2.05078125 16.4453125 C-0.37652987 18.67512587 -2.54462534 19.70721361 -5.75 20.375 C-9.72966915 19.54590226 -12.40647478 18.04463123 -14.75 14.75 C-16.14930105 10.45103621 -16.25890519 7.00887074 -14.5625 2.8125 C-10.47297011 -1.84110298 -5.67426146 -2.57920976 0 0 Z " fill="#05B0A6" transform="translate(713.75,425.25)"/>
<path d="M0 0 C5.28 0 10.56 0 16 0 C16 23.1 16 46.2 16 70 C10.72 70 5.44 70 0 70 C0 69.67 0 69.34 0 69 C4.62 69 9.24 69 14 69 C14 46.89 14 24.78 14 2 C9.38 2 4.76 2 0 2 C0 1.34 0 0.68 0 0 Z " fill="#12AFA1" transform="translate(700,455)"/>
<path d="M0 0 C2.38671875 1.5234375 2.38671875 1.5234375 4.6875 3.375 C5.45449219 3.98085938 6.22148437 4.58671875 7.01171875 5.2109375 C9 7 9 7 11 10 C6.68490176 9.01112332 3.63211842 7.86633326 0 5.3125 C-3.06904904 3.29416988 -3.81929818 2.99693726 -7.6875 3.0625 C-10.56930692 3.87810573 -13.27476158 4.76125526 -16 6 C-13.21311345 2.90345939 -10.93489402 1.34614795 -7 0 C-4.24194617 -1.37902692 -2.93487077 -0.85081173 0 0 Z " fill="#01C2B7" transform="translate(314,560)"/>
<path d="M0 0 C0.66 0.33 1.32 0.66 2 1 C-1.4352048 3.29013653 -2.985331 3.17842973 -7 3 C-7 3.66 -7 4.32 -7 5 C-7.7425 5.28875 -8.485 5.5775 -9.25 5.875 C-10.61125 6.431875 -10.61125 6.431875 -12 7 C-13.11375 7.37125 -13.11375 7.37125 -14.25 7.75 C-16.35220672 8.96279175 -16.35220672 8.96279175 -16.75 12.125 C-16.8325 13.07375 -16.915 14.0225 -17 15 C-17.33 15 -17.66 15 -18 15 C-17.75904678 7.89187996 -17.75904678 7.89187996 -14.5 4.0625 C-11.19173714 1.66160049 -7.96337208 1.33158915 -3.953125 1.140625 C-1.92019263 1.11919066 -1.92019263 1.11919066 0 0 Z " fill="#061419" transform="translate(174,439)"/>
<path d="M0 0 C3.3 0.33 6.6 0.66 10 1 C9.67 1.66 9.34 2.32 9 3 C5.99984088 4.00005304 4.02576244 4.11575585 0.89453125 4.09765625 C-0.08837891 4.09443359 -1.07128906 4.09121094 -2.08398438 4.08789062 C-3.10814453 4.07951172 -4.13230469 4.07113281 -5.1875 4.0625 C-6.22326172 4.05798828 -7.25902344 4.05347656 -8.32617188 4.04882812 C-10.88417266 4.0370401 -13.44205733 4.02058515 -16 4 C-16 3.67 -16 3.34 -16 3 C-11.05 3 -6.1 3 -1 3 C-0.67 2.01 -0.34 1.02 0 0 Z " fill="#DFE5E6" transform="translate(298,445)"/>
<path d="M0 0 C0.66 0.33 1.32 0.66 2 1 C-3.86050397 5.43630328 -8.67568804 6.8349028 -16 7 C-16 6.34 -16 5.68 -16 5 C-14.03852126 3.61061923 -12.03833424 2.2739589 -10 1 C-9.34 1.33 -8.68 1.66 -8 2 C-8.33 2.33 -8.66 2.66 -9 3 C-6.35940606 2.55990101 -4.20426133 2.10504868 -1.8125 0.875 C-1.214375 0.58625 -0.61625 0.2975 0 0 Z " fill="#0E1922" transform="translate(242,613)"/>
<path d="M0 0 C2.02168235 4.0433647 2.35927761 6.32129345 2.625 10.75 C2.69976562 11.92046875 2.77453125 13.0909375 2.8515625 14.296875 C2.90054687 15.18890625 2.94953125 16.0809375 3 17 C0.69 15.02 -1.62 13.04 -4 11 C-3.01 11 -2.02 11 -1 11 C-0.67 7.37 -0.34 3.74 0 0 Z " fill="#E9D634" transform="translate(333,543)"/>
<path d="M0 0 C4.1424367 1.38081223 5.32203099 3.59825558 8 7 C4.71303767 7.79953138 3.28976808 8.09658936 0 7 C0 4.69 0 2.38 0 0 Z " fill="#F4D535" transform="translate(168,455)"/>
<path d="M0 0 C-0.99 0.33 -1.98 0.66 -3 1 C-3.33 1.99 -3.66 2.98 -4 4 C-4.66 4 -5.32 4 -6 4 C-6 4.66 -6 5.32 -6 6 C-7.65 6 -9.3 6 -11 6 C-11.33 5.01 -11.66 4.02 -12 3 C-10.3789897 2.30314502 -8.75303934 1.61777139 -7.125 0.9375 C-6.22007812 0.55464844 -5.31515625 0.17179687 -4.3828125 -0.22265625 C-2 -1 -2 -1 0 0 Z " fill="#E5EAEA" transform="translate(201,443)"/>
<path d="M0 0 C0.99 0.33 1.98 0.66 3 1 C2.34 1 1.68 1 1 1 C1 4.3 1 7.6 1 11 C-1.0625 8.75 -1.0625 8.75 -3 6 C-2.82560493 2.94808622 -2.18741485 2.18741485 0 0 Z " fill="#0AAEA0" transform="translate(554,460)"/>
<path d="M0 0 C2.64 0.33 5.28 0.66 8 1 C8 1.99 8 2.98 8 4 C6.02 4.33 4.04 4.66 2 5 C1.34 3.35 0.68 1.7 0 0 Z " fill="#F2D433" transform="translate(227,485)"/>
<path d="M0 0 C1.65 0.33 3.3 0.66 5 1 C4.01 2.485 4.01 2.485 3 4 C0.2114711 4.22107787 -2.34653181 4.28107535 -5.125 4.1875 C-5.87910156 4.17396484 -6.63320313 4.16042969 -7.41015625 4.14648438 C-9.27374127 4.11109985 -11.13695978 4.05729167 -13 4 C-13 3.67 -13 3.34 -13 3 C-6.565 2.505 -6.565 2.505 0 2 C0 1.34 0 0.68 0 0 Z " fill="#EFF0F0" transform="translate(294,443)"/>
<path d="M0 0 C0 0.66 0 1.32 0 2 C-0.78375 2.2475 -1.5675 2.495 -2.375 2.75 C-5.41464865 4.19745174 -5.69906137 5.02642598 -7 8 C-7.99 8.66 -8.98 9.32 -10 10 C-10.33 9.01 -10.66 8.02 -11 7 C-9.54634731 5.82750647 -8.08692581 4.66216184 -6.625 3.5 C-5.40683594 2.52546875 -5.40683594 2.52546875 -4.1640625 1.53125 C-2 0 -2 0 0 0 Z " fill="#08A99A" transform="translate(152,346)"/>
<path d="M0 0 C-0.33 0.99 -0.66 1.98 -1 3 C-4.63 3 -8.26 3 -12 3 C-7.86112344 0.24074896 -4.92824278 -0.13689563 0 0 Z " fill="#EFF0F0" transform="translate(782,509)"/>
<path d="M0 0 C0 0.99 0 1.98 0 3 C-1.61736259 4.3927289 -3.2925002 5.71937515 -5 7 C-6.35147138 8.31494512 -7.69112542 9.64264858 -9 11 C-7.59928507 5.70841026 -4.14512755 3.22521956 0 0 Z " fill="#0AA89B" transform="translate(633,458)"/>
<path d="M0 0 C5.28 0.33 10.56 0.66 16 1 C16 1.33 16 1.66 16 2 C7.585 2.495 7.585 2.495 -1 3 C-0.67 2.01 -0.34 1.02 0 0 Z " fill="#E2E6E7" transform="translate(762,423)"/>
<path d="M0 0 C0.66 0.33 1.32 0.66 2 1 C2 4.3 2 7.6 2 11 C1.01 11.33 0.02 11.66 -1 12 C-0.67 8.04 -0.34 4.08 0 0 Z " fill="#253A40" transform="translate(269,378)"/>
<path d="M0 0 C-1.375 1.5 -1.375 1.5 -3 3 C-3.66 3 -4.32 3 -5 3 C-5.33 4.98 -5.66 6.96 -6 9 C-6.33 9 -6.66 9 -7 9 C-6.65171318 3.60155422 -6.65171318 3.60155422 -6 1 C-3.57219651 -0.95790604 -2.83012171 -1.41506085 0 0 Z " fill="#0C1F25" transform="translate(163,445)"/>
</svg>
