<?xml version="1.0" standalone="no"?>
<!DOCTYPE svg PUBLIC "-//W3C//DTD SVG 20010904//EN"
 "http://www.w3.org/TR/2001/REC-SVG-20010904/DTD/svg10.dtd">
<svg version="1.0" xmlns="http://www.w3.org/2000/svg"
 width="1024.000000pt" height="1024.000000pt" viewBox="0 0 1024.000000 1024.000000"
 preserveAspectRatio="xMidYMid meet">

<g transform="translate(0.000000,1024.000000) scale(0.100000,-0.100000)"
fill="#000000" stroke="none">
<path d="M10124 9993 c-52 -53 -94 -100 -94 -105 0 -4 7 -8 15 -8 31 0 15 -27
-40 -63 -44 -30 -95 -35 -135 -12 -53 30 -101 11 -134 -53 -15 -30 -15 -32 0
-32 10 0 26 -7 36 -17 10 -9 28 -21 39 -27 25 -13 27 -30 4 -34 -9 -2 -25 -12
-35 -22 -19 -19 -18 -19 1 -25 26 -8 24 -19 -6 -33 -14 -7 -40 -40 -62 -80
-37 -68 -75 -102 -114 -102 -10 0 -19 5 -19 10 0 20 -24 9 -56 -25 -19 -18
-34 -39 -34 -45 0 -6 -9 -21 -21 -33 -11 -12 -23 -35 -26 -50 -3 -16 -12 -31
-19 -34 -8 -3 -14 -13 -14 -22 0 -25 -47 -170 -63 -195 -8 -11 -20 -39 -27
-61 -32 -101 -137 -258 -188 -280 -12 -5 -22 -15 -22 -22 0 -7 -4 -13 -10 -13
-20 0 -1 59 62 190 62 128 88 210 67 210 -5 0 -9 -7 -9 -15 0 -8 -3 -15 -7
-15 -5 0 -35 -25 -68 -56 -149 -137 -205 -184 -218 -184 -5 0 -22 -11 -37 -24
-15 -12 -52 -31 -82 -40 -29 -9 -60 -20 -68 -23 -8 -3 -19 -7 -25 -9 -108 -33
-222 -42 -240 -18 -7 11 -23 14 -50 12 l-40 -3 43 -23 c23 -12 78 -31 121 -42
64 -17 88 -19 142 -11 35 5 77 14 92 20 36 14 50 14 45 0 -2 -6 -37 -22 -78
-36 -64 -21 -86 -23 -149 -18 -105 10 -230 58 -300 116 -20 16 -39 29 -44 29
-9 0 -67 52 -115 103 -19 20 -37 35 -40 33 -2 -3 5 -15 17 -27 12 -13 21 -30
21 -38 0 -9 -39 24 -88 74 -79 82 -85 90 -64 95 22 5 22 6 -15 41 -21 19 -54
44 -73 55 -19 10 -43 26 -54 34 -10 8 -19 14 -20 13 0 -1 -11 0 -23 3 -14 4
-39 33 -64 73 -23 36 -45 68 -49 71 -4 3 -10 15 -14 28 -4 12 -12 22 -17 22
-5 0 -9 13 -9 29 0 49 -9 61 -47 61 -19 0 -32 -4 -29 -9 3 -5 -1 -11 -8 -14
-8 -3 -24 -26 -35 -51 -20 -46 -39 -56 -71 -36 -9 6 -17 5 -21 -2 -4 -6 -18
-10 -32 -10 -27 0 -40 -18 -31 -43 4 -8 1 -15 -5 -15 -6 0 -11 9 -11 20 0 17
-3 18 -19 8 -16 -10 -24 -7 -49 14 -33 28 -32 38 5 38 22 0 23 1 8 23 -8 13
-33 36 -55 52 -22 17 -42 38 -46 48 -3 9 -12 17 -20 17 -8 0 -13 3 -13 8 4 27
-2 44 -16 38 -10 -3 -15 1 -15 13 0 24 -11 33 -26 20 -15 -12 -8 -38 15 -57
12 -10 13 -15 4 -20 -20 -13 -44 -94 -45 -152 -2 -214 2 -303 15 -333 8 -17
19 -50 25 -72 6 -22 15 -57 20 -77 6 -21 8 -46 5 -56 -2 -10 2 -24 11 -31 11
-9 13 -19 6 -37 -9 -24 -3 -30 25 -24 6 1 4 -4 -2 -11 -19 -19 -16 -29 10 -29
15 0 27 -9 35 -27 7 -16 23 -48 37 -73 l24 -45 -6 46 c-7 56 36 393 53 421 3
4 5 36 5 72 1 45 5 69 16 77 25 21 35 -8 26 -81 -13 -108 -9 -250 9 -310 18
-61 22 -55 32 49 5 51 25 95 27 61 3 -55 15 -72 28 -37 14 35 31 43 32 15 0
-15 3 -18 6 -8 9 26 46 60 64 60 28 0 37 -22 33 -85 -3 -67 12 -87 59 -78 24
5 27 10 27 42 0 53 16 65 52 40 15 -11 28 -27 28 -35 0 -16 23 -44 36 -44 5 0
3 5 -3 11 -6 6 -9 18 -6 25 10 25 33 -5 33 -43 0 -26 5 -36 20 -40 30 -8 101
-126 73 -122 -26 4 -34 -2 -28 -22 5 -15 4 -19 -4 -15 -6 4 -19 -1 -29 -10
-16 -17 -16 -18 1 -11 11 4 24 4 30 0 7 -4 3 -9 -9 -14 -17 -7 -17 -8 -1 -8
24 -1 85 -59 89 -85 2 -11 13 -25 26 -31 12 -5 25 -18 28 -27 5 -17 16 -22 41
-19 7 1 10 -5 7 -13 -3 -8 6 -32 20 -52 14 -21 23 -40 19 -43 -3 -3 -8 0 -10
7 -3 6 -11 12 -19 12 -8 0 -14 7 -14 15 0 20 -88 115 -107 115 -8 0 -11 -5 -8
-11 4 -6 -2 -13 -14 -16 -17 -4 -19 -9 -11 -24 8 -15 7 -17 -5 -13 -15 6 -20
-10 -15 -46 1 -10 -3 -9 -14 5 -14 18 -15 18 -16 3 0 -10 -4 -18 -10 -18 -5 0
-10 -11 -10 -25 0 -19 -4 -23 -17 -18 -11 4 -14 3 -9 -6 5 -8 0 -10 -18 -7
-20 4 -24 1 -19 -12 6 -15 5 -15 -10 -3 -20 16 -23 2 -4 -18 10 -11 10 -13 0
-7 -7 4 -13 3 -13 -3 0 -21 18 -19 40 4 14 14 34 25 49 25 25 -1 26 -1 6 -16
-17 -13 -18 -16 -5 -25 13 -9 13 -10 0 -6 -8 2 -27 -8 -41 -23 -14 -14 -31
-24 -37 -22 -7 2 -12 -5 -12 -15 0 -15 -2 -16 -10 -3 -8 12 -10 12 -11 -5 0
-11 -3 -14 -6 -7 -2 6 -9 12 -14 12 -19 0 3 -21 49 -46 l47 -25 -37 5 c-43 5
-52 -8 -12 -18 l27 -7 -22 -15 c-15 -11 -26 -13 -34 -6 -8 7 -24 4 -50 -8 -27
-14 -45 -16 -67 -10 -46 13 -119 -33 -165 -105 -21 -33 -22 -35 -24 -66 -1
-15 -6 -19 -17 -15 -12 5 -14 1 -9 -16 6 -17 4 -20 -13 -16 -15 4 -18 1 -15
-13 5 -16 0 -18 -30 -14 -20 3 -39 0 -42 -5 -7 -12 -41 -13 -48 -2 -2 4 -2 1
-1 -5 4 -17 -4 -16 -56 2 -25 9 -47 12 -54 6 -16 -12 -116 -35 -145 -33 -14 1
-21 -1 -17 -5 3 -4 -14 -19 -39 -35 -40 -25 -51 -43 -46 -72 1 -5 -4 -13 -11
-17 -7 -4 -13 -18 -13 -31 -1 -33 -15 -68 -27 -68 -5 0 -8 -7 -5 -14 4 -10 1
-13 -9 -9 -10 4 -12 0 -8 -11 4 -9 0 -24 -9 -34 -8 -9 -21 -35 -28 -57 -7 -22
-17 -46 -23 -53 -5 -7 -19 -35 -32 -62 -13 -28 -27 -50 -32 -50 -5 0 -17 -29
-27 -65 -9 -36 -21 -67 -25 -70 -5 -3 -11 -31 -15 -63 -3 -31 -12 -79 -20
-107 -32 -110 -51 -286 -43 -380 5 -49 9 -104 8 -122 0 -17 4 -34 9 -38 6 -3
8 -12 5 -19 -3 -8 0 -17 5 -21 6 -3 9 -10 6 -15 -3 -4 2 -21 10 -36 8 -16 15
-42 16 -59 0 -16 3 -24 6 -17 11 27 21 10 16 -28 -5 -33 -3 -40 11 -40 9 0 16
-4 16 -10 0 -5 -9 -10 -20 -10 -11 0 -20 -4 -20 -10 0 -5 10 -10 23 -10 27 0
32 -37 8 -58 -14 -11 -14 -12 4 -10 17 3 21 -4 23 -36 2 -21 -1 -36 -5 -33 -5
3 -15 1 -23 -4 -13 -9 -13 -10 0 -6 23 6 40 -23 27 -45 -14 -21 0 -38 14 -18
7 11 8 6 3 -15 -4 -16 -11 -33 -16 -36 -5 -3 -10 -15 -13 -27 -3 -16 1 -22 13
-22 15 -1 15 -2 -2 -15 -17 -13 -18 -15 -3 -15 19 0 22 -11 7 -26 -5 -5 -10
-28 -12 -51 -2 -22 -6 -39 -10 -37 -10 6 -24 -24 -32 -66 -3 -19 -25 -64 -49
-99 -23 -36 -47 -73 -53 -83 -6 -10 -14 -15 -18 -11 -4 4 -4 0 -1 -9 4 -11 -2
-22 -19 -33 -14 -9 -38 -37 -53 -61 -15 -24 -32 -43 -38 -42 -5 1 -26 -14 -47
-35 -20 -20 -43 -37 -52 -37 -8 0 -13 -6 -11 -13 5 -11 -31 -28 -86 -41 -9 -3
-35 -14 -57 -25 -23 -12 -53 -21 -67 -21 -14 0 -24 -4 -20 -9 9 -16 -185 -29
-260 -18 -22 4 -32 4 -22 1 9 -3 17 -10 17 -14 0 -6 -10 -6 -22 -1 -43 15 -84
23 -68 11 13 -8 13 -10 -2 -10 -10 0 -18 5 -18 10 0 6 -11 10 -25 10 -13 0
-29 8 -34 17 -6 10 -11 12 -11 6 0 -9 -7 -10 -25 -3 -20 7 -25 6 -25 -5 0 -10
10 -15 28 -15 15 0 36 -7 46 -15 11 -8 32 -15 47 -15 14 0 46 -7 69 -15 74
-26 436 0 459 32 5 8 98 33 122 33 5 0 9 -4 9 -10 0 -5 -6 -10 -13 -10 -7 0
-19 -9 -27 -20 -8 -11 -20 -20 -26 -20 -7 0 -26 -11 -42 -25 -16 -13 -45 -26
-63 -27 -19 -2 -39 -10 -46 -18 -12 -15 -14 -16 -76 -18 -23 -1 -36 -6 -32
-12 3 -5 -3 -10 -14 -10 -12 0 -21 -5 -21 -10 0 -17 -60 -8 -61 10 -1 8 -5 2
-9 -15 -7 -28 -8 -28 -9 -5 l-2 25 -15 -25 c-13 -21 -15 -22 -11 -4 3 17 -1
20 -32 22 -47 3 -94 12 -106 22 -5 4 -26 7 -45 7 -26 -1 -37 4 -45 19 -6 11
-16 19 -23 16 -6 -2 -12 1 -12 7 0 5 -27 18 -61 27 -33 9 -55 20 -49 24 8 5 7
9 -4 13 -9 4 -16 1 -16 -6 0 -8 -2 -9 -8 -1 -4 6 -17 14 -30 18 -12 4 -27 17
-33 28 -10 19 -9 20 10 15 12 -3 19 -1 15 5 -3 5 -18 7 -33 3 -14 -4 -23 -3
-19 0 4 4 0 14 -8 22 -13 13 -17 13 -39 -1 -14 -9 -25 -12 -25 -7 0 6 8 15 18
20 9 6 12 11 7 11 -6 0 -20 -7 -32 -15 -18 -13 -23 -13 -30 -2 -4 8 -18 19
-30 26 -20 10 -22 9 -16 -6 5 -15 4 -16 -8 -7 -20 17 -87 24 -93 10 -2 -6 -5
-4 -5 5 -1 19 -28 32 -44 22 -15 -9 -80 -4 -87 7 -9 14 -178 5 -197 -11 -10
-8 -29 -20 -43 -26 -48 -20 -75 -34 -90 -46 -18 -15 -70 -83 -70 -93 0 -4 -8
-13 -18 -21 -9 -8 15 2 53 23 39 20 73 42 76 47 4 5 16 7 28 4 14 -3 21 0 21
9 0 13 13 19 34 15 4 -1 13 5 20 14 20 28 90 36 239 27 17 -1 27 -8 27 -17 0
-11 -12 -15 -49 -15 -28 0 -52 -4 -55 -9 -3 -5 -23 -7 -45 -4 -23 3 -41 1 -45
-6 -4 -6 -16 -11 -27 -11 -10 0 -18 -3 -17 -7 3 -12 -22 -53 -32 -53 -17 0
-11 27 6 34 9 4 14 9 11 12 -8 9 -68 -26 -62 -36 3 -5 -6 -17 -20 -26 -14 -9
-25 -24 -25 -34 0 -9 -10 -22 -22 -28 -15 -7 -17 -11 -8 -11 13 -1 13 -2 0
-11 -11 -8 1 -10 43 -8 56 2 62 -1 122 -45 35 -26 66 -47 69 -47 8 0 88 -62
122 -94 16 -15 62 -55 102 -88 39 -33 72 -62 72 -64 0 -1 -5 -15 -10 -30 -9
-21 -7 -29 7 -40 29 -23 141 -74 160 -73 10 0 -2 8 -26 16 -24 9 -46 23 -48
33 -2 9 -20 23 -39 30 -25 10 -34 20 -34 37 0 26 0 26 59 -14 126 -85 314
-126 501 -108 203 20 321 49 390 96 14 9 55 33 93 53 41 23 65 42 61 48 -5 7
-1 9 9 5 10 -3 17 -3 17 2 0 5 7 8 16 7 9 0 21 8 28 19 6 10 17 25 24 33 10
11 12 9 12 -12 0 -14 -5 -26 -11 -26 -5 0 -29 -20 -51 -45 -32 -36 -44 -43
-55 -34 -7 7 -16 9 -20 5 -10 -9 3 -18 30 -20 31 -1 24 -16 -8 -16 -12 0 -25
-6 -28 -14 -4 -9 -15 -12 -34 -8 -25 5 -27 4 -14 -11 9 -12 10 -17 2 -17 -7 0
-10 -4 -7 -9 6 -10 -49 -33 -57 -24 -3 3 -3 -5 0 -18 5 -19 3 -21 -17 -16 -16
4 -23 1 -27 -14 -6 -20 -23 -27 -23 -8 0 6 -5 7 -12 2 -7 -4 -24 -8 -38 -9
-14 0 -33 -4 -42 -9 -10 -4 -25 -5 -33 -1 -9 3 -15 0 -15 -8 0 -16 -27 -29
-41 -20 -5 3 -7 10 -4 15 4 5 -1 9 -10 9 -9 0 -14 -4 -10 -9 3 -5 -4 -13 -16
-16 -14 -5 -25 -2 -30 6 -7 11 -9 9 -9 -6 0 -17 -2 -17 -10 -5 -9 13 -11 13
-20 0 -5 -8 -10 -10 -10 -5 0 6 -35 10 -85 10 -66 1 -84 -2 -81 -12 3 -7 1
-13 -4 -13 -6 0 -10 4 -10 9 0 4 -10 6 -22 4 -13 -2 -63 6 -113 17 -49 12
-102 24 -117 27 -16 3 -28 9 -28 14 0 5 -7 6 -15 3 -9 -4 -15 0 -15 10 0 9 -7
16 -17 16 -17 0 -99 45 -120 66 -7 6 -32 20 -57 30 -25 10 -47 26 -49 34 -2 8
-22 24 -43 35 -22 11 -45 26 -52 33 -20 18 -75 46 -68 33 11 -17 2 -13 -24 9
-22 19 -34 22 -105 23 -121 3 -154 -3 -178 -29 -21 -23 -28 -25 -48 -14 -18 8
-17 5 6 -12 16 -13 41 -33 55 -46 l25 -23 -32 4 c-18 2 -30 0 -27 -5 3 -4 13
-8 22 -8 16 0 165 -129 150 -130 -18 -1 -58 21 -53 30 3 5 -7 12 -22 16 -15 4
-32 10 -38 14 -5 4 -46 22 -90 39 -55 22 -87 30 -105 25 -14 -4 -54 -8 -90 -9
-70 -2 -149 -21 -165 -40 -14 -16 -153 -66 -200 -72 -22 -2 -42 -8 -45 -13 -3
-4 -30 -6 -60 -3 -72 7 -145 6 -196 -2 -31 -5 -58 -1 -111 18 -68 23 -72 23
-86 6 -9 -9 -13 -20 -10 -23 4 -3 1 -6 -5 -6 -15 0 -15 -17 -1 -33 5 -7 19
-27 30 -45 11 -18 23 -31 27 -28 9 5 9 -73 -1 -99 -4 -11 -26 -33 -48 -50 -48
-35 -59 -58 -59 -125 0 -27 -3 -50 -8 -52 -18 -7 -72 -104 -72 -128 0 -14 -9
-36 -20 -48 -24 -26 -70 -110 -70 -128 0 -8 -14 -28 -32 -44 -18 -17 -37 -47
-44 -66 l-12 -35 48 50 c26 27 56 51 66 53 16 3 19 -4 22 -46 2 -31 -2 -54
-11 -65 -8 -9 -17 -28 -19 -43 -4 -22 -1 -28 13 -28 11 0 19 5 19 10 0 6 11
10 25 10 20 0 25 -5 26 -27 2 -35 2 -35 -6 -55 -5 -13 -2 -15 14 -11 12 3 21
10 21 17 0 23 72 87 94 84 11 -2 20 -9 19 -15 -2 -6 -5 -51 -8 -99 -3 -48 -9
-92 -13 -98 -23 -29 -32 -78 -18 -104 l13 -25 38 58 c20 32 43 64 50 72 39 39
67 -27 63 -152 -2 -90 -8 -109 -56 -189 -20 -33 -62 -65 -62 -47 0 6 -8 11
-18 11 -11 0 -27 14 -37 34 -11 19 -29 40 -40 46 -43 23 -142 17 -168 -9 -6
-6 7 -23 32 -46 57 -52 52 -79 -15 -83 -27 -2 -54 -7 -60 -13 -17 -14 -75 -13
-109 1 -34 14 -41 10 -139 -85 -66 -64 -125 -93 -190 -95 -28 0 -71 -3 -96 -6
-25 -3 -61 -7 -80 -8 -58 -4 -60 -5 -60 -29 0 -45 -23 -76 -60 -83 -19 -4 -46
-12 -60 -19 -14 -7 -40 -19 -57 -25 -18 -7 -33 -16 -33 -21 0 -5 -7 -9 -15 -9
-20 0 -83 -57 -100 -90 -18 -34 -10 -115 13 -149 10 -13 22 -31 27 -39 6 -9
19 -24 30 -34 11 -9 17 -17 12 -18 -4 0 0 -14 8 -31 13 -23 15 -46 9 -99 -4
-45 -2 -80 5 -97 6 -16 17 -75 24 -132 11 -88 11 -111 -1 -150 -24 -79 -63
-165 -85 -189 l-21 -22 42 -17 c24 -9 41 -21 39 -26 -4 -12 -9 -15 -85 -51
-68 -33 -91 -54 -71 -67 19 -12 103 -29 142 -29 18 0 72 -7 120 -15 48 -8 95
-12 105 -9 37 12 -22 -19 -72 -38 -31 -11 -77 -18 -121 -18 -67 0 -96 4 -260
35 -73 14 -170 45 -242 77 -23 11 -78 28 -123 39 -45 10 -91 26 -103 34 -12 8
-31 15 -43 15 -11 0 -52 12 -90 26 -38 14 -82 30 -99 36 -17 6 -142 11 -287
11 -268 2 -297 7 -268 42 22 26 -2 41 -40 25 -24 -10 -37 -10 -56 -1 -14 6
-60 11 -103 11 -66 0 -86 -4 -122 -25 -24 -14 -59 -25 -77 -25 -36 0 -92 -25
-92 -41 0 -5 7 -12 15 -15 8 -4 15 -15 15 -25 0 -10 6 -19 13 -19 26 0 147
-42 147 -51 0 -5 7 -9 15 -9 11 0 13 -8 8 -32 -3 -18 -10 -34 -15 -36 -4 -2
-8 -10 -8 -17 0 -7 -7 -15 -14 -18 -8 -3 -22 -21 -32 -39 -20 -41 -83 -108
-101 -108 -7 0 -13 -4 -13 -9 0 -5 -25 -13 -56 -17 -43 -5 -58 -11 -61 -25 -3
-11 -10 -19 -15 -19 -5 0 -17 -7 -25 -16 -13 -12 -18 -13 -24 -3 -4 7 -6 17
-3 21 3 4 0 17 -6 28 -9 17 -14 18 -31 10 -11 -6 -24 -21 -28 -33 -5 -12 -18
-31 -30 -41 -11 -11 -21 -24 -21 -30 0 -6 -14 -22 -30 -36 -73 -60 -70 -55
-70 -130 l0 -70 25 12 c14 6 25 14 25 18 0 4 10 18 21 31 12 13 29 35 38 49
19 30 35 50 78 99 27 30 35 33 43 21 5 -8 10 -23 10 -33 0 -15 -58 -156 -91
-219 -7 -15 -3 -48 6 -48 8 0 152 74 165 85 8 7 44 28 80 48 61 33 83 39 185
52 40 6 66 15 120 43 61 32 71 38 126 78 63 47 159 110 206 136 43 24 74 23
80 -1 5 -18 12 -19 109 -14 85 5 104 3 104 -8 0 -8 -17 -22 -38 -32 -104 -49
-117 -71 -29 -49 88 22 208 25 282 7 92 -22 135 -37 135 -47 0 -4 7 -8 15 -8
8 0 23 -4 33 -9 49 -25 102 -44 142 -51 25 -5 69 -16 99 -24 30 -9 68 -17 85
-20 17 -2 42 -8 56 -14 67 -27 243 -23 390 8 130 28 202 29 270 4 16 -6 -71
-54 -98 -54 -8 0 -53 -10 -101 -22 -71 -18 -115 -22 -251 -22 -97 -1 -188 4
-220 11 -227 51 -348 67 -467 59 -59 -3 -109 -10 -112 -14 -3 -4 -35 -14 -71
-21 -36 -7 -72 -19 -80 -26 -8 -7 -29 -20 -46 -28 -17 -9 -45 -30 -63 -46
l-33 -31 25 -26 c26 -26 50 -105 40 -132 -3 -8 -6 -26 -7 -41 -1 -24 -4 -26
-38 -24 -21 1 -48 9 -60 17 -36 23 -84 29 -206 28 -125 -1 -144 -8 -242 -86
-25 -20 -49 -36 -55 -36 -5 0 -23 -9 -40 -20 l-30 -20 327 0 327 0 3 37 c4 53
39 60 112 23 30 -16 57 -26 60 -23 3 3 20 -1 38 -8 18 -8 58 -15 88 -17 30 -2
593 -6 1251 -8 l1197 -4 16 25 c9 14 24 25 34 25 18 0 103 50 129 76 8 8 20
14 26 14 17 0 122 113 165 178 82 121 92 136 100 141 4 3 19 22 32 41 13 19
27 37 30 40 21 17 140 292 140 322 0 7 7 33 15 58 42 124 53 165 48 174 -4 5
-14 0 -23 -11 -37 -46 -90 -47 -90 -2 0 11 -4 17 -10 14 -5 -3 -10 -17 -10
-29 0 -15 -7 -26 -20 -29 -11 -3 -20 -12 -20 -21 0 -9 -7 -16 -15 -16 -8 0
-20 -9 -27 -20 -7 -11 -18 -20 -25 -20 -7 0 -17 -15 -22 -33 -5 -17 -10 -27
-10 -20 -1 9 -10 8 -36 -3 -43 -18 -45 -18 -45 1 0 9 11 26 25 39 14 13 25 28
25 34 0 6 11 22 24 35 13 13 27 33 30 44 4 12 13 24 21 27 8 3 15 10 15 17 0
6 21 34 46 62 25 28 57 71 71 96 15 25 33 53 40 61 23 26 63 90 63 102 0 22
112 178 155 216 89 78 351 129 413 80 8 -7 17 -7 26 1 10 9 15 8 20 -4 3 -8
14 -15 25 -15 11 0 22 -4 26 -9 3 -6 45 -9 94 -7 68 2 97 7 130 24 24 13 58
23 77 24 19 1 34 5 34 9 0 4 20 13 45 20 50 15 55 34 9 35 -18 0 -37 -8 -51
-23 -12 -13 -30 -22 -40 -22 -17 1 -17 2 0 6 23 6 22 23 -3 23 -11 0 -20 -7
-20 -15 0 -16 -25 -18 -75 -5 -23 6 -25 8 -8 9 31 2 34 24 4 37 -19 8 -31 8
-43 0 -14 -8 -22 -6 -40 13 l-23 23 25 -7 c19 -5 21 -4 10 4 -8 6 -23 8 -32 5
-10 -3 -18 -1 -18 5 0 6 5 11 10 11 6 0 10 11 10 25 0 25 0 25 73 20 39 -3 92
-8 116 -10 34 -4 42 -2 38 9 -7 17 31 26 63 14 25 -9 54 7 43 25 -4 7 7 8 33
4 21 -3 33 -3 27 0 -7 2 -13 9 -13 15 0 6 7 8 15 4 8 -3 15 -2 15 2 0 4 26 16
57 25 31 10 84 36 116 57 33 22 63 40 68 40 5 0 9 5 9 10 0 6 8 14 18 17 9 4
32 24 51 45 18 21 39 38 46 38 8 0 16 13 20 29 5 22 11 28 22 24 10 -4 14 -2
10 4 -4 6 7 23 24 37 17 14 26 26 21 26 -5 0 -25 -13 -43 -30 -19 -16 -41 -30
-50 -30 -9 0 -31 -5 -48 -11 -24 -9 -29 -14 -19 -20 9 -6 3 -9 -19 -9 -19 0
-36 -7 -41 -16 -8 -14 -10 -13 -14 8 -4 22 -2 24 20 20 17 -3 23 -1 18 6 -5 8
7 14 34 18 22 4 38 9 35 12 -3 3 14 13 37 22 62 24 127 67 138 93 6 12 14 29
20 37 5 8 15 26 20 40 6 14 20 43 33 65 31 56 51 120 42 136 -5 8 -5 11 0 7 6
-6 75 113 75 130 0 2 -9 1 -20 -3 -15 -5 -18 -3 -14 9 3 9 14 16 24 16 23 0
39 21 42 53 1 15 8 29 15 31 7 3 13 12 13 19 0 8 14 39 30 70 17 31 30 65 30
76 0 10 6 21 13 24 7 2 13 17 15 33 1 15 14 45 27 65 14 20 25 40 23 45 -5 18
24 56 38 50 11 -4 13 0 8 19 -5 19 -2 25 10 25 14 0 20 11 18 31 -1 4 11 17
25 30 14 13 23 18 19 12 -4 -7 -2 -13 4 -13 7 0 9 8 5 19 -4 13 7 31 42 64 64
61 103 91 103 79 0 -6 -6 -13 -12 -15 -10 -4 -10 -6 0 -6 8 -1 16 8 19 19 3
11 16 22 29 25 94 19 89 20 91 -20 1 -19 -2 -35 -7 -35 -5 0 -11 -8 -13 -17
-3 -11 -5 -7 -6 10 0 15 -5 27 -10 27 -5 0 -7 -9 -4 -20 3 -13 -7 -31 -31 -57
-20 -21 -36 -43 -36 -48 0 -6 -17 -22 -38 -35 -28 -18 -38 -30 -34 -43 3 -12
-2 -20 -17 -24 -12 -3 -21 -13 -21 -24 0 -11 -7 -19 -15 -19 -16 0 -34 -29
-28 -45 2 -6 -10 -24 -27 -40 -16 -16 -30 -35 -30 -44 0 -8 -10 -25 -22 -38
-17 -19 -19 -23 -5 -17 10 3 17 1 17 -5 0 -6 -4 -11 -10 -11 -5 0 -10 -8 -10
-19 0 -10 -9 -21 -20 -24 -11 -3 -23 -13 -26 -24 -3 -10 -10 -26 -15 -36 -6
-11 -8 -22 -5 -25 3 -3 6 0 6 6 0 7 7 12 16 12 13 0 14 -3 5 -14 -6 -7 -9 -21
-5 -30 4 -10 1 -16 -8 -16 -7 0 -19 -9 -26 -20 -11 -18 -10 -19 14 -10 18 7
31 7 40 -1 16 -13 34 -4 34 17 0 30 69 127 103 146 20 10 19 8 -5 -24 -26 -34
-26 -36 -6 -30 15 4 19 2 13 -7 -6 -10 -2 -11 15 -6 15 5 20 4 16 -4 -4 -6 -5
-11 -3 -11 9 0 43 64 62 115 18 48 30 65 48 65 4 0 5 -11 1 -25 -4 -15 -2 -25
5 -25 6 0 11 -9 11 -20 0 -11 5 -20 10 -20 6 0 10 5 10 10 0 6 7 10 15 10 8 0
15 8 15 18 0 11 8 27 19 36 18 16 19 16 24 -10 3 -16 -1 -37 -10 -50 -23 -36
5 -43 35 -9 19 23 34 30 68 32 41 2 60 -10 32 -20 -7 -2 1 -8 17 -12 17 -4 36
-12 43 -18 8 -6 12 -6 12 2 0 7 5 9 11 6 6 -4 23 -8 37 -10 15 -2 37 -6 50
-10 16 -6 22 -3 22 9 0 20 19 21 26 2 3 -8 13 -12 25 -9 10 3 19 1 19 -4 0
-12 -120 -26 -144 -17 -9 3 -16 1 -16 -4 0 -6 -26 -16 -57 -22 -65 -14 -153
-78 -153 -111 0 -10 -4 -19 -10 -19 -20 0 -45 -67 -51 -135 -3 -38 -9 -78 -13
-87 -7 -15 -3 -18 23 -18 27 0 31 -4 41 -41 11 -41 51 -112 68 -123 5 -3 43
-9 83 -12 41 -4 86 -13 100 -20 27 -14 57 -69 44 -82 -4 -4 -10 -2 -12 5 -3 9
-20 4 -56 -16 -29 -16 -64 -32 -79 -35 -16 -4 -28 -13 -28 -20 0 -8 -26 -37
-57 -66 -51 -47 -55 -54 -40 -65 9 -7 17 -19 17 -28 0 -15 -103 -97 -121 -97
-22 0 -158 -72 -188 -99 -19 -17 -40 -31 -47 -31 -7 0 -19 -7 -27 -15 -8 -8
-33 -23 -55 -35 -22 -11 -48 -30 -57 -40 -10 -11 -26 -20 -36 -20 -32 0 -129
-86 -278 -247 -20 -22 -26 -35 -19 -40 7 -3 14 -1 16 5 2 7 9 12 16 12 6 0 27
14 45 31 18 16 41 29 49 27 12 -2 1 -20 -41 -68 -79 -89 -128 -141 -159 -167
-39 -35 -140 -85 -150 -75 -10 10 0 42 13 42 5 0 23 14 41 30 17 17 28 30 24
30 -8 0 -67 -31 -76 -40 -10 -10 -77 -33 -127 -43 -41 -8 -66 -7 -123 7 -39
10 -83 24 -98 31 -81 40 -153 65 -186 65 -46 0 -106 19 -106 33 0 7 5 18 12
25 9 9 6 18 -13 38 -13 14 -32 30 -41 35 -30 16 -99 20 -137 7 -56 -19 -69
-34 -66 -78 2 -36 -1 -40 -33 -56 -49 -23 -128 -99 -159 -152 -29 -49 -27 -58
11 -41 20 9 32 9 51 1 50 -23 21 -93 -67 -162 -29 -23 -69 -56 -90 -75 -20
-18 -56 -46 -80 -61 -87 -56 -149 -140 -119 -159 14 -8 -7 -64 -36 -99 -31
-37 -49 -73 -57 -115 -3 -19 -13 -42 -20 -50 -13 -14 -20 -53 -17 -88 2 -20
19 -15 68 17 71 48 93 38 73 -36 -7 -25 -10 -48 -6 -51 4 -4 23 -3 44 3 20 5
45 8 55 6 16 -3 16 -5 0 -33 -10 -16 -21 -29 -25 -29 -4 0 -8 -7 -8 -16 0 -12
10 -14 55 -10 68 5 72 -8 16 -62 -42 -40 -72 -55 -186 -92 -38 -13 -79 -31
-90 -41 -19 -19 -3 -19 744 -19 484 0 770 4 782 10 11 6 16 16 12 26 -6 15 36
64 55 64 5 0 18 11 30 25 12 14 29 25 39 25 9 0 13 3 10 7 -4 3 16 19 43 35
28 16 68 47 89 68 21 22 43 40 49 40 6 0 31 20 55 45 25 25 53 45 63 46 18 0
17 1 -1 9 -11 5 -14 9 -7 9 8 1 22 11 31 23 10 11 22 18 28 15 17 -11 22 -60
9 -87 -7 -14 -21 -42 -31 -62 -10 -21 -24 -38 -31 -38 -7 0 -16 -10 -20 -22
-10 -33 -65 -77 -96 -78 -16 0 -28 -6 -28 -13 0 -7 -16 -21 -35 -30 -19 -9
-35 -21 -35 -26 0 -14 100 -10 130 6 14 7 31 13 38 13 15 0 50 19 77 42 18 15
24 15 53 2 21 -8 31 -19 28 -26 -3 -7 -9 -21 -12 -31 -4 -9 -12 -17 -18 -17
-7 0 -31 -9 -54 -20 -22 -11 -48 -20 -56 -20 -8 0 -18 -5 -21 -11 -4 -6 -17
-14 -29 -19 -13 -5 50 -9 167 -9 148 -1 189 2 193 12 3 8 33 27 67 43 34 16
64 31 67 34 3 3 19 10 35 15 17 6 34 20 40 33 5 12 19 22 30 22 29 1 57 24 44
37 -8 8 -7 13 0 17 6 4 11 3 11 -2 0 -12 179 25 198 41 15 12 102 46 140 54
13 3 26 12 29 19 3 8 34 28 69 44 53 26 124 80 124 96 0 8 54 53 63 54 12 0
96 93 97 107 0 6 5 13 10 15 6 2 17 30 26 63 8 33 16 65 18 70 2 6 3 12 2 15
0 3 8 19 20 35 11 17 27 46 34 65 8 19 24 53 37 75 12 22 33 60 45 84 13 25
46 67 74 95 48 49 158 116 189 116 8 0 15 4 15 9 0 4 11 6 25 3 15 -2 25 0 25
8 0 7 -8 9 -20 5 -13 -4 -20 -2 -20 7 0 15 76 68 97 68 7 0 13 4 13 10 0 5 21
21 48 34 26 14 60 36 76 50 16 14 32 26 36 26 4 0 64 56 134 125 70 69 133
125 140 125 7 0 21 9 31 20 16 18 16 20 2 20 -10 0 -17 5 -17 10 0 6 11 8 28
4 27 -7 27 -7 9 14 -11 11 -16 26 -12 31 12 20 -24 11 -37 -8 -8 -11 -26 -23
-41 -26 -15 -4 -27 -11 -27 -16 0 -5 -9 -9 -21 -9 -28 0 -60 -18 -82 -47 -19
-24 -47 -31 -47 -12 0 5 -5 7 -10 4 -6 -3 -13 1 -16 10 -6 14 -8 14 -25 -1
-17 -15 -19 -15 -25 0 -3 9 -13 16 -21 16 -9 0 -13 6 -10 14 3 7 1 18 -4 23
-11 11 59 53 86 53 8 0 14 3 14 8 -4 22 4 32 25 32 19 0 22 4 19 24 -3 13 0
27 6 30 6 4 11 0 11 -8 0 -9 5 -16 10 -16 6 0 10 3 10 8 0 4 18 7 40 7 35 0
40 2 40 21 0 12 -6 24 -12 27 -7 2 -10 8 -6 12 5 5 16 1 26 -8 25 -23 32 -21
32 8 0 29 8 32 26 7 8 -10 13 -12 14 -4 0 6 6 12 14 12 8 0 22 7 31 16 9 9 18
14 21 11 6 -6 31 12 71 50 20 19 23 20 23 5 1 -15 2 -15 13 -2 7 8 17 15 22
16 6 0 32 10 58 22 27 12 52 22 57 22 4 0 13 12 20 27 15 36 42 85 58 104 7 7
36 44 66 81 83 103 116 134 181 168 78 42 158 51 212 24 43 -22 93 -21 93 3 0
8 9 28 21 44 12 17 19 39 16 49 -6 24 1 25 25 3 17 -15 18 -15 17 3 -1 10 -1
30 -1 43 2 24 2 24 17 5 13 -17 14 -16 5 16 -13 44 -12 59 0 40 7 -11 10 -5
10 23 0 22 -5 37 -12 37 -8 0 -8 3 -3 9 6 6 32 11 59 13 l49 3 12 48 c7 26 8
47 3 47 -5 0 -11 -7 -14 -15 -9 -22 -24 -18 -24 5 0 11 5 20 10 20 6 0 10 5
10 11 0 6 -7 9 -15 5 -11 -4 -15 2 -15 22 0 15 5 34 11 42 8 11 9 7 4 -18 -4
-20 -3 -32 4 -32 6 0 11 7 11 15 0 8 4 15 9 15 5 0 18 3 28 6 16 5 16 4 -1
-10 -24 -19 -30 -46 -10 -46 8 0 14 -7 14 -15 0 -8 3 -15 8 -15 4 0 8 79 9
177 2 157 1 177 -15 189 -16 13 -16 13 1 14 21 0 23 30 2 30 -8 0 -15 5 -15
10 0 6 7 10 15 10 13 0 15 382 15 3375 0 2403 -3 3375 -11 3375 -6 0 -53 -43
-105 -97z m-92 -235 l23 -23 -43 -7 c-23 -4 -46 -9 -51 -12 -5 -3 -24 0 -42 8
l-33 14 40 20 c51 27 79 27 106 0z m58 -448 c0 -5 -2 -10 -4 -10 -3 0 -8 5
-11 10 -3 6 -1 10 4 10 6 0 11 -4 11 -10z m-2647 -120 c-3 -12 -8 -19 -11 -16
-5 6 5 36 12 36 2 0 2 -9 -1 -20z m-117 -76 c6 -8 16 -14 23 -14 6 0 11 -7 11
-15 0 -8 -8 -15 -17 -15 -13 0 -14 -3 -5 -12 16 -16 15 -31 0 -25 -7 2 -14 13
-14 25 -1 12 -2 26 -3 31 -1 10 -20 9 -38 -2 -16 -10 -26 9 -18 34 5 15 12 18
28 13 12 -3 27 -12 33 -20z m614 -184 c0 -5 -4 -10 -10 -10 -5 0 -10 5 -10 10
0 6 5 10 10 10 6 0 10 -4 10 -10z m-56 -66 c4 -11 2 -12 -14 -4 -27 14 -34 29
-11 23 11 -3 22 -11 25 -19z m147 -124 c24 -19 46 -35 48 -36 1 -2 1 -8 -1
-14 -2 -7 -19 1 -42 19 -33 27 -46 31 -95 30 -31 -1 -62 -6 -69 -12 -19 -15
-24 -3 -12 28 10 26 13 27 69 23 47 -3 66 -10 102 -38z m-227 -35 c3 -8 1 -15
-4 -15 -6 0 -10 7 -10 15 0 8 2 15 4 15 2 0 6 -7 10 -15z m1111 -80 c-31 -26
-55 -32 -55 -15 0 6 9 10 19 10 10 0 21 7 25 15 3 8 13 15 23 15 14 -1 11 -6
-12 -25z m-626 -154 c7 -5 12 -14 9 -21 -2 -7 -10 -4 -22 9 -19 21 -12 28 13
12z m81 -61 c35 -20 35 -20 5 -13 -16 3 -36 12 -43 20 -19 18 -3 16 38 -7z
m-366 -50 c-6 -6 -10 -2 -11 12 -2 16 1 18 10 9 7 -7 8 -14 1 -21z m931 -10
c-3 -5 -11 -10 -16 -10 -6 0 -7 5 -4 10 3 6 11 10 16 10 6 0 7 -4 4 -10z
m-903 -12 c0 -7 2 -20 2 -28 1 -8 9 -14 19 -12 11 2 15 -2 11 -13 -4 -9 -1
-15 8 -15 8 0 23 -9 33 -20 17 -19 17 -19 -18 -18 -20 1 -34 5 -32 9 3 4 -3
15 -12 25 -24 24 -44 64 -37 75 8 13 24 11 26 -3z m833 -38 c-3 -5 -16 -10
-28 -10 -18 0 -19 2 -7 10 20 13 43 13 35 0z m-970 -460 c-3 -5 -13 -10 -21
-10 -8 0 -14 5 -14 10 0 6 9 10 21 10 11 0 17 -4 14 -10z m2274 1 c10 -7 11
-13 2 -29 -14 -27 -41 -18 -41 14 0 25 15 30 39 15z m-2221 -28 c-10 -2 -18
-10 -18 -18 0 -14 -29 -29 -38 -20 -10 9 33 44 53 43 17 0 17 -1 3 -5z m1910
-46 c3 -23 0 -27 -22 -27 -21 0 -26 5 -26 23 0 13 3 27 7 31 15 14 38 0 41
-27z m-1538 -612 c0 -20 -5 -25 -25 -25 -27 0 -33 18 -13 38 20 20 38 14 38
-13z m-295 -1605 c3 -5 -1 -10 -9 -10 -9 0 -16 5 -16 10 0 6 4 10 9 10 6 0 13
-4 16 -10z m25 -37 c0 -15 -2 -15 -9 -4 -5 8 -16 11 -25 8 -9 -4 -16 -2 -16 3
0 6 11 10 25 10 17 0 25 -5 25 -17z m-49 -20 c1 -10 1 -29 0 -43 -1 -18 1 -21
7 -11 6 7 15 10 21 7 6 -4 11 -2 11 4 0 6 5 8 11 5 6 -4 -2 -18 -20 -34 -38
-34 -39 -41 -3 -42 24 0 25 -1 7 -9 -30 -13 -53 -12 -58 3 -2 6 -3 4 -2 -5 4
-22 -23 -32 -27 -10 -3 11 -6 7 -10 -11 -4 -23 -3 -27 11 -22 42 17 43 15 9
-10 -22 -16 -34 -33 -31 -41 3 -8 10 -11 15 -8 6 4 6 9 -2 14 -8 5 -5 9 9 13
12 3 21 3 21 0 0 -9 -50 -65 -50 -56 0 4 -5 1 -10 -9 -6 -9 -7 -25 -3 -35 6
-16 8 -15 13 6 3 16 19 29 45 40 22 9 53 25 68 35 21 14 31 16 38 8 5 -7 6
-10 3 -7 -11 7 -36 -24 -28 -36 3 -6 0 -15 -7 -21 -9 -5 4 -6 35 -2 35 5 47 4
42 -5 -4 -6 -2 -11 3 -11 6 0 11 6 11 13 0 8 3 7 9 -3 6 -8 7 -18 5 -22 -3 -4
1 -8 8 -9 7 0 0 -6 -16 -13 l-29 -13 36 -7 c19 -4 38 -14 41 -22 3 -9 13 -14
21 -10 8 3 17 1 20 -4 4 -6 -5 -10 -19 -10 -14 0 -28 -5 -31 -10 -4 -6 -10 -8
-15 -5 -4 3 -28 -17 -53 -45 -50 -55 -61 -61 -53 -27 3 12 3 16 0 10 -3 -7
-13 -13 -21 -13 -9 0 -13 -6 -9 -15 4 -11 -1 -15 -19 -15 -14 0 -25 -4 -25
-10 0 -5 -10 -14 -22 -21 -18 -10 -20 -9 -14 6 4 13 2 16 -9 12 -8 -4 -21 0
-28 8 -12 11 -20 5 -53 -41 -21 -30 -45 -54 -51 -54 -7 0 -13 -9 -13 -19 0
-11 -18 -39 -41 -63 -23 -23 -48 -53 -56 -65 -8 -13 -22 -23 -29 -23 -8 0 -14
-5 -14 -11 0 -5 3 -8 8 -6 48 28 84 39 94 29 8 -8 7 -13 -5 -18 -9 -3 -17 -12
-17 -20 0 -8 -5 -14 -11 -14 -6 0 -9 -8 -6 -19 3 -12 -1 -18 -11 -17 -9 0 -18
-7 -20 -16 -2 -10 1 -18 7 -18 6 0 8 7 5 15 -4 8 -2 15 4 15 6 0 12 -4 14 -10
3 -10 33 15 147 123 48 45 61 54 56 36 -4 -13 -12 -25 -16 -27 -5 -2 -9 -8 -9
-14 0 -6 16 5 35 25 36 37 63 50 48 23 -4 -8 -25 -32 -45 -55 -21 -22 -38 -45
-38 -51 0 -5 -7 -10 -15 -10 -7 0 -19 -8 -24 -17 -6 -10 -11 -14 -11 -10 0 4
-12 -4 -27 -18 -15 -14 -31 -25 -35 -25 -5 0 -8 -7 -8 -16 0 -8 -4 -13 -8 -10
-5 3 -31 -15 -58 -39 -27 -25 -53 -45 -57 -45 -5 0 -15 -7 -23 -15 -9 -8 -24
-15 -34 -15 -10 0 -22 -4 -25 -10 -3 -5 -16 -10 -28 -10 -18 0 -19 -2 -7 -10
8 -5 13 -10 10 -11 -3 0 -14 -2 -24 -4 -11 -2 -39 -18 -63 -34 -24 -17 -50
-31 -57 -31 -7 0 -19 -6 -26 -14 -6 -8 -18 -12 -25 -10 -7 3 -24 0 -37 -7 -20
-11 -84 -26 -140 -31 -9 -1 -16 -7 -15 -13 1 -5 -5 -10 -13 -11 -8 0 -33 -4
-55 -8 -22 -5 -51 -10 -65 -12 -14 -2 -34 -5 -45 -6 -11 -2 -24 -9 -28 -16 -6
-8 -20 -11 -43 -6 -26 5 -35 3 -40 -11 -6 -13 -9 -14 -16 -3 -7 10 -11 10 -15
1 -2 -7 -13 -13 -23 -13 -10 0 -21 -4 -24 -8 -6 -9 -136 -48 -148 -44 -5 1 -8
-6 -8 -15 0 -13 -3 -14 -12 -5 -16 16 -29 15 -22 -2 6 -15 -40 -31 -59 -20 -7
4 -9 3 -4 -1 7 -8 -77 -55 -99 -55 -7 0 -15 -7 -18 -16 -4 -11 -13 -14 -30
-10 -15 4 -28 0 -36 -9 -7 -8 -18 -15 -25 -15 -7 0 -18 -7 -25 -15 -7 -9 -18
-14 -24 -12 -6 2 -26 -9 -44 -24 -34 -30 -77 -38 -85 -16 -3 9 -7 9 -18 1 -8
-6 -22 -11 -31 -11 -14 0 -15 3 -7 14 9 9 8 13 0 13 -6 0 -14 -7 -17 -15 -4
-8 -15 -15 -26 -15 -23 0 -138 -49 -138 -59 0 -4 -32 -6 -71 -5 -56 1 -69 -1
-65 -12 3 -8 1 -14 -4 -14 -6 0 -10 5 -10 10 0 6 -5 10 -11 10 -5 0 -7 -5 -3
-11 5 -8 -27 -10 -112 -7 -66 3 -135 1 -154 -4 -51 -13 -116 -11 -195 7 -38 8
-86 18 -105 22 -19 3 -37 9 -40 13 -9 13 -80 50 -96 50 -9 0 -28 6 -42 14 -53
27 -101 45 -138 52 -22 3 -43 10 -49 14 -10 8 -145 49 -180 54 -33 6 -53 17
-59 32 -6 16 11 18 69 5 22 -5 69 -12 105 -16 54 -5 62 -4 45 6 -11 7 -27 13
-35 14 -8 1 -28 7 -43 14 -16 6 -35 11 -42 11 -8 0 -26 12 -42 26 l-27 25 54
-7 c30 -4 76 -15 101 -25 67 -26 273 -131 277 -140 2 -5 16 -9 31 -9 15 0 31
-4 37 -9 5 -5 51 -24 102 -41 l93 -32 307 -1 c328 -2 331 -2 387 50 11 10 54
26 95 35 89 19 150 40 150 50 0 9 -15 9 -50 -1 -19 -5 -30 -2 -43 14 -10 11
-16 15 -13 8 12 -22 -54 -43 -121 -39 -35 2 -66 0 -69 -5 -3 -5 -10 -7 -15 -4
-5 4 -9 1 -9 -6 0 -8 -4 -8 -15 1 -9 7 -15 8 -15 2 0 -5 -10 -12 -23 -16 -64
-16 -331 -36 -462 -36 -55 1 -222 37 -231 51 -6 10 70 2 126 -12 49 -12 127
-11 153 2 16 9 22 9 25 0 4 -12 32 -16 32 -3 0 4 59 8 131 9 166 2 204 10 479
97 25 8 74 20 110 27 36 7 127 30 202 51 75 21 145 35 155 32 13 -4 15 -3 5 4
-11 7 -7 11 15 16 36 10 179 82 218 111 17 12 41 26 55 30 14 4 35 20 47 34
13 14 28 26 35 27 32 3 38 5 38 13 0 5 -9 7 -20 4 -12 -3 -20 0 -20 7 0 7 14
11 38 10 56 -3 62 -1 56 14 -5 12 -11 13 -30 4 -13 -6 -27 -9 -30 -5 -10 10 6
27 27 27 10 0 19 5 19 10 0 6 7 10 15 10 9 0 12 6 9 15 -4 11 1 15 17 16 23 0
23 1 4 9 -14 6 -15 9 -5 9 23 1 54 41 42 53 -13 13 -4 38 14 38 7 0 22 10 34
22 l20 22 0 -28 c0 -22 -4 -26 -19 -21 -13 4 -20 0 -24 -14 -3 -11 0 -22 7
-25 8 -3 7 -7 -3 -14 -9 -7 -10 -12 -2 -16 6 -4 11 -2 11 3 0 6 5 11 11 11 6
0 19 10 30 23 l18 22 1 -27 c0 -16 -4 -28 -10 -28 -5 0 -10 -4 -10 -10 0 -5 7
-7 15 -4 22 9 20 71 -2 77 -14 4 -12 5 5 6 12 0 22 -5 22 -11 0 -10 2 -10 9 0
7 11 9 11 14 -2 4 -9 2 -16 -3 -16 -6 0 -9 -10 -9 -22 1 -17 2 -19 6 -5 2 9
11 17 19 17 12 0 13 4 3 23 -11 20 -11 21 4 8 15 -12 17 -10 18 15 l1 29 7
-29 6 -29 32 33 c17 18 29 38 27 45 -3 8 2 12 13 12 14 -2 19 7 24 38 4 28 7
32 8 13 1 -31 16 -45 25 -22 3 8 2 12 -4 9 -11 -7 -13 6 -4 29 3 9 14 16 23
16 14 0 14 -2 1 -10 -10 -6 -11 -10 -3 -10 23 0 53 33 42 46 -7 8 -6 14 2 19
6 4 14 3 18 -3 7 -12 109 135 118 169 3 10 9 19 14 19 5 0 9 12 9 26 0 15 8
34 18 43 29 27 51 76 45 100 -4 15 -1 21 8 19 7 -2 15 9 19 27 3 17 12 29 18
27 7 -1 15 5 18 13 8 20 21 19 27 -2 3 -11 5 -7 6 10 0 15 6 27 11 27 6 0 10
13 10 30 0 22 4 28 15 24 9 -4 15 0 15 10 0 9 8 16 20 16 15 0 20 7 20 26 0
22 4 25 21 21 24 -7 49 1 49 15 0 5 -9 6 -20 3 -14 -4 -20 -2 -20 9 0 13 16
22 48 25 6 0 12 -7 13 -16z m29 2 c0 -8 -4 -15 -10 -15 -5 0 -10 7 -10 15 0 8
5 15 10 15 6 0 10 -7 10 -15z m60 -248 c0 -8 -7 -14 -15 -14 -16 0 -19 9 -8
20 11 11 23 8 23 -6z m-370 -59 c0 -5 -4 -8 -10 -8 -5 0 -10 10 -10 23 0 18 2
19 10 7 5 -8 10 -18 10 -22z m-2510 -299 c10 -6 1 -8 -25 -4 -22 3 -44 10 -50
16 -12 13 51 2 75 -12z m1238 -1 c-3 -7 -12 -14 -21 -16 -12 -2 -15 1 -11 12
7 19 38 22 32 4z m-1188 -39 c0 -5 -4 -9 -10 -9 -5 0 -10 7 -10 16 0 8 5 12
10 9 6 -3 10 -10 10 -16z m2685 -18 c-3 -6 -11 -11 -17 -11 -6 0 -6 6 2 15 14
17 26 13 15 -4z m-730 -111 c-3 -5 1 -10 9 -10 9 0 16 -7 16 -15 0 -8 -9 -15
-20 -15 -15 0 -20 7 -20 25 0 14 5 25 11 25 5 0 7 -4 4 -10z m45 -20 c0 -16
-2 -30 -4 -30 -2 0 -6 14 -8 30 -3 17 -1 30 4 30 4 0 8 -13 8 -30z m30 1 c0
-11 -4 -22 -9 -25 -5 -3 -8 6 -8 19 0 14 3 25 8 25 5 0 9 -9 9 -19z m47 -23
c-3 -7 -5 -2 -5 12 0 14 2 19 5 13 2 -7 2 -19 0 -25z m-717 -23 c-15 -18 1
-20 18 -3 8 8 12 8 12 1 0 -16 -32 -25 -44 -13 -8 8 -7 14 4 20 21 14 24 12
10 -5z m568 -29 c-13 -14 -28 -12 -28 5 0 5 9 9 20 9 17 0 19 -2 8 -14z m-638
-93 c0 -10 -45 -53 -55 -53 -3 0 4 13 17 29 22 29 38 39 38 24z m-130 -93 c0
-5 -4 -10 -10 -10 -5 0 -10 5 -10 10 0 6 5 10 10 10 6 0 10 -4 10 -10z m-1344
-386 c18 -14 18 -14 -6 -3 -31 14 -36 19 -24 19 6 0 19 -7 30 -16z m261 -130
c-3 -3 -12 -4 -19 -1 -8 3 -5 6 6 6 11 1 17 -2 13 -5z m667 -59 c-4 -8 -10
-15 -14 -15 -5 0 -17 -3 -27 -6 -10 -3 -4 3 12 15 36 25 36 25 29 6z m-184
-45 c0 -5 -4 -10 -10 -10 -5 0 -10 5 -10 10 0 6 5 10 10 10 6 0 10 -4 10 -10z
m-2373 -135 c-4 -8 -12 -15 -19 -14 -10 0 -10 2 0 6 6 2 12 12 12 21 0 8 3 13
6 9 4 -3 4 -13 1 -22z m3813 -100 c0 -8 -4 -15 -10 -15 -5 0 -10 7 -10 15 0 8
5 15 10 15 6 0 10 -7 10 -15z m2885 -305 c-3 -5 -11 -10 -16 -10 -6 0 -7 5 -4
10 3 6 11 10 16 10 6 0 7 -4 4 -10z m75 -190 c0 -5 -4 -10 -10 -10 -5 0 -10 5
-10 10 0 6 5 10 10 10 6 0 10 -4 10 -10z m-63 -47 c-3 -10 -5 -4 -5 12 0 17 2
24 5 18 2 -7 2 -21 0 -30z m27 15 c-4 -6 0 -15 7 -20 12 -8 11 -9 -1 -5 -8 2
-17 14 -18 26 -2 15 0 21 7 16 6 -3 8 -11 5 -17z m-2767 -4 c-3 -3 -12 -4 -19
-1 -8 3 -5 6 6 6 11 1 17 -2 13 -5z m2723 -34 c0 -5 -4 -10 -10 -10 -5 0 -10
5 -10 10 0 6 5 10 10 10 6 0 10 -4 10 -10z m-2353 -6 c-3 -3 -12 -4 -19 -1 -8
3 -5 6 6 6 11 1 17 -2 13 -5z m2338 -74 c3 -5 1 -10 -4 -10 -6 0 -11 5 -11 10
0 6 2 10 4 10 3 0 8 -4 11 -10z m-35 -47 c0 -5 -5 -15 -10 -23 -8 -12 -10 -11
-10 8 0 12 5 22 10 22 6 0 10 -3 10 -7z m90 -24 c0 -14 -40 -31 -58 -24 -15 6
-14 9 6 25 22 18 52 18 52 -1z m-110 -39 c0 -5 -4 -10 -10 -10 -5 0 -10 5 -10
10 0 6 5 10 10 10 6 0 10 -4 10 -10z m-3490 -20 c0 -5 -7 -10 -16 -10 -8 0
-12 5 -9 10 3 6 10 10 16 10 5 0 9 -4 9 -10z m-7 -55 c-3 -9 -8 -14 -10 -11
-3 3 -2 9 2 15 9 16 15 13 8 -4z m-46 -41 c-3 -3 -12 -4 -19 -1 -8 3 -5 6 6 6
11 1 17 -2 13 -5z m33 -24 c0 -5 -2 -10 -4 -10 -3 0 -8 5 -11 10 -3 6 -1 10 4
10 6 0 11 -4 11 -10z m-55 -10 c-3 -5 -11 -10 -16 -10 -6 0 -7 5 -4 10 3 6 11
10 16 10 6 0 7 -4 4 -10z m35 -44 c0 -3 -4 -8 -10 -11 -5 -3 -10 -1 -10 4 0 6
5 11 10 11 6 0 10 -2 10 -4z m-60 -51 c0 -8 -7 -15 -16 -15 -14 0 -14 3 -4 15
7 8 14 15 16 15 2 0 4 -7 4 -15z m1920 -64 c0 -11 -8 -28 -17 -37 -16 -16 -16
-17 -1 -12 9 4 19 2 22 -5 3 -7 5 -6 5 3 -3 34 1 44 11 34 7 -7 4 -24 -9 -55
-12 -24 -21 -52 -21 -62 0 -11 -9 -21 -21 -24 -12 -4 -22 -17 -26 -34 -3 -16
-9 -26 -14 -23 -5 3 -9 -2 -9 -12 0 -9 -7 -22 -16 -28 -17 -13 -32 -96 -17
-96 6 0 21 20 34 45 13 25 27 45 31 45 5 0 8 11 8 25 0 14 5 25 10 25 13 0 13
-37 0 -45 -6 -4 -8 -15 -5 -25 3 -11 1 -29 -5 -40 -8 -15 -8 -25 -1 -34 15
-18 -5 -56 -58 -111 -47 -49 -113 -85 -158 -85 -17 0 -36 -7 -43 -15 -16 -19
-34 -20 -27 -1 8 20 -21 43 -77 62 -44 15 -48 15 -66 -1 -16 -14 -24 -15 -54
-5 -19 6 -40 17 -46 25 -16 19 -68 45 -90 45 -9 0 -27 12 -41 26 -13 14 -36
32 -51 40 -29 15 -65 61 -55 70 3 3 34 -4 69 -16 51 -18 76 -21 132 -16 141
13 217 42 306 118 8 7 21 12 28 10 9 -2 11 1 6 9 -5 9 -2 10 10 6 12 -5 20 1
28 18 6 14 16 25 22 25 6 0 20 12 33 26 12 15 29 24 36 21 9 -3 19 4 26 19 6
14 16 22 21 19 6 -3 10 2 10 12 0 14 2 15 9 5 6 -11 14 -8 35 13 14 14 26 32
26 40 0 8 2 15 5 15 3 0 5 -9 5 -19z m-4710 -168 c25 -30 57 -69 73 -86 27
-30 38 -87 16 -87 -21 0 -120 113 -144 163 -23 51 -24 80 -2 71 7 -2 32 -30
57 -61z m4713 -204 c-3 -10 -10 -19 -15 -19 -6 0 -7 7 -4 16 3 9 6 23 6 32 0
14 2 14 9 3 5 -7 6 -22 4 -32z m957 26 c0 -9 -6 -12 -16 -8 -13 5 -13 7 -2 14
17 11 18 11 18 -6z m-40 -5 c0 -5 -4 -10 -10 -10 -5 0 -10 5 -10 10 0 6 5 10
10 10 6 0 10 -4 10 -10z m-3106 -14 c-11 -8 -36 -16 -55 -19 -18 -2 -26 -2
-16 0 9 2 17 8 17 13 0 9 23 17 55 19 19 1 19 1 -1 -13z m3088 -21 c0 -5 -5
-11 -11 -13 -6 -2 -11 4 -11 13 0 9 5 15 11 13 6 -2 11 -8 11 -13z m-37 -5 c3
-5 1 -10 -4 -10 -6 0 -11 5 -11 10 0 6 2 10 4 10 3 0 8 -4 11 -10z m-3220 -69
c6 -11 -33 -26 -43 -16 -4 3 0 10 8 15 19 12 27 12 35 1z m3062 -18 c-11 -10
-57 -13 -57 -2 0 5 14 9 32 9 17 0 28 -3 25 -7z m-230 -95 c-3 -8 -6 -5 -6 6
-1 11 2 17 5 13 3 -3 4 -12 1 -19z m-4909 -17 c9 -5 32 -15 50 -21 38 -15 41
-25 7 -25 -14 0 -25 3 -25 7 0 3 -13 11 -30 17 -16 5 -30 15 -30 20 0 13 5 14
28 2z m1872 5 c0 -3 -4 -8 -10 -11 -5 -3 -10 -1 -10 4 0 6 5 11 10 11 6 0 10
-2 10 -4z m-1140 -60 c0 -7 -15 -21 -32 -30 -20 -9 -26 -16 -15 -16 19 0 24
-20 5 -21 -25 -1 -44 -7 -88 -26 -92 -40 -156 -56 -178 -44 -11 6 -37 11 -56
11 -20 0 -44 4 -54 10 -9 5 -35 14 -58 20 -39 10 -84 39 -84 55 0 4 33 5 73 1
183 -16 267 -19 267 -7 0 6 9 11 19 11 11 0 21 5 23 11 3 9 10 9 27 0 15 -9
26 -9 35 -2 6 6 21 8 33 5 15 -4 22 0 26 15 6 24 57 31 57 7z m744 6 c2 -4
-12 -6 -32 -4 -56 5 -62 10 -15 11 23 1 44 -3 47 -7z m-1384 -22 c0 -5 -2 -10
-4 -10 -3 0 -8 5 -11 10 -3 6 -1 10 4 10 6 0 11 -4 11 -10z m1270 -10 c0 -5
-4 -10 -10 -10 -5 0 -10 5 -10 10 0 6 5 10 10 10 6 0 10 -4 10 -10z m-1217 -7
c-7 -2 -19 -2 -25 0 -7 3 -2 5 12 5 14 0 19 -2 13 -5z m657 -88 c-7 -9 -15
-13 -17 -11 -7 7 7 26 19 26 6 0 6 -6 -2 -15z m-670 -65 c0 -3 -5 -11 -12 -18
-16 -16 -68 33 -68 65 0 24 0 24 40 -8 22 -18 40 -35 40 -39z m1300 60 c0 -5
-5 -10 -11 -10 -5 0 -7 5 -4 10 3 6 8 10 11 10 2 0 4 -4 4 -10z m238 -16 c-14
-14 -20 -14 -64 -1 l-49 15 65 1 c59 1 63 0 48 -15z m-903 -4 c-3 -5 -14 -10
-23 -9 -14 0 -13 2 3 9 27 11 27 11 20 0z m735 0 c0 -5 -7 -10 -15 -10 -8 0
-15 5 -15 10 0 6 7 10 15 10 8 0 15 -4 15 -10z m3260 -40 c0 -5 -4 -10 -10
-10 -5 0 -10 5 -10 10 0 6 5 10 10 10 6 0 10 -4 10 -10z m60 3 c-1 -19 -19
-35 -34 -30 -14 6 -15 9 -4 21 14 16 38 21 38 9z m-4580 -28 c10 -13 9 -15 -9
-15 -12 0 -21 6 -21 15 0 8 4 15 9 15 5 0 14 -7 21 -15z m4513 -20 c-3 -9 -8
-14 -10 -11 -3 3 -2 9 2 15 9 16 15 13 8 -4z m-4563 -27 c86 -39 116 -48 177
-54 52 -6 61 -9 47 -17 -36 -21 -131 -9 -197 24 -34 16 -65 36 -69 42 -10 15
-10 29 0 24 4 -2 23 -11 42 -19z m370 -727 c0 -12 -20 -25 -27 -18 -7 7 6 27
18 27 5 0 9 -4 9 -9z m2305 -641 c3 -6 -4 -10 -17 -10 -18 0 -20 2 -8 10 19
12 18 12 25 0z"/>
<path d="M8030 5140 c-9 -6 -10 -10 -3 -10 6 0 15 5 18 10 8 12 4 12 -15 0z"/>
<path d="M7930 4989 c0 -5 5 -7 10 -4 6 3 10 8 10 11 0 2 -4 4 -10 4 -5 0 -10
-5 -10 -11z"/>
<path d="M7635 4590 c-10 -11 -15 -20 -11 -20 14 0 46 21 46 30 0 16 -16 11
-35 -10z"/>
<path d="M7140 4540 c0 -5 5 -10 10 -10 6 0 10 5 10 10 0 6 -4 10 -10 10 -5 0
-10 -4 -10 -10z"/>
<path d="M7196 4405 c4 -8 10 -12 15 -9 11 6 2 24 -11 24 -5 0 -7 -7 -4 -15z"/>
<path d="M7155 4380 c6 -10 4 -12 -11 -6 -15 6 -17 5 -6 -5 9 -9 15 -10 23 -2
8 8 7 13 -2 18 -8 6 -10 4 -4 -5z"/>
<path d="M7100 4360 c0 -5 5 -10 11 -10 5 0 7 5 4 10 -3 6 -8 10 -11 10 -2 0
-4 -4 -4 -10z"/>
<path d="M6265 4040 c3 -5 8 -10 11 -10 2 0 4 5 4 10 0 6 -5 10 -11 10 -5 0
-7 -4 -4 -10z"/>
<path d="M6188 3953 c6 -2 18 -2 25 0 6 3 1 5 -13 5 -14 0 -19 -2 -12 -5z"/>
<path d="M5688 3833 c7 -3 16 -2 19 1 4 3 -2 6 -13 5 -11 0 -14 -3 -6 -6z"/>
<path d="M8180 2100 c-16 -14 -38 -20 -74 -21 -93 -1 -113 -4 -110 -14 5 -11
45 -30 85 -39 37 -8 88 16 126 58 25 29 28 36 14 36 -10 0 -28 -9 -41 -20z"/>
<path d="M7270 9881 c0 -6 -3 -10 -7 -9 -16 4 -123 -14 -128 -21 -2 -5 3 -15
13 -23 19 -18 116 -63 150 -71 20 -5 22 -2 22 35 0 28 -7 49 -25 70 -14 16
-25 25 -25 19z"/>
<path d="M7381 9705 c-12 -35 -8 -75 10 -75 5 0 10 10 10 23 1 12 3 37 5 55 5
42 -9 41 -25 -3z"/>
<path d="M7236 9376 c3 -9 10 -16 14 -16 5 0 16 -7 24 -16 9 -8 16 -11 16 -5
0 5 -13 19 -30 31 -22 16 -28 17 -24 6z"/>
<path d="M6440 9325 c-20 -25 -7 -26 36 -5 l39 19 -31 1 c-17 0 -37 -7 -44
-15z"/>
<path d="M6715 9267 c21 -18 28 -34 32 -82 3 -33 8 -62 12 -65 3 -3 18 -23 32
-45 34 -52 89 -111 89 -95 0 10 3 10 15 0 8 -7 12 -16 9 -22 -3 -5 2 -21 13
-36 10 -15 22 -36 28 -46 5 -10 21 -26 35 -35 23 -15 24 -15 16 4 -4 11 -11
41 -15 66 -4 25 -17 62 -29 81 -17 28 -23 54 -25 119 -1 46 -6 90 -10 97 -5 6
-23 12 -40 12 -18 0 -63 16 -100 35 -79 40 -99 45 -62 12z"/>
<path d="M7920 9090 c0 -5 5 -10 11 -10 5 0 7 5 4 10 -3 6 -8 10 -11 10 -2 0
-4 -4 -4 -10z"/>
<path d="M7993 9050 c2 -8 12 -16 23 -17 13 -2 15 -1 4 4 -8 3 -19 11 -23 17
-6 7 -7 6 -4 -4z"/>
<path d="M8054 9021 c6 -9 79 -33 146 -48 53 -12 182 -10 187 3 3 10 -58 19
-197 29 -19 1 -53 7 -75 14 -48 13 -68 14 -61 2z"/>
<path d="M8400 8984 c0 -15 6 -16 35 -5 17 7 17 8 -8 13 -19 4 -27 1 -27 -8z"/>
<path d="M7731 8654 c0 -11 3 -14 6 -6 3 7 2 16 -1 19 -3 4 -6 -2 -5 -13z"/>
<path d="M6610 8594 c-3 -219 -13 -351 -30 -397 -11 -29 -20 -61 -20 -73 0
-11 -5 -25 -12 -32 -9 -9 -9 -12 0 -12 7 0 12 -13 12 -30 0 -16 -4 -30 -10
-30 -5 0 -10 -4 -10 -10 0 -24 46 -7 66 24 18 28 23 56 29 160 5 98 10 126 21
126 19 0 18 24 -1 40 -16 13 -20 40 -7 40 5 0 9 7 9 15 0 8 -4 15 -9 15 -4 0
-8 9 -8 20 0 11 -5 29 -11 39 -9 13 -9 27 -2 48 8 22 7 34 -3 48 -8 10 -14 15
-14 9z"/>
<path d="M7676 8559 c2 -4 -3 -9 -11 -13 -8 -3 -15 -12 -15 -21 0 -25 13 -18
47 25 10 13 9 16 -7 16 -10 0 -17 -3 -14 -7z"/>
<path d="M7825 8480 c4 -6 11 -8 16 -5 14 9 11 15 -7 15 -8 0 -12 -5 -9 -10z"/>
<path d="M6845 8370 c-4 -6 3 -10 14 -10 25 0 27 6 6 13 -8 4 -17 2 -20 -3z"/>
<path d="M6967 8203 c-13 -12 -7 -43 8 -43 16 0 19 -9 9 -35 -6 -13 -9 -14
-16 -3 -7 9 -7 5 -3 -12 4 -14 7 -38 6 -54 -1 -31 22 -55 53 -56 14 0 17 5 13
23 -3 12 -12 49 -20 82 -12 53 -32 105 -41 105 -1 0 -6 -3 -9 -7z"/>
<path d="M6693 8115 c0 -22 2 -30 4 -17 2 12 2 30 0 40 -3 9 -5 -1 -4 -23z"/>
<path d="M6865 8120 c-10 -32 -8 -101 4 -113 11 -11 21 92 11 118 -7 18 -8 18
-15 -5z"/>
<path d="M7767 8116 c-10 -8 -14 -16 -10 -19 5 -3 14 3 21 14 14 22 13 23 -11
5z"/>
<path d="M7773 8029 c3 -22 0 -25 -24 -21 -26 4 -41 -8 -45 -35 -3 -18 23 -16
57 4 31 18 33 26 18 58 -8 18 -9 17 -6 -6z"/>
<path d="M7728 8023 c6 -2 18 -2 25 0 6 3 1 5 -13 5 -14 0 -19 -2 -12 -5z"/>
<path d="M6667 7973 c-5 -18 -13 -33 -19 -33 -6 0 -8 -6 -5 -14 3 -8 0 -16 -7
-19 -7 -3 -18 -25 -25 -48 -7 -24 -18 -49 -23 -56 -5 -7 -10 -28 -11 -48 -1
-19 -5 -35 -9 -35 -4 0 -8 -9 -8 -19 0 -11 -5 -21 -12 -23 -9 -3 -9 -6 0 -12
7 -4 21 8 36 32 13 21 30 45 38 53 22 24 42 82 41 124 -1 22 3 43 9 46 5 3 8
24 6 45 l-3 39 -8 -32z"/>
<path d="M6984 7976 c-8 -22 3 -49 19 -43 6 2 12 14 12 27 0 27 -22 39 -31 16z"/>
<path d="M7660 7980 c0 -5 5 -10 11 -10 5 0 7 5 4 10 -3 6 -8 10 -11 10 -2 0
-4 -4 -4 -10z"/>
<path d="M6531 7934 c0 -11 3 -14 6 -6 3 7 2 16 -1 19 -3 4 -6 -2 -5 -13z"/>
<path d="M6982 7903 c2 -10 10 -18 18 -18 8 0 16 8 18 18 2 12 -3 17 -18 17
-15 0 -20 -5 -18 -17z"/>
<path d="M6474 7827 c-6 -7 -14 -24 -17 -38 -4 -14 -18 -38 -32 -53 -14 -15
-25 -34 -25 -42 0 -8 -4 -13 -9 -10 -5 4 -23 -16 -40 -44 -19 -30 -26 -52 -20
-56 15 -9 81 5 73 17 -3 5 6 19 20 30 27 21 35 49 14 49 -7 0 -4 6 7 12 11 6
28 20 39 29 10 10 22 16 26 14 4 -3 10 4 13 15 3 13 10 18 21 14 11 -4 16 -1
16 11 0 9 -4 14 -9 11 -5 -4 -15 7 -23 24 -13 31 -35 38 -54 17z"/>
<path d="M6790 7700 c-9 -6 -10 -10 -3 -10 6 0 15 5 18 10 8 12 4 12 -15 0z"/>
<path d="M6303 7568 c-38 -59 -37 -75 6 -83 19 -3 22 -1 18 15 -4 14 -1 17 12
13 9 -4 13 -3 9 2 -4 4 -3 14 4 22 8 10 8 17 0 25 -7 7 -12 8 -12 4 0 -5 -6
-3 -14 3 -11 9 -16 9 -23 -1z"/>
<path d="M6236 7475 c4 -10 0 -15 -11 -15 -29 0 -197 -148 -190 -167 2 -8 -4
-13 -15 -13 -11 0 -20 -5 -20 -10 0 -15 -73 -90 -88 -90 -7 0 -34 -16 -59 -35
-25 -19 -53 -35 -62 -35 -10 0 -21 -4 -27 -9 -5 -5 -24 -12 -43 -15 -19 -2
-37 -8 -40 -13 -11 -15 -51 -33 -74 -33 -19 0 -29 -11 -50 -52 -43 -87 -54
-126 -93 -338 -20 -106 -27 -389 -14 -529 6 -58 15 -164 20 -236 12 -156 25
-190 88 -233 73 -49 118 -40 190 37 61 66 89 131 97 229 8 99 -1 186 -20 178
-18 -7 -55 22 -55 44 0 10 -6 20 -12 23 -9 3 -7 7 5 12 19 8 51 -1 44 -12 -2
-5 4 -17 14 -27 19 -19 19 -19 20 0 0 18 1 18 9 -1 9 -21 9 -21 14 38 1 6 -5
11 -11 10 -7 -2 -13 4 -13 12 0 8 -5 15 -11 15 -10 0 -88 57 -102 75 -4 6 -5
20 -2 33 3 14 1 22 -7 23 -52 3 -80 29 -72 66 3 11 -1 33 -8 47 -18 35 2 214
26 232 9 6 16 18 16 26 0 9 9 18 20 21 20 5 29 37 10 37 -5 0 -10 5 -10 11 0
5 4 8 9 4 5 -3 12 -1 16 5 3 5 -1 10 -9 10 -19 0 -19 -1 -1 44 8 20 21 36 27
36 7 0 33 22 58 48 28 30 63 56 93 67 38 14 45 20 36 31 -9 11 -8 14 5 14 18
0 21 11 5 27 -7 7 -2 15 15 27 26 16 38 44 14 30 -7 -4 -4 2 7 13 11 11 23 19
26 17 8 -5 38 33 32 40 -4 3 1 6 10 6 9 0 17 7 17 16 0 13 7 15 30 10 22 -4
32 -1 36 9 4 8 12 15 19 15 13 0 30 48 21 57 -6 6 8 25 52 69 18 19 30 34 26
34 -4 0 0 8 8 18 9 9 18 26 22 37 5 17 1 21 -19 23 -18 1 -23 -2 -19 -13z"/>
<path d="M6190 7330 c0 -5 5 -10 11 -10 5 0 7 5 4 10 -3 6 -8 10 -11 10 -2 0
-4 -4 -4 -10z"/>
<path d="M17 7236 c-15 -12 -17 -35 -17 -225 0 -116 4 -211 9 -211 5 0 14 15
21 33 7 17 18 46 25 62 38 86 47 130 40 189 -13 120 -18 141 -34 153 -20 15
-22 15 -44 -1z"/>
<path d="M5090 6933 c0 -5 7 -17 15 -27 15 -20 20 -10 9 18 -6 16 -24 22 -24
9z"/>
<path d="M6472 6320 c0 -14 2 -19 5 -12 2 6 2 18 0 25 -3 6 -5 1 -5 -13z"/>
<path d="M6342 6280 c0 -14 2 -19 5 -12 2 6 2 18 0 25 -3 6 -5 1 -5 -13z"/>
<path d="M6366 6139 c4 -35 13 -91 20 -124 l14 -60 -5 70 c-4 78 -18 162 -28
172 -4 3 -4 -23 -1 -58z"/>
<path d="M6403 5825 c0 -44 2 -61 4 -37 2 23 2 59 0 80 -2 20 -4 1 -4 -43z"/>
<path d="M5280 5781 c0 -12 5 -21 10 -21 6 0 10 6 10 14 0 8 -4 18 -10 21 -5
3 -10 -3 -10 -14z"/>
<path d="M6391 5694 c0 -11 3 -14 6 -6 3 7 2 16 -1 19 -3 4 -6 -2 -5 -13z"/>
<path d="M5268 5559 c-1 -28 0 -53 5 -56 4 -2 7 21 7 51 0 70 -7 73 -12 5z"/>
<path d="M5521 5495 c0 -22 4 -87 10 -145 6 -58 10 -113 10 -122 0 -22 12 -22
56 -2 25 12 31 19 21 25 -10 7 -7 11 10 15 12 4 22 10 22 14 0 5 18 26 40 48
46 45 50 57 15 57 -14 0 -25 -3 -25 -7 0 -9 -19 -5 -57 11 -21 8 -33 20 -33
32 0 11 -4 19 -10 19 -5 0 -10 9 -10 19 0 11 -11 33 -25 48 l-24 28 0 -40z
m162 -150 c-3 -9 -8 -14 -10 -11 -3 3 -2 9 2 15 9 16 15 13 8 -4z"/>
<path d="M6333 5480 c-12 -28 -19 -50 -17 -50 7 0 46 91 42 96 -2 2 -14 -19
-25 -46z"/>
<path d="M5245 5423 c-3 -27 -9 -65 -12 -87 -3 -27 -2 -36 6 -32 6 4 11 18 11
31 0 13 4 25 8 27 5 2 12 27 15 56 5 41 3 52 -8 52 -9 0 -16 -17 -20 -47z"/>
<path d="M6226 5273 c-6 -14 -5 -15 5 -6 7 7 10 15 7 18 -3 3 -9 -2 -12 -12z"/>
<path d="M5310 5006 c0 -2 7 -7 16 -10 8 -3 12 -2 9 4 -6 10 -25 14 -25 6z"/>
<path d="M5430 4960 c-18 -11 18 -22 37 -11 13 7 12 9 -5 13 -11 3 -25 2 -32
-2z"/>
<path d="M5470 4935 c0 -2 10 -10 23 -16 20 -11 21 -11 8 4 -13 16 -31 23 -31
12z"/>
<path d="M1976 4869 c-14 -11 -26 -25 -26 -30 0 -12 103 -7 113 6 4 6 10 5 15
-3 6 -9 19 -10 47 -4 l39 8 -67 22 c-83 27 -88 27 -121 1z"/>
<path d="M5688 4863 c7 -3 16 -2 19 1 4 3 -2 6 -13 5 -11 0 -14 -3 -6 -6z"/>
<path d="M1906 4818 c-19 -27 -21 -48 -3 -48 11 0 37 43 37 62 0 16 -19 8 -34
-14z"/>
<path d="M5871 4754 c0 -11 3 -14 6 -6 3 7 2 16 -1 19 -3 4 -6 -2 -5 -13z"/>
<path d="M6040 4760 c-13 -9 -13 -10 0 -10 8 0 22 5 30 10 13 9 13 10 0 10 -8
0 -22 -5 -30 -10z"/>
<path d="M5890 4750 c0 -5 5 -10 11 -10 5 0 7 5 4 10 -3 6 -8 10 -11 10 -2 0
-4 -4 -4 -10z"/>
<path d="M5015 4456 c17 -14 33 -26 37 -26 8 0 36 -22 67 -50 28 -27 89 -70
99 -70 5 0 12 11 14 25 4 21 2 24 -16 19 -15 -3 -38 9 -81 46 -37 32 -67 49
-77 46 -18 -4 -25 8 -10 17 4 2 1 2 -6 0 -7 -1 -23 2 -35 8 -15 7 -13 2 8 -15z"/>
<path d="M5155 4390 c3 -5 11 -10 16 -10 6 0 7 5 4 10 -3 6 -11 10 -16 10 -6
0 -7 -4 -4 -10z"/>
<path d="M3496 2903 c-6 -14 -5 -15 5 -6 7 7 10 15 7 18 -3 3 -9 -2 -12 -12z"/>
<path d="M10225 2880 c3 -5 8 -10 11 -10 2 0 4 5 4 10 0 6 -5 10 -11 10 -5 0
-7 -4 -4 -10z"/>
<path d="M6817 2844 c-9 -9 6 -65 17 -61 6 2 11 9 11 15 0 5 3 14 8 18 4 4 7
11 7 15 0 7 -37 19 -43 13z"/>
<path d="M10100 2771 c0 -56 17 -60 22 -6 2 31 -1 45 -9 45 -8 0 -13 -14 -13
-39z"/>
<path d="M6766 2793 c-11 -11 -6 -23 9 -23 8 0 15 4 15 9 0 13 -16 22 -24 14z"/>
<path d="M10142 2770 c0 -19 2 -27 5 -17 2 9 2 25 0 35 -3 9 -5 1 -5 -18z"/>
<path d="M10162 2780 c0 -14 2 -19 5 -12 2 6 2 18 0 25 -3 6 -5 1 -5 -13z"/>
<path d="M10191 2784 c0 -11 3 -14 6 -6 3 7 2 16 -1 19 -3 4 -6 -2 -5 -13z"/>
<path d="M10231 2784 c0 -11 3 -14 6 -6 3 7 2 16 -1 19 -3 4 -6 -2 -5 -13z"/>
<path d="M6774 2740 c0 -11 3 -20 7 -20 10 0 19 27 12 34 -12 11 -19 6 -19
-14z"/>
<path d="M6728 2703 c6 -2 18 -2 25 0 6 3 1 5 -13 5 -14 0 -19 -2 -12 -5z"/>
<path d="M1060 2520 c-12 -8 -9 -10 12 -10 15 0 30 5 33 10 8 13 -25 13 -45 0z"/>
<path d="M1143 2523 c9 -2 23 -2 30 0 6 3 -1 5 -18 5 -16 0 -22 -2 -12 -5z"/>
<path d="M1250 2515 c-7 -8 -24 -15 -37 -15 -19 0 -24 -4 -19 -16 3 -9 6 -18
6 -20 0 -2 9 1 20 8 15 10 25 10 38 2 9 -6 26 -8 37 -3 33 13 42 10 49 -13 5
-19 8 -20 15 -9 8 12 12 12 25 2 9 -7 27 -11 41 -9 13 3 22 1 19 -3 -3 -5 6
-9 20 -9 14 0 26 -4 26 -9 0 -4 20 -14 45 -21 25 -7 48 -16 51 -21 2 -4 10 -6
17 -3 7 2 33 -2 57 -11 105 -37 261 -57 275 -35 3 5 17 10 29 10 13 0 29 6 35
14 9 11 2 12 -41 5 -29 -5 -69 -4 -92 1 -23 5 -56 10 -75 10 -39 0 -69 8 -196
56 -49 18 -110 38 -135 44 -25 6 -65 19 -90 29 -68 28 -106 33 -120 16z m50
-25 c-20 -13 -43 -13 -35 0 3 6 16 10 28 10 18 0 19 -2 7 -10z"/>
<path d="M1005 2510 c-3 -5 -15 -10 -25 -10 -10 0 -21 -4 -24 -9 -3 -4 15 -3
39 2 25 6 45 14 45 19 0 11 -28 10 -35 -2z"/>
<path d="M9853 2460 c-18 -21 -33 -42 -33 -47 0 -10 88 -9 141 2 23 4 39 3 43
-4 4 -6 0 -11 -8 -11 -9 0 -16 -4 -16 -10 0 -5 -9 -10 -21 -10 -32 0 -56 -17
-123 -84 -34 -34 -69 -67 -79 -72 -18 -10 -57 -104 -57 -137 0 -10 -13 -51
-29 -91 -27 -66 -30 -86 -34 -225 -2 -83 -3 -150 -1 -148 2 2 14 34 26 72 13
38 28 70 34 72 20 7 16 -103 -7 -177 -15 -51 -36 -89 -70 -133 -54 -66 -239
-232 -279 -249 -14 -6 -48 -21 -76 -34 -59 -26 -203 -45 -333 -44 -47 1 -111
-3 -141 -9 -65 -11 -168 -48 -191 -67 -8 -8 -19 -14 -24 -14 -11 0 -115 -78
-137 -103 -28 -31 -23 -49 10 -41 15 4 35 11 44 15 40 21 43 -4 5 -43 -8 -7
-31 -36 -53 -64 -21 -28 -60 -78 -86 -112 -27 -33 -48 -67 -48 -75 0 -8 -11
-30 -24 -50 -13 -19 -27 -57 -31 -84 -9 -74 -16 -94 -47 -146 -15 -26 -28 -50
-28 -52 0 -17 -76 -117 -114 -150 -68 -59 -157 -115 -183 -115 -12 0 -25 -5
-28 -10 -4 -7 97 -10 295 -10 287 0 303 1 330 20 16 11 44 27 62 36 18 8 61
30 96 49 45 26 62 32 62 21 0 -11 9 -14 35 -11 26 4 35 1 35 -9 0 -15 -56 -76
-70 -76 -4 0 -13 -7 -20 -15 -11 -13 31 -15 370 -15 l382 0 45 30 c24 17 47
30 50 30 15 0 73 53 73 66 0 8 10 25 23 38 22 22 37 51 72 131 10 22 26 52 36
66 10 14 21 37 24 52 4 15 11 27 16 27 5 0 9 8 9 18 0 27 53 109 68 105 7 -3
12 4 12 19 0 12 12 37 26 53 14 17 30 37 34 45 6 10 12 12 19 5 6 -7 5 -24 -5
-50 -7 -22 -14 -48 -14 -57 0 -10 -4 -18 -10 -18 -5 0 -10 -6 -10 -14 0 -7 -7
-19 -15 -26 -8 -7 -14 -18 -13 -24 1 -6 -7 -28 -17 -49 -15 -30 -17 -42 -8
-57 9 -13 9 -28 3 -52 -6 -18 -10 -34 -10 -36 0 -2 17 -2 38 0 37 3 37 3 38
-37 2 -38 -29 -105 -48 -105 -5 0 -8 -7 -8 -15 0 -8 -4 -15 -10 -15 -5 0 -10
-4 -10 -10 0 -20 28 -9 61 23 48 47 149 163 149 171 0 12 63 76 74 76 6 0 24
15 41 33 16 19 38 37 48 40 10 4 16 11 12 16 -3 5 -1 12 5 16 7 4 10 340 10
1007 0 969 -1 1001 -18 985 -10 -10 -24 -17 -30 -17 -7 0 -12 -5 -12 -11 0
-16 -27 -39 -46 -39 -17 0 -17 1 1 14 16 12 14 14 -26 19 -96 15 -145 25 -172
36 -42 17 -49 14 -84 -29z m117 -1730 c0 -5 -5 -10 -11 -10 -5 0 -7 5 -4 10 3
6 8 10 11 10 2 0 4 -4 4 -10z"/>
<path d="M870 2457 c-26 -17 -30 -23 -17 -25 15 -3 87 33 87 44 0 11 -39 1
-70 -19z"/>
<path d="M1090 2460 c0 -5 5 -10 11 -10 5 0 7 5 4 10 -3 6 -8 10 -11 10 -2 0
-4 -4 -4 -10z"/>
<path d="M957 2417 c-4 -10 2 -13 19 -9 13 2 21 8 18 13 -8 14 -31 11 -37 -4z"/>
<path d="M2070 2388 c-19 -9 -21 -12 -9 -15 9 -2 32 3 50 11 31 13 32 14 9 15
-14 0 -36 -5 -50 -11z"/>
<path d="M693 2367 c-13 -5 -23 -14 -23 -19 0 -5 10 -6 23 -2 27 8 30 10 26
22 -3 6 -13 5 -26 -1z"/>
<path d="M876 2371 c-3 -4 6 -6 19 -3 14 2 25 6 25 8 0 8 -39 4 -44 -5z"/>
<path d="M623 2329 c-31 -12 -29 -18 7 -17 17 1 30 5 30 9 0 14 -14 17 -37 8z"/>
<path d="M485 2275 c-44 -19 -84 -35 -90 -35 -5 0 -23 -7 -38 -15 -15 -8 -34
-12 -42 -8 -9 3 -21 1 -28 -5 -6 -5 -28 -12 -47 -15 -19 -3 -81 -18 -137 -33
l-103 -28 0 -256 0 -257 24 -11 c13 -6 40 -14 60 -18 20 -3 39 -11 42 -16 3
-5 19 -6 35 -3 22 5 29 3 29 -9 0 -9 8 -16 20 -16 11 0 20 6 20 14 0 17 56 29
79 17 10 -6 23 -6 32 0 7 5 34 6 59 3 33 -4 41 -3 30 5 -12 9 -9 11 15 11 51
0 101 19 114 43 6 12 10 15 8 7 -4 -13 13 -15 112 -15 121 0 173 -12 330 -72
45 -18 66 -22 74 -14 6 6 25 11 42 10 26 0 27 -2 10 -9 -15 -6 -9 -9 25 -9 33
0 40 3 25 9 -19 7 -19 8 -2 15 10 4 29 3 41 -3 17 -8 29 -7 42 2 23 15 123 38
134 31 5 -3 17 6 28 20 13 17 22 21 24 13 5 -15 97 27 158 71 84 61 251 211
235 211 -4 0 4 10 18 23 30 25 36 57 11 57 -24 0 -11 24 16 30 48 11 30 26
-32 26 -73 0 -166 13 -190 25 -9 5 -30 9 -47 9 -16 0 -32 4 -35 9 -3 4 -25 11
-48 14 -24 3 -62 15 -84 26 -60 29 -251 48 -330 32 -32 -7 -72 -15 -89 -18
-16 -3 -33 -11 -37 -18 -4 -6 -17 -11 -30 -10 -13 1 -29 -5 -37 -12 -7 -8 -25
-13 -40 -11 -16 2 -25 -2 -24 -10 2 -8 -9 -12 -31 -12 -19 0 -38 -4 -41 -10
-3 -5 -13 -10 -21 -10 -8 0 -44 -13 -79 -30 -35 -16 -69 -30 -75 -30 -6 0 -18
-5 -28 -11 -14 -9 -25 -8 -48 4 -23 13 -25 16 -10 17 16 0 17 3 8 12 -9 9 -15
9 -24 0 -7 -7 -22 -12 -34 -12 -13 0 -26 -4 -29 -10 -3 -5 -15 -10 -26 -10
-10 0 -19 -3 -19 -7 0 -5 -20 -9 -45 -11 -35 -2 -45 1 -45 13 0 8 5 15 10 15
6 0 2 10 -9 22 -11 11 -18 25 -15 30 7 10 -65 2 -119 -14 -32 -10 -40 -9 -48
3 -7 11 -10 10 -15 -8 -7 -24 -73 -46 -96 -32 -10 6 -10 9 0 9 6 0 12 9 12 21
0 13 10 23 29 30 16 6 32 17 35 25 3 8 17 14 31 14 14 0 25 4 25 9 0 13 62 23
74 11 16 -16 30 -11 15 6 -10 13 -10 17 2 25 8 5 25 9 38 9 18 0 22 -4 18 -20
-3 -11 -1 -20 4 -20 5 0 9 10 9 23 0 17 10 28 41 41 26 12 39 23 35 32 -3 9 1
14 14 14 10 0 22 5 25 10 4 6 16 8 27 4 13 -4 18 -2 14 4 -3 5 0 9 7 9 18 -1
77 26 77 35 0 4 7 8 15 8 8 0 15 5 15 10 0 17 -21 11 -105 -25z m-110 -75 c3
-5 -1 -10 -10 -10 -9 0 -23 -7 -32 -15 -8 -8 -19 -13 -24 -10 -16 10 -10 25
10 25 11 0 23 5 26 10 3 6 10 10 15 10 5 0 12 -4 15 -10z m-172 -47 c-7 -2
-19 -2 -25 0 -7 3 -2 5 12 5 14 0 19 -2 13 -5z m852 -60 c-24 -17 -35 -17 -35
0 0 20 9 25 32 19 20 -5 20 -6 3 -19z m175 -4 c0 -5 -7 -9 -15 -9 -9 0 -15 9
-15 21 0 18 2 19 15 9 8 -7 15 -16 15 -21z m170 11 c0 -3 -28 -8 -62 -9 -36
-1 -58 2 -50 7 15 10 112 12 112 2z m120 -31 c25 -5 62 -12 83 -16 42 -6 50
-14 41 -37 -7 -19 -24 -21 -24 -3 0 8 -13 14 -32 14 -18 1 -42 3 -53 6 -11 2
-37 7 -57 12 -29 5 -38 12 -38 27 0 15 4 18 18 13 9 -3 37 -11 62 -16z m-607
-4 c-8 -22 -61 -48 -81 -40 -14 5 -13 9 8 20 14 8 33 14 43 15 10 0 15 5 12
10 -3 6 1 10 9 10 10 0 13 -6 9 -15z m67 5 c0 -5 -9 -10 -20 -10 -11 0 -20 5
-20 10 0 6 9 10 20 10 11 0 20 -4 20 -10z m700 -40 c0 -5 -5 -10 -11 -10 -5 0
-7 5 -4 10 3 6 8 10 11 10 2 0 4 -4 4 -10z m-640 -10 c0 -5 -9 -10 -20 -10
-11 0 -20 5 -20 10 0 6 9 10 20 10 11 0 20 -4 20 -10z m-755 -26 c19 -29 7
-54 -26 -54 -14 0 -19 7 -19 30 0 17 5 30 13 30 8 0 7 4 -3 10 -13 8 -13 10 1
10 9 0 24 -12 34 -26z m208 -28 c7 3 3 -2 -7 -10 -11 -9 -31 -15 -45 -15 -25
2 -25 2 -3 6 13 3 26 12 29 21 4 10 8 12 11 4 2 -7 9 -10 15 -6z m547 -391
c14 -8 21 -14 15 -14 -5 0 -21 6 -35 14 -14 8 -20 14 -15 14 6 0 21 -6 35 -14z"/>
<path d="M775 2300 c-3 -5 1 -10 9 -10 9 0 16 5 16 10 0 6 -4 10 -9 10 -6 0
-13 -4 -16 -10z"/>
<path d="M720 2255 c0 -8 4 -15 10 -15 5 0 7 7 4 15 -4 8 -8 15 -10 15 -2 0
-4 -7 -4 -15z"/>
<path d="M670 2230 c0 -5 5 -10 10 -10 6 0 10 5 10 10 0 6 -4 10 -10 10 -5 0
-10 -4 -10 -10z"/>
<path d="M9645 2190 c-4 -14 -16 -32 -26 -41 -11 -9 -19 -23 -19 -32 0 -8 -6
-17 -13 -20 -27 -10 -40 -91 -44 -274 -2 -101 -2 -183 1 -183 10 0 45 190 49
267 4 69 10 91 35 131 34 55 47 116 34 152 l-9 25 -8 -25z"/>
<path d="M6480 2180 c0 -5 5 -10 10 -10 6 0 10 5 10 10 0 6 -4 10 -10 10 -5 0
-10 -4 -10 -10z"/>
<path d="M586 2167 c-11 -7 -29 -20 -40 -30 -11 -10 -31 -20 -43 -23 -13 -4
-23 -10 -23 -15 0 -14 26 -10 40 6 7 8 19 15 26 15 8 0 14 4 14 8 0 4 16 14
35 21 19 7 33 17 30 22 -8 11 -15 11 -39 -4z"/>
<path d="M6498 2153 c7 -3 16 -2 19 1 4 3 -2 6 -13 5 -11 0 -14 -3 -6 -6z"/>
<path d="M660 2084 c-24 -13 -24 -14 18 -14 31 0 42 4 42 15 0 18 -26 18 -60
-1z"/>
<path d="M6360 2086 c0 -8 -6 -17 -12 -20 -7 -4 2 -4 20 -1 18 2 32 0 32 -6 0
-6 4 -8 10 -4 10 6 -24 45 -40 45 -5 0 -10 -6 -10 -14z"/>
<path d="M310 2072 c6 -2 10 -10 10 -18 0 -10 12 -14 40 -14 22 0 40 5 40 10
0 6 14 10 32 10 17 0 28 3 24 8 -4 4 -41 7 -82 7 -40 0 -69 -1 -64 -3z"/>
<path d="M6435 2060 c3 -5 10 -10 16 -10 5 0 9 5 9 10 0 6 -7 10 -16 10 -8 0
-12 -4 -9 -10z"/>
<path d="M560 2035 c0 -8 5 -15 10 -15 6 0 10 7 10 15 0 8 -4 15 -10 15 -5 0
-10 -7 -10 -15z"/>
<path d="M88 2023 c7 -3 16 -2 19 1 4 3 -2 6 -13 5 -11 0 -14 -3 -6 -6z"/>
<path d="M6330 2010 c-24 -15 -7 -19 25 -5 23 10 25 14 10 14 -11 0 -27 -3
-35 -9z"/>
<path d="M6294 1944 c-18 -14 -18 -15 4 -4 12 6 22 13 22 15 0 8 -5 6 -26 -11z"/>
<path d="M9080 1860 c0 -5 4 -10 9 -10 6 0 13 5 16 10 3 6 -1 10 -9 10 -9 0
-16 -4 -16 -10z"/>
<path d="M9447 1846 c-4 -10 -5 -21 -2 -24 9 -9 17 6 13 25 -3 17 -4 17 -11
-1z"/>
<path d="M9105 1810 c-3 -5 -1 -10 4 -10 6 0 11 5 11 10 0 6 -2 10 -4 10 -3 0
-8 -4 -11 -10z"/>
<path d="M8885 1790 c3 -5 12 -10 20 -10 8 0 17 5 20 10 4 6 -5 10 -20 10 -15
0 -24 -4 -20 -10z"/>
<path d="M8835 1760 c4 -6 11 -8 16 -5 14 9 11 15 -7 15 -8 0 -12 -5 -9 -10z"/>
<path d="M8165 481 c-8 -17 -12 -36 -9 -44 3 -9 -3 -16 -15 -20 -14 -3 -19
-11 -15 -20 3 -8 1 -18 -5 -22 -14 -8 -14 -35 -1 -35 6 0 10 9 10 20 0 10 6
23 14 27 18 10 56 82 56 105 0 27 -18 21 -35 -11z"/>
<path d="M10184 268 c-56 -58 -79 -78 -202 -180 -46 -37 -88 -68 -93 -68 -5 0
-9 -4 -9 -10 0 -6 67 -10 180 -10 l180 0 0 160 c0 88 -1 160 -3 160 -1 0 -25
-24 -53 -52z m29 -94 c11 -11 -5 -33 -50 -70 -34 -28 -47 -34 -56 -25 -9 10
-1 23 37 57 50 45 58 49 69 38z"/>
<path d="M4115 10 c4 -6 11 -8 16 -5 14 9 11 15 -7 15 -8 0 -12 -5 -9 -10z"/>
</g>
</svg>
