<svg width="512" height="512" viewBox="0 0 512 512" fill="none" xmlns="http://www.w3.org/2000/svg">
<path d="M203.51 37.4912H308.49V300.213H203.51V37.4912Z" fill="#E5E3E5"/>
<path d="M264.53 82.1322L295.381 284.876H216.619L247.47 82.1322L233.298 54.6062L242.455 37.4912H269.545L278.702 54.6062L264.53 82.1322Z" fill="#F96464"/>
<path d="M129.816 249.794L107.192 461.469C106.898 464.224 105.566 466.764 103.466 468.571C101.367 470.379 98.6581 471.32 95.8902 471.202L58.3282 469.608C52.1532 469.346 47.4302 464.007 47.9242 457.846L78.3072 78.5894C79.6702 66.8704 86.5382 56.5684 96.8402 50.9004L129.816 249.794Z" fill="#5B5B5B"/>
<path d="M260.633 300.214L255.182 380.448C255.182 380.448 251.203 417.839 243.354 455.122C237.685 481.776 226.838 501.834 211.467 506.522C197.949 510.61 177.727 506.14 162.302 502.543C155.217 500.873 148.409 498.716 142.753 496.712C133.989 493.606 128.301 485.161 128.763 475.874L131.693 416.865C133.493 380.614 133.656 344.3 132.183 308.034L129.816 249.796L95.8047 52.6447L96.7857 50.9007C126.957 39.9377 164.336 22.4517 192.621 7.47574C199.124 4.03274 207.073 7.92874 208.397 15.1667L214.575 48.9377L260.633 300.214Z" fill="#6D6D6D"/>
<path d="M157.271 115.039L184.27 82.1322L167.736 71.7752C161.566 67.9102 160.846 59.1992 166.298 54.3742L202.367 22.4482C206.619 31.2782 210.707 40.1082 214.576 48.9382L260.634 300.213L156.367 127.59C155.202 125.661 154.663 123.419 154.825 121.171C154.987 118.924 155.841 116.781 157.271 115.039ZM382.184 249.794L404.808 461.469C405.102 464.224 406.434 466.763 408.534 468.571C410.633 470.379 413.342 471.32 416.11 471.202L453.672 469.608C459.847 469.346 464.57 464.007 464.076 457.846L433.693 78.5892C432.33 66.8702 425.462 56.5682 415.161 50.9002L382.184 249.794Z" fill="#5B5B5B"/>
<path d="M251.367 300.214L256.818 380.448C256.818 380.448 260.797 417.839 268.646 455.122C274.315 481.776 285.162 501.834 300.533 506.522C314.051 510.61 334.273 506.14 349.698 502.543C356.783 500.873 363.591 498.716 369.247 496.712C378.011 493.606 383.699 485.161 383.237 475.874L380.306 416.865C378.506 380.614 378.342 344.3 379.816 308.034L382.183 249.796L416.195 52.6457L415.214 50.9017C385.043 39.9387 347.664 22.4527 319.379 7.47671C312.876 4.03371 304.927 7.92971 303.603 15.1677L297.425 48.9387L251.367 300.214Z" fill="#6D6D6D"/>
<path d="M251.367 300.214L256.818 380.448C256.818 380.448 260.797 417.839 268.646 455.122C274.315 481.776 285.162 501.834 300.533 506.522C314.051 510.61 334.273 506.14 349.698 502.543C356.783 500.873 363.591 498.716 369.247 496.712C378.011 493.606 383.699 485.161 383.237 475.874L380.306 416.865C378.506 380.614 378.342 344.3 379.816 308.034L382.183 249.796L416.195 52.6457L415.214 50.9017C385.043 39.9387 347.664 22.4527 319.379 7.47671C312.876 4.03371 304.927 7.92971 303.603 15.1677L297.425 48.9387L251.367 300.214Z" fill="#6D6D6D"/>
<path d="M380.279 416.856L383.229 475.858C383.712 485.137 378.026 493.612 369.23 496.723C367.193 497.459 365.136 498.138 363.062 498.761L360.648 450.54C358.44 406.643 358.243 362.667 360.058 318.751L362.901 248.217L398.088 44.2852C403.935 46.6452 409.674 48.8982 415.199 50.8832L416.218 52.6532L382.158 249.773L379.798 308.024C378.348 344.284 378.509 380.597 380.279 416.856Z" fill="black" fill-opacity="0.0313726"/>
<path d="M265.199 334.731C265.199 341.257 259.999 346.457 253.473 346.457C247.049 346.457 241.748 341.257 241.748 334.731C241.748 328.307 247.05 323.005 253.473 323.005C259.999 323.005 265.199 328.307 265.199 334.731Z" fill="#5B5B5B"/>
<path opacity="0.4" d="M168.999 298.317V320.737C168.999 322.999 168.101 325.169 166.501 326.768C164.902 328.368 162.732 329.266 160.47 329.266C158.208 329.266 156.039 328.368 154.439 326.768C152.84 325.169 151.941 322.999 151.941 320.737V298.317C151.941 296.055 152.84 293.886 154.439 292.286C156.039 290.687 158.208 289.788 160.47 289.788C162.732 289.788 164.902 290.687 166.501 292.286C168.101 293.886 168.999 296.055 168.999 298.317Z" fill="white"/>
<path d="M354.73 115.039L327.731 82.1322L344.265 71.7752C350.435 67.9102 351.155 59.1992 345.703 54.3742L309.634 22.4482C305.382 31.2782 301.294 40.1082 297.425 48.9382L251.367 300.213L355.634 127.59C356.799 125.661 357.338 123.419 357.176 121.171C357.014 118.924 356.16 116.781 354.73 115.039Z" fill="#5B5B5B"/>
<path d="M308.73 9.0992C308.462 4.2552 302.529 2.1752 299.254 5.7542C295.313 10.0622 290.132 15.2002 284.084 19.9672C272.124 29.3882 258.643 35.9912 256 37.2532C253.355 35.9922 239.873 29.3892 227.911 19.9672C221.865 15.2002 216.685 10.0622 212.745 5.75319C209.471 2.1732 203.538 4.2542 203.269 9.0972C202.762 18.2292 202.652 31.0282 204.478 44.1352C206.056 55.4742 209.717 69.8852 212.521 80.0132C213.941 85.1412 220.643 86.3492 223.789 82.0582L256 38.1132L288.207 82.0582C291.352 86.3502 298.055 85.1422 299.475 80.0142C302.28 69.8862 305.942 55.4742 307.522 44.1352C309.346 31.0302 309.236 18.2322 308.73 9.0992Z" fill="#F2F0F0"/>
<path d="M436.272 78.2885C434.46 62.6995 422.664 50.8245 416.097 48.4465C383.823 36.7425 345.608 18.4275 320.603 5.18848C317.193 3.38748 313.215 3.18348 309.681 4.48148C306.818 0.759483 300.95 0.0584826 297.336 4.00248C286.779 15.5415 274.593 25.2045 256 34.3645C237.342 25.1715 225.155 15.4755 214.665 4.00048C211.03 0.0304828 205.164 0.777483 202.317 4.47948C198.783 3.18248 194.804 3.38648 191.396 5.18848C126.348 39.6275 97.4249 46.8715 95.0889 48.9385C84.3969 55.0405 77.1619 65.9535 75.7179 78.3805L45.3349 457.638C44.7229 465.309 50.5919 471.881 58.2209 472.205C100.909 474.012 95.8949 473.812 96.3579 473.812C103.206 473.812 109.046 468.614 109.779 461.746L128.656 285.109C128.985 299.195 132.522 347.553 129.096 416.744L126.159 475.747C125.659 486.233 131.984 495.644 141.895 499.163C158.491 505.055 194.126 514.491 212.237 508.998C227.62 504.313 239.569 485.374 245.886 455.666C250.708 432.757 254.101 409.632 255.999 395.223C257.895 409.607 261.289 432.746 266.114 455.671C272.431 485.374 284.38 504.313 299.766 508.999C317.582 514.403 352.58 505.383 370.108 499.163C380.017 495.644 386.341 486.233 385.841 475.741L382.904 416.745C381.112 380.558 380.947 344.016 382.409 308.135L383.344 285.109L402.221 461.746C402.988 468.926 409.284 474.123 416.216 473.799L453.782 472.205C461.377 471.882 467.279 465.336 466.665 457.638L436.272 78.2885ZM325.72 83.7765L352.725 116.677C353.808 118.008 354.455 119.639 354.579 121.349C354.703 123.06 354.298 124.767 353.418 126.239L256.495 286.703L293.042 87.2415C297.45 87.3805 300.918 84.5475 301.982 80.7105C307.682 60.1245 310.874 45.6555 311.51 27.5805L343.986 56.3135C348.146 60.0155 347.579 66.6395 342.882 69.5825L326.352 79.9265C326.039 80.1221 325.771 80.3822 325.566 80.6895C325.361 80.9968 325.225 81.3442 325.165 81.7085C325.105 82.0728 325.124 82.4458 325.219 82.8024C325.315 83.159 325.486 83.491 325.72 83.7765ZM253.472 343.857C248.442 343.857 244.348 339.763 244.348 334.73C244.348 329.782 248.526 325.602 253.472 325.602C258.505 325.602 262.601 329.697 262.601 334.73C262.601 339.848 258.591 343.857 253.472 343.857ZM185.648 79.9255L169.118 69.5815C164.413 66.6345 163.862 60.0065 168.009 56.3175L200.49 27.5805C200.679 32.9475 201.095 38.6795 201.907 44.4945C203.501 55.9605 207.196 70.5155 210.016 80.7085C211.088 84.5785 214.597 87.3905 218.959 87.2475L253.357 274.964L252.207 281.24L158.587 126.248C156.78 123.233 157.057 119.386 159.275 116.68L186.28 83.7775C186.514 83.4918 186.684 83.1596 186.78 82.8028C186.876 82.4461 186.894 82.0731 186.834 81.7086C186.775 81.3442 186.638 80.9967 186.433 80.6892C186.229 80.3817 185.961 80.1214 185.648 79.9255ZM237.294 68.0325L244.78 82.5695L235.075 146.36L223.93 85.5395C224.678 84.9955 225.338 84.3403 225.887 83.5965L237.294 68.0325ZM286.111 83.5955C286.668 84.3555 287.349 84.9645 288.077 85.5015L276.924 146.359L267.22 82.5705L274.705 68.0345L286.111 83.5955ZM301.175 7.50848C302.891 5.62848 305.993 6.69748 306.137 9.24448V9.24348C307.596 35.6305 304.314 52.8215 296.972 79.3215C296.129 82.3645 292.169 83.0665 290.305 80.5235L259.465 38.4455C278.045 29.0665 290.325 19.3685 301.175 7.50848ZM271.273 63.3495L262.216 80.9385C261.964 81.4248 261.874 81.9783 261.957 82.5195L274.053 162.03L255.999 260.549L237.946 162.033L250.043 82.5205C250.126 81.9793 250.035 81.4258 249.784 80.9395L240.726 63.3505L256 42.5105L271.273 63.3495ZM210.828 7.50848C221.662 19.3565 233.877 29.0275 252.536 38.4445L221.694 80.5235C219.818 83.0875 215.864 82.3395 215.027 79.3205C212.248 69.2785 208.611 54.9615 207.055 43.7765C205.22 30.6205 205.395 17.7345 205.865 9.24248C206.007 6.69948 209.104 5.62448 210.828 7.50848ZM104.611 461.192C104.144 465.533 100.416 468.759 96.0019 468.606L58.4419 467.012C57.3261 466.966 56.2311 466.695 55.2226 466.215C54.2142 465.735 53.313 465.057 52.573 464.22C51.8331 463.384 51.2697 462.406 50.9165 461.347C50.5634 460.288 50.4278 459.168 50.5179 458.054L80.8899 78.8895C81.9479 69.7805 86.6679 61.5905 93.7559 56.0855L127.194 249.869L104.611 461.192ZM240.8 454.589C234.98 481.957 224.018 499.976 210.727 504.024C194.094 509.063 158.846 499.663 143.634 494.264C135.898 491.518 130.962 484.175 131.352 475.999L134.289 417.001C137.882 344.336 132.433 249.616 132.383 249.344L99.7519 52.5655C131.827 40.7495 169.202 22.8225 193.828 9.78448C195.995 8.63648 198.445 8.56448 200.653 9.43448C200.452 13.2054 200.353 16.9812 200.356 20.7575L164.557 52.4305C157.819 58.4255 158.706 69.1955 166.362 73.9885L180.387 82.7655L155.255 113.386C151.651 117.786 151.199 124.028 154.131 128.928L250.794 288.957L248.818 299.738C248.778 299.95 248.766 300.166 248.78 300.382L250.152 320.809C243.853 322.313 239.15 327.976 239.15 334.731C239.15 342.153 244.823 348.273 252.061 348.984L253.393 368.551C253.363 368.855 251.672 402.939 240.8 454.589ZM368.369 494.264C353.057 499.696 318.013 509.102 301.276 504.025C287.982 499.976 277.02 481.957 271.2 454.594C258.65 394.969 258.104 358.132 257.242 348.535C263.316 346.874 267.799 341.323 267.799 334.73C267.799 327.466 262.361 321.463 255.344 320.541L254.02 300.852L357.874 128.918C360.8 124.027 360.349 117.785 356.745 113.383L331.613 82.7645L345.638 73.9875C353.294 69.1935 354.183 58.4275 347.437 52.4245L311.642 20.7555C311.646 16.5165 311.518 12.6835 311.346 9.43248C313.553 8.56248 316.002 8.63448 318.171 9.78148C342.799 22.8205 380.172 40.7495 412.247 52.5635L379.783 248.38C379.624 249.342 379.594 249.387 379.581 249.679L377.216 307.922C375.746 343.957 375.914 380.657 377.711 417.001L380.648 475.991C381.039 484.175 376.103 491.518 368.369 494.264ZM453.561 467.012L415.998 468.606C411.658 468.763 407.851 465.536 407.389 461.192L384.806 249.87L418.245 56.0855C425.332 61.5895 430.049 69.7675 431.1 78.7975L461.483 458.054C461.573 459.167 461.437 460.287 461.084 461.346C460.731 462.405 460.167 463.383 459.428 464.219C458.688 465.055 457.787 465.734 456.779 466.214C455.771 466.694 454.676 466.966 453.561 467.012Z" fill="black"/>
</svg>
