<svg width="512" height="512" viewBox="0 0 512 512" fill="none" xmlns="http://www.w3.org/2000/svg">
<path d="M496 476V496C496.844 500.888 492.96 504 488 504H452C448.088 504 444.644 499.856 444 496L440 476H496Z" fill="url(#paint0_linear_299_1749)"/>
<path d="M412 72C412 72 504 168 503.876 467.828C503.876 472.3 500.336 476 495.864 476H440C436.196 476 433.092 471.644 432 468C420 428 390.876 230.748 380 180L412 72Z" fill="url(#paint1_linear_299_1749)"/>
<path d="M16 476L16.116 496C15.272 500.888 19.156 504 24.116 504H60C63.912 504 67.356 499.856 68 496L72 476H16Z" fill="url(#paint2_linear_299_1749)"/>
<path d="M99.9992 72C99.9992 72 7.99917 168 8.12317 467.828C8.12317 472.3 11.6632 476 16.1352 476H71.9992C75.8032 476 78.9072 471.644 79.9992 468C91.9992 428 121.123 230.748 131.999 180L99.9992 72Z" fill="url(#paint3_linear_299_1749)"/>
<path d="M412 72L320 28H192L99.9996 72C117.572 139.304 122.532 207.276 108 272C99.8556 309.02 96.4556 416.632 104 460C105.04 465.992 109.92 472 116 472H396C402.08 472 406.928 465.984 408 460C415.972 415.42 411.176 307.608 404 272C390.332 203.332 394.648 135.936 412 72Z" fill="url(#paint4_linear_299_1749)"/>
<path d="M384 504H128C123.964 504 120.5 500.004 120 496L116 472H396L392 496C391.5 500.004 388.036 504 384 504Z" fill="url(#paint5_linear_299_1749)"/>
<path d="M320 336C319.424 332.064 315.98 328 312 328H200C196.02 328 192.576 332.064 192 336C189.14 355.532 174.996 396.992 152 412C149.804 413.432 148 416 148 420V440C148 442.122 148.843 444.157 150.343 445.657C151.843 447.157 153.878 448 156 448H356C358.122 448 360.157 447.157 361.657 445.657C363.157 444.157 364 442.122 364 440V420C364 416 362.196 413.432 360 412C337.004 396.992 322.86 355.532 320 336Z" fill="url(#paint6_linear_299_1749)"/>
<path d="M256 8.01953C166.96 8.48753 132 28.3555 132 51.9995C132 59.2875 136 71.9995 148 79.9995C172 95.9995 208 108 255.996 108H256.004C304 108 340 95.9995 364 79.9995C376 71.9995 380 59.2875 380 51.9995C380 28.3555 345.04 8.48753 256 8.01953Z" fill="url(#paint7_linear_299_1749)"/>
<path d="M256 44.0195C320.64 44.3555 356.756 54.9235 371.708 69.7355C377.772 63.6235 380 57.4195 380 51.9995C380 28.3555 345.04 8.48753 256 8.01953C166.96 8.48753 132 28.3555 132 51.9995C132 57.4195 134.228 63.6235 140.292 69.7355C155.244 54.9275 191.36 44.3595 256 44.0195Z" fill="url(#paint8_linear_299_1749)"/>
<path d="M196.264 12.2031C150.916 19.2951 132 34.6231 132 51.9991C132 59.2871 136 71.9991 148 79.9991C172 95.9991 208 107.999 255.996 107.999C255.996 107.999 196 63.9991 196.264 12.2031Z" fill="url(#paint9_linear_299_1749)"/>
<path d="M315.736 12.2031C361.084 19.2951 380 34.6231 380 51.9991C380 59.2871 376 71.9991 364 79.9991C340 95.9991 304 107.999 256.004 107.999C256.004 107.999 316 63.9991 315.736 12.2031Z" fill="url(#paint10_linear_299_1749)"/>
<path d="M362.184 408.652C339.432 393.804 326.404 352.148 323.956 335.42C323.156 329.928 318.352 324 312 324H200C193.648 324 188.844 329.928 188.044 335.42C185.596 352.144 172.568 393.8 149.816 408.652C146.064 411.096 144 415.128 144 420V440C144 446.616 149.384 452 156 452H356C362.616 452 368 446.616 368 440V420C368 415.128 365.936 411.096 362.184 408.652ZM360 440C360 442.204 358.204 444 356 444H156C153.796 444 152 442.204 152 440V420C152 417.86 152.736 416.296 154.184 415.348C179.444 398.864 193.236 355.16 195.956 336.58C196.288 334.312 198.332 332 200 332H312C313.668 332 315.712 334.312 316.044 336.58C318.764 355.164 332.552 398.864 357.816 415.348C359.264 416.296 360 417.86 360 420V440Z" fill="#3A322B"/>
<path d="M507.875 467.832C507.999 169.82 418.687 73.1995 414.887 69.2315L414.875 69.2235C414.545 68.878 414.155 68.596 413.723 68.3915L383.851 54.1075C383.907 53.3995 383.999 52.6715 383.999 51.9995C383.999 23.1435 341.615 12.2035 316.355 8.25153C299.187 5.56353 278.883 4.13953 255.979 4.01953C233.115 4.13953 212.815 5.56353 195.647 8.25153C170.383 12.2035 127.999 23.1435 127.999 51.9995C127.999 52.6715 128.091 53.3995 128.143 54.1035L98.2712 68.3875C97.8427 68.5935 97.4551 68.8754 97.1272 69.2195L97.1112 69.2315C93.3112 73.1995 3.99918 169.82 4.12318 467.832C4.12197 470.307 4.87715 472.724 6.28761 474.759C7.69806 476.793 9.69645 478.348 12.0152 479.216L12.1112 495.704C11.6872 498.748 12.4792 501.628 14.3552 503.86C16.5752 506.492 20.1312 508 24.1152 508H59.9992C66.2112 508 71.0352 502.112 71.9192 496.784L75.4192 479.288C79.5552 477.648 82.5832 473.296 83.8312 469.152C86.7232 459.504 90.6432 441.064 96.0872 411.28C96.6192 430.784 97.8952 448.248 100.055 460.688C101.175 467.12 105.967 473.704 112.523 475.492L116.027 496.496C116.723 502.028 121.495 508 127.999 508H383.999C390.503 508 395.275 502.028 395.943 496.66L399.467 475.516C406.175 473.744 410.795 467.072 411.935 460.704C414.187 448.104 415.447 430.728 415.935 411.428C421.371 441.144 425.279 459.536 428.167 469.152C429.411 473.3 432.443 477.652 436.575 479.288L440.051 496.66C440.959 502.112 445.787 508 451.995 508H487.995C491.983 508 495.539 506.492 497.755 503.86C499.635 501.628 500.423 498.74 499.995 495.692V479.212C502.31 478.341 504.304 476.785 505.712 474.752C507.12 472.719 507.875 470.305 507.875 467.832ZM375.999 51.9995C375.999 57.2515 373.027 69.1715 361.779 76.6715C344.463 88.2155 314.427 101.812 267.563 103.764C284.123 89.3915 317.263 55.9595 319.603 16.8995C356.023 23.2915 375.999 35.6835 375.999 51.9995ZM256.007 102.94C248.495 96.9475 224.695 76.6755 210.731 50.3955C224.311 48.9315 239.443 48.1075 255.975 48.0195C272.543 48.1075 287.675 48.9315 301.255 50.3915C295.907 60.4995 289.271 69.4835 283.155 76.6515C274.946 86.2422 265.857 95.0433 256.007 102.94ZM311.623 15.6515C311.155 25.0875 308.619 34.2275 304.935 42.7435C290.383 41.0515 273.995 40.1155 255.975 40.0195C237.987 40.1155 221.591 41.0515 207.035 42.7475C203.311 34.1435 200.831 25.0275 200.367 15.6515C216.399 13.3595 235.071 12.1315 255.975 12.0195C276.919 12.1315 295.595 13.3595 311.623 15.6515ZM192.395 16.8995C193.075 28.1595 196.387 38.9435 201.083 48.9715L201.123 49.0635C212.659 73.6515 232.743 93.5435 244.479 103.768C197.587 101.828 167.543 88.2235 150.219 76.6755C138.971 69.1715 135.999 57.2515 135.999 51.9995C135.999 35.6835 155.975 23.2875 192.395 16.8995ZM59.9992 500H24.1152C22.5192 500 21.1592 499.516 20.4752 498.708C20.2032 498.384 19.8592 497.82 20.0552 496.68C20.0952 496.448 20.1152 496.212 20.1152 495.976L20.0232 480H67.1192L64.0512 495.34C63.6752 497.604 61.5912 500 59.9992 500ZM76.1672 466.848C75.3112 469.704 73.1872 472 71.9992 472H16.1352C13.9232 472 12.1272 470.128 12.1232 467.828C12.0152 213.468 79.2392 105.868 98.0512 80.7555C114.967 149.48 117.035 213.5 104.095 271.14C99.9392 290.02 96.9792 327.308 96.0832 365.22C90.0232 400.588 81.3952 449.428 76.1672 466.848ZM383.999 500H127.999C126.247 500 124.251 497.772 123.943 495.34L120.719 476H391.279L388.031 495.504C387.747 497.772 385.751 500 383.999 500ZM404.063 459.296C403.311 463.5 399.891 468 395.999 468H115.999C112.083 468 108.667 463.508 107.939 459.316C104.247 438.096 103.195 402.012 104.003 366.36L104.015 366.28C104.027 366.2 103.999 366.128 104.007 366.048C104.871 328.536 107.791 291.548 111.899 272.88C125.403 212.728 122.979 145.896 104.691 74.1915L129.799 62.1875C132.283 69.7835 137.427 77.7675 145.779 83.3355C160.143 92.9115 182.827 103.812 215.731 108.976C215.187 113.912 213.855 116.968 212.343 120.376C210.307 124.948 207.999 130.14 207.999 139.984C207.999 149.836 210.307 155.028 212.343 159.612C214.307 164.028 215.999 167.84 215.999 175.992C215.999 184.144 214.307 187.956 212.343 192.372C210.307 196.956 207.999 202.148 207.999 212C207.999 213.06 208.421 214.078 209.171 214.828C209.921 215.578 210.938 216 211.999 216C213.06 216 214.077 215.578 214.828 214.828C215.578 214.078 215.999 213.06 215.999 212C215.999 203.848 217.691 200.036 219.655 195.62C221.691 191.036 223.999 185.844 223.999 175.992C223.999 166.14 221.691 160.948 219.655 156.364C217.691 151.948 215.999 148.136 215.999 139.984C215.999 131.836 217.691 128.028 219.655 123.616C221.219 120.096 222.935 116.156 223.647 110.064C233.571 111.276 244.303 112 255.999 112C266.143 112 275.583 111.468 284.391 110.54C285.131 116.368 286.827 120.2 288.343 123.616C290.307 128.028 291.999 131.836 291.999 139.984C291.999 148.136 290.307 151.948 288.343 156.364C286.307 160.948 283.999 166.14 283.999 175.992C283.999 185.844 286.307 191.036 288.343 195.62C290.307 200.036 291.999 203.848 291.999 212C291.999 213.06 292.421 214.078 293.171 214.828C293.921 215.578 294.938 216 295.999 216C297.06 216 298.077 215.578 298.828 214.828C299.578 214.078 299.999 213.06 299.999 212C299.999 202.148 297.691 196.956 295.655 192.372C293.691 187.956 291.999 184.144 291.999 175.992C291.999 167.84 293.691 164.028 295.655 159.612C297.691 155.028 299.999 149.836 299.999 139.984C299.999 130.14 297.691 124.948 295.655 120.368C294.191 117.076 292.907 114.176 292.327 109.56C327.379 104.676 351.283 93.2835 366.219 83.3275C374.567 77.7595 379.715 69.7755 382.199 62.1795L407.279 74.1715C389.599 141.132 387.171 207.936 400.079 272.784C407.167 307.98 411.895 415.484 404.063 459.296ZM415.787 364.468C414.735 326.712 411.667 289.816 407.923 271.216C395.543 209.012 397.583 144.948 413.903 80.6635C432.643 105.54 499.979 212.74 499.875 467.824C499.875 470.124 498.075 471.996 495.863 471.996H439.999C438.811 471.996 436.687 469.7 435.831 466.844C430.595 449.408 421.915 400.256 415.787 364.468ZM491.639 498.708C490.959 499.516 489.595 500 487.999 500H451.999C450.407 500 448.323 497.604 447.919 495.216L444.879 480H491.999V496C491.999 496.228 492.019 496.456 492.059 496.68C492.251 497.82 491.915 498.38 491.639 498.708Z" fill="#3A322B"/>
<defs>
<linearGradient id="paint0_linear_299_1749" x1="440" y1="476" x2="496.116" y2="476" gradientUnits="userSpaceOnUse">
<stop stop-color="#DADCD9"/>
<stop offset="0.9" stop-color="#9AA098"/>
<stop offset="1" stop-color="#868D84"/>
</linearGradient>
<linearGradient id="paint1_linear_299_1749" x1="380" y1="72" x2="503.876" y2="72" gradientUnits="userSpaceOnUse">
<stop offset="0.04" stop-color="#FC9F4B"/>
<stop offset="1" stop-color="#F68741"/>
</linearGradient>
<linearGradient id="paint2_linear_299_1749" x1="16" y1="476" x2="72" y2="476" gradientUnits="userSpaceOnUse">
<stop stop-color="#DADCD9"/>
<stop offset="0.9" stop-color="#9AA098"/>
<stop offset="1" stop-color="#868D84"/>
</linearGradient>
<linearGradient id="paint3_linear_299_1749" x1="8.12305" y1="72" x2="131.999" y2="72" gradientUnits="userSpaceOnUse">
<stop offset="0.04" stop-color="#FC9F4B"/>
<stop offset="1" stop-color="#F68741"/>
</linearGradient>
<linearGradient id="paint4_linear_299_1749" x1="99.7988" y1="28" x2="412.131" y2="28" gradientUnits="userSpaceOnUse">
<stop offset="0.04" stop-color="#FC9F4B"/>
<stop offset="1" stop-color="#F68741"/>
</linearGradient>
<linearGradient id="paint5_linear_299_1749" x1="116" y1="472" x2="396" y2="472" gradientUnits="userSpaceOnUse">
<stop stop-color="#DADCD9"/>
<stop offset="0.9" stop-color="#9AA098"/>
<stop offset="1" stop-color="#868D84"/>
</linearGradient>
<linearGradient id="paint6_linear_299_1749" x1="148" y1="328" x2="364" y2="328" gradientUnits="userSpaceOnUse">
<stop offset="0.04" stop-color="#FC9F4B"/>
<stop offset="1" stop-color="#F68741"/>
</linearGradient>
<linearGradient id="paint7_linear_299_1749" x1="132" y1="8.01953" x2="380" y2="8.01953" gradientUnits="userSpaceOnUse">
<stop offset="0.04" stop-color="#FC9F4B"/>
<stop offset="0.809" stop-color="#F47E3E"/>
</linearGradient>
<linearGradient id="paint8_linear_299_1749" x1="132" y1="8.01953" x2="380" y2="8.01953" gradientUnits="userSpaceOnUse">
<stop offset="0.04" stop-color="#FC9F4B"/>
<stop offset="0.809" stop-color="#F47E3E"/>
</linearGradient>
<linearGradient id="paint9_linear_299_1749" x1="132" y1="12.2031" x2="256" y2="12.2031" gradientUnits="userSpaceOnUse">
<stop stop-color="#FFB052"/>
<stop offset="1" stop-color="#FF9C34"/>
</linearGradient>
<linearGradient id="paint10_linear_299_1749" x1="256" y1="12.2031" x2="380" y2="12.2031" gradientUnits="userSpaceOnUse">
<stop stop-color="#FFB052"/>
<stop offset="1" stop-color="#FF9C34"/>
</linearGradient>
</defs>
</svg>
