<svg width="512" height="512" viewBox="0 0 512 512" fill="none" xmlns="http://www.w3.org/2000/svg">
<path d="M152 400.98H360V432.98H152V400.98Z" fill="#6B9777"/>
<path d="M224 400.981H288V432.981H224V400.981ZM208 400.98V432.98H192V400.98C192 398.859 192.843 396.824 194.343 395.324C195.843 393.823 197.878 392.98 200 392.98C202.122 392.98 204.157 393.823 205.657 395.324C207.157 396.824 208 398.859 208 400.98ZM184 400.98V432.98H168V400.98C168 398.859 168.843 396.824 170.343 395.324C171.843 393.823 173.878 392.98 176 392.98C178.122 392.98 180.157 393.823 181.657 395.324C183.157 396.824 184 398.859 184 400.98ZM320 400.98V432.98H304V400.98C304 398.859 304.843 396.824 306.343 395.324C307.843 393.823 309.878 392.98 312 392.98C314.122 392.98 316.157 393.823 317.657 395.324C319.157 396.824 320 398.859 320 400.98ZM344 400.98V432.98H328V400.98C328 398.859 328.843 396.824 330.343 395.324C331.843 393.823 333.878 392.98 336 392.98C338.122 392.98 340.157 393.823 341.657 395.324C343.157 396.824 344 398.859 344 400.98Z" fill="#628B6E"/>
<path d="M135.999 320.98L132.919 328.37L132.179 330.16L126.099 344.75L95.9995 416.98L39.9995 400.98L33.1195 380.35C27.1382 362.398 25.8304 343.218 29.3195 324.62L30.1095 320.37C41.9145 257.49 66.832 197.801 103.239 145.19L119.999 120.98L135.019 308.68L135.999 320.98ZM478.879 380.35L471.999 400.98L415.999 416.98L385.899 344.75L379.819 330.16L379.079 328.37L375.999 320.98L376.979 308.68L391.999 120.98L408.759 145.19C445.177 197.795 470.096 257.486 481.889 320.37L482.679 324.62C486.169 343.218 484.861 362.398 478.879 380.35Z" fill="#6B9777"/>
<path d="M392 121.11V173.9C392.002 229.208 385.949 284.35 373.95 338.34L360 401.11H152L138.05 338.34C126.051 284.35 119.998 229.208 120 173.9V121.11L185.03 83.1703L216 65.1104H296L326.97 83.1703L392 121.11Z" fill="#76A683"/>
<path d="M255.999 144.98C243.979 144.98 232.197 141.632 221.972 135.313C211.748 128.993 203.485 119.951 198.109 109.2L185.029 83.0405L215.999 64.9805L255.999 144.98ZM326.969 83.1705L313.889 109.34C308.511 120.088 300.247 129.127 290.023 135.445C279.799 141.762 268.018 145.109 255.999 145.11L295.999 65.1105L326.969 83.1705Z" fill="#628B6E"/>
<path d="M280 96.9814H232L256 144.981L280 96.9814Z" fill="#FD9226"/>
<path d="M248 144H264V400.981H248V144ZM35.7197 434.044L84.0197 447.844C84.5356 447.991 85.0758 448.034 85.6083 447.968C86.1407 447.903 86.6546 447.731 87.1192 447.462C87.5839 447.194 87.9898 446.835 88.3128 446.407C88.6359 445.978 88.8695 445.489 88.9997 444.969L95.9997 416.981L39.9997 400.981L32.9377 429.228C32.6861 430.235 32.8356 431.3 33.3547 432.199C33.8738 433.097 34.7219 433.759 35.7197 434.044ZM312 272.981L352 320.981L336 336.981L304 320.981L296 288.981L312 272.981Z" fill="#628B6E"/>
<path d="M255.999 144.981L267.76 168.5C268.995 170.969 269.421 173.763 268.979 176.488C268.537 179.212 267.249 181.728 265.297 183.679C264.076 184.901 262.626 185.87 261.031 186.531C259.435 187.192 257.724 187.533 255.997 187.533C254.27 187.533 252.56 187.192 250.964 186.531C249.368 185.87 247.918 184.901 246.697 183.679C244.746 181.728 243.458 179.212 243.015 176.488C242.573 173.763 243 170.969 244.234 168.5L255.999 144.981Z" fill="#8F563B"/>
<path d="M136 320.98L132.92 328.37C131.956 327.966 131.08 327.378 130.34 326.64L90.3402 286.64C88.8391 285.139 87.9957 283.103 87.9957 280.98C87.9957 278.857 88.8391 276.821 90.3402 275.32C91.8413 273.819 93.8773 272.976 96.0002 272.976C98.1231 272.976 100.159 273.819 101.66 275.32L135.02 308.68L136 320.98ZM132.18 330.16L126.1 344.75C125.319 344.56 124.57 344.253 123.88 343.84L83.8802 319.84C82.9793 319.299 82.1938 318.586 81.5686 317.741C80.9434 316.897 80.4906 315.937 80.2362 314.918C79.7223 312.858 80.0475 310.679 81.1402 308.86C82.2329 307.041 84.0036 305.73 86.0627 305.216C88.1219 304.702 90.3008 305.027 92.1202 306.12L132.12 330.12C132.14 330.13 132.16 330.15 132.18 330.16ZM476.28 434.044L427.98 447.844C427.464 447.992 426.924 448.034 426.392 447.968C425.859 447.903 425.345 447.731 424.881 447.462C424.416 447.194 424.01 446.835 423.687 446.407C423.364 445.978 423.13 445.489 423 444.969L416 416.981L472 400.981L479.062 429.228C479.314 430.235 479.164 431.3 478.645 432.199C478.126 433.097 477.278 433.759 476.28 434.044ZM421.66 286.64L381.66 326.64C380.92 327.378 380.044 327.966 379.08 328.37L376 320.98L376.98 308.68L410.34 275.32C411.841 273.819 413.877 272.976 416 272.976C418.123 272.976 420.159 273.819 421.66 275.32C423.161 276.821 424.005 278.857 424.005 280.98C424.005 283.103 423.161 285.139 421.66 286.64ZM428.12 319.84L388.12 343.84C387.43 344.253 386.682 344.56 385.9 344.75L379.82 330.16C379.84 330.15 379.86 330.13 379.88 330.12L419.88 306.12C421.7 305.027 423.879 304.702 425.938 305.216C427.997 305.73 429.767 307.041 430.86 308.86C431.953 310.679 432.278 312.858 431.764 314.918C431.25 316.977 429.94 318.747 428.12 319.84Z" fill="#628B6E"/>
<path d="M328 224.981C341.255 224.981 352 214.236 352 200.981C352 187.727 341.255 176.981 328 176.981C314.745 176.981 304 187.727 304 200.981C304 214.236 314.745 224.981 328 224.981Z" fill="#F3AF3E"/>
<path d="M96 208.98L88 240.98L50.25 247.27C56.5516 230.113 63.885 213.352 72.21 197.08L96 208.98Z" fill="#F3AF3E"/>
<path d="M160 320.981L200 272.981L216 288.981L208 320.981L176 336.981L160 320.981Z" fill="#628B6E"/>
<path d="M223.988 288.726C223.98 288.474 223.96 288.223 223.928 287.972C223.886 287.631 223.822 287.294 223.734 286.962C223.72 286.911 223.71 286.862 223.696 286.808C223.609 286.499 223.504 286.196 223.381 285.9C223.371 285.875 223.357 285.85 223.346 285.824C223.233 285.563 223.106 285.309 222.967 285.062C222.927 284.992 222.886 284.924 222.845 284.855C222.72 284.648 222.584 284.446 222.438 284.249C222.389 284.181 222.338 284.113 222.29 284.049C222.093 283.796 221.882 283.555 221.657 283.327L205.657 267.327C204.871 266.541 203.93 265.928 202.893 265.526C201.857 265.125 200.749 264.943 199.639 264.994C198.528 265.044 197.441 265.325 196.445 265.819C195.45 266.313 194.568 267.009 193.857 267.863L153.857 315.863C153.687 316.063 153.529 316.28 153.381 316.497C153.325 316.579 153.281 316.665 153.226 316.749C153.141 316.885 153.054 317.021 152.978 317.16C152.921 317.26 152.878 317.37 152.822 317.475C152.761 317.6 152.698 317.724 152.644 317.851C152.59 317.978 152.556 318.078 152.513 318.192C152.47 318.306 152.42 318.439 152.38 318.563C152.34 318.687 152.313 318.799 152.28 318.918C152.247 319.037 152.213 319.168 152.186 319.294C152.159 319.42 152.141 319.53 152.121 319.649C152.101 319.768 152.078 319.908 152.063 320.038C152.034 320.287 152.017 320.537 152.01 320.787V321.124C152.01 321.263 152.018 321.402 152.028 321.54C152.044 321.791 152.073 322.04 152.116 322.288C152.157 322.535 152.21 322.781 152.274 323.024C152.301 323.124 152.328 323.229 152.359 323.331C152.434 323.571 152.52 323.808 152.615 324.042C152.669 324.174 152.731 324.304 152.793 324.433C152.841 324.533 152.887 324.633 152.939 324.733C153.005 324.858 153.079 324.979 153.152 325.101C153.211 325.201 153.268 325.301 153.331 325.394C153.409 325.512 153.495 325.625 153.58 325.739C153.649 325.833 153.715 325.928 153.789 326.019C153.889 326.138 153.989 326.251 154.096 326.366C154.168 326.444 154.235 326.524 154.309 326.6C154.322 326.612 154.332 326.626 154.345 326.639L170.345 342.639C171.532 343.826 173.063 344.61 174.72 344.88C176.378 345.149 178.078 344.89 179.58 344.139L211.58 328.139C212.612 327.623 213.52 326.889 214.242 325.989C214.964 325.089 215.483 324.043 215.763 322.924L223.763 290.924C223.773 290.883 223.775 290.842 223.785 290.802C223.845 290.545 223.892 290.288 223.926 290.028C223.934 289.966 223.945 289.905 223.952 289.844C223.985 289.534 224.001 289.222 223.999 288.91C224 288.848 223.99 288.787 223.988 288.726ZM177.58 327.248L170.823 320.491L200.537 284.834L207.137 291.434L201.128 315.47L177.58 327.248ZM318.146 267.861C317.434 267.007 316.553 266.311 315.557 265.817C314.562 265.323 313.474 265.042 312.364 264.992C311.254 264.941 310.145 265.123 309.109 265.524C308.073 265.926 307.132 266.539 306.346 267.325L290.346 283.325C289.369 284.302 288.662 285.516 288.294 286.848C287.926 288.18 287.91 289.585 288.246 290.925L296.246 322.925C296.526 324.044 297.044 325.09 297.766 325.99C298.488 326.89 299.397 327.624 300.429 328.14L332.429 344.14C333.931 344.891 335.631 345.15 337.288 344.881C338.946 344.611 340.477 343.827 341.664 342.64L357.664 326.64C359.076 325.228 359.909 323.34 359.999 321.345C360.09 319.351 359.431 317.394 358.153 315.861L318.146 267.861ZM334.42 327.248L310.869 315.473L304.859 291.437L311.459 284.837L341.173 320.494L334.42 327.248Z" fill="black"/>
<path d="M480.326 401.3L486.47 382.876C492.867 363.637 494.27 343.087 490.545 323.156L489.753 318.893C477.836 254.879 452.473 194.122 415.337 140.635L398.578 116.425C398.534 116.361 398.484 116.305 398.438 116.243C398.392 116.181 398.324 116.093 398.265 116.018C398.114 115.827 397.954 115.643 397.786 115.466C397.735 115.413 397.686 115.358 397.634 115.306C397.174 114.849 396.66 114.449 396.102 114.117C396.077 114.102 396.056 114.084 396.031 114.069L300.031 58.0694C298.807 57.3564 297.416 56.9809 296 56.9814H216C214.584 56.9815 213.193 57.3577 211.969 58.0714L115.969 114.071C115.944 114.086 115.923 114.104 115.898 114.119C115.341 114.451 114.826 114.851 114.366 115.308C114.313 115.36 114.266 115.415 114.214 115.468C113.981 115.714 113.763 115.973 113.562 116.245C113.506 116.321 113.462 116.363 113.422 116.427L96.6621 140.638C59.6072 194.174 34.2505 254.917 22.2451 318.908L21.4581 323.145C17.7304 343.081 19.132 363.637 25.5311 382.881L31.6741 401.3L25.1741 427.284C24.4059 430.305 24.8482 433.507 26.4068 436.206C27.9653 438.906 30.5168 440.889 33.5171 441.734L81.8171 455.534C82.8838 455.839 83.9878 455.992 85.0971 455.991C87.776 455.998 90.3798 455.106 92.4929 453.46C94.606 451.813 96.1065 449.506 96.7551 446.906L103.606 419.506L132.506 350.161L144 401.86V432.981C144 435.103 144.843 437.138 146.343 438.638C147.843 440.139 149.878 440.981 152 440.981H360C362.122 440.981 364.157 440.139 365.657 438.638C367.157 437.138 368 435.103 368 432.981V401.86L379.489 350.16L408.389 419.505L415.24 446.91C415.633 448.47 416.335 449.936 417.304 451.219C418.274 452.503 419.491 453.579 420.884 454.383C422.277 455.188 423.818 455.705 425.414 455.903C427.011 456.101 428.631 455.977 430.178 455.537L478.478 441.737C481.478 440.892 484.029 438.909 485.588 436.21C487.146 433.51 487.589 430.309 486.821 427.288L480.326 401.3ZM474.026 321.83L474.819 326.094C478.047 343.355 476.833 361.153 471.293 377.816L465.747 394.445L420.647 407.331L392.976 340.924L428.117 319.84C429.937 318.749 431.248 316.979 431.763 314.921C432.277 312.862 431.953 310.683 430.862 308.864C429.77 307.044 428 305.733 425.942 305.218C423.883 304.704 421.705 305.028 419.885 306.119L386.755 326L385.444 322.853L421.657 286.64C423.158 285.14 424.001 283.105 424.001 280.983C424.001 278.861 423.158 276.826 421.658 275.326C420.157 273.825 418.122 272.982 416 272.982C413.879 272.982 411.844 273.825 410.343 275.325L390.261 295.4C396.731 255.181 399.987 214.51 400 173.773V146.592L402.183 149.744C438.033 201.38 462.519 260.034 474.024 321.832L474.026 321.83ZM353.583 392.981H264V193.97C266.695 192.867 269.133 191.218 271.162 189.129C273.191 187.04 274.767 184.555 275.792 181.829C276.816 179.103 277.267 176.195 277.117 173.286C276.966 170.378 276.218 167.532 274.917 164.926L268.41 151.913C279.635 149.968 290.247 145.413 299.389 138.615C308.531 131.818 315.949 122.968 321.045 112.778L330.306 94.2554L384 125.576V173.776C383.99 228.498 378.001 283.055 366.141 336.476L353.583 392.981ZM304 408.981V424.981H296V408.981H304ZM320 408.981H328V424.981H320V408.981ZM192 408.981V424.981H184V408.981H192ZM208 408.981H216V424.981H208V408.981ZM158.417 392.981L145.859 336.472C133.999 283.052 128.01 228.495 128 173.773V125.573L181.694 94.2524L190.955 112.774C196.05 122.964 203.468 131.815 212.611 138.612C221.753 145.41 232.365 149.965 243.59 151.91L237.083 164.923C235.782 167.529 235.033 170.376 234.882 173.284C234.731 176.193 235.182 179.101 236.207 181.828C237.232 184.554 238.808 187.04 240.837 189.129C242.866 191.218 245.305 192.867 248 193.97V392.981H158.417ZM212.661 76.1914L242.205 135.279C234.275 133.289 226.868 129.609 220.493 124.49C214.117 119.371 208.923 112.935 205.266 105.622L195.543 86.1774L212.661 76.1914ZM316.461 86.1774L306.738 105.623C303.081 112.936 297.887 119.371 291.511 124.49C285.136 129.608 277.73 133.289 269.8 135.279L299.343 76.1914L316.461 86.1774ZM256 162.869L260.606 172.082C260.998 172.867 261.183 173.74 261.144 174.616C261.104 175.493 260.841 176.345 260.38 177.092C259.918 177.838 259.274 178.454 258.507 178.881C257.741 179.309 256.878 179.533 256 179.533C255.123 179.533 254.259 179.309 253.493 178.881C252.726 178.454 252.082 177.838 251.62 177.092C251.159 176.345 250.896 175.493 250.856 174.616C250.817 173.74 251.002 172.867 251.394 172.082L256 162.869ZM256 127.092L244.945 104.981H267.055L256 127.092ZM275.055 88.9814H236.945L228.945 72.9814H283.055L275.055 88.9814ZM75.7921 207.817L86.6831 213.265L81.5111 233.951L62.7531 237.076C66.7492 227.171 71.0984 217.412 75.7921 207.817ZM37.1861 326.082L37.9741 321.845C42.2876 298.919 48.3845 276.365 56.2091 254.387L89.3091 248.872C90.8466 248.616 92.2758 247.917 93.4211 246.86C94.5665 245.802 95.378 244.434 95.7561 242.921L103.756 210.921C104.197 209.156 104.024 207.293 103.263 205.639C102.503 203.986 101.202 202.641 99.5741 201.826L83.0731 193.57C91.1423 178.462 100.072 163.829 109.818 149.744L112 146.593V173.773C112.013 214.51 115.27 255.181 121.739 295.4L101.657 275.318C100.157 273.818 98.1216 272.975 95.9997 272.975C93.8778 272.975 91.8429 273.818 90.3426 275.319C88.8422 276.819 87.9994 278.854 87.9995 280.976C87.9996 283.098 88.8426 285.133 90.3431 286.633L126.556 322.846L125.245 326L92.1161 306.121C90.2965 305.03 88.1179 304.706 86.0594 305.22C84.0009 305.735 82.2312 307.046 81.1396 308.866C80.0479 310.685 79.7238 312.864 80.2385 314.923C80.7532 316.981 82.0646 318.751 83.8841 319.842L119.025 340.926L91.3541 407.333L46.2541 394.447L40.7101 377.821C35.1681 361.153 33.9555 343.349 37.1861 326.082ZM82.2451 439.017L41.6381 427.417L45.7551 410.948L86.3621 422.548L82.2451 439.017ZM160 408.981H168V424.981H160V408.981ZM232 424.981V408.981H280V424.981H232ZM352 424.981H344V408.981H352V424.981ZM429.755 439.017L425.638 422.548L466.245 410.948L470.362 427.417L429.755 439.017Z" fill="black"/>
<path d="M328 168.981C321.671 168.981 315.484 170.858 310.222 174.374C304.959 177.891 300.858 182.888 298.436 188.736C296.014 194.583 295.38 201.017 296.615 207.224C297.85 213.432 300.897 219.134 305.373 223.609C309.848 228.084 315.55 231.132 321.757 232.367C327.965 233.601 334.399 232.968 340.246 230.546C346.093 228.124 351.091 224.022 354.607 218.76C358.123 213.497 360 207.31 360 200.981C359.99 192.498 356.616 184.364 350.617 178.365C344.618 172.366 336.484 168.991 328 168.981ZM328 216.981C324.836 216.981 321.742 216.043 319.111 214.285C316.48 212.527 314.429 210.028 313.218 207.104C312.007 204.181 311.69 200.964 312.307 197.86C312.925 194.756 314.449 191.905 316.686 189.668C318.924 187.43 321.775 185.906 324.879 185.289C327.982 184.672 331.199 184.988 334.123 186.199C337.047 187.41 339.545 189.461 341.304 192.092C343.062 194.724 344 197.817 344 200.981C343.995 205.223 342.308 209.29 339.308 212.29C336.309 215.289 332.242 216.977 328 216.981Z" fill="black"/>
</svg>
