<svg width="266" height="512" viewBox="0 0 266 512" fill="none" xmlns="http://www.w3.org/2000/svg">
<g clip-path="url(#clip0_299_1409)">
<path d="M183.805 508.81C181.762 508.81 179.803 507.998 178.358 506.554C176.914 505.109 176.102 503.15 176.102 501.106V479.138C176.102 478.127 176.302 477.126 176.689 476.191C177.076 475.257 177.643 474.408 178.359 473.693C179.074 472.978 179.923 472.411 180.858 472.024C181.792 471.637 182.794 471.438 183.805 471.438C188.059 471.438 191.504 474.884 191.504 479.138V501.106C191.505 502.118 191.306 503.12 190.919 504.054C190.533 504.989 189.965 505.838 189.25 506.554C188.535 507.269 187.686 507.837 186.752 508.224C185.817 508.611 184.817 508.81 183.805 508.81ZM202.555 497.825C201.544 497.825 200.542 497.626 199.608 497.239C198.674 496.852 197.825 496.284 197.109 495.569C196.394 494.854 195.827 494.005 195.441 493.07C195.054 492.135 194.855 491.134 194.855 490.122V481.364C194.856 479.322 195.667 477.364 197.111 475.92C198.555 474.477 200.513 473.665 202.555 473.665C204.598 473.665 206.557 474.477 208.001 475.921C209.446 477.365 210.257 479.323 210.258 481.365V490.122C210.258 492.165 209.446 494.124 208.002 495.569C206.557 497.014 204.598 497.825 202.555 497.825ZM229.54 504.06C228.529 504.06 227.527 503.861 226.593 503.474C225.658 503.087 224.809 502.519 224.094 501.804C223.379 501.088 222.812 500.239 222.425 499.304C222.039 498.37 221.84 497.368 221.84 496.356V481.364C221.841 479.322 222.652 477.364 224.096 475.92C225.54 474.477 227.498 473.665 229.54 473.665C230.552 473.665 231.553 473.864 232.488 474.25C233.422 474.637 234.272 475.204 234.987 475.919C235.702 476.635 236.27 477.484 236.656 478.418C237.043 479.352 237.243 480.354 237.242 481.365V496.356C237.243 497.368 237.044 498.37 236.657 499.305C236.27 500.24 235.702 501.089 234.987 501.805C234.272 502.52 233.422 503.087 232.488 503.475C231.553 503.862 230.552 504.061 229.54 504.06ZM31.0663 512.001C29.0238 512.001 27.065 511.19 25.6205 509.746C24.176 508.302 23.3641 506.344 23.3633 504.301V484.825C23.3633 480.571 26.8133 477.126 31.0663 477.126C35.3193 477.126 38.7663 480.571 38.7663 484.826V504.301C38.766 506.343 37.9547 508.302 36.5106 509.746C35.0666 511.189 33.1083 512 31.0663 512V512.001ZM51.8093 502.263C50.7978 502.264 49.7961 502.065 48.8614 501.678C47.9267 501.292 47.0774 500.725 46.362 500.01C45.6465 499.295 45.079 498.446 44.6918 497.511C44.3046 496.577 44.1053 495.575 44.1053 494.563V485.298C44.1053 481.044 47.5553 477.598 51.8093 477.598C56.0633 477.598 59.5083 481.048 59.5083 485.298V494.563C59.5083 498.817 56.0633 502.263 51.8093 502.263ZM82.6253 505.841C81.6139 505.841 80.6123 505.642 79.6779 505.255C78.7435 504.868 77.8945 504.3 77.1795 503.585C76.4644 502.87 75.8973 502.021 75.5106 501.086C75.1238 500.152 74.9249 499.15 74.9253 498.138V483.258C74.9253 479.005 78.3713 475.556 82.6253 475.556C86.8793 475.556 90.3283 479.005 90.3283 483.259V498.138C90.328 500.181 89.5164 502.14 88.0718 503.585C86.6273 505.03 84.6682 505.841 82.6253 505.841Z" fill="#2D5B72"/>
<path d="M242.927 477.638V14.4385H22.8906V477.638C22.8906 483.31 27.4876 487.908 33.1606 487.908H82.5706C87.8006 487.908 92.1946 483.974 92.7766 478.774L132.91 119.142L173.043 478.774C173.323 481.286 174.519 483.605 176.402 485.29C178.285 486.975 180.723 487.907 183.25 487.907H232.66C238.328 487.907 242.926 483.31 242.926 477.637L242.927 477.638Z" fill="#3F6B86"/>
<path d="M132.91 119.134L92.7767 478.774C92.4976 481.285 91.3024 483.605 89.4199 485.289C87.5374 486.974 85.0998 487.905 82.5737 487.904H69.9297L111.078 119.134H132.91ZM242.922 14.4395V477.638C242.922 483.306 238.324 487.903 232.652 487.903H221.09V14.4395H242.922Z" fill="#2D5B72"/>
<path d="M132.91 126.841C130.868 126.841 128.909 126.03 127.464 124.586C126.02 123.142 125.208 121.184 125.207 119.141V38.2684C125.207 36.2259 126.018 34.2672 127.463 32.823C128.907 31.3787 130.866 30.5674 132.908 30.5674C134.95 30.5674 136.909 31.3787 138.353 32.823C139.798 34.2672 140.609 36.2259 140.609 38.2684V119.138C140.61 120.15 140.411 121.151 140.024 122.086C139.637 123.021 139.07 123.87 138.356 124.585C137.641 125.301 136.792 125.868 135.857 126.256C134.923 126.643 133.921 126.842 132.91 126.842V126.841Z" fill="#2D5B72"/>
<path d="M164.332 130.677H101.484C99.4418 130.677 97.483 129.866 96.0385 128.422C94.594 126.978 93.782 125.02 93.7812 122.977C93.7815 120.935 94.5932 118.975 96.0377 117.531C97.4822 116.086 99.4414 115.275 101.484 115.274H164.332C166.375 115.275 168.335 116.086 169.779 117.531C171.224 118.976 172.035 120.935 172.035 122.978C172.035 123.99 171.836 124.991 171.449 125.925C171.061 126.86 170.494 127.709 169.779 128.424C169.063 129.138 168.214 129.706 167.28 130.092C166.345 130.479 165.344 130.678 164.332 130.677Z" fill="#2D5B72"/>
<path d="M243.27 35.364H22.547C16.723 35.364 12 30.646 12 24.821V13.837C12 8.01304 16.723 3.29004 22.547 3.29004H243.27C249.094 3.29004 253.816 8.01304 253.816 13.837V24.821C253.816 30.646 249.094 35.364 243.27 35.364Z" fill="#87ACC8"/>
<path d="M253.82 13.8331V24.8211C253.82 30.6411 249.098 35.3641 243.273 35.3641H224.105C229.925 35.3641 234.648 30.6421 234.648 24.8211V13.8331C234.648 8.01313 229.926 3.28613 224.105 3.28613H243.273C249.098 3.28613 253.82 8.00913 253.82 13.8331Z" fill="#7296B1"/>
<path d="M89.0497 271.919C89.0497 263.954 80.0307 257.497 68.9057 257.497C57.7807 257.497 48.7617 263.954 48.7617 271.919C48.7617 279.884 57.7817 286.341 68.9057 286.341C80.0297 286.341 89.0497 279.884 89.0497 271.919Z" fill="#FFC2A3"/>
<path d="M89.0498 271.923C89.0498 279.88 80.0348 286.341 68.9058 286.341C57.7858 286.341 48.7578 279.88 48.7578 271.923C48.7578 269.294 49.7418 266.829 51.4608 264.716C54.9408 269.028 61.4488 271.923 68.9058 271.923C76.3588 271.923 82.8708 269.028 86.3518 264.716C88.0738 266.829 89.0498 269.294 89.0498 271.923Z" fill="#E79E84"/>
<path d="M220.594 271.919C220.594 263.954 210.078 257.497 197.109 257.497C184.137 257.497 173.625 263.954 173.625 271.919C173.625 279.884 184.137 286.341 197.109 286.341C210.079 286.341 220.594 279.884 220.594 271.919Z" fill="#FFC2A3"/>
<path d="M220.594 271.923C220.594 279.88 210.078 286.341 197.109 286.341C184.14 286.341 173.625 279.88 173.625 271.923C173.625 269.325 174.742 266.892 176.703 264.786C180.743 269.142 188.371 272.076 197.109 272.076C205.847 272.076 213.477 269.142 217.512 264.786C219.472 266.892 220.594 269.326 220.594 271.923ZM212.133 311.224H208.383C206.34 311.224 204.381 310.412 202.936 308.968C201.492 307.523 200.68 305.564 200.68 303.521C200.68 302.51 200.879 301.508 201.266 300.574C201.654 299.639 202.221 298.79 202.936 298.075C203.652 297.36 204.501 296.793 205.435 296.406C206.37 296.02 207.372 295.821 208.383 295.821H212.133C213.144 295.821 214.146 296.02 215.081 296.406C216.015 296.793 216.864 297.36 217.58 298.075C218.295 298.79 218.862 299.639 219.25 300.574C219.637 301.508 219.836 302.51 219.836 303.521C219.836 305.564 219.024 307.523 217.58 308.968C216.135 310.412 214.176 311.224 212.133 311.224Z" fill="#E79E84"/>
<path d="M65.1259 314.301H61.3719C59.3301 314.301 57.3718 313.49 55.9279 312.047C54.4839 310.603 53.6724 308.645 53.6719 306.603C53.6714 305.592 53.8701 304.59 54.2569 303.656C54.6436 302.721 55.2107 301.872 55.9257 301.156C56.6408 300.441 57.4898 299.873 58.4243 299.486C59.3588 299.099 60.3604 298.899 61.3719 298.899H65.1259C66.1374 298.899 67.139 299.099 68.0735 299.486C69.0079 299.873 69.8569 300.441 70.572 301.156C71.2871 301.872 71.8542 302.721 72.2409 303.656C72.6276 304.59 72.8264 305.592 72.8259 306.603C72.8256 308.645 72.0142 310.604 70.5702 312.047C69.1262 313.491 67.1679 314.302 65.1259 314.302V314.301Z" fill="#FFC2A3"/>
<path d="M200.429 46.122H198.37C192.632 46.122 187.98 41.47 187.98 35.732V10.391C187.979 4.65298 192.631 0.000976562 198.365 0.000976562H200.428C206.166 0.000976562 210.818 4.65298 210.818 10.391V35.731C210.818 41.47 206.167 46.122 200.429 46.122Z" fill="#2D5B72"/>
<path d="M132.836 46.122H130.777C125.035 46.122 120.387 41.47 120.387 35.732V10.391C120.387 4.652 125.035 0 130.777 0H132.836C138.574 0 143.226 4.652 143.226 10.39V35.73C143.226 41.469 138.574 46.122 132.836 46.122Z" fill="#7296B1"/>
<path d="M65.242 46.122H63.184C57.445 46.122 52.793 41.47 52.793 35.732V10.391C52.793 4.65298 57.445 0.000976562 63.183 0.000976562H65.243C70.98 0.000976562 75.633 4.65298 75.633 10.391V35.731C75.633 41.47 70.979 46.122 65.242 46.122Z" fill="#2D5B72"/>
</g>
<defs>
<clipPath id="clip0_299_1409">
<rect width="266" height="512" fill="white"/>
</clipPath>
</defs>
</svg>
