<svg width="512" height="512" viewBox="0 0 512 512" fill="none" xmlns="http://www.w3.org/2000/svg">
<path d="M131.869 56.423V12.538C131.869 5.614 137.483 0 144.407 0H367.592C374.517 0 380.13 5.614 380.13 12.538V56.423H131.869Z" fill="#EC462E"/>
<path d="M161.214 55.373C159.165 55.373 157.2 54.559 155.751 53.1101C154.302 51.6612 153.488 49.6961 153.488 47.647V27.643C153.488 25.5939 154.302 23.6288 155.751 22.1799C157.2 20.731 159.165 19.917 161.214 19.917C163.263 19.917 165.228 20.731 166.677 22.1799C168.126 23.6288 168.94 25.5939 168.94 27.643V47.646C168.94 48.6607 168.741 49.6654 168.352 50.6029C167.964 51.5404 167.395 52.3922 166.678 53.1097C165.96 53.8273 165.109 54.3965 164.171 54.7848C163.234 55.1731 162.229 55.373 161.214 55.373ZM192.81 55.373C190.761 55.373 188.796 54.559 187.347 53.1101C185.898 51.6612 185.084 49.6961 185.084 47.647V27.643C185.084 25.5939 185.898 23.6288 187.347 22.1799C188.796 20.731 190.761 19.917 192.81 19.917C194.859 19.917 196.824 20.731 198.273 22.1799C199.722 23.6288 200.536 25.5939 200.536 27.643V47.646C200.536 49.6951 199.722 51.6604 198.273 53.1095C196.825 54.5585 194.859 55.3727 192.81 55.373ZM224.405 55.373C222.356 55.373 220.391 54.559 218.942 53.1101C217.493 51.6612 216.679 49.6961 216.679 47.647V27.643C216.679 25.5939 217.493 23.6288 218.942 22.1799C220.391 20.731 222.356 19.917 224.405 19.917C226.454 19.917 228.419 20.731 229.868 22.1799C231.317 23.6288 232.131 25.5939 232.131 27.643V47.646C232.131 49.6951 231.317 51.6604 229.868 53.1095C228.42 54.5585 226.454 55.3727 224.405 55.373ZM256 55.373C253.951 55.373 251.986 54.559 250.537 53.1101C249.088 51.6612 248.274 49.6961 248.274 47.647V27.643C248.274 25.5939 249.088 23.6288 250.537 22.1799C251.986 20.731 253.951 19.917 256 19.917C258.049 19.917 260.014 20.731 261.463 22.1799C262.912 23.6288 263.726 25.5939 263.726 27.643V47.646C263.726 49.6951 262.912 51.6604 261.463 53.1095C260.015 54.5585 258.049 55.3727 256 55.373ZM287.595 55.373C285.546 55.373 283.581 54.559 282.132 53.1101C280.683 51.6612 279.869 49.6961 279.869 47.647V27.643C279.869 25.5939 280.683 23.6288 282.132 22.1799C283.581 20.731 285.546 19.917 287.595 19.917C289.644 19.917 291.609 20.731 293.058 22.1799C294.507 23.6288 295.321 25.5939 295.321 27.643V47.646C295.321 49.6951 294.507 51.6604 293.058 53.1095C291.61 54.5585 289.644 55.3727 287.595 55.373ZM319.19 55.373C317.141 55.373 315.176 54.559 313.727 53.1101C312.278 51.6612 311.464 49.6961 311.464 47.647V27.643C311.464 25.5939 312.278 23.6288 313.727 22.1799C315.176 20.731 317.141 19.917 319.19 19.917C321.239 19.917 323.204 20.731 324.653 22.1799C326.102 23.6288 326.916 25.5939 326.916 27.643V47.646C326.916 49.6951 326.102 51.6604 324.653 53.1095C323.205 54.5585 321.239 55.3727 319.19 55.373ZM350.786 55.373C348.737 55.373 346.772 54.559 345.323 53.1101C343.874 51.6612 343.06 49.6961 343.06 47.647V27.643C343.06 25.5939 343.874 23.6288 345.323 22.1799C346.772 20.731 348.737 19.917 350.786 19.917C352.835 19.917 354.8 20.731 356.249 22.1799C357.698 23.6288 358.512 25.5939 358.512 27.643V47.646C358.512 49.6951 357.698 51.6604 356.249 53.1095C354.801 54.5585 352.835 55.3727 350.786 55.373Z" fill="#E03A28"/>
<path d="M418.021 502.968L367.89 511.807C361.07 513.009 354.567 508.456 353.365 501.636L346.076 460.296L420.903 447.102L428.192 488.442C429.394 495.262 424.84 501.765 418.021 502.968Z" fill="#EC462E"/>
<path d="M426.464 478.602C422.766 480.379 418.843 481.64 414.802 482.352L364.436 491.232C361.817 491.687 359.163 491.918 356.504 491.922C354.856 491.922 353.218 491.829 351.6 491.654L346.078 460.295L420.9 447.098L426.464 478.602Z" fill="#D53E2D"/>
<path d="M93.381 502.968L143.512 511.807C150.332 513.009 156.835 508.456 158.037 501.636L165.326 460.296L90.499 447.102L83.21 488.442C82.008 495.262 86.562 501.765 93.381 502.968Z" fill="#EC462E"/>
<path d="M165.322 460.295L159.79 491.716C158.362 491.852 156.929 491.92 155.494 491.922C152.846 491.922 150.178 491.685 147.562 491.232L97.1963 482.352C92.9568 481.604 88.8459 480.255 84.9883 478.345L90.4993 447.1L165.322 460.295Z" fill="#D53E2D"/>
<path d="M431.78 440.176C430.585 451.22 422.179 460.131 411.228 462.057L360.862 470.938C349.86 472.875 338.919 467.29 333.995 457.266C307.727 403.784 280.911 316.976 261.051 215.713C259.965 210.175 252.036 210.175 250.95 215.713C231.089 316.976 204.273 403.784 178.006 457.266C173.082 467.29 162.141 472.873 151.139 470.938L100.773 462.057C89.822 460.131 81.416 451.219 80.221 440.176C76.966 410.146 76.512 371.999 78.933 328.401C82.4708 330.221 86.2865 331.44 90.224 332.007C112.332 335.17 133.203 317.141 136.85 291.727C140.497 266.302 125.528 243.133 103.421 239.96C97.704 239.146 92.079 239.744 86.804 241.516C90.152 214.134 94.396 185.577 99.558 156.289C105.667 121.644 112.641 88.4005 120.182 57.2375C120.847 54.5037 122.411 52.0724 124.622 50.3333C126.834 48.5942 129.566 47.6481 132.379 47.6465H379.622C382.436 47.6481 385.167 48.5942 387.379 50.3333C389.59 52.0724 391.154 54.5037 391.819 57.2375C399.36 88.4005 406.334 121.644 412.443 156.289C417.604 185.587 421.859 214.175 425.197 241.567C419.881 239.754 414.195 239.136 408.426 239.96C386.318 243.133 371.36 266.302 374.997 291.727C378.644 317.142 399.515 335.17 421.623 332.007C425.616 331.435 429.483 330.187 433.058 328.319C435.488 371.957 435.035 410.125 431.78 440.176Z" fill="#FC7D4B"/>
<path d="M390.737 247.769C387.234 218.687 382.753 188.297 377.252 157.113C370.968 121.489 363.808 87.3185 356.041 55.2695C355.291 52.1612 353.41 49.4436 350.766 47.6465H379.621C382.434 47.6481 385.166 48.5942 387.377 50.3333C389.589 52.0724 391.153 54.5037 391.818 57.2375C399.359 88.4005 406.333 121.644 412.442 156.289C417.603 185.587 421.858 214.175 425.196 241.567C419.88 239.754 414.194 239.136 408.425 239.96C401.781 240.918 395.775 243.679 390.737 247.769ZM431.78 440.176C430.585 451.22 422.179 460.131 411.228 462.057L387.678 466.21C392.87 462.048 396.383 455.938 397.135 448.995C400.648 416.575 400.988 374.966 398.062 327.32C405.17 331.389 413.309 333.192 421.622 332.007C425.615 331.435 429.481 330.187 433.057 328.319C435.488 371.957 435.035 410.125 431.78 440.176Z" fill="#FB6A3B"/>
<path d="M433.562 338.239C430.664 339.452 427.641 340.34 424.548 340.887C398.402 345.502 372.884 324.703 367.548 294.426C362.212 264.159 379.076 235.881 405.222 231.266C411.63 230.143 417.986 230.535 424.033 232.214C428.885 270.052 432.058 305.778 433.562 338.239Z" fill="#20B69F"/>
<path d="M433.562 338.239C430.664 339.452 427.641 340.34 424.548 340.887C415.575 342.473 406.664 341.062 398.629 337.292C397.001 306.448 393.962 272.895 389.471 237.509C394.179 234.439 399.474 232.276 405.222 231.266C411.63 230.143 417.986 230.535 424.033 232.214C428.885 270.052 432.058 305.778 433.562 338.239Z" fill="#17998C"/>
<path d="M144.451 294.426C139.115 324.703 113.597 345.502 87.4515 340.887C84.3582 340.341 81.335 339.453 78.4375 338.239C79.9415 305.778 83.1145 270.051 87.9665 232.213C94.0135 230.534 100.369 230.142 106.777 231.265C132.923 235.881 149.787 264.159 144.451 294.426Z" fill="#20B69F"/>
<path d="M263.727 47.6455V229.05C262.821 224.631 261.929 220.182 261.051 215.705C259.964 210.164 252.037 210.164 250.95 215.705C250.072 220.182 249.18 224.631 248.274 229.05V159.029H224.24C222.191 159.029 220.225 158.215 218.777 156.766C217.328 155.317 216.514 153.352 216.514 151.303V47.6455H231.967V143.576H248.275V47.6455H263.727ZM412.249 155.217C388.431 154.733 369.043 146.625 354.569 131.121C330.195 104.985 326.898 65.1995 326.723 47.6445H342.207C342.434 63.1695 345.359 98.6175 365.911 120.623C376.779 132.254 391.408 138.641 409.426 139.64C410.393 144.827 411.334 150.019 412.249 155.217ZM185.289 47.6455C185.217 64.4585 182.281 104.646 157.814 130.874C143.319 146.419 123.828 154.414 99.8457 154.671C100.76 149.487 101.701 144.309 102.669 139.136C120.862 138.343 135.573 132.048 146.472 120.387C167.107 98.2995 169.672 62.4075 169.795 47.6455H185.289Z" fill="#FB6A3B"/>
</svg>
