<svg width="512" height="512" viewBox="0 0 512 512" fill="none" xmlns="http://www.w3.org/2000/svg">
<path fill-rule="evenodd" clip-rule="evenodd" d="M256.005 485C158.641 485 156.048 484.156 155.204 483.875C154.165 483.53 153.267 482.855 152.646 481.953C152.026 481.05 151.717 479.97 151.767 478.876L167.558 154.176C167.653 152.873 168.253 151.659 169.231 150.793C170.21 149.927 171.488 149.478 172.792 149.542C174.097 149.606 175.325 150.178 176.214 151.135C177.102 152.093 177.581 153.36 177.548 154.666L161.995 474.429C188.733 475.197 323.272 475.197 349.998 474.429L334.46 154.666C334.396 153.342 334.86 152.046 335.75 151.063C336.64 150.081 337.884 149.491 339.208 149.425C340.533 149.361 341.829 149.825 342.812 150.716C343.795 151.607 344.384 152.851 344.449 154.176L360.229 478.876C360.284 479.969 359.978 481.05 359.36 481.953C358.741 482.856 357.843 483.532 356.804 483.875C355.947 484.156 353.367 485 256.005 485Z" fill="black"/>
<path fill-rule="evenodd" clip-rule="evenodd" d="M398.936 333.201H347.907C347.236 333.224 346.567 333.112 345.94 332.871C345.314 332.63 344.742 332.266 344.259 331.799C343.777 331.333 343.393 330.774 343.13 330.156C342.868 329.538 342.733 328.874 342.733 328.202C342.733 327.531 342.868 326.866 343.13 326.248C343.393 325.63 343.777 325.072 344.259 324.605C344.742 324.139 345.314 323.774 345.94 323.533C346.567 323.292 347.236 323.18 347.907 323.203H393.562L379.366 127.488C377.668 104.061 356.198 85.624 317.272 74.1673C314.979 73.5032 312.676 72.8712 310.365 72.2716C308.919 71.8966 307.531 71.5335 306.187 71.1466C273.278 79.7087 238.726 79.7087 205.817 71.1466C204.473 71.5305 203.077 71.8966 201.63 72.2687C199.619 72.8002 197.337 73.4055 194.732 74.1673C155.809 85.624 134.339 104.061 132.63 127.488L118.445 323.2H164.1C165.405 323.232 166.647 323.773 167.558 324.707C168.47 325.641 168.981 326.895 168.981 328.201C168.981 329.506 168.47 330.76 167.558 331.695C166.647 332.629 165.405 333.17 164.1 333.201H113.071C112.383 333.203 111.702 333.063 111.07 332.789C110.439 332.515 109.871 332.114 109.403 331.61C108.934 331.106 108.575 330.511 108.347 329.861C108.12 329.212 108.029 328.522 108.081 327.836L122.664 126.759C124.082 107.271 137.236 80.6663 191.909 64.5738C194.296 63.8797 196.693 63.2231 199.099 62.6043C201.025 62.0935 202.702 61.6594 204.284 61.1781C205.182 60.9065 206.13 60.8858 207.036 61.125C239.116 69.7182 272.891 69.7182 304.971 61.125C305.877 60.8858 306.825 60.9065 307.72 61.1781C309.302 61.6565 310.968 62.0935 312.908 62.6043C315.313 63.2243 317.709 63.8808 320.095 64.5738C374.771 80.6663 387.926 107.271 389.343 126.759L403.927 327.836C404.021 329.224 403.543 330.588 402.604 331.607C401.656 332.628 400.321 333.201 398.936 333.201Z" fill="black"/>
<path fill-rule="evenodd" clip-rule="evenodd" d="M306.251 70.961C305.064 70.9586 303.917 70.534 303.014 69.7631C302.111 68.9923 301.512 67.9254 301.323 66.7533L296.711 37.9078C269.804 42.9289 242.201 42.9289 215.294 37.9078L210.679 66.7504C210.575 67.3987 210.345 68.0203 210.001 68.5795C209.657 69.1387 209.206 69.6247 208.674 70.0096C208.142 70.3946 207.539 70.671 206.9 70.8231C206.262 70.9752 205.599 71 204.951 70.8961C204.303 70.7922 203.681 70.5615 203.122 70.2174C202.563 69.8733 202.077 69.4224 201.692 68.8905C200.914 67.8162 200.595 66.4771 200.805 65.1677L206.232 31.2021C206.341 30.5343 206.584 29.8954 206.947 29.3241C207.31 28.7528 207.784 28.261 208.342 27.8782C208.9 27.4954 209.53 27.2297 210.194 27.0971C210.857 26.9645 211.541 26.9677 212.203 27.1066C241.086 33.1894 270.919 33.1894 299.802 27.1066C300.464 26.9687 301.147 26.9661 301.809 27.0992C302.471 27.2323 303.1 27.4983 303.657 27.881C304.214 28.2638 304.687 28.7554 305.049 29.3262C305.411 29.897 305.653 30.5351 305.761 31.2021L311.2 65.1677C311.315 65.8833 311.273 66.6154 311.078 67.3132C310.882 68.011 310.536 68.6579 310.066 69.209C309.595 69.7601 309.01 70.2022 308.351 70.5047C307.693 70.8073 306.976 70.963 306.251 70.961Z" fill="black"/>
<path fill-rule="evenodd" clip-rule="evenodd" d="M256.006 77.5748C255.349 77.576 254.698 77.4475 254.091 77.1967C253.484 76.9459 252.932 76.5778 252.467 76.1134C252.003 75.649 251.634 75.0975 251.383 74.4904C251.132 73.8834 251.003 73.2327 251.004 72.5758V36.6436C251.048 35.3475 251.595 34.1194 252.527 33.2183C253.46 32.3172 254.706 31.8135 256.003 31.8135C257.3 31.8135 258.546 32.3172 259.479 33.2183C260.411 34.1194 260.957 35.3475 261.002 36.6436V72.5699C261.002 75.3425 258.764 77.5718 256.003 77.5718L256.006 77.5748Z" fill="black"/>
<path fill-rule="evenodd" clip-rule="evenodd" d="M255.878 185.8C254.951 185.8 254.024 185.54 253.2 185.02L237.388 175.019C235.941 174.104 235.064 172.509 235.064 170.8V71.9176C235.096 70.6124 235.637 69.3713 236.571 68.4594C237.506 67.5476 238.759 67.0371 240.065 67.0371C241.371 67.0371 242.624 67.5476 243.559 68.4594C244.493 69.3713 245.034 70.6124 245.065 71.9176V168.042L255.899 174.898L266.942 168.021V71.9176C266.987 70.6215 267.533 69.3934 268.466 68.4922C269.398 67.5911 270.645 67.0874 271.941 67.0874C273.238 67.0874 274.485 67.5911 275.417 68.4922C276.35 69.3934 276.896 70.6215 276.941 71.9176V170.8C276.941 172.53 276.043 174.136 274.584 175.04L258.521 185.041C257.73 185.538 256.813 185.801 255.878 185.8Z" fill="black"/>
<path fill-rule="evenodd" clip-rule="evenodd" d="M256.005 98.9589C255.349 98.9591 254.7 98.8301 254.094 98.5793C253.488 98.3285 252.937 97.9607 252.473 97.4971C251.536 96.5607 251.01 95.2904 251.009 93.9658C251.009 92.6411 251.535 91.3706 252.471 90.4337C253.407 89.4967 254.678 88.9701 256.002 88.9697C257.327 88.9697 258.597 89.4959 259.534 90.4326C260.471 91.3693 260.997 92.6397 260.997 93.9643C260.997 95.289 260.471 96.5594 259.534 97.496C258.597 98.4327 257.33 98.9589 256.005 98.9589ZM256.005 118.657C254.7 118.625 253.459 118.085 252.547 117.151C251.634 116.217 251.124 114.963 251.123 113.658C251.123 112.352 251.633 111.098 252.545 110.164C253.456 109.229 254.697 108.688 256.002 108.656C257.328 108.656 258.6 109.183 259.538 110.12C260.476 111.058 261.003 112.33 261.003 113.656C261.003 114.983 260.476 116.254 259.538 117.192C258.6 118.13 257.331 118.657 256.005 118.657ZM256.005 138.343C254.709 138.299 253.481 137.753 252.579 136.82C251.678 135.888 251.174 134.642 251.174 133.345C251.173 132.048 251.677 130.802 252.577 129.869C253.478 128.936 254.706 128.39 256.002 128.345C257.328 128.345 258.6 128.872 259.538 129.809C260.476 130.747 261.003 132.019 261.003 133.345C261.003 134.672 260.476 135.943 259.538 136.881C258.6 137.819 257.328 138.346 256.002 138.346L256.005 138.343ZM256.005 158.032C254.7 158.001 253.459 157.46 252.547 156.526C251.634 155.592 251.124 154.338 251.123 153.033C251.123 151.727 251.633 150.473 252.545 149.539C253.456 148.604 254.697 148.063 256.002 148.031C257.328 148.031 258.6 148.558 259.538 149.495C260.476 150.433 261.003 151.705 261.003 153.031C261.003 154.358 260.476 155.629 259.538 156.567C258.6 157.505 257.331 158.032 256.005 158.032ZM165.568 303.036H115.256C113.96 302.992 112.732 302.445 111.831 301.513C110.929 300.58 110.426 299.334 110.426 298.037C110.426 296.74 110.929 295.494 111.831 294.561C112.732 293.629 113.96 293.083 115.256 293.038H165.571C166.867 293.083 168.095 293.629 168.996 294.561C169.897 295.494 170.401 296.74 170.401 298.037C170.401 299.334 169.897 300.58 168.996 301.513C168.095 302.445 166.867 302.992 165.571 303.036H165.568ZM396.749 303.036H346.436C345.14 302.992 343.912 302.445 343.011 301.513C342.11 300.58 341.606 299.334 341.606 298.037C341.606 296.74 342.11 295.494 343.011 294.561C343.912 293.629 345.14 293.083 346.436 293.038H396.749C398.045 293.083 399.273 293.629 400.174 294.561C401.075 295.494 401.579 296.74 401.579 298.037C401.579 299.334 401.075 300.58 400.174 301.513C399.273 302.445 398.045 302.992 396.749 303.036ZM353.928 457.25H158.071C156.775 457.205 155.547 456.659 154.646 455.727C153.745 454.794 153.241 453.548 153.241 452.251C153.241 450.954 153.745 449.708 154.646 448.775C155.547 447.843 156.775 447.296 158.071 447.252H353.928C355.224 447.296 356.452 447.843 357.353 448.775C358.254 449.708 358.758 450.954 358.758 452.251C358.758 453.548 358.254 454.794 357.353 455.727C356.452 456.659 355.224 457.205 353.928 457.25Z" fill="black"/>
<path fill-rule="evenodd" clip-rule="evenodd" d="M163.317 447.253H348.677L342.913 328.634C342.902 328.511 342.897 328.388 342.895 328.265V328.206L334.459 154.666C334.396 153.342 334.86 152.047 335.75 151.065C336.64 150.083 337.883 149.495 339.207 149.428C340.532 149.364 341.828 149.828 342.811 150.719C343.794 151.61 344.383 152.854 344.448 154.179L351.195 293.039H391.374L379.362 127.489C377.664 104.065 356.197 85.6278 317.271 74.1681C314.978 73.5039 312.675 72.8719 310.365 72.2725C308.918 71.8975 307.53 71.5343 306.186 71.1504C296.56 73.6573 286.781 75.4319 276.939 76.4683V170.8C276.939 172.531 276.042 174.137 274.583 175.04L258.52 185.041C257.721 185.54 256.797 185.803 255.855 185.799C254.913 185.796 253.991 185.526 253.196 185.021L237.387 175.02C235.94 174.104 235.063 172.51 235.063 170.803V76.4683C225.195 75.4273 215.419 73.6487 205.816 71.1475C204.473 71.5313 203.076 71.8975 201.629 72.2725C199.618 72.804 197.336 73.4093 194.731 74.1681C155.808 85.6249 134.339 104.065 132.629 127.489L120.629 293.039H160.801L167.557 154.176C167.652 152.873 168.252 151.659 169.23 150.793C170.208 149.927 171.486 149.478 172.791 149.542C174.096 149.606 175.324 150.178 176.212 151.136C177.101 152.093 177.58 153.36 177.546 154.666L163.317 447.253Z" fill="#32D736"/>
<path fill-rule="evenodd" clip-rule="evenodd" d="M261.005 67.5067C274.352 67.1547 287.625 65.3899 300.601 62.2419L296.713 37.9111C284.928 40.1035 272.986 41.3428 261.002 41.6168L261.005 67.5067ZM251.004 67.5067C237.655 67.1549 224.381 65.3901 211.404 62.2419L215.296 37.9111C227.08 40.1033 239.021 41.3426 251.004 41.6168V67.5067Z" fill="#E39736"/>
<path fill-rule="evenodd" clip-rule="evenodd" d="M255.78 77.5697C252.206 77.5652 248.633 77.4647 245.064 77.2686V168.042L255.898 174.899L266.941 168.022V77.2686C263.225 77.4731 259.503 77.5735 255.78 77.5697ZM256.001 88.9674C257.327 88.9674 258.597 89.4938 259.534 90.4307C260.471 91.3677 260.998 92.6384 260.998 93.9635C260.998 95.2885 260.471 96.5593 259.534 97.4962C258.597 98.4332 257.327 98.9595 256.001 98.9595C254.677 98.9595 253.406 98.4333 252.47 97.4967C251.533 96.56 251.007 95.2896 251.007 93.9649C251.007 92.6403 251.533 91.3699 252.47 90.4332C253.406 89.4966 254.677 88.9704 256.001 88.9704V88.9674ZM256.001 108.656C257.328 108.656 258.6 109.183 259.537 110.121C260.475 111.059 261.002 112.331 261.002 113.657C261.002 114.983 260.475 116.255 259.537 117.193C258.6 118.131 257.328 118.657 256.001 118.657C254.675 118.657 253.403 118.131 252.466 117.193C251.528 116.255 251.001 114.983 251.001 113.657C251.001 112.331 251.528 111.059 252.466 110.121C253.403 109.183 254.675 108.656 256.001 108.656ZM251.002 133.342C251.002 130.575 253.241 128.345 256.001 128.345C258.762 128.345 261 130.575 261 133.344C261 134.67 260.474 135.942 259.536 136.879C258.599 137.817 257.327 138.343 256.001 138.343C254.676 138.343 253.404 137.817 252.467 136.879C251.529 135.942 251.002 134.667 251.002 133.342ZM251.002 153.031C251.002 150.261 253.241 148.031 256.001 148.031C258.762 148.031 261 150.261 261 153.031C261 154.356 260.474 155.628 259.536 156.565C258.599 157.503 257.327 158.03 256.001 158.03C254.676 158.03 253.404 157.503 252.467 156.565C251.529 155.628 251.002 154.356 251.002 153.031Z" fill="#62DBFB"/>
<path fill-rule="evenodd" clip-rule="evenodd" d="M160.318 303.036H119.907L118.445 323.204H159.338L160.318 303.036ZM349.165 457.25H162.831L161.996 474.426C188.733 475.197 323.272 475.197 349.998 474.426L349.165 457.25ZM352.664 323.204H393.563L392.098 303.036H351.684L352.664 323.204Z" fill="#E39736"/>
</svg>
