<svg width="512" height="512" viewBox="0 0 512 512" fill="none" xmlns="http://www.w3.org/2000/svg">
<path d="M255.999 195.237L348.967 12.3939H163.031L255.999 195.237Z" fill="#9E5528"/>
<path d="M203.033 12.3939H163.033L256.001 195.237L276.001 155.902L203.033 12.3939Z" fill="#904D24"/>
<mask id="mask0_299_1798" style="mask-type:luminance" maskUnits="userSpaceOnUse" x="0" y="0" width="512" height="512">
<path d="M0 0.00149536H511.999V512H0V0.00149536Z" fill="white"/>
</mask>
<g mask="url(#mask0_299_1798)">
<path d="M163.315 8.19737L132.214 19.5603C130.013 20.3644 128.113 21.8254 126.77 23.7456C125.427 25.6658 124.707 27.9522 124.707 30.2953V178.665C124.707 182.774 123.821 186.834 122.109 190.57C120.397 194.305 117.9 197.627 114.787 200.309L88.3801 223.066C87.135 224.138 86.1359 225.467 85.4511 226.961C84.7664 228.455 84.4119 230.079 84.4121 231.723V440.819C84.4121 445.31 87.0421 449.385 91.1351 451.234L206.791 503.487C208.772 504.382 210.968 504.693 213.12 504.384C215.272 504.075 217.291 503.158 218.941 501.742L277.324 451.617C278.573 450.544 279.576 449.214 280.264 447.717C280.952 446.221 281.308 444.593 281.308 442.946V213.496C281.308 211.638 280.855 209.807 279.988 208.163L177.345 13.5994C176.055 11.1544 173.923 9.25975 171.343 8.26649C168.764 7.27323 165.911 7.24867 163.315 8.19737Z" fill="#C86D36"/>
<path d="M124.412 241.722C124.412 238.396 125.861 235.236 128.38 233.065L154.787 210.308C157.9 207.626 160.397 204.304 162.109 200.569C163.821 196.834 164.707 192.773 164.707 188.664V40.2948C164.707 35.4948 167.706 31.2069 172.214 29.5599L183.576 25.4089L177.346 13.5989C176.056 11.154 173.923 9.25946 171.344 8.26623C168.764 7.273 165.911 7.24835 163.315 8.19689L132.214 19.5599C130.013 20.364 128.113 21.825 126.77 23.7451C125.427 25.6653 124.707 27.9518 124.707 30.2949V178.664C124.707 182.773 123.821 186.834 122.109 190.569C120.397 194.304 117.9 197.626 114.787 200.308L88.3801 223.065C87.1351 224.138 86.1362 225.467 85.4514 226.961C84.7666 228.455 84.4121 230.079 84.4121 231.722V440.819C84.4121 445.31 87.0421 449.385 91.1351 451.234L124.412 466.268V241.722Z" fill="#AC5E2E"/>
<path d="M348.682 8.19737L379.783 19.5603C381.984 20.3644 383.884 21.8254 385.227 23.7456C386.57 25.6658 387.29 27.9522 387.29 30.2953V178.665C387.29 182.774 388.176 186.834 389.888 190.57C391.6 194.305 394.097 197.627 397.21 200.309L423.617 223.066C424.862 224.138 425.861 225.467 426.546 226.961C427.231 228.455 427.585 230.079 427.585 231.723V440.819C427.585 445.31 424.955 449.385 420.862 451.234L305.206 503.487C303.225 504.382 301.029 504.693 298.877 504.384C296.725 504.075 294.706 503.158 293.056 501.742L234.673 451.617C233.424 450.544 232.421 449.214 231.733 447.717C231.045 446.221 230.689 444.593 230.689 442.946V213.496C230.689 211.638 231.142 209.807 232.009 208.163L334.652 13.5994C335.942 11.1544 338.074 9.25975 340.654 8.26649C343.233 7.27323 346.086 7.24867 348.682 8.19737Z" fill="#C86D36"/>
<path d="M274.673 451.617C273.424 450.544 272.421 449.214 271.733 447.717C271.045 446.221 270.689 444.593 270.689 442.946V213.496C270.689 211.638 271.142 209.807 272.009 208.163L372.844 17.0253L348.682 8.19734C346.086 7.24886 343.234 7.2735 340.654 8.26674C338.074 9.25998 335.942 11.1545 334.652 13.5993L232.009 208.163C231.143 209.807 230.689 211.637 230.689 213.496V442.946C230.689 446.279 232.144 449.446 234.673 451.617L293.056 501.742C294.706 503.158 296.725 504.075 298.877 504.384C301.029 504.693 303.225 504.382 305.206 503.487L324.785 494.641L274.673 451.617Z" fill="#AC5E2E"/>
<path d="M275.426 12.3956H236.57V39.0585C236.57 39.8088 236.718 40.5518 237.005 41.245C237.292 41.9383 237.713 42.5682 238.243 43.0988C238.774 43.6294 239.404 44.0503 240.097 44.3375C240.79 44.6247 241.533 44.7725 242.283 44.7725H269.712C270.463 44.7725 271.206 44.6247 271.899 44.3375C272.592 44.0504 273.222 43.6295 273.753 43.0989C274.283 42.5683 274.704 41.9384 274.991 41.2451C275.278 40.5519 275.426 39.8088 275.426 39.0585V12.3956Z" fill="#F4D7C8"/>
<path d="M269.498 237.001C269.498 238.99 268.708 240.898 267.301 242.304C265.895 243.711 263.987 244.501 261.998 244.501C260.009 244.501 258.101 243.711 256.695 242.304C255.288 240.898 254.498 238.99 254.498 237.001C254.498 235.012 255.288 233.104 256.695 231.698C258.101 230.291 260.009 229.501 261.998 229.501C263.987 229.501 265.895 230.291 267.301 231.698C268.708 233.104 269.498 235.012 269.498 237.001Z" fill="black"/>
<path d="M269.498 294C269.498 295.989 268.708 297.897 267.301 299.303C265.895 300.71 263.987 301.5 261.998 301.5C260.009 301.5 258.101 300.71 256.695 299.303C255.288 297.897 254.498 295.989 254.498 294C254.498 292.011 255.288 290.103 256.695 288.697C258.101 287.29 260.009 286.5 261.998 286.5C263.987 286.5 265.895 287.29 267.301 288.697C268.708 290.103 269.498 292.011 269.498 294Z" fill="black"/>
<path d="M269.498 351C269.498 352.989 268.708 354.897 267.301 356.303C265.895 357.71 263.987 358.5 261.998 358.5C260.009 358.5 258.101 357.71 256.695 356.303C255.288 354.897 254.498 352.989 254.498 351C254.498 349.011 255.288 347.103 256.695 345.697C258.101 344.29 260.009 343.5 261.998 343.5C263.987 343.5 265.895 344.29 267.301 345.697C268.708 347.103 269.498 349.011 269.498 351Z" fill="black"/>
<path d="M269.498 408C269.498 409.989 268.708 411.897 267.301 413.303C265.895 414.71 263.987 415.5 261.998 415.5C260.009 415.5 258.101 414.71 256.695 413.303C255.288 411.897 254.498 409.989 254.498 408C254.498 406.011 255.288 404.103 256.695 402.697C258.101 401.29 260.009 400.5 261.998 400.5C263.987 400.5 265.895 401.29 267.301 402.697C268.708 404.103 269.498 406.011 269.498 408Z" fill="black"/>
<path d="M366.651 408.983H338.018C326.972 408.983 318.018 400.028 318.018 388.983V331.001C318.018 329.675 318.544 328.403 319.482 327.465C320.42 326.527 321.691 326.001 323.018 326.001H381.651C382.977 326.001 384.249 326.527 385.187 327.465C386.125 328.403 386.651 329.675 386.651 331.001V388.983C386.651 400.028 377.697 408.983 366.651 408.983Z" fill="#9E5528"/>
<path d="M348.017 388.983V331.001C348.017 329.675 348.544 328.403 349.482 327.465C350.42 326.527 351.691 326.001 353.017 326.001H323.018C321.691 326.001 320.42 326.527 319.482 327.465C318.544 328.403 318.018 329.675 318.018 331.001V388.983C318.018 400.028 326.973 408.983 338.018 408.983H366.651C366.882 408.983 367.105 408.956 367.334 408.948C356.608 408.586 348.017 399.798 348.017 388.983Z" fill="#904D24"/>
<path d="M173.98 408.983H145.346C134.3 408.983 125.346 400.028 125.346 388.983V331.001C125.346 329.675 125.872 328.403 126.81 327.465C127.748 326.527 129.02 326.001 130.346 326.001H188.98C190.306 326.001 191.577 326.527 192.515 327.465C193.453 328.403 193.98 329.675 193.98 331.001V388.983C193.98 400.028 185.025 408.983 173.98 408.983Z" fill="#9E5528"/>
<path d="M155.346 388.983V331.001C155.346 329.675 155.872 328.403 156.81 327.465C157.748 326.527 159.02 326.001 160.346 326.001H130.346C129.02 326.001 127.748 326.527 126.81 327.465C125.872 328.403 125.346 329.675 125.346 331.001V388.983C125.346 400.028 134.3 408.983 145.346 408.983H173.98C174.211 408.983 174.434 408.956 174.663 408.948C163.936 408.586 155.346 399.798 155.346 388.983Z" fill="#904D24"/>
</g>
</svg>
