<svg width="512" height="512" viewBox="0 0 512 512" fill="none" xmlns="http://www.w3.org/2000/svg">
<path d="M499.864 208C471.864 152 423.864 84 423.864 84L348 136L400 272L495.864 235.832C509.3 229.332 502.688 213.648 499.864 208Z" fill="url(#paint0_linear_299_1387)"/>
<path d="M499.884 208.044C502.72 213.728 509.268 229.348 495.864 235.832L400 272L391.576 249.972L499.884 208.044Z" fill="url(#paint1_linear_299_1387)"/>
<path d="M176 44H336V476H176V44Z" fill="url(#paint2_linear_299_1387)"/>
<path d="M336 44H176L196 8H316L336 44Z" fill="url(#paint3_linear_299_1387)"/>
<path d="M284 100C284 100 295 372 312 504C312 504 376 496 420 472L396 220L424 84L340 44L312 96L284 100Z" fill="url(#paint4_linear_299_1387)"/>
<path d="M348 36C358.52 62.3 345.332 91.668 332 120L284 100C333.668 72 318 31.836 316 8C316 8 340 16 348 36Z" fill="url(#paint5_linear_299_1387)"/>
<path d="M88.1354 84C88.1354 84 40.1354 152 12.1354 208C9.31142 213.648 2.69942 229.332 16.1354 235.832L111.999 272L163.999 136L88.1354 84Z" fill="url(#paint6_linear_299_1387)"/>
<path d="M12.1117 208.044C9.2757 213.728 2.7277 229.348 16.1317 235.832L112 272L120.424 249.972L12.1117 208.044Z" fill="url(#paint7_linear_299_1387)"/>
<path d="M228 100C228 100 217 372 200 504C200 504 136 496 92 472L116 220L88 84L172 44L200 96L228 100Z" fill="url(#paint8_linear_299_1387)"/>
<path d="M164.001 36C153.481 62.3 166.669 91.668 180.001 120L228.001 100C178.333 72 194.001 31.836 196.001 8C196.001 8 172.001 16 164.001 36Z" fill="url(#paint9_linear_299_1387)"/>
<path d="M364 240H324C319.757 240 315.687 238.314 312.686 235.314C309.686 232.313 308 228.243 308 224V168C308 163.6 311.6 160 316 160H372C376.4 160 380 163.6 380 168V224C380 228.243 378.314 232.313 375.314 235.314C372.313 238.314 368.243 240 364 240Z" fill="url(#paint10_linear_299_1387)"/>
<path d="M372 160H316C311.6 160 308 163.6 308 168V176H380V168C380 163.6 376.4 160 372 160Z" fill="url(#paint11_linear_299_1387)"/>
<path d="M200 184C204.418 184 208 180.418 208 176C208 171.582 204.418 168 200 168C195.582 168 192 171.582 192 176C192 180.418 195.582 184 200 184Z" fill="url(#paint12_linear_299_1387)"/>
<path d="M196 264C200.418 264 204 260.418 204 256C204 251.582 200.418 248 196 248C191.582 248 188 251.582 188 256C188 260.418 191.582 264 196 264Z" fill="url(#paint13_linear_299_1387)"/>
<path d="M192 348C196.418 348 200 344.418 200 340C200 335.582 196.418 332 192 332C187.582 332 184 335.582 184 340C184 344.418 187.582 348 192 348Z" fill="url(#paint14_linear_299_1387)"/>
<path d="M184 428C188.418 428 192 424.418 192 420C192 415.582 188.418 412 184 412C179.582 412 176 415.582 176 420C176 424.418 179.582 428 184 428Z" fill="url(#paint15_linear_299_1387)"/>
<path d="M503.44 206.212C476.868 153.072 432.596 89.488 427.644 82.424C427.272 81.5323 426.586 80.8079 425.716 80.388L354.98 46.704C354.355 42.5296 353.259 38.4395 351.712 34.512C343.124 13.036 318.312 4.556 317.264 4.204C316.855 4.07691 316.429 4.01614 316 4.024V4H196V4.024C195.572 4.01416 195.145 4.07497 194.736 4.204C193.684 4.556 168.876 13.036 160.288 34.512C158.74 38.4374 157.643 42.5264 157.02 46.7L86.2803 80.388C85.4101 80.8098 84.7243 81.5354 84.3523 82.428C79.3883 89.516 35.0363 153.252 8.56029 206.212C5.46829 212.4 2.33629 221.42 5.00829 229.26C6.53229 233.736 9.69229 237.164 14.7283 239.58L106.812 274.32L88.0243 471.628C87.9499 472.408 88.1063 473.193 88.4739 473.885C88.8416 474.576 89.4043 475.145 90.0923 475.52C134.248 499.604 196.864 507.644 199.508 507.976C200.558 508.107 201.617 507.818 202.454 507.17C203.291 506.522 203.837 505.569 203.972 504.52C204.964 496.816 205.936 488.604 206.888 480.008H305.12C306.072 488.604 307.044 496.816 308.036 504.52C308.172 505.569 308.718 506.522 309.555 507.17C310.391 507.818 311.45 508.107 312.5 507.976C315.144 507.644 377.76 499.604 421.916 475.52C422.605 475.146 423.168 474.577 423.536 473.885C423.904 473.193 424.06 472.408 423.984 471.628L405.196 274.324L497.612 239.444C502.316 237.168 505.476 233.744 507 229.268C509.664 221.42 506.536 212.4 503.44 206.212ZM400.04 220.22L426.004 94.104C438.872 112.852 472.056 162.364 494.316 205.912L402.076 241.62L400.04 220.22ZM344.284 37.488C354.004 61.784 341.776 89.74 330.008 114.836L292.764 99.32C330.024 74.5 324.936 41.396 321.504 19.08C321.262 17.5305 321.027 15.9798 320.8 14.428C327.944 18.008 339.448 25.392 344.284 37.488ZM199.564 12H312.432C312.756 14.656 313.148 17.396 313.596 20.296C314.556 26.544 315.572 33.188 315.852 40H196.148C196.428 33.188 197.444 26.544 198.404 20.296C198.852 17.396 199.24 14.656 199.564 12ZM167.716 37.488C172.532 25.444 184.044 18.044 191.196 14.448C190.98 15.948 190.744 17.5 190.496 19.08C187.068 41.392 181.976 74.5 219.236 99.32L181.992 114.836C170.224 89.736 158 61.772 167.716 37.488ZM109.924 241.616L17.6843 205.908C39.8803 162.488 73.1163 112.88 85.9963 94.108L111.96 220.22L109.924 241.616ZM17.8803 232.232C15.1323 230.904 13.4043 229.088 12.5843 226.676C11.1563 222.488 12.5763 217.184 14.2083 213.14L109.14 249.888L107.6 266.06L17.8803 232.232ZM196.544 499.468C182.316 497.332 132.692 488.84 96.2363 469.724L119.984 220.376C120.025 219.98 120.004 219.581 119.92 219.192L92.5523 86.264L156.268 55.92C156.1 78.552 167.088 101.956 176.38 121.704C176.819 122.636 177.6 123.363 178.561 123.733C179.523 124.104 180.59 124.089 181.54 123.692L223.74 106.108C221.992 147.048 211.624 378.988 196.544 499.468ZM207.752 472C222.44 333.688 231.896 102.672 231.996 100.164H231.984C232.016 99.4295 231.844 98.7006 231.487 98.0576C231.131 97.4146 230.604 96.8825 229.964 96.52C204.56 82.192 197.236 64.88 196.208 48H315.788C314.764 64.88 307.44 82.192 282.032 96.516C281.393 96.8785 280.866 97.4106 280.509 98.0536C280.153 98.6966 279.981 99.4255 280.012 100.16H280C280.1 102.672 289.556 333.688 304.244 471.996L207.752 472ZM315.456 499.468C300.372 378.988 290.008 147.048 288.26 106.108L330.46 123.692C331.411 124.089 332.478 124.104 333.439 123.733C334.4 123.363 335.182 122.636 335.62 121.704C344.912 101.956 355.904 78.56 355.732 55.924L419.448 86.268L392.08 219.196C391.999 219.585 391.978 219.984 392.016 220.38L415.764 469.728C379.336 488.824 329.688 497.328 315.456 499.468ZM499.416 226.676C498.596 229.088 496.864 230.904 494.452 232.092L404.404 266.064L402.864 249.892L497.796 213.144C499.424 217.184 500.844 222.492 499.416 226.676Z" fill="#3A322B"/>
<path d="M372 156H316C309.384 156 304 161.384 304 168V224C304 235.028 312.972 244 324 244H364C375.028 244 384 235.028 384 224V168C384 161.384 378.616 156 372 156ZM316 164H372C374.208 164 376 165.796 376 168V172H312V168C312 165.796 313.792 164 316 164ZM364 236H324C317.384 236 312 230.616 312 224V180H376V224C376 230.616 370.616 236 364 236ZM200 164C193.384 164 188 169.384 188 176C188 182.616 193.384 188 200 188C206.616 188 212 182.616 212 176C212 169.384 206.616 164 200 164ZM200 180C198.97 179.954 197.998 179.512 197.285 178.767C196.573 178.022 196.175 177.031 196.175 176C196.175 174.969 196.573 173.978 197.285 173.233C197.998 172.488 198.97 172.046 200 172C201.03 172.046 202.002 172.488 202.715 173.233C203.427 173.978 203.825 174.969 203.825 176C203.825 177.031 203.427 178.022 202.715 178.767C202.002 179.512 201.03 179.954 200 180ZM196 244C189.384 244 184 249.384 184 256C184 262.616 189.384 268 196 268C202.616 268 208 262.616 208 256C208 249.384 202.616 244 196 244ZM196 260C194.97 259.954 193.998 259.512 193.285 258.767C192.573 258.022 192.175 257.031 192.175 256C192.175 254.969 192.573 253.978 193.285 253.233C193.998 252.488 194.97 252.046 196 252C197.03 252.046 198.002 252.488 198.715 253.233C199.427 253.978 199.825 254.969 199.825 256C199.825 257.031 199.427 258.022 198.715 258.767C198.002 259.512 197.03 259.954 196 260ZM192 328C185.384 328 180 333.384 180 340C180 346.616 185.384 352 192 352C198.616 352 204 346.616 204 340C204 333.384 198.616 328 192 328ZM192 344C190.939 344 189.922 343.579 189.172 342.828C188.421 342.078 188 341.061 188 340C188 338.939 188.421 337.922 189.172 337.172C189.922 336.421 190.939 336 192 336C193.061 336 194.078 336.421 194.828 337.172C195.579 337.922 196 338.939 196 340C196 341.061 195.579 342.078 194.828 342.828C194.078 343.579 193.061 344 192 344ZM184 408C177.384 408 172 413.384 172 420C172 426.616 177.384 432 184 432C190.616 432 196 426.616 196 420C196 413.384 190.616 408 184 408ZM184 424C182.939 424 181.922 423.579 181.172 422.828C180.421 422.078 180 421.061 180 420C180 418.939 180.421 417.922 181.172 417.172C181.922 416.421 182.939 416 184 416C185.061 416 186.078 416.421 186.828 417.172C187.579 417.922 188 418.939 188 420C188 421.061 187.579 422.078 186.828 422.828C186.078 423.579 185.061 424 184 424Z" fill="#3A322B"/>
<defs>
<linearGradient id="paint0_linear_299_1387" x1="348" y1="84" x2="503.999" y2="84" gradientUnits="userSpaceOnUse">
<stop stop-color="#F9C4AF"/>
<stop offset="0.656" stop-color="#F79F8B"/>
</linearGradient>
<linearGradient id="paint1_linear_299_1387" x1="391.576" y1="208.044" x2="504" y2="208.044" gradientUnits="userSpaceOnUse">
<stop stop-color="#FFAC27"/>
<stop offset="0.997" stop-color="#FFBE5F"/>
</linearGradient>
<linearGradient id="paint2_linear_299_1387" x1="381" y1="260" x2="578" y2="260" gradientUnits="userSpaceOnUse">
<stop stop-color="#E15C63"/>
<stop offset="0.406" stop-color="#DE585F"/>
<stop offset="0.826" stop-color="#D44B53"/>
<stop offset="1" stop-color="#CE444C"/>
</linearGradient>
<linearGradient id="paint3_linear_299_1387" x1="264.34" y1="285.872" x2="269.672" y2="440.54" gradientUnits="userSpaceOnUse">
<stop offset="0.04" stop-color="#FB9E4B"/>
<stop offset="1" stop-color="#F58641"/>
</linearGradient>
<linearGradient id="paint4_linear_299_1387" x1="284" y1="44" x2="424" y2="44" gradientUnits="userSpaceOnUse">
<stop stop-color="#F18774"/>
<stop offset="0.284" stop-color="#EE8372"/>
<stop offset="0.579" stop-color="#E7766C"/>
<stop offset="0.877" stop-color="#DA6263"/>
<stop offset="1" stop-color="#D3575E"/>
</linearGradient>
<linearGradient id="paint5_linear_299_1387" x1="284" y1="8" x2="351.814" y2="8" gradientUnits="userSpaceOnUse">
<stop stop-color="#FFAC27"/>
<stop offset="0.997" stop-color="#FFBE5F"/>
</linearGradient>
<linearGradient id="paint6_linear_299_1387" x1="8" y1="84" x2="163.999" y2="84" gradientUnits="userSpaceOnUse">
<stop stop-color="#F9C4AF"/>
<stop offset="0.656" stop-color="#F79F8B"/>
</linearGradient>
<linearGradient id="paint7_linear_299_1387" x1="7.99609" y1="208.044" x2="120.424" y2="208.044" gradientUnits="userSpaceOnUse">
<stop stop-color="#FFAC27"/>
<stop offset="0.997" stop-color="#FFBE5F"/>
</linearGradient>
<linearGradient id="paint8_linear_299_1387" x1="88" y1="44" x2="228" y2="44" gradientUnits="userSpaceOnUse">
<stop stop-color="#F18774"/>
<stop offset="0.284" stop-color="#EE8372"/>
<stop offset="0.579" stop-color="#E7766C"/>
<stop offset="0.877" stop-color="#DA6263"/>
<stop offset="1" stop-color="#D3575E"/>
</linearGradient>
<linearGradient id="paint9_linear_299_1387" x1="160.188" y1="8" x2="228.001" y2="8" gradientUnits="userSpaceOnUse">
<stop stop-color="#FFAC27"/>
<stop offset="0.997" stop-color="#FFBE5F"/>
</linearGradient>
<linearGradient id="paint10_linear_299_1387" x1="475.292" y1="180.34" x2="531.16" y2="172.204" gradientUnits="userSpaceOnUse">
<stop offset="0.04" stop-color="#FB9E4B"/>
<stop offset="0.809" stop-color="#F37E3E"/>
</linearGradient>
<linearGradient id="paint11_linear_299_1387" x1="345.848" y1="81.384" x2="342.348" y2="252.884" gradientUnits="userSpaceOnUse">
<stop stop-color="#FFD385"/>
<stop offset="0.824" stop-color="#FF9B34"/>
</linearGradient>
<linearGradient id="paint12_linear_299_1387" x1="391.484" y1="157.012" x2="472.148" y2="149.012" gradientUnits="userSpaceOnUse">
<stop stop-color="#E2DCCA"/>
<stop offset="0.667" stop-color="#F4EADD"/>
</linearGradient>
<linearGradient id="paint13_linear_299_1387" x1="399.3" y1="235.84" x2="479.968" y2="227.84" gradientUnits="userSpaceOnUse">
<stop stop-color="#E2DCCA"/>
<stop offset="0.667" stop-color="#F4EADD"/>
</linearGradient>
<linearGradient id="paint14_linear_299_1387" x1="407.512" y1="318.628" x2="488.176" y2="310.628" gradientUnits="userSpaceOnUse">
<stop stop-color="#E2DCCA"/>
<stop offset="0.667" stop-color="#F4EADD"/>
</linearGradient>
<linearGradient id="paint15_linear_299_1387" x1="415.288" y1="397.064" x2="495.956" y2="389.064" gradientUnits="userSpaceOnUse">
<stop stop-color="#E2DCCA"/>
<stop offset="0.667" stop-color="#F4EADD"/>
</linearGradient>
</defs>
</svg>
