<svg width="512" height="512" viewBox="0 0 512 512" fill="none" xmlns="http://www.w3.org/2000/svg">
<mask id="mask0_299_1860" style="mask-type:luminance" maskUnits="userSpaceOnUse" x="0" y="0" width="512" height="512">
<path d="M0 0.00149536H511.999V512H0V0.00149536Z" fill="white"/>
</mask>
<g mask="url(#mask0_299_1860)">
<path d="M246.608 156.286C246.608 156.286 211.083 129.437 199.813 147.334C188.544 165.232 189.781 177.131 205.385 192.736" fill="#FEE372"/>
<path d="M492.596 315.916C492.596 346.406 450.833 368.28 400.452 368.28H131.318C107.104 368.28 86.8588 365.563 70.3258 361.718C30.2619 352.409 12 336.467 12 336.467L29.8959 293.372L73.9278 295.518L492.596 315.916Z" fill="#CCE6F6"/>
<path d="M492.597 315.917C492.597 315.917 443.549 333.812 377.257 333.812C329.044 333.812 167.211 312.417 82.5458 300.748C50.7929 296.383 29.897 293.372 29.897 293.372C17.19 275.781 42.2979 215.35 56.3789 184.777C63.8158 168.652 78.9648 157.176 96.6057 155.121C98.2437 154.928 99.8707 154.826 101.49 154.826C110.381 154.826 116.099 169.659 124.655 184.004C132.672 197.474 143.181 210.507 161.148 210.507C198.271 210.507 246.607 156.291 246.607 156.291C341.548 221.332 415.042 250.286 415.042 250.286C415.042 250.286 476.36 250.622 491.275 265.537C506.189 280.451 504.5 307.961 492.597 315.917Z" fill="#FB6572"/>
<path d="M82.5448 300.747L70.3258 361.718C30.2619 352.409 12 336.467 12 336.467L29.8959 293.371L73.9278 295.518L82.5448 300.747Z" fill="#9DCAE0"/>
<path d="M124.653 184.002C104.256 158.345 65.3608 246.662 82.5447 300.746C50.7918 296.381 29.8949 293.37 29.8949 293.37C17.1879 275.779 42.2969 215.348 56.3778 184.775C63.8138 168.65 78.9638 157.175 96.6037 155.12C98.2245 154.926 99.8553 154.827 101.488 154.825C110.38 154.825 116.097 169.657 124.653 184.002Z" fill="#EA394E"/>
<path d="M279.141 177.757L189.083 277.958C158.603 259.859 114.704 244.995 82.4026 235.524C58.1177 228.402 40.3847 224.312 39.8457 224.19C42.9277 215.929 46.2247 207.851 49.3987 200.485L89.1176 213.457L100.339 217.119C106.728 219.204 113.494 219.879 120.17 219.098C126.846 218.316 133.273 216.097 139.008 212.592L147.289 207.535C151.359 209.407 155.937 210.507 161.146 210.507C198.27 210.507 246.606 156.291 246.606 156.291C257.327 163.633 268.174 170.789 279.141 177.757Z" fill="#4695BC"/>
<path d="M492.607 315.913C492.607 315.913 443.55 333.809 377.258 333.809C363.087 333.809 339.097 331.957 310.123 329.058V329.047C310.123 313.685 349.413 277.456 379.243 274.811C384.553 300.663 415.044 293.368 438.251 285.412C461.446 277.456 491.275 265.533 491.275 265.533C506.189 280.447 504.501 307.957 492.607 315.913Z" fill="#4695BC"/>
<path d="M89.1166 213.457C86.4916 220.252 84.1916 227.72 82.4016 235.523C58.1166 228.401 40.3847 224.311 39.8457 224.189C42.9277 215.928 46.2237 207.851 49.3977 200.485L89.1166 213.457Z" fill="#0E708E"/>
<path d="M379.242 274.811C349.412 277.457 310.123 313.685 310.123 329.047V329.058C284.454 326.473 254.879 323.065 224.775 319.382C224.775 304.498 210.136 290.458 189.086 277.965V277.955L279.143 177.754C357.826 227.737 415.043 250.282 415.043 250.282C428.961 264.2 409.082 272.156 379.242 274.811Z" fill="#FEE372"/>
</g>
</svg>
