<svg width="512" height="512" viewBox="0 0 512 512" fill="none" xmlns="http://www.w3.org/2000/svg">
<path d="M504.247 423.982L455.334 148.639C454.987 146.687 454.434 144.778 453.685 142.942L425.017 72.7702V35.5942C425.017 34.9188 424.884 34.25 424.625 33.626C424.367 33.0021 423.988 32.4351 423.51 31.9575C423.033 31.4799 422.466 31.1011 421.842 30.8427C421.218 30.5842 420.549 30.4512 419.874 30.4512H92.1278C91.4524 30.4512 90.7836 30.5842 90.1597 30.8427C89.5357 31.1011 88.9687 31.4799 88.4911 31.9575C88.0136 32.4351 87.6347 33.0021 87.3763 33.626C87.1178 34.25 86.9848 34.9188 86.9848 35.5942V72.7702L58.3178 142.941C57.5678 144.776 57.0147 146.686 56.6678 148.638L7.7538 423.982C6.2428 432.488 11.6238 440.697 20.0268 442.703L180.943 481.133C184.528 481.989 188.302 481.51 191.56 479.785C194.817 478.06 197.335 475.208 198.642 471.761L256.001 320.472L313.359 471.761C314.665 475.208 317.183 478.061 320.44 479.786C323.698 481.511 327.473 481.99 331.058 481.133L491.974 442.703C500.376 440.697 505.758 432.488 504.247 423.982Z" fill="#F3A656"/>
<path d="M504.246 423.982L455.333 148.639C454.986 146.687 454.433 144.778 453.684 142.942L425.016 72.7702V35.5942C425.016 34.9188 424.883 34.25 424.625 33.626C424.366 33.0021 423.987 32.4351 423.51 31.9575C423.032 31.4799 422.465 31.1011 421.841 30.8427C421.217 30.5842 420.548 30.4512 419.873 30.4512H374.623C375.987 30.4514 377.295 30.9934 378.259 31.9578C379.224 32.9223 379.766 34.2302 379.766 35.5942V72.7702L408.434 142.942C409.184 144.777 409.737 146.687 410.083 148.639L461.63 449.949L491.972 442.703C500.376 440.697 505.757 432.488 504.246 423.982Z" fill="#ED864A"/>
<path d="M504.246 423.982L501.755 409.957L307.514 456.346L313.358 471.761C314.664 475.208 317.182 478.061 320.439 479.786C323.697 481.511 327.471 481.99 331.057 481.133L491.973 442.703C500.375 440.697 505.757 432.488 504.246 423.982Z" fill="#E1EFFB"/>
<path d="M504.246 423.982L501.755 409.957L456.633 420.733L461.631 449.949L491.973 442.703C494.513 442.099 496.871 440.892 498.847 439.185C501.543 436.851 503.404 433.701 504.147 430.213C504.581 428.162 504.615 426.046 504.246 423.982Z" fill="#CCDFED"/>
<path d="M7.75377 423.982C6.24277 432.488 11.6248 440.696 20.0268 442.703L180.943 481.133C184.528 481.989 188.302 481.51 191.56 479.785C194.817 478.06 197.335 475.208 198.642 471.761L204.486 456.346L10.2458 409.957L7.75377 423.982Z" fill="#E1EFFB"/>
<path d="M151.308 471.761C151.034 472.472 150.706 473.161 150.328 473.822L180.942 481.133C184.527 481.989 188.302 481.51 191.559 479.785C194.817 478.06 197.334 475.208 198.641 471.761L256 320.472L243.319 239.962C242.971 237.751 239.916 237.437 239.125 239.53L151.308 471.761Z" fill="#ED864A"/>
<path d="M161.059 445.976L151.308 471.762C151.034 472.472 150.706 473.161 150.328 473.823L180.942 481.134C184.527 481.99 188.302 481.511 191.559 479.786C194.817 478.061 197.334 475.208 198.641 471.762L204.485 456.347L161.059 445.976Z" fill="#CCDFED"/>
<path d="M324.43 380.328C323.181 380.328 321.952 380.015 320.854 379.419C319.756 378.822 318.824 377.961 318.144 376.913C317.463 375.865 317.055 374.664 316.957 373.419C316.859 372.173 317.073 370.923 317.58 369.781L337.58 324.781C338.4 322.981 339.896 321.578 341.745 320.876C343.594 320.174 345.645 320.231 347.452 321.034C349.26 321.837 350.676 323.321 351.395 325.164C352.113 327.006 352.074 329.058 351.287 330.872L331.287 375.872C330.698 377.199 329.737 378.326 328.52 379.117C327.303 379.908 325.882 380.329 324.43 380.328ZM352.56 380.328C351.311 380.328 350.082 380.015 348.984 379.419C347.886 378.822 346.954 377.961 346.274 376.913C345.593 375.865 345.185 374.664 345.087 373.419C344.989 372.173 345.203 370.923 345.71 369.781L365.71 324.781C366.53 322.981 368.026 321.578 369.875 320.876C371.724 320.174 373.775 320.231 375.582 321.034C377.39 321.837 378.806 323.321 379.525 325.164C380.243 327.006 380.204 329.058 379.417 330.872L359.417 375.872C358.828 377.199 357.867 378.326 356.65 379.117C355.433 379.908 354.012 380.329 352.56 380.328ZM380.691 380.328C379.442 380.328 378.213 380.015 377.115 379.419C376.017 378.822 375.085 377.961 374.405 376.913C373.724 375.865 373.316 374.664 373.218 373.419C373.119 372.173 373.334 370.923 373.841 369.781L393.841 324.781C394.661 322.981 396.157 321.578 398.006 320.876C399.855 320.174 401.906 320.231 403.713 321.034C405.521 321.837 406.937 323.321 407.656 325.164C408.374 327.006 408.335 329.058 407.548 330.872L387.548 375.872C386.959 377.199 385.998 378.326 384.781 379.117C383.563 379.908 382.143 380.328 380.691 380.328ZM408.821 380.328C407.572 380.328 406.343 380.015 405.245 379.419C404.147 378.822 403.215 377.961 402.535 376.913C401.854 375.865 401.446 374.664 401.348 373.419C401.249 372.173 401.464 370.923 401.971 369.781L421.971 324.781C422.791 322.981 424.287 321.578 426.136 320.876C427.985 320.174 430.036 320.231 431.843 321.034C433.651 321.837 435.067 323.321 435.786 325.164C436.504 327.006 436.465 329.058 435.678 330.872L415.678 375.872C415.089 377.199 414.128 378.326 412.911 379.117C411.693 379.908 410.273 380.328 408.821 380.328Z" fill="black"/>
<path d="M425.015 72.7702H86.9824V35.5942C86.9824 34.9188 87.1154 34.25 87.3739 33.626C87.6324 33.0021 88.0112 32.4351 88.4888 31.9575C88.9663 31.4799 89.5333 31.1011 90.1573 30.8427C90.7813 30.5842 91.45 30.4512 92.1254 30.4512H419.871C420.547 30.4512 421.216 30.5842 421.84 30.8427C422.464 31.1011 423.03 31.4799 423.508 31.9575C423.986 32.4351 424.364 33.0021 424.623 33.626C424.881 34.25 425.014 34.9188 425.014 35.5942L425.015 72.7702Z" fill="#E1EFFB"/>
<path d="M425.015 72.7702H86.9824V35.5942C86.9824 34.9188 87.1154 34.25 87.3739 33.626C87.6324 33.0021 88.0112 32.4351 88.4888 31.9575C88.9663 31.4799 89.5333 31.1011 90.1573 30.8427C90.7813 30.5842 91.45 30.4512 92.1254 30.4512H419.871C420.547 30.4512 421.216 30.5842 421.84 30.8427C422.464 31.1011 423.03 31.4799 423.508 31.9575C423.986 32.4351 424.364 33.0021 424.623 33.626C424.881 34.25 425.014 34.9188 425.014 35.5942L425.015 72.7702Z" fill="#E1EFFB"/>
<path d="M425.016 72.7702V35.5942C425.017 34.9186 424.884 34.2496 424.626 33.6254C424.367 33.0012 423.989 32.434 423.511 31.9563C423.033 31.4787 422.466 31.0999 421.842 30.8416C421.218 30.5833 420.549 30.4506 419.873 30.4512H374.623C375.987 30.4514 377.295 30.9934 378.259 31.9578C379.224 32.9223 379.766 34.2302 379.766 35.5942V72.7702H425.016Z" fill="#CCDFED"/>
<path d="M511.631 422.671L510.588 416.797L509.14 408.646V408.644L462.719 147.325C462.278 144.852 461.578 142.433 460.629 140.107L432.518 71.2982V35.5942C432.518 28.6222 426.846 22.9512 419.874 22.9512H92.1269C85.1549 22.9512 79.4829 28.6222 79.4829 35.5942V71.2982L51.3729 140.106C50.4226 142.433 49.7217 144.854 49.2819 147.328L1.1889 418.053L0.368901 422.67C-1.8331 435.068 6.0359 447.072 18.2839 449.998L179.201 488.428C179.819 488.576 180.438 488.686 181.056 488.781C181.189 488.801 181.322 488.822 181.455 488.84C182.064 488.922 182.672 488.982 183.279 489.014C183.356 489.018 183.433 489.018 183.51 489.021C183.821 489.034 184.132 489.048 184.442 489.048C184.64 489.048 184.836 489.031 185.034 489.025C185.258 489.019 185.48 489.012 185.703 488.999C186.145 488.974 186.583 488.933 187.021 488.883C187.214 488.861 187.407 488.844 187.599 488.816C188.145 488.738 188.687 488.641 189.226 488.524C189.301 488.508 189.377 488.498 189.452 488.48C190.075 488.338 190.692 488.169 191.301 487.974C191.418 487.937 191.532 487.891 191.648 487.851C192.126 487.69 192.598 487.518 193.063 487.326C193.243 487.252 193.42 487.17 193.598 487.091C194.585 486.657 195.538 486.152 196.452 485.58C196.622 485.474 196.793 485.371 196.959 485.261C197.365 484.993 197.76 484.708 198.149 484.414C198.261 484.33 198.377 484.252 198.487 484.165C198.985 483.773 199.469 483.362 199.935 482.929C199.996 482.872 200.052 482.81 200.112 482.752C200.505 482.378 200.886 481.991 201.252 481.588C201.389 481.437 201.518 481.279 201.651 481.124C201.931 480.799 202.205 480.468 202.467 480.125C202.859 479.61 203.229 479.079 203.576 478.533C203.702 478.336 203.828 478.139 203.948 477.937C204.174 477.557 204.384 477.165 204.589 476.769C204.683 476.587 204.783 476.409 204.873 476.223C205.156 475.637 205.42 475.038 205.655 474.42L256 341.628L300.498 458.996C300.499 458.999 300.5 459.003 300.501 459.006L306.346 474.421C306.764 475.524 307.268 476.593 307.852 477.618C311.895 484.698 319.483 489.049 327.558 489.048C329.292 489.048 331.05 488.847 332.799 488.429L493.715 449.999C505.964 447.073 513.833 435.069 511.631 422.671ZM191.629 469.102C190.966 470.842 189.693 472.281 188.048 473.152C186.402 474.024 184.497 474.267 182.685 473.838L21.7679 435.408C19.8692 434.952 18.1752 433.88 16.951 432.359C15.7267 430.838 15.0413 428.953 15.0019 427.001C14.9916 426.429 15.0368 425.857 15.1369 425.293L16.2379 419.098L194.45 461.659L191.629 469.102ZM490.231 435.408L329.315 473.838C327.73 474.218 326.065 474.08 324.564 473.444C323.607 473.042 322.742 472.45 322.021 471.704C321.3 470.957 320.739 470.072 320.37 469.102L317.549 461.66L342.582 455.681C343.54 455.452 344.443 455.037 345.241 454.459C346.039 453.881 346.714 453.152 347.23 452.313C347.746 451.474 348.091 450.541 348.246 449.568C348.402 448.596 348.364 447.602 348.135 446.644C347.906 445.686 347.491 444.783 346.913 443.985C346.335 443.188 345.606 442.512 344.766 441.996C343.927 441.48 342.995 441.135 342.022 440.98C341.05 440.825 340.056 440.862 339.098 441.091L312.187 447.518L263.012 317.812C262.473 316.388 261.513 315.163 260.26 314.297C259.008 313.432 257.521 312.969 255.999 312.969C254.477 312.969 252.99 313.432 251.737 314.297C250.485 315.163 249.525 316.388 248.986 317.812L199.812 447.519L18.8659 404.305L64.0509 149.95C64.3039 148.524 64.7109 147.12 65.2589 145.778L92.0209 80.2702H115.433C117.422 80.2702 119.33 79.48 120.736 78.0735C122.143 76.667 122.933 74.7593 122.933 72.7702C122.933 70.781 122.143 68.8734 120.736 67.4669C119.33 66.0603 117.422 65.2702 115.433 65.2702H94.4829V37.9502H417.516V65.2702H150.329C148.34 65.2702 146.432 66.0603 145.026 67.4669C143.619 68.8734 142.829 70.781 142.829 72.7702C142.829 74.7593 143.619 76.667 145.026 78.0735C146.432 79.48 148.34 80.2702 150.329 80.2702H225.426C220.348 89.3572 215.117 101.455 211.061 117.206C210.809 118.162 210.748 119.158 210.883 120.138C211.017 121.117 211.344 122.061 211.844 122.913C212.344 123.766 213.008 124.511 213.797 125.107C214.586 125.702 215.486 126.135 216.443 126.382C217.4 126.628 218.397 126.683 219.376 126.543C220.354 126.403 221.296 126.071 222.145 125.566C222.995 125.06 223.737 124.392 224.327 123.6C224.918 122.807 225.346 121.905 225.587 120.946C230.595 101.497 237.475 88.4262 243.035 80.2702H268.962C274.528 88.4322 281.406 101.501 286.413 120.946C286.828 122.556 287.765 123.983 289.079 125.003C290.393 126.022 292.008 126.576 293.671 126.578C294.816 126.579 295.946 126.318 296.974 125.814C298.002 125.311 298.901 124.579 299.603 123.674C300.305 122.77 300.79 121.716 301.021 120.595C301.253 119.474 301.225 118.315 300.939 117.206C296.884 101.455 291.652 89.3572 286.574 80.2702H419.979L446.742 145.777C447.29 147.122 447.695 148.521 447.95 149.951L493.134 404.305L373.074 432.978C371.139 433.44 369.467 434.652 368.426 436.347C367.384 438.041 367.059 440.08 367.521 442.015C367.983 443.95 369.195 445.622 370.889 446.663C372.584 447.705 374.623 448.03 376.558 447.568L495.761 419.099L496.861 425.294C497.252 427.507 496.784 429.787 495.552 431.666C494.32 433.546 492.417 434.884 490.231 435.408Z" fill="black"/>
</svg>
