<svg width="512" height="512" viewBox="0 0 512 512" fill="none" xmlns="http://www.w3.org/2000/svg">
<path d="M315.352 224.38C316.631 224.381 317.707 225.337 317.858 226.607L335.443 374.822L371.415 371.525C374.792 371.215 377.32 368.289 377.134 364.902L375.294 331.298C372.767 333.682 369.364 335.148 365.624 335.148C357.845 335.148 351.517 328.82 351.517 321.042C351.517 313.264 357.845 306.935 365.624 306.935C368.81 306.935 371.751 307.998 374.115 309.786L369.501 225.545C367.018 229.589 362.555 232.292 357.472 232.292C349.694 232.292 343.365 225.964 343.365 218.186C343.365 210.407 349.694 204.079 357.472 204.079C362.005 204.079 366.043 206.231 368.626 209.565L365.154 146.185H257.345L243.574 370.183L295.26 374.711L312.846 226.606C312.996 225.337 314.073 224.38 315.352 224.38ZM268.428 371.803C260.65 371.803 254.322 365.475 254.322 357.696C254.322 349.918 260.65 343.59 268.428 343.59C276.207 343.59 282.535 349.918 282.535 357.696C282.535 365.475 276.207 371.803 268.428 371.803ZM268.428 283.351C260.65 283.351 254.322 277.023 254.322 269.245C254.322 261.466 260.65 255.138 268.428 255.138C276.207 255.138 282.535 261.466 282.535 269.245C282.535 277.023 276.207 283.351 268.428 283.351ZM292.56 193.55C284.782 193.55 278.454 187.222 278.454 179.443C278.454 171.665 284.782 165.337 292.56 165.337C300.338 165.337 306.667 171.665 306.667 179.443C306.667 187.222 300.338 193.55 292.56 193.55ZM166.504 216.429V243.504C166.503 243.542 166.507 243.58 166.504 243.618V293.572H198.282C204.332 293.572 209.33 288.847 209.67 282.807L210.974 259.617C209.986 259.834 208.977 259.943 207.965 259.944C200.187 259.944 193.859 253.615 193.859 245.837C193.859 238.059 200.187 231.731 207.965 231.731C209.508 231.731 211.04 231.985 212.5 232.483L217.094 150.792C206.702 149.097 197.303 143.555 190.487 135.276C188.327 132.653 184.64 131.877 181.619 133.434L181.134 133.684C164.026 142.486 151.896 158.901 147.854 178.721L136.035 236.889C138.038 239.326 139.245 242.443 139.245 245.838C139.245 250.645 136.825 254.896 133.142 257.442L127.867 283.061L149.432 287.966L161.457 243.142V216.428C161.457 215.034 162.587 213.905 163.98 213.905C165.374 213.905 166.504 215.035 166.504 216.429ZM189.483 155.259C197.261 155.259 203.589 161.587 203.589 169.366C203.589 177.144 197.261 183.472 189.483 183.472C181.704 183.472 175.376 177.144 175.376 169.366C175.376 161.587 181.704 155.259 189.483 155.259Z" fill="#CAC5FF"/>
<path d="M181.133 133.685L181.618 133.435C184.639 131.878 188.327 132.654 190.487 135.277C197.302 143.556 206.701 149.098 217.093 150.793L217.694 140.12C206.679 136.213 197.393 127.807 192.082 116.468L171.753 126.943C154.645 135.745 142.515 152.16 138.473 171.98L126.273 231.772C130.197 232.085 133.671 234.014 136.035 236.89L147.853 178.722C151.895 158.902 164.025 142.487 181.133 133.685Z" fill="white"/>
<path d="M212.5 232.483C218.059 234.376 222.071 239.645 222.071 245.837C222.071 252.583 217.311 258.235 210.974 259.618L209.669 282.807C209.33 288.847 204.332 293.572 198.282 293.572H166.504V315.376H229.648L235.971 205.723L239.654 141.8C237.062 142.295 234.428 142.551 231.785 142.551C226.902 142.551 222.157 141.702 217.694 140.119L217.094 150.793L212.5 232.483ZM230.334 391.165L230.364 391.167L230.457 389.031L230.334 391.165ZM242.223 392.143L292.696 396.297L295.259 374.711L243.573 370.183L242.223 392.143Z" fill="#B19FFF"/>
<path d="M276.305 400.163L276.411 400.021L272.708 399.717C273.907 399.866 275.106 400.014 276.305 400.163ZM257.343 146.185H244.456L241.009 206.013L234.558 317.886C234.558 317.89 234.56 317.895 234.56 317.9C234.56 317.917 234.555 317.934 234.554 317.951L230.456 389.031L230.363 391.167L242.222 392.143L243.572 370.183L257.343 146.185Z" fill="white"/>
<path d="M246.278 115.692L266.757 115.513H246.223L246.013 119.163L246.278 115.692ZM363.354 127.864L264.33 127.809C260.742 127.809 257.776 130.608 257.57 134.191C257.403 136.506 257.236 138.822 257.069 141.138H364.236L363.354 127.864ZM134.197 245.839C134.197 240.875 130.193 236.835 125.252 236.776L121.695 254.209C122.769 254.654 123.936 254.891 125.145 254.891C130.136 254.891 134.197 250.831 134.197 245.839ZM180.423 169.366C180.423 174.362 184.487 178.425 189.482 178.425C194.477 178.425 198.541 174.362 198.541 169.366C198.541 164.371 194.477 160.307 189.482 160.307C184.487 160.307 180.423 164.371 180.423 169.366Z" fill="#FFDD7D"/>
<path d="M127.867 283.062L123.426 304.63L143.702 309.324L149.432 287.966L127.867 283.062Z" fill="#B19FFF"/>
<path d="M384.461 115.513H384.401L384.851 122.287L384.461 115.513ZM246.012 119.163L244.746 141.138H257.067L257.569 134.191C257.775 130.608 260.74 127.809 264.329 127.809L363.353 127.864L362.533 115.513H266.755L246.276 115.692L246.012 119.163Z" fill="white"/>
<path d="M364.237 141.138H385.939L384.854 122.287L384.403 115.513H362.535L363.356 127.864L364.237 141.138Z" fill="#FFB864"/>
<path d="M133.141 257.442C130.867 259.014 128.112 259.938 125.144 259.938C123.625 259.938 122.115 259.692 120.675 259.209L111.949 301.974L123.425 304.63L127.866 283.062L133.141 257.442Z" fill="white"/>
<path d="M204.266 258.075C209.269 258.075 213.325 254.019 213.325 249.016C213.325 244.013 209.269 239.957 204.266 239.957C199.263 239.957 195.207 244.013 195.207 249.016C195.207 254.019 199.263 258.075 204.266 258.075Z" fill="#FFDD7D"/>
<path d="M371.577 218.186C371.577 220.881 370.816 223.401 369.5 225.545L374.114 309.786C377.522 312.364 379.729 316.449 379.729 321.042C379.729 325.08 378.021 328.724 375.292 331.298L377.133 364.902C377.318 368.289 374.791 371.215 371.413 371.525L335.441 374.822L337.989 396.297L400.352 391.164L389.675 206.013L386.228 146.185H365.153L368.625 209.565C370.473 211.951 371.577 214.941 371.577 218.186Z" fill="#B19FFF"/>
<path d="M365.621 311.983C360.626 311.983 356.562 316.047 356.562 321.042C356.562 326.037 360.626 330.101 365.621 330.101C370.616 330.101 374.68 326.037 374.68 321.042C374.68 316.047 370.616 311.983 365.621 311.983ZM268.426 348.638C263.431 348.638 259.367 352.702 259.367 357.697C259.367 362.692 263.431 366.756 268.426 366.756C273.421 366.756 277.485 362.692 277.485 357.697C277.485 352.702 273.421 348.638 268.426 348.638ZM357.47 209.127C352.475 209.127 348.411 213.191 348.411 218.186C348.411 223.182 352.475 227.245 357.47 227.245C362.465 227.245 366.529 223.182 366.529 218.186C366.529 213.191 362.465 209.127 357.47 209.127ZM268.426 260.186C263.431 260.186 259.367 264.25 259.367 269.245C259.367 274.24 263.431 278.304 268.426 278.304C273.421 278.304 277.485 274.24 277.485 269.245C277.485 264.25 273.421 260.186 268.426 260.186ZM292.558 170.385C287.563 170.385 283.499 174.449 283.499 179.444C283.499 184.439 287.563 188.503 292.558 188.503C297.553 188.503 301.617 184.439 301.617 179.444C301.617 174.449 297.553 170.385 292.558 170.385Z" fill="#FFDD7D"/>
<path d="M175.375 169.367C175.375 177.145 181.703 183.473 189.481 183.473C197.26 183.473 203.588 177.145 203.588 169.367C203.588 161.588 197.26 155.26 189.481 155.26C181.703 155.26 175.375 161.588 175.375 169.367ZM198.54 169.367C198.54 174.362 194.477 178.425 189.481 178.425C184.486 178.425 180.422 174.362 180.422 169.367C180.422 164.371 184.486 160.307 189.481 160.307C194.477 160.307 198.54 164.371 198.54 169.367ZM222.07 245.838C222.07 239.646 218.058 234.377 212.499 232.484C211.039 231.986 209.507 231.732 207.964 231.732C200.186 231.732 193.857 238.06 193.857 245.838C193.857 253.616 200.186 259.945 207.964 259.945C208.997 259.945 210.003 259.83 210.973 259.618C217.31 258.236 222.07 252.584 222.07 245.838ZM207.964 254.897C202.969 254.897 198.905 250.833 198.905 245.838C198.905 240.843 202.969 236.779 207.964 236.779C212.959 236.779 217.023 240.843 217.023 245.838C217.023 250.833 212.959 254.897 207.964 254.897Z" fill="#32006B"/>
<path d="M394.715 205.723L389.364 112.843C389.287 111.508 388.182 110.465 386.844 110.465H243.841C242.503 110.465 241.398 111.508 241.321 112.843L239.954 136.582C237.274 137.19 234.534 137.503 231.784 137.503C216.076 137.503 201.925 127.555 195.704 112.147C195.662 112.031 195.613 111.918 195.555 111.809C194.908 110.586 193.398 110.111 192.168 110.745L169.442 122.454C150.967 131.96 137.876 149.643 133.527 170.97L106.512 303.373C106.239 304.714 107.083 306.028 108.416 306.337L144.938 314.791C145.13 314.836 145.321 314.857 145.509 314.857C146.627 314.857 147.644 314.11 147.945 312.986L161.456 262.623V317.9C161.456 319.294 162.586 320.424 163.979 320.424H229.356L225.152 393.333C225.073 394.7 226.1 395.881 227.465 395.993L272.709 399.717L276.412 400.022L294.707 401.527C296.06 401.638 297.26 400.659 297.421 399.31L315.35 248.316L333.264 399.309C333.416 400.588 334.502 401.536 335.768 401.536C335.837 401.536 335.907 401.533 335.977 401.527L403.22 395.993C404.585 395.881 405.611 394.7 405.533 393.333L394.715 205.723ZM312.845 226.607L295.259 374.712L292.696 396.297L242.223 392.143L230.364 391.167L230.333 391.165L230.456 389.031L234.555 317.952C234.555 317.934 234.56 317.918 234.56 317.9C234.56 317.895 234.559 317.891 234.559 317.886L241.01 206.014L244.456 146.185H386.229L389.675 206.014L400.352 391.165L337.99 396.297L335.442 374.822L317.857 226.607C317.706 225.338 316.63 224.381 315.351 224.381C314.072 224.381 312.995 225.337 312.845 226.607ZM266.756 115.512H384.462L384.852 122.287L385.938 141.137H244.747L246.013 119.163L246.223 115.512H266.756ZM125.252 236.776C130.193 236.834 134.196 240.875 134.196 245.839C134.196 250.83 130.136 254.891 125.145 254.891C123.936 254.891 122.768 254.654 121.695 254.208L125.252 236.776ZM161.456 216.429V243.142L149.431 287.967L143.702 309.324L123.425 304.63L111.949 301.974L120.675 259.209C122.116 259.692 123.625 259.938 125.145 259.938C128.112 259.938 130.867 259.015 133.141 257.442C136.824 254.896 139.244 250.646 139.244 245.839C139.244 242.443 138.037 239.327 136.034 236.89C133.67 234.014 130.196 232.085 126.273 231.772L138.473 171.979C142.514 152.159 154.644 135.744 171.753 126.942L192.082 116.467C197.393 127.807 206.679 136.212 217.693 140.119C222.156 141.702 226.902 142.551 231.784 142.551C234.427 142.551 237.061 142.295 239.653 141.8L235.97 205.723L229.647 315.376H166.503V243.618C166.506 243.58 166.502 243.543 166.503 243.505V216.429C166.503 215.035 165.373 213.905 163.979 213.905C162.586 213.905 161.456 215.035 161.456 216.429Z" fill="#32006B"/>
<path d="M368.624 209.565C366.042 206.232 362.004 204.079 357.47 204.079C349.692 204.079 343.364 210.408 343.364 218.186C343.364 225.964 349.692 232.293 357.47 232.293C362.554 232.293 367.017 229.589 369.5 225.545C370.816 223.401 371.577 220.881 371.577 218.186C371.577 214.941 370.473 211.951 368.624 209.565ZM357.47 227.245C352.475 227.245 348.411 223.181 348.411 218.186C348.411 213.191 352.475 209.127 357.47 209.127C362.466 209.127 366.529 213.191 366.529 218.186C366.529 223.181 362.466 227.245 357.47 227.245ZM379.728 321.042C379.728 316.449 377.522 312.364 374.114 309.786C371.75 307.998 368.808 306.935 365.622 306.935C357.844 306.935 351.515 313.264 351.515 321.042C351.515 328.82 357.844 335.148 365.622 335.148C369.362 335.148 372.765 333.682 375.292 331.298C378.02 328.724 379.728 325.08 379.728 321.042ZM365.622 330.101C360.627 330.101 356.563 326.037 356.563 321.042C356.563 316.047 360.627 311.983 365.622 311.983C370.617 311.983 374.681 316.047 374.681 321.042C374.681 326.037 370.617 330.101 365.622 330.101ZM292.559 165.337C284.78 165.337 278.452 171.665 278.452 179.444C278.452 187.222 284.78 193.55 292.559 193.55C300.337 193.55 306.665 187.222 306.665 179.444C306.665 171.665 300.337 165.337 292.559 165.337ZM292.559 188.502C287.563 188.502 283.5 184.439 283.5 179.444C283.5 174.448 287.563 170.384 292.559 170.384C297.554 170.384 301.617 174.448 301.617 179.444C301.617 184.439 297.554 188.502 292.559 188.502ZM268.427 255.138C260.648 255.138 254.32 261.466 254.32 269.245C254.32 277.023 260.648 283.352 268.427 283.352C276.205 283.352 282.533 277.023 282.533 269.245C282.533 261.466 276.205 255.138 268.427 255.138ZM268.427 278.304C263.432 278.304 259.368 274.24 259.368 269.245C259.368 264.25 263.432 260.186 268.427 260.186C273.422 260.186 277.486 264.25 277.486 269.245C277.486 274.24 273.422 278.304 268.427 278.304ZM268.427 343.59C260.648 343.59 254.32 349.918 254.32 357.696C254.32 365.475 260.648 371.803 268.427 371.803C276.205 371.803 282.533 365.475 282.533 357.696C282.533 349.918 276.205 343.59 268.427 343.59ZM268.427 366.755C263.432 366.755 259.368 362.692 259.368 357.696C259.368 352.701 263.432 348.638 268.427 348.638C273.422 348.638 277.486 352.701 277.486 357.696C277.486 362.692 273.422 366.755 268.427 366.755Z" fill="#32006B"/>
</svg>
