<svg width="512" height="512" viewBox="0 0 512 512" fill="none" xmlns="http://www.w3.org/2000/svg">
<g clip-path="url(#clip0_299_1480)">
<mask id="mask0_299_1480" style="mask-type:luminance" maskUnits="userSpaceOnUse" x="0" y="0" width="512" height="512">
<path d="M0 0.00149536H511.999V512H0V0.00149536Z" fill="white"/>
</mask>
<g mask="url(#mask0_299_1480)">
<path d="M371.015 56.5885C389.755 65.5184 416.175 80.3184 436.085 100.228C436.085 100.228 494.825 236.338 501.995 393.937C501.995 393.937 480.505 419.727 441.815 409.697L379.975 186.188V452.847C379.975 452.847 350.125 484.367 256.995 484.367C163.866 484.367 134.006 452.847 134.006 452.847V186.188L72.1659 409.697C33.486 419.727 11.9961 393.937 11.9961 393.937C19.1561 236.338 77.8959 100.228 77.8959 100.228C97.8058 80.3184 124.246 65.5084 142.976 56.5785" fill="#515A5E"/>
<path d="M194.606 46.6794L189.076 73.8593C136.766 91.9693 92.7859 111.519 80.0759 177.979C67.3759 244.439 30.166 406.818 30.166 406.818C18.2761 401.478 11.9961 393.938 11.9961 393.938C19.1561 236.339 77.8959 100.229 77.8959 100.229C112.286 65.8393 166.146 46.6794 166.146 46.6794H194.606Z" fill="#343C3F"/>
<path d="M169.017 193.619V471.798C143.637 463.018 134.007 452.848 134.007 452.848V186.189C134.007 162.489 124.387 140.329 124.387 140.329C124.387 140.329 169.017 146.449 169.017 193.619Z" fill="#343C3F"/>
<path d="M470.174 411.048L470.134 411.068C462.094 412.508 452.624 412.498 441.814 409.698L379.975 186.188C379.975 162.489 389.605 140.329 389.605 140.329L470.174 411.048Z" fill="#343C3F"/>
<path d="M313.336 29.9664L256.996 312.396L200.656 29.9664C200.656 29.9664 209.196 28.7464 220.516 27.5264C231.836 26.3164 245.916 25.0964 256.996 25.0964C279.156 25.0964 313.336 29.9664 313.336 29.9664Z" fill="#9DCAE0"/>
<path d="M300.565 93.999L256.995 50.4292L213.425 93.999L200.66 29.9702L256.995 50.4292L313.332 29.9702" fill="#CCE6F6"/>
<path d="M379.976 375.43L345.788 393.808C334.941 399.639 321.797 391.783 321.797 379.468V374.494L379.976 343.219" fill="#343C3F"/>
<path d="M134.006 375.43L168.194 393.808C179.041 399.639 192.185 391.783 192.185 379.468V374.494L134.006 343.219" fill="#343C3F"/>
<path d="M501.994 393.937C501.994 393.937 480.505 419.727 441.815 409.697L430.805 369.897C448.445 369.897 480.805 369.897 498.864 351.837H498.874C500.284 365.637 501.344 379.697 501.994 393.937Z" fill="#343C3F"/>
<path d="M11.9961 393.937C11.9961 393.937 33.486 419.727 72.1759 409.697L83.1859 369.897C65.5459 369.897 33.186 369.897 15.1261 351.837H15.1161C13.7061 365.637 12.6461 379.697 11.9961 393.937Z" fill="#343C3F"/>
<path d="M200.661 29.9704L256.997 312.396L186.642 195.932L200.326 154.882H171.005L142.977 56.5783L200.661 29.9704Z" fill="#343C3F"/>
<path d="M239.285 223.619L246.775 112.859H267.195L274.695 223.679L256.996 312.396L239.285 223.619Z" fill="#4695BC"/>
<path d="M313.332 29.9704L256.996 312.396L327.35 195.932L313.667 154.882H342.988L371.017 56.5783L313.332 29.9704Z" fill="#343C3F"/>
<path d="M281.708 79.5835L267.196 112.859H246.779L232.268 79.5835L256.996 50.4296L281.708 79.5835Z" fill="#4695BC"/>
</g>
</g>
<defs>
<clipPath id="clip0_299_1480">
<rect width="512" height="512" fill="white"/>
</clipPath>
</defs>
</svg>
