<svg width="512" height="512" viewBox="0 0 512 512" fill="none" xmlns="http://www.w3.org/2000/svg">
<g clip-path="url(#clip0_299_1766)">
<path d="M254.899 12.7C231.299 12 197.899 5.5 197.899 5.5C197.899 5.5 184.799 44.2 167.699 60.6C150.599 77 130.299 66.5 112.599 103.2C94.8993 139.9 43.7993 353 35.2993 397.6C26.7993 442.2 35.2993 503.2 35.2993 503.2L79.1993 506.5L127.099 351.1C127.099 351.1 127.799 418.6 140.899 443.6H371.199C384.299 418.7 384.999 351.1 384.999 351.1L432.899 506.5L476.799 503.2C476.799 503.2 485.299 442.2 476.799 397.6C468.299 353 417.099 139.9 399.399 103.2C381.699 66.5 361.399 77 344.299 60.6C327.299 44.2 314.099 5.5 314.099 5.5C314.099 5.5 290.299 11.4 266.699 12.1L254.899 12.7Z" fill="#FFC931"/>
<path d="M432.799 512.001C430.399 512.001 428.199 510.401 427.499 508.101L388.899 382.801C387.199 404.401 383.599 431.601 375.999 446.101C374.999 447.901 373.199 449.001 371.099 449.001H140.799C138.799 449.001 136.899 447.901 135.899 446.101C128.299 431.601 124.699 404.501 122.999 382.801L84.4994 508.101C83.6994 510.601 81.3994 512.201 78.7994 512.001L34.8994 508.701C32.2994 508.501 30.1994 506.501 29.7994 504.001C29.3994 501.501 21.1994 441.601 29.7994 396.601C37.5994 355.601 89.0994 139.301 107.599 100.801C119.799 75.6006 133.699 70.6006 145.899 66.2006C152.599 63.8006 158.399 61.8006 163.799 56.6006C179.699 41.3006 192.399 4.10056 192.599 3.70056C193.499 1.10056 196.199 -0.499437 198.899 0.100563C199.199 0.200563 231.999 6.50056 254.799 7.20056L266.399 6.60056H266.599C289.299 6.00056 312.499 0.300563 312.799 0.200563C315.599 -0.499437 318.399 1.10056 319.399 3.80056C319.499 4.20056 332.299 41.4006 348.199 56.7006C353.599 61.9006 359.399 64.0006 366.099 66.3006C378.399 70.7006 392.299 75.6006 404.399 100.901C422.999 139.401 474.399 355.701 482.199 396.701C490.799 441.701 482.599 501.501 482.199 504.101C481.799 506.701 479.699 508.601 477.099 508.801L433.199 512.101C433.099 512.001 432.899 512.001 432.799 512.001ZM384.899 345.601C387.299 345.601 389.399 347.201 390.199 349.501L436.799 500.701L471.799 498.101C473.499 483.401 478.199 435.101 471.299 398.701C462.399 351.901 411.399 141.001 394.399 105.601C384.199 84.4006 373.599 80.7006 362.299 76.7006C355.099 74.1006 347.599 71.5006 340.499 64.6006C326.099 50.8006 314.799 23.1006 310.599 12.0006C302.299 13.8006 284.799 17.1006 266.999 17.6006L255.299 18.3006H254.799C235.999 17.8006 211.599 13.7006 201.499 11.9006C197.399 22.9006 185.999 50.8006 171.599 64.7006C164.499 71.6006 156.999 74.2006 149.799 76.8006C138.499 80.8006 127.899 84.6006 117.699 105.701C100.699 141.001 49.6994 352.001 40.7994 398.801C33.7994 435.201 38.5994 483.501 40.2994 498.201L75.2994 500.801L121.899 349.601C122.699 347.001 125.299 345.401 127.999 345.801C130.699 346.201 132.699 348.501 132.699 351.201C132.699 351.801 133.399 412.601 144.399 438.201H367.699C378.699 412.601 379.399 351.801 379.399 351.201C379.399 348.501 381.399 346.201 384.099 345.801C384.399 345.601 384.699 345.601 384.899 345.601Z" fill="#232323"/>
<path d="M141.5 136.7C141.5 136.7 142.5 158 137.6 203.3C132.7 248.5 121.5 285.9 127.1 351.2" fill="#FFC931"/>
<path d="M127.1 356.6C124.3 356.6 121.9 354.4 121.6 351.6C117.4 302.8 122.5 269.3 127.4 237C129.2 225.4 130.8 214.4 132.1 202.7C136.9 158.5 136 137.2 136 137C135.9 134 138.2 131.4 141.3 131.2C144.4 131.1 146.9 133.4 147.1 136.5C147.1 137.4 148 158.8 143.1 203.9C141.8 215.9 140 227.5 138.3 238.7C133.5 270.4 128.5 303.2 132.6 350.7C132.9 353.7 130.6 356.4 127.6 356.7C127.4 356.6 127.2 356.6 127.1 356.6Z" fill="#232323"/>
<path d="M370.5 136.7C370.5 136.7 369.5 158 374.4 203.3C379.3 248.5 390.5 285.9 384.9 351.2" fill="#FFC931"/>
<path d="M384.999 356.601H384.499C381.499 356.301 379.199 353.701 379.499 350.601C383.599 303.101 378.599 270.301 373.799 238.601C372.099 227.401 370.299 215.801 368.999 203.801C364.099 158.701 364.999 137.301 364.999 136.401C365.099 133.401 367.699 131.001 370.799 131.101C373.799 131.201 376.199 133.801 376.099 136.901C376.099 137.301 375.199 158.601 379.999 202.601C381.299 214.301 382.899 225.301 384.699 236.901C389.599 269.201 394.699 302.701 390.499 351.501C390.199 354.401 387.799 356.601 384.999 356.601Z" fill="#232323"/>
<path d="M130.898 401.6C130.898 401.6 194.298 396 255.898 396C317.498 396 379.698 403.6 379.698 403.6" fill="#FFC931"/>
<path d="M379.799 409.1H379.099C378.499 409 316.499 401.6 255.899 401.6C195.199 401.6 131.999 407.1 131.399 407.1C128.399 407.4 125.699 405.1 125.399 402.1C125.099 399.1 127.399 396.4 130.399 396.1C130.999 396 194.699 390.5 255.899 390.5C317.199 390.5 379.799 398 380.399 398.1C383.399 398.5 385.599 401.2 385.199 404.2C384.899 407 382.499 409.1 379.799 409.1Z" fill="#232323"/>
<path d="M31.7988 461.2L90.5988 469.6Z" fill="#FFC931"/>
<path d="M90.5989 475.1C90.2989 475.1 90.0989 475.1 89.7989 475L30.9989 466.7C27.9989 466.3 25.8989 463.5 26.2989 460.5C26.6989 457.5 29.4989 455.4 32.4989 455.8L91.2989 464.1C94.2989 464.5 96.3989 467.3 95.9989 470.3C95.6989 473.1 93.2989 475.1 90.5989 475.1Z" fill="#232323"/>
<path d="M421.398 469.6L480.498 465.4Z" fill="#FFC931"/>
<path d="M421.399 475.1C418.499 475.1 416.099 472.9 415.899 470C415.699 467 417.999 464.3 420.999 464.1L480.099 459.9C483.099 459.7 485.799 462 485.999 465C486.199 468 483.899 470.7 480.899 470.9L421.799 475.1H421.399Z" fill="#232323"/>
<path d="M167.699 60.6006C167.699 60.6006 245.699 116.301 340.599 60.6006Z" fill="#FFC931"/>
<path d="M253.399 90.8003C239.799 90.8003 227.599 89.1003 217.399 86.9003C185.299 79.8003 165.299 65.7003 164.499 65.1003C161.999 63.3003 161.399 59.9003 163.199 57.4003C164.999 54.9003 168.399 54.3003 170.899 56.1003C171.099 56.2003 190.199 69.6003 220.199 76.2003C260.299 85.0003 299.799 78.1003 337.799 55.8003C340.399 54.3003 343.799 55.1003 345.399 57.8003C346.899 60.4003 346.099 63.8003 343.399 65.4003C310.299 84.8003 279.199 90.8003 253.399 90.8003ZM255.299 42.5003C212.199 42.5003 193.799 9.50026 193.099 8.10026C191.599 5.40026 192.599 2.10026 195.299 0.600265C197.999 -0.799735 201.299 0.100265 202.799 2.80026C203.399 4.00026 218.999 31.4003 255.299 31.4003C291.999 31.5003 308.999 3.00026 309.199 2.70026C310.699 0.100265 314.099 -0.799735 316.699 0.700265C319.299 2.20026 320.199 5.60026 318.699 8.20026C317.899 9.70026 298.299 42.5003 255.299 42.5003ZM131.999 246.4H131.499C128.499 246.1 126.199 243.4 126.499 240.4C129.899 204.8 95.6988 142.9 95.3988 142.2C93.8988 139.5 94.8988 136.2 97.4988 134.7C100.199 133.2 103.499 134.2 104.999 136.8C106.499 139.5 141.199 202.4 137.499 241.4C137.199 244.3 134.799 246.4 131.999 246.4ZM379.799 246.4C376.999 246.4 374.599 244.3 374.299 241.4C370.599 202.4 405.299 139.5 406.799 136.8C408.299 134.1 411.599 133.2 414.299 134.7C416.999 136.2 417.899 139.5 416.399 142.2C416.099 142.8 381.899 204.8 385.299 240.4C385.599 243.4 383.399 246.1 380.299 246.4H379.799ZM341.399 376.4H341.199C338.199 376.3 335.799 373.7 335.899 370.7C335.899 370.4 336.999 338.9 324.999 299.7C312.399 258.6 315.399 192.7 315.599 189.9C315.699 186.9 318.299 184.5 321.399 184.7C324.399 184.8 326.799 187.4 326.599 190.5C326.599 191.2 323.499 257.2 335.499 296.5C348.099 337.6 346.899 369.9 346.799 371.2C346.799 374 344.399 376.4 341.399 376.4ZM170.999 448.4C168.399 448.4 166.099 446.5 165.599 443.9L157.699 400.8C157.199 397.8 159.099 394.9 162.099 394.4C165.099 393.9 167.999 395.8 168.499 398.8L176.399 441.9C176.899 444.9 174.999 447.8 171.999 448.3C171.699 448.4 171.299 448.4 170.999 448.4ZM205.799 449.1C202.999 449.1 200.599 446.9 200.299 444.1L196.299 397.8C195.999 394.8 198.299 392.1 201.299 391.8C204.299 391.5 206.999 393.8 207.299 396.8L211.299 443.1C211.599 446.1 209.299 448.8 206.299 449.1C206.099 449 205.899 449.1 205.799 449.1ZM240.799 448.4C237.899 448.4 235.499 446.2 235.299 443.2L232.299 397.5C232.099 394.5 234.399 391.8 237.399 391.6C240.399 391.4 243.099 393.7 243.299 396.7L246.299 442.4C246.499 445.4 244.199 448.1 241.199 448.3C241.099 448.4 240.999 448.4 240.799 448.4ZM276.299 449.1C273.299 449.1 270.799 446.6 270.799 443.6V400C270.799 397 273.299 394.5 276.299 394.5C279.299 394.5 281.799 397 281.799 400V443.6C281.799 446.6 279.299 449.1 276.299 449.1ZM337.299 448.4C336.999 448.4 336.599 448.4 336.299 448.3C333.299 447.7 331.299 444.8 331.899 441.8L340.099 399.1C340.699 396.1 343.599 394.1 346.599 394.7C349.599 395.3 351.599 398.2 350.999 401.2L342.799 443.9C342.199 446.6 339.899 448.4 337.299 448.4ZM307.399 448.4H306.899C303.899 448.1 301.599 445.5 301.899 442.4L305.799 397.2C306.099 394.2 308.699 391.9 311.799 392.2C314.799 392.5 317.099 395.1 316.799 398.2L312.899 443.4C312.599 446.2 310.199 448.4 307.399 448.4Z" fill="#232323"/>
<path d="M257.5 67.8005C227.6 67.8005 204.5 55.0005 203.1 54.2005C200.4 52.7005 199.5 49.3005 201 46.7005C202.5 44.0005 205.9 43.1005 208.5 44.6005C209 44.9005 254.2 69.6005 296.8 47.3005C299.5 45.9005 302.8 46.9005 304.2 49.6005C305.6 52.3005 304.6 55.6005 301.9 57.0005C286.7 65.0005 271.4 67.8005 257.5 67.8005Z" fill="#232323"/>
</g>
<defs>
<clipPath id="clip0_299_1766">
<rect width="512" height="512" fill="white"/>
</clipPath>
</defs>
</svg>
