<svg width="512" height="512" viewBox="0 0 512 512" fill="none" xmlns="http://www.w3.org/2000/svg">
<path d="M356 40H156V16C156 13.8783 156.843 11.8434 158.343 10.3431C159.843 8.84285 161.878 8 164 8H348C350.122 8 352.157 8.84285 353.657 10.3431C355.157 11.8434 356 13.8783 356 16V40Z" fill="url(#paint0_linear_299_1444)"/>
<path d="M356.001 40H236.001L228.001 32C222.661 27.196 222.673 20.572 228.001 16L236.001 8H348.001C350.122 8 352.157 8.84285 353.657 10.3431C355.158 11.8434 356.001 13.8783 356.001 16V40Z" fill="url(#paint1_linear_299_1444)"/>
<path d="M380 132C380 101.732 363.964 69.204 356 40H156C148.036 69.204 132 101.732 132 132L128 264C128 320 128 456 132 496C132.532 501.308 138.888 504 144.224 504H208C214.324 504 219.584 498.308 220 492C231.592 315.78 240.164 227.012 248 180C249.82 172.788 252.812 169.248 256 168C259.188 169.248 262.18 172.788 264 180C271.836 227.012 280.408 315.78 292 492C292.416 498.308 297.676 504 304 504H367.776C373.108 504 379.376 501.296 380 496C384.496 457.86 384.572 318.148 384 264L380 132Z" fill="url(#paint2_linear_299_1444)"/>
<path d="M379.868 127.908C378.54 98.812 363.608 67.892 356 40H340C340 83.92 355.944 111.892 379.868 127.908Z" fill="url(#paint3_linear_299_1444)"/>
<path d="M132.133 127.908C133.461 98.812 148.393 67.892 156.001 40H172.001C172.001 83.92 156.057 111.892 132.133 127.908Z" fill="url(#paint4_linear_299_1444)"/>
<path d="M256 120.064C268 112.064 276 112.064 276 92.0645V40.0645H256V120.064Z" fill="url(#paint5_linear_299_1444)"/>
<path d="M340 344H380C383.183 344 386.235 342.736 388.485 340.485C390.736 338.235 392 335.183 392 332V236C392 232.817 390.736 229.765 388.485 227.515C386.235 225.264 383.183 224 380 224H332C325.635 224 319.53 226.529 315.029 231.029C310.529 235.53 308 241.635 308 248V312C308 320.487 311.371 328.626 317.373 334.627C323.374 340.629 331.513 344 340 344Z" fill="url(#paint6_linear_299_1444)"/>
<path d="M376 264L368 344H348L340 264H376Z" fill="url(#paint7_linear_299_1444)"/>
<path d="M360 280L308 268V248C308 241.635 310.529 235.53 315.029 231.029C319.53 226.529 325.635 224 332 224H380C383.183 224 386.235 225.264 388.485 227.515C390.736 229.765 392 232.817 392 236V268L360 280Z" fill="url(#paint8_linear_299_1444)"/>
<path d="M172 344H132C128.817 344 125.765 342.736 123.515 340.485C121.264 338.235 120 335.183 120 332V236C120 232.817 121.264 229.765 123.515 227.515C125.765 225.264 128.817 224 132 224H180C186.365 224 192.47 226.529 196.971 231.029C201.471 235.53 204 241.635 204 248V312C204 320.487 200.629 328.626 194.627 334.627C188.626 340.629 180.487 344 172 344Z" fill="url(#paint9_linear_299_1444)"/>
<path d="M136 264L144 344H164L172 264H136Z" fill="url(#paint10_linear_299_1444)"/>
<path d="M152 280L204 268V248C204 241.635 201.471 235.53 196.971 231.029C192.47 226.529 186.365 224 180 224H132C128.817 224 125.765 225.264 123.515 227.515C121.264 229.765 120 232.817 120 236V268L152 280Z" fill="url(#paint11_linear_299_1444)"/>
<path d="M360 260C364.418 260 368 256.418 368 252C368 247.582 364.418 244 360 244C355.582 244 352 247.582 352 252C352 256.418 355.582 260 360 260Z" fill="url(#paint12_linear_299_1444)"/>
<path d="M152 260C156.418 260 160 256.418 160 252C160 247.582 156.418 244 152 244C147.582 244 144 247.582 144 252C144 256.418 147.582 260 152 260Z" fill="url(#paint13_linear_299_1444)"/>
<path d="M244 28C246.209 28 248 26.2091 248 24C248 21.7909 246.209 20 244 20C241.791 20 240 21.7909 240 24C240 26.2091 241.791 28 244 28Z" fill="#3A322B"/>
<path d="M386.716 221.528L384 132C384 130.388 383.876 128.764 383.792 127.144V127.132C382.764 107.164 375.744 86.688 368.86 66.832C365.552 57.288 362.432 48.264 360 39.436V16C360 9.384 354.616 4 348 4H164C157.384 4 152 9.384 152 16V39.436C149.568 48.264 146.448 57.284 143.14 66.832C135.696 88.3 128 110.504 128 131.88L125.284 221.528C122.518 222.805 120.175 224.845 118.53 227.409C116.886 229.973 116.008 232.954 116 236V332C116 337.968 119.324 343.124 124.18 345.872C124.616 424.608 125.908 475.276 128.02 496.4C128.78 504.016 136.748 508 144.224 508H208C216.248 508 223.42 500.94 223.992 492.26C234.808 327.848 243.428 231.748 251.88 180.98C252.88 177.016 254.312 174.136 256.004 172.64C257.688 174.128 259.108 176.944 260.056 180.656C268.572 231.748 277.192 327.852 288.008 492.26C288.58 500.94 295.752 508 304 508H367.776C375.148 508 383.08 504.04 383.972 496.468C387.216 468.96 388.012 391.264 388.192 345.668C392.848 342.868 396 337.816 396 332V236C395.992 232.954 395.114 229.973 393.47 227.409C391.825 224.845 389.482 222.805 386.716 221.528ZM380 340H372.42L378.692 277.264L388 273.772V332C388 336.412 384.412 340 380 340ZM351.62 340L345.7 280.808L359.1 283.9C359.866 284.075 360.667 284.022 361.404 283.748L370.34 280.396L364.38 340H351.62ZM312 273.028L337.468 278.904L343.58 340H340C324.56 340 312 327.436 312 312V273.028ZM388 265.228L359.724 275.832L312 264.816V248C312 236.972 320.972 228 332 228H380C384.412 228 388 231.588 388 236V265.228ZM375.028 119.216C355.244 102.584 344.852 77.34 344.084 44H352.996C355.38 52.28 358.248 60.644 361.3 69.448C367.012 85.924 372.816 102.836 375.028 119.216ZM352 16V36H332V12H348C350.204 12 352 13.792 352 16ZM237.656 36L230.676 29.028C228.904 27.432 227.98 25.648 228 23.864C228.02 22.152 228.92 20.48 230.828 18.828L237.656 12H324V36H237.656ZM260 44H272V92.068C272 106.004 268.336 108.124 260.308 112.76L260 112.94V44ZM225.172 34.828L226.344 36H188V12H226.356L225.392 12.964C221.964 15.912 220.048 19.752 220 23.768C219.952 27.868 221.844 31.844 225.172 34.828ZM160 16C160 13.792 161.796 12 164 12H180V36H160V16ZM150.7 69.448C153.752 60.64 156.624 52.28 159.004 44H167.916C167.148 77.344 156.756 102.588 136.964 119.224C139.168 102.88 144.98 85.948 150.7 69.448ZM132 228H180C191.028 228 200 236.972 200 248V264.816L152.276 275.832L124 265.228V236C124 231.588 127.588 228 132 228ZM147.62 340L141.66 280.396L150.596 283.748C151.333 284.022 152.134 284.075 152.9 283.9L166.296 280.808L160.38 340H147.62ZM174.528 278.908L200 273.028V312C200 327.436 187.44 340 172 340H168.42L174.528 278.908ZM124 273.772L133.304 277.26L139.58 340H132C127.588 340 124 336.412 124 332V273.772ZM244.056 179.344C235.496 230.704 226.844 327.052 216.008 491.74C215.72 496.136 211.976 500 208 500H144.224C140.456 500 136.244 498.236 135.98 495.6C133.912 474.92 132.64 425.228 132.192 348H172C191.848 348 208 331.852 208 312V248C208 232.564 195.44 220 180 220H133.336L136 132C136 131.332 136.072 130.652 136.088 129.984C161.676 111.988 175.06 83.084 175.916 44H252V132H208C206.939 132 205.922 132.421 205.172 133.172C204.421 133.922 204 134.939 204 136C204 137.061 204.421 138.078 205.172 138.828C205.922 139.579 206.939 140 208 140H252V148H220C218.939 148 217.922 148.421 217.172 149.172C216.421 149.922 216 150.939 216 152C216 153.061 216.421 154.078 217.172 154.828C217.922 155.579 218.939 156 220 156H252V165.672C248.396 168.16 245.732 172.66 244.056 179.344ZM376.028 495.532C375.712 498.204 371.508 500 367.78 500H304C300.024 500 296.28 496.14 295.992 491.74C285.156 327.052 276.504 230.704 267.88 179.02C266.26 172.6 263.604 168.148 260 165.668V156H292C293.061 156 294.078 155.579 294.828 154.828C295.579 154.078 296 153.061 296 152C296 150.939 295.579 149.922 294.828 149.172C294.078 148.421 293.061 148 292 148H260V140H304C305.061 140 306.078 139.579 306.828 138.828C307.579 138.078 308 137.061 308 136C308 134.939 307.579 133.922 306.828 133.172C306.078 132.421 305.061 132 304 132H260V122.272C261.504 121.332 262.96 120.464 264.308 119.688C274.036 114.068 280 109.728 280 92.068V44H336.084C336.94 83.08 350.32 111.984 375.908 129.98C375.928 130.692 376 131.412 376 132.12L378.664 220H332C316.56 220 304 232.564 304 248V312C304 331.852 320.152 348 340 348H380C380.064 348 380.12 347.984 380.184 347.98C379.984 393.68 379.168 468.876 376.028 495.532Z" fill="#3A322B"/>
<path d="M360 240C353.384 240 348 245.384 348 252C348 258.616 353.384 264 360 264C366.616 264 372 258.616 372 252C372 245.384 366.616 240 360 240ZM360 256C358.97 255.954 357.998 255.512 357.285 254.767C356.573 254.022 356.175 253.031 356.175 252C356.175 250.969 356.573 249.978 357.285 249.233C357.998 248.488 358.97 248.046 360 248C361.03 248.046 362.002 248.488 362.715 249.233C363.427 249.978 363.825 250.969 363.825 252C363.825 253.031 363.427 254.022 362.715 254.767C362.002 255.512 361.03 255.954 360 256ZM152 264C158.616 264 164 258.616 164 252C164 245.384 158.616 240 152 240C145.384 240 140 245.384 140 252C140 258.616 145.384 264 152 264ZM152 248C152.792 247.999 153.567 248.233 154.226 248.673C154.885 249.113 155.399 249.738 155.702 250.47C156.006 251.202 156.086 252.007 155.931 252.784C155.777 253.561 155.395 254.275 154.835 254.835C154.275 255.395 153.561 255.777 152.784 255.931C152.007 256.086 151.202 256.006 150.47 255.702C149.738 255.399 149.113 254.885 148.673 254.226C148.233 253.567 147.999 252.792 148 252C148 249.792 149.796 248 152 248Z" fill="#3A322B"/>
<defs>
<linearGradient id="paint0_linear_299_1444" x1="156" y1="8" x2="356" y2="8" gradientUnits="userSpaceOnUse">
<stop stop-color="#D69B61"/>
<stop offset="1" stop-color="#C17E51"/>
</linearGradient>
<linearGradient id="paint1_linear_299_1444" x1="224" y1="8" x2="356.001" y2="8" gradientUnits="userSpaceOnUse">
<stop stop-color="#D69B61"/>
<stop offset="1" stop-color="#C17E51"/>
</linearGradient>
<linearGradient id="paint2_linear_299_1444" x1="128" y1="40" x2="384.249" y2="40" gradientUnits="userSpaceOnUse">
<stop stop-color="#D69B61"/>
<stop offset="1" stop-color="#C17E51"/>
</linearGradient>
<linearGradient id="paint3_linear_299_1444" x1="-72.6201" y1="98.108" x2="110.716" y2="92.108" gradientUnits="userSpaceOnUse">
<stop stop-color="#D69B61"/>
<stop offset="1" stop-color="#AE6F47"/>
</linearGradient>
<linearGradient id="paint4_linear_299_1444" x1="132.133" y1="40" x2="172.001" y2="40" gradientUnits="userSpaceOnUse">
<stop stop-color="#D69B61"/>
<stop offset="0.514" stop-color="#C18454"/>
<stop offset="1" stop-color="#AE6F47"/>
</linearGradient>
<linearGradient id="paint5_linear_299_1444" x1="256" y1="40.0645" x2="276" y2="40.0645" gradientUnits="userSpaceOnUse">
<stop stop-color="#D69B61"/>
<stop offset="0.514" stop-color="#C18454"/>
<stop offset="1" stop-color="#AE6F47"/>
</linearGradient>
<linearGradient id="paint6_linear_299_1444" x1="308" y1="224" x2="392" y2="224" gradientUnits="userSpaceOnUse">
<stop stop-color="#D69B61"/>
<stop offset="1" stop-color="#C17E51"/>
</linearGradient>
<linearGradient id="paint7_linear_299_1444" x1="340" y1="264" x2="376" y2="264" gradientUnits="userSpaceOnUse">
<stop stop-color="#D69B61"/>
<stop offset="1" stop-color="#C17E51"/>
</linearGradient>
<linearGradient id="paint8_linear_299_1444" x1="308" y1="224" x2="392" y2="224" gradientUnits="userSpaceOnUse">
<stop stop-color="#D69B61"/>
<stop offset="1" stop-color="#C17E51"/>
</linearGradient>
<linearGradient id="paint9_linear_299_1444" x1="120" y1="224" x2="204" y2="224" gradientUnits="userSpaceOnUse">
<stop stop-color="#D69B61"/>
<stop offset="1" stop-color="#C17E51"/>
</linearGradient>
<linearGradient id="paint10_linear_299_1444" x1="136" y1="264" x2="172" y2="264" gradientUnits="userSpaceOnUse">
<stop stop-color="#D69B61"/>
<stop offset="1" stop-color="#C17E51"/>
</linearGradient>
<linearGradient id="paint11_linear_299_1444" x1="120" y1="224" x2="204" y2="224" gradientUnits="userSpaceOnUse">
<stop stop-color="#D69B61"/>
<stop offset="1" stop-color="#C17E51"/>
</linearGradient>
<linearGradient id="paint12_linear_299_1444" x1="345.228" y1="161.896" x2="355.228" y2="222.896" gradientUnits="userSpaceOnUse">
<stop stop-color="#AC766A"/>
<stop offset="1" stop-color="#93634D"/>
</linearGradient>
<linearGradient id="paint13_linear_299_1444" x1="166.772" y1="161.896" x2="156.772" y2="222.896" gradientUnits="userSpaceOnUse">
<stop stop-color="#AC766A"/>
<stop offset="1" stop-color="#93634D"/>
</linearGradient>
</defs>
</svg>
