<svg width="512" height="512" viewBox="0 0 512 512" fill="none" xmlns="http://www.w3.org/2000/svg">
<g clip-path="url(#clip0_298_1371)">
<mask id="mask0_298_1371" style="mask-type:luminance" maskUnits="userSpaceOnUse" x="0" y="0" width="512" height="512">
<path d="M0 0.00149536H511.999V512H0V0.00149536Z" fill="white"/>
</mask>
<g mask="url(#mask0_298_1371)">
<path d="M503.25 201.753L465.437 68.1253C462.877 59.0795 458.075 50.8265 451.475 44.1317C444.876 37.4369 436.692 32.5171 427.684 29.8284L358.311 9.12248C350.847 6.89517 342.886 6.96484 335.462 9.32246L330.782 10.8084C282.124 26.2624 229.873 26.2624 181.215 10.8084L176.535 9.32246C169.111 6.96484 161.15 6.89517 153.686 9.12248L84.314 29.8284C75.3056 32.5171 67.1219 37.437 60.522 44.1321C53.9221 50.8271 49.1197 59.0802 46.5602 68.1263L8.74727 201.753C4.93329 215.231 12.3763 229.329 25.6562 233.782L93.537 256.546V476.42C93.537 491.928 106.108 504.5 121.617 504.5H390.38C405.889 504.5 418.46 491.928 418.46 476.42V256.546L486.341 233.782C499.621 229.329 507.063 215.231 503.25 201.753Z" fill="#FA8084"/>
<path d="M405.698 187.989C399.22 190.161 393.589 194.314 389.599 199.86C385.609 205.407 383.462 212.066 383.462 218.899V488.252C383.469 494.076 381.657 499.757 378.277 504.5H390.379C405.887 504.5 418.459 491.928 418.459 476.42V188.994C418.459 186.397 415.911 184.564 413.448 185.39L405.698 187.989Z" fill="#F8636F"/>
<path d="M503.249 201.753L465.436 68.1253C462.876 59.0795 458.074 50.8265 451.474 44.1317C444.875 37.4369 436.691 32.517 427.683 29.8284L358.31 9.12244C354.283 7.92817 350.088 7.39823 345.89 7.55345C344.284 10.5404 340.68 16.8824 335.234 24.5134L392.686 41.6603C401.695 44.349 409.878 49.269 416.478 55.964C423.078 62.659 427.88 70.9122 430.439 79.9582L470.916 222.999C473.084 230.663 469.274 238.652 462.176 241.886L486.34 233.782C499.62 229.329 507.062 215.232 503.249 201.753Z" fill="#F8636F"/>
<path d="M345.895 7.54793C342.353 7.66005 338.843 8.25694 335.463 9.32193L330.783 10.8089C282.125 26.2619 229.874 26.2619 181.215 10.8089L176.535 9.32193C173.156 8.25694 169.646 7.66005 166.104 7.54793C171.952 18.4249 204.326 73.9277 255.999 73.9277C307.672 73.9277 340.046 18.4249 345.895 7.54793Z" fill="#F84954"/>
</g>
</g>
<defs>
<clipPath id="clip0_298_1371">
<rect width="512" height="512" fill="white"/>
</clipPath>
</defs>
</svg>
