<svg width="512" height="512" viewBox="0 0 512 512" fill="none" xmlns="http://www.w3.org/2000/svg">
<path d="M486.4 106.667C486.4 116.309 469.333 125.099 440.32 132.267C398.25 121.941 331.349 115.2 256 115.2C180.65 115.2 113.749 121.941 71.6796 132.267C42.6663 125.099 25.5996 116.309 25.5996 106.667C25.5996 83.1147 128.768 64 256 64C383.232 64 486.4 83.1147 486.4 106.667Z" fill="#607D8B"/>
<path d="M255.999 64H243.199C364.458 65.28 460.799 83.8827 460.799 106.667C460.799 115.2 448.085 122.624 426.154 129.109C431.103 130.133 435.882 131.157 440.319 132.267C469.333 125.099 486.399 116.309 486.399 106.667C486.399 83.1147 383.231 64 255.999 64Z" fill="#37474F"/>
<path d="M256 149.334C357.797 149.334 440.32 141.693 440.32 132.267C440.32 122.841 357.797 115.2 256 115.2C154.203 115.2 71.6797 122.841 71.6797 132.267C71.6797 141.693 154.203 149.334 256 149.334Z" fill="#37474F"/>
<path d="M486.4 106.667V157.867C486.4 181.419 383.232 200.534 256 200.534C128.768 200.534 25.5996 181.419 25.5996 157.867V106.667C25.5996 116.31 42.6663 125.099 71.6796 132.267C113.749 142.592 180.65 149.334 256 149.334C331.349 149.334 398.25 142.592 440.32 132.267C469.333 125.099 486.4 116.31 486.4 106.667Z" fill="#7F8E94"/>
<path d="M460.799 126.208V157.867C460.799 180.651 364.458 199.254 243.199 200.534H255.999C383.231 200.534 486.399 181.419 486.399 157.867V106.667C486.399 113.75 477.098 120.32 460.799 126.208Z" fill="#545C60"/>
<path d="M503.467 260.266V422.4C468.653 438.501 430.882 447.217 392.533 448C361.025 448.63 329.544 445.769 298.667 439.466L285.184 392.362C275.768 395.443 265.906 396.943 256 396.8C246.094 396.943 236.232 395.443 226.816 392.362L213.333 439.466C182.455 445.769 150.975 448.63 119.467 448C81.1178 447.217 43.3467 438.501 8.5332 422.4L8.5332 260.266C8.5332 217.6 25.5999 157.866 25.5999 157.866C25.5999 181.418 128.768 200.533 256 200.533C383.232 200.533 486.4 181.418 486.4 157.866C486.4 157.866 503.467 217.6 503.467 260.266Z" fill="#F44335"/>
<path d="M486.399 157.866C486.399 164.181 478.804 170.24 465.407 175.616C472.538 203.313 476.714 231.689 477.866 260.266V422.4C445.867 437.241 411.36 445.926 376.148 448H392.532C430.881 447.217 468.652 438.501 503.466 422.4V260.266C503.466 217.6 486.399 157.866 486.399 157.866Z" fill="#C81E1E"/>
<path d="M494.933 106.667C494.933 66.1335 338.603 55.4668 256 55.4668C173.397 55.4668 17.0667 66.1335 17.0667 106.667V156.672C7.44958 190.441 1.72354 225.198 0 260.267L0 422.4C0.00477615 423.976 0.445813 425.52 1.27422 426.86C2.10264 428.201 3.28606 429.286 4.69333 429.995C40.674 446.771 79.7739 455.812 119.467 456.533C151.656 457.265 183.827 454.403 215.381 448C216.831 447.642 218.162 446.91 219.24 445.877C220.318 444.843 221.106 443.545 221.525 442.112L232.704 403.029C248.047 406.443 263.953 406.443 279.296 403.029L290.133 441.856C290.553 443.289 291.341 444.587 292.419 445.621C293.497 446.654 294.828 447.386 296.277 447.744C327.934 454.258 360.221 457.206 392.533 456.533C432.226 455.812 471.326 446.771 507.307 429.995C508.714 429.286 509.897 428.201 510.726 426.86C511.554 425.52 511.995 423.976 512 422.4V260.267C510.276 225.198 504.55 190.441 494.933 156.672V106.667ZM477.867 157.867C475.989 166.827 431.36 181.589 349.867 188.416C322.645 190.72 291.328 192.085 256 192.085C115.115 192 36.6933 169.728 34.1333 157.867V127.573C45.1238 133.159 56.7596 137.372 68.7787 140.117C69.4527 140.417 70.1757 140.59 70.912 140.629C123.989 153.685 204.8 157.867 256 157.867C307.2 157.867 388.096 153.685 441.088 140.8C442.017 140.691 442.916 140.401 443.733 139.947C455.562 137.192 467.02 133.038 477.867 127.573V157.867ZM118.613 132.267C164.168 126.37 210.066 123.519 256 123.733C301.934 123.519 347.832 126.37 393.387 132.267C347.844 138.287 301.938 141.139 256 140.8C210.062 141.142 164.156 138.29 118.613 132.267ZM256 72.5335C396.629 72.5335 475.051 94.7201 477.867 106.667C476.757 111.36 463.872 117.589 440.235 123.733C395.435 112.811 328.533 106.667 256 106.667C183.467 106.667 116.48 112.811 71.68 123.733C48.0427 117.845 35.1573 111.616 34.1333 106.667C36.6933 94.8055 115.115 72.5335 256 72.5335ZM494.933 416.939C462.599 431.065 427.811 438.719 392.533 439.467C363.356 439.805 334.212 437.376 305.493 432.213L295.509 397.397C307.222 391.786 317.464 383.518 325.419 373.252C333.374 362.986 338.823 351.004 341.333 338.261C341.662 335.998 341.077 333.697 339.709 331.865C338.341 330.033 336.301 328.819 334.037 328.491C331.774 328.163 329.473 328.747 327.641 330.115C325.809 331.484 324.595 333.524 324.267 335.787C324.267 338.005 315.733 388.267 256 388.267C196.267 388.267 187.733 338.005 187.733 335.872C187.599 334.732 187.239 333.63 186.674 332.631C186.108 331.633 185.349 330.757 184.44 330.055C183.531 329.354 182.492 328.841 181.382 328.547C180.273 328.253 179.115 328.183 177.979 328.342C176.842 328.502 175.748 328.886 174.762 329.474C173.776 330.061 172.917 330.84 172.236 331.764C171.555 332.688 171.065 333.739 170.796 334.854C170.526 335.97 170.482 337.128 170.667 338.261C173.168 350.996 178.604 362.972 186.544 373.237C194.484 383.503 204.708 391.775 216.405 397.397L206.507 432.213C177.788 437.376 148.644 439.805 119.467 439.467C84.196 438.664 49.4176 431.013 17.0667 416.939V260.267C18.2761 231.852 22.5098 203.646 29.696 176.128C52.3947 191.061 102.485 199.851 154.027 204.459C154.953 235.043 157.803 265.539 162.56 295.765C162.874 297.713 163.854 299.492 165.332 300.799C166.81 302.106 168.695 302.86 170.667 302.933H172.032C173.159 302.768 174.241 302.378 175.215 301.788C176.189 301.198 177.035 300.418 177.703 299.496C178.371 298.573 178.848 297.526 179.105 296.417C179.362 295.307 179.394 294.157 179.2 293.035C174.733 264.186 172.054 235.089 171.179 205.909C201.984 208.128 232.107 209.067 256.512 209.067C280.917 209.067 310.613 208.128 341.333 205.909C340.275 235.099 337.426 264.195 332.8 293.035C332.606 294.157 332.638 295.307 332.895 296.417C333.152 297.526 333.629 298.573 334.297 299.496C334.965 300.418 335.811 301.198 336.785 301.788C337.759 302.378 338.841 302.768 339.968 302.933H341.333C343.379 302.96 345.365 302.251 346.932 300.935C348.498 299.619 349.54 297.785 349.867 295.765C354.595 265.564 357.445 235.098 358.4 204.544C409.6 199.851 460.032 191.061 482.731 176.128C489.773 203.662 493.863 231.867 494.933 260.267V416.939Z" fill="black"/>
</svg>
