<svg width="512" height="512" viewBox="0 0 512 512" fill="none" xmlns="http://www.w3.org/2000/svg">
<path d="M336.945 29.7537C317.98 24.8197 298.102 32.4447 286.961 48.5657C275.738 64.8087 257.328 82.0617 229.761 82.0617C202.199 82.0617 183.789 64.8087 172.563 48.5657C161.426 32.4457 141.547 24.8197 122.582 29.7537L39.3442 51.4097C18.6332 56.7997 5.14423 76.7267 7.84023 97.9527L13.9652 146.238C17.2152 171.859 42.3522 188.703 67.2852 181.965L83.6452 177.547L229.762 194.715L375.879 177.547L392.239 181.965C417.172 188.703 442.313 171.859 445.563 146.238L451.688 97.9527C454.378 76.7267 440.891 56.7967 420.184 51.4097L336.945 29.7537Z" fill="#CCF8FF"/>
<path d="M222.063 81.6021C198.723 78.7541 182.711 63.2461 172.563 48.5661C161.426 32.4411 141.547 24.8201 122.582 29.7541L39.3442 51.4101C18.6332 56.8001 5.14423 76.7271 7.84023 97.9531L13.9652 146.238C17.2152 171.859 42.3522 188.703 67.2852 181.965L83.6452 177.547L209.348 192.317C205.328 139.582 213.055 104.121 222.062 81.6021H222.063Z" fill="#9FF6FF"/>
<path d="M375.88 177.547L351.86 112.934H111.134L83.6457 177.547L35.4657 419.039C28.9697 451.589 50.0707 483.179 82.5947 489.785C118.907 497.16 170.044 504.5 229.763 504.5C289.485 504.5 340.618 497.16 376.935 489.785C409.458 483.18 430.56 451.585 424.063 419.039L375.88 177.547Z" fill="#FFABCD"/>
<path d="M111.134 112.934L83.6457 177.547L35.4657 419.039C28.9697 451.589 50.0707 483.179 82.5947 489.785C99.1447 493.148 118.782 496.504 140.903 499.156C156.595 470.636 227.845 333.344 212.142 218.367C205.946 173.02 207.872 138.567 212.966 112.934H111.134Z" fill="#FF8FB4"/>
<path d="M111.133 218.367C96.4141 218.367 84.3711 206.32 84.3711 191.602V34.266C84.3711 19.543 96.4141 7.5 111.133 7.5C125.852 7.5 137.898 19.543 137.898 34.266V191.602C137.898 206.32 125.852 218.367 111.133 218.367Z" fill="#FFABCD"/>
<path d="M348.395 218.367C333.672 218.367 321.629 206.32 321.629 191.602V34.266C321.629 19.543 333.672 7.5 348.395 7.5C363.113 7.5 375.156 19.543 375.156 34.266V191.602C375.156 206.32 363.113 218.367 348.395 218.367Z" fill="#FFC2E1"/>
<path d="M249.297 289.055C286.836 224.035 172.691 224.035 210.227 289.055C172.691 224.035 115.621 322.887 190.695 322.887C115.621 322.887 172.691 421.738 210.227 356.723C172.691 421.738 286.836 421.738 249.297 356.723C286.836 421.738 343.907 322.887 268.832 322.887C343.906 322.887 286.836 224.039 249.297 289.055Z" fill="#FFEB99"/>
<path d="M214.258 244.258C202.781 250.891 196.82 265.824 210.23 289.051C172.691 224.035 115.621 322.887 190.695 322.887C126.289 322.887 159.145 395.641 193.48 375.266C206.156 334.465 215.605 288.469 214.258 244.258Z" fill="#FFDE55"/>
<path d="M254.262 322.887C254.262 336.418 243.293 347.387 229.762 347.387C216.234 347.387 205.266 336.418 205.266 322.887C205.266 309.359 216.234 298.391 229.762 298.391C243.293 298.391 254.262 309.359 254.262 322.887Z" fill="#EAC2FF"/>
<path d="M146.903 343.105C143.966 359.773 154.919 378.75 170.825 384.539C175.56 386.262 184.708 388.184 195.04 383.031C195.747 394.555 201.981 401.516 205.84 404.758C212.325 410.195 221.044 412.914 229.763 412.914C238.482 412.914 247.2 410.195 253.685 404.758C257.544 401.516 263.782 394.555 264.485 383.031C274.821 388.18 283.965 386.261 288.7 384.539C304.606 378.75 315.563 359.773 312.626 343.105C311.747 338.141 308.841 329.262 299.212 322.887C308.841 316.516 311.747 307.633 312.626 302.672C315.564 286 304.606 267.027 288.7 261.238C283.97 259.512 274.821 257.59 264.485 262.742C263.782 251.219 257.548 244.258 253.685 241.02C240.715 230.14 218.81 230.14 205.841 241.02C201.981 244.258 195.747 251.219 195.041 262.742C184.708 257.594 175.56 259.512 170.825 261.238C154.919 267.028 143.965 286 146.903 302.672C147.778 307.632 150.689 316.516 160.317 322.887C150.688 329.262 147.778 338.141 146.903 343.105ZM190.696 315.387C173.724 315.387 163.419 309.945 161.676 300.067C159.981 290.461 166.79 278.672 175.958 275.336C185.384 271.906 195.251 278.106 203.735 292.805C204.227 293.659 204.883 294.406 205.664 295.006C206.446 295.606 207.338 296.046 208.289 296.301C209.241 296.556 210.233 296.621 211.21 296.492C212.186 296.364 213.128 296.044 213.981 295.551C216.388 294.161 219.685 290.465 216.724 285.305C208.282 270.582 207.798 258.961 215.485 252.512C222.958 246.242 236.571 246.242 244.044 252.512C251.728 258.961 251.427 270.688 242.802 285.305C240.172 289.765 243.142 294.16 245.548 295.551C249.134 297.617 253.724 296.391 255.794 292.805C264.278 278.105 274.149 271.906 283.571 275.335C292.739 278.672 299.548 290.461 297.853 300.066C296.11 309.946 285.802 315.386 268.833 315.386C266.844 315.386 264.936 316.177 263.53 317.583C262.123 318.99 261.333 320.897 261.333 322.886C261.333 327.031 264.689 330.386 268.833 330.386C285.802 330.386 296.106 335.828 297.853 345.711C299.544 355.316 292.739 367.105 283.571 370.441C274.149 373.871 264.278 367.671 255.794 352.973C255.302 352.12 254.646 351.372 253.865 350.773C253.083 350.173 252.191 349.733 251.24 349.478C250.288 349.223 249.296 349.158 248.319 349.287C247.343 349.415 246.401 349.735 245.548 350.227C243.142 351.617 240.481 355.879 242.802 360.473C250.454 375.621 251.728 386.816 244.044 393.266C236.571 399.536 222.958 399.536 215.485 393.266C207.798 386.816 208.177 375.133 216.724 360.473C219.29 356.07 216.388 351.617 213.981 350.227C213.128 349.735 212.186 349.415 211.21 349.286C210.233 349.158 209.241 349.223 208.289 349.478C207.338 349.733 206.446 350.173 205.664 350.772C204.883 351.372 204.227 352.12 203.735 352.973C195.251 367.668 185.384 373.871 175.958 370.441C166.79 367.105 159.981 355.316 161.677 345.711C163.419 335.828 173.724 330.387 190.697 330.387C192.686 330.387 194.594 329.597 196 328.191C197.407 326.784 198.197 324.876 198.197 322.887C198.197 320.898 197.407 318.991 196 317.584C194.594 316.178 192.685 315.387 190.696 315.387Z" fill="black"/>
<path d="M422.071 44.152L382.649 33.895C382.446 15.172 367.161 0 348.396 0C334.013 0 321.681 8.91 316.606 21.496C302.157 23.863 289.317 31.965 280.794 44.301C266.919 64.383 249.751 74.562 229.763 74.562C209.778 74.562 192.61 64.382 178.735 44.301C170.215 31.973 157.372 23.871 142.923 21.5C137.849 8.91 125.517 0 111.133 0C92.3645 0 77.0795 15.172 76.8805 33.895L37.4535 44.152C13.1725 50.47 -2.76146 74.008 0.39854 98.898L6.52354 147.184C8.34854 161.547 16.3675 174.293 28.3205 182.469C48.5315 196.293 73.9225 187.941 73.9225 187.941L28.1095 417.571C20.8365 454.027 44.6055 489.719 81.1025 497.133C114.485 503.914 167.373 512 229.763 512C292.153 512 345.044 503.914 378.427 497.137C414.919 489.723 438.692 454.031 431.419 417.57L420.399 362.344C419.591 358.281 415.634 355.644 411.575 356.454C409.625 356.845 407.91 357.994 406.806 359.648C405.703 361.302 405.301 363.327 405.689 365.277L416.708 420.507C422.372 448.883 403.856 476.66 375.438 482.434C342.731 489.078 290.909 497 229.763 497C168.623 497 116.798 489.078 84.0905 482.434C55.6725 476.66 37.1565 448.883 42.8205 420.508L84.2585 212.816C90.5395 220.754 100.247 225.863 111.134 225.863C130.028 225.863 145.399 210.493 145.399 191.602V120.434H314.129V191.602C314.129 210.492 329.501 225.863 348.396 225.863C359.282 225.863 368.989 220.753 375.271 212.816L399.611 334.809C400.321 338.371 403.021 341.262 408.435 340.695C412.552 340.265 415.13 335.934 414.321 331.871L385.603 187.941C385.603 187.941 408.583 197.074 431.208 182.469C443.372 174.617 451.181 161.547 453.005 147.184L459.13 98.898C462.286 74.004 446.356 50.468 422.071 44.152ZM130.399 191.602C130.399 202.227 121.755 210.867 111.134 210.867C100.513 210.867 91.8715 202.227 91.8715 191.602V106.898C91.8715 104.909 91.0814 103.001 89.6748 101.595C88.2683 100.188 86.3607 99.398 84.3715 99.398C83.3865 99.3976 82.4111 99.5913 81.5009 99.9681C80.5908 100.345 79.7639 100.897 79.0674 101.594C78.3708 102.29 77.8184 103.117 77.4416 104.027C77.0649 104.938 76.8711 105.913 76.8715 106.898V171.609C76.8715 171.609 53.4215 180.332 36.6685 170.008C28.0355 164.688 22.6805 155.355 21.4025 145.297L15.2775 97.007C13.0675 79.574 24.2235 63.094 41.2305 58.672L76.8675 49.398V74.855C76.8675 76.8441 77.6577 78.7518 79.0642 80.1583C80.4708 81.5648 82.3784 82.355 84.3675 82.355C88.5125 82.355 91.8675 79 91.8675 74.855V34.265C91.8675 23.645 100.513 15 111.134 15C121.754 15 130.396 23.645 130.396 34.266V191.602H130.399ZM145.399 105.434V37.43C153.817 39.969 161.204 45.32 166.396 52.828C183.001 76.86 204.916 89.562 229.763 89.562C254.614 89.562 276.528 76.859 293.133 52.828C298.325 45.316 305.712 39.968 314.13 37.43V105.434H145.399ZM367.657 191.602C367.657 202.227 359.017 210.867 348.392 210.867C337.771 210.867 329.13 202.227 329.13 191.602V34.266C329.13 23.645 337.77 15 348.392 15C359.017 15 367.657 23.645 367.657 34.266V191.602ZM444.247 97.008L438.122 145.297C436.845 155.355 431.177 164.211 422.856 170.007C405.853 181.847 382.657 171.609 382.657 171.609V49.4L418.297 58.673C435.302 63.095 446.458 79.574 444.247 97.008Z" fill="black"/>
</svg>
