<svg width="512" height="512" viewBox="0 0 512 512" fill="none" xmlns="http://www.w3.org/2000/svg">
<path d="M372.544 234.235L392.734 178.978H441.19C447.885 178.978 453.73 174.37 455.053 167.772L468.346 106.283C469.014 103.147 468.606 99.8775 467.186 97.0026C465.766 94.1276 463.418 91.8156 460.521 90.4404L351.9 39.1438L351.706 38.9603C349.778 38.1028 347.692 37.6554 345.582 37.6465H337.95C334.646 37.6465 331.622 38.8734 328.985 40.9407C328.512 41.3271 328.135 41.6942 327.662 41.8874C317.808 49.4321 306.757 53.673 294.623 55.866V328.192H71.7486C61.6825 349.058 54.2537 373.915 52.0415 403.398C51.3846 411.696 54.8719 419.898 61.5666 424.805C72.6953 432.91 93.156 445.546 124.745 455.912V456.008C146.993 463.37 174.622 469.688 208.375 472.605C226.392 474.209 246.186 474.779 267.787 474.112C289.378 474.779 309.085 474.209 327.092 472.605C360.845 469.688 388.57 463.37 410.722 456.008V455.912C442.408 445.546 467.583 432.91 478.711 424.805C485.406 419.898 488.797 411.696 488.236 403.398C478.798 276.2 372.534 234.245 372.534 234.245L372.544 234.235Z" fill="black"/>
<path d="M250.34 479.213C235.627 479.213 221.397 478.614 207.96 477.416C177.558 474.788 149.051 469.127 123.238 460.597C122.942 460.498 122.657 460.369 122.388 460.211C91.494 449.98 70.7339 437.451 58.726 428.718C50.8335 422.922 46.438 413.078 47.2302 403.012C49.3071 375.441 56.0887 349.561 67.4204 326.096C67.8159 325.279 68.4335 324.591 69.2024 324.109C69.9712 323.627 70.8602 323.372 71.7675 323.372H289.783V55.8564C289.783 54.7231 290.182 53.6261 290.91 52.7572C291.637 51.8883 292.647 51.303 293.763 51.1035C306.003 48.9106 316.136 44.631 324.724 38.062C325.076 37.7913 325.463 37.5702 325.874 37.4051C329.603 34.3138 333.738 32.8164 337.95 32.8164H345.581C348.296 32.8164 350.923 33.3767 353.609 34.5263C353.951 34.672 354.275 34.8568 354.575 35.0769L462.578 86.0837C470.645 90.0445 474.924 98.7678 473.069 107.317L459.767 168.786C458.871 173.046 456.535 176.867 453.151 179.605C449.767 182.343 445.543 183.831 441.19 183.818H396.105L378.62 231.685C398.945 241.442 484.613 289.097 493.057 403.041C493.762 413.329 489.473 422.922 481.57 428.699C471.166 436.282 447.025 449.043 413.069 460.24C412.81 460.384 412.538 460.504 412.257 460.597C386.58 469.118 358.072 474.769 327.516 477.416C307.606 479.112 287.612 479.622 267.641 478.942C261.816 479.126 256.049 479.213 250.349 479.213H250.34ZM127.112 451.7C151.997 459.844 179.471 465.254 208.8 467.794C227.077 469.417 246.881 469.92 267.641 469.282C288.672 469.948 308.437 469.417 326.666 467.794C356.159 465.234 383.653 459.824 408.393 451.7C408.661 451.546 408.942 451.416 409.233 451.314C440.427 441.112 465.177 428.689 475.871 420.903C480.991 417.155 483.889 410.566 483.425 403.727C474.325 281.001 371.809 239.143 370.776 238.727C369.602 238.267 368.654 237.365 368.136 236.215C367.618 235.065 367.57 233.758 368.003 232.574L388.193 177.316C388.535 176.39 389.152 175.59 389.962 175.025C390.773 174.461 391.736 174.158 392.724 174.157H441.19C445.634 174.157 449.459 171.066 450.309 166.815L463.621 105.269C464.558 100.99 462.453 96.7778 458.386 94.7781L349.841 43.5201C349.62 43.4171 349.407 43.2977 349.204 43.1627C348.048 42.7147 346.821 42.4822 345.581 42.4768H337.95C335.892 42.4768 333.892 43.24 331.97 44.747C331.458 45.1624 330.917 45.6164 330.231 46.0028C321.44 52.6588 311.326 57.1992 299.443 59.8172V328.202C299.443 329.483 298.934 330.711 298.029 331.617C297.123 332.523 295.894 333.032 294.613 333.032H74.8202C64.8024 354.671 58.7647 378.445 56.8712 403.756C56.3302 410.527 59.2284 417.097 64.4353 420.912C75.9698 429.317 96.0827 441.431 126.262 451.333C126.552 451.43 126.841 451.545 127.112 451.7Z" fill="black"/>
<path d="M440.049 106.273L426.786 167.771C426.12 170.948 424.378 173.797 421.854 175.837C419.329 177.878 416.178 178.983 412.933 178.968H364.486L344.296 234.235H139.457L119.267 178.968H70.8103C64.1157 178.968 58.3484 174.35 56.9573 167.771L43.6936 106.273C43.0272 103.141 43.4394 99.8743 44.8634 97.0052C46.2875 94.1362 48.6396 91.8327 51.5379 90.4691L155.387 41.4234V41.3075L160.352 38.9986C162.313 38.0809 164.274 37.6172 166.467 37.6172H174.08C175.819 37.6172 177.538 37.965 179.045 38.6508C180.543 39.2305 181.808 39.926 183.083 40.9693C199.467 54.0108 219.194 57.8074 241.818 57.8074C263.97 57.8074 283.242 54.233 299.394 41.8871C299.858 41.6552 300.196 41.3074 300.66 40.9597C303.316 38.8827 306.321 37.6172 309.663 37.6172H317.276C319.468 37.6172 321.43 38.0809 323.391 38.9986L323.622 39.1145L432.205 90.4691C438.204 93.3479 441.44 99.8107 440.049 106.273Z" fill="#DDDDDD"/>
<path d="M344.276 239.065H139.467C138.476 239.066 137.51 238.763 136.698 238.196C135.885 237.629 135.267 236.826 134.926 235.897L115.895 183.798H70.8105C61.7297 183.798 54.098 177.615 52.2336 168.776L38.9699 107.298C38.0776 103.103 38.626 98.7304 40.5262 94.8862C42.4264 91.0419 45.5675 87.9508 49.4417 86.1124L152.489 37.4531C152.759 37.2456 153.051 37.0675 153.358 36.9218L158.314 34.6226C160.922 33.3861 163.608 32.7871 166.468 32.7871H174.08C176.553 32.7871 178.968 33.2991 181.074 34.2748C182.832 34.9317 184.542 35.9171 186.136 37.2212C199.815 48.1085 217.001 52.9773 241.809 52.9773C266.095 52.9773 282.952 48.379 296.458 38.052C296.477 38.0424 297.762 37.1053 297.771 37.086C301.128 34.3429 305.319 32.8265 309.654 32.7871H317.276C320.135 32.7871 322.811 33.3861 325.448 34.6322L434.272 86.0931C438.155 87.9257 441.305 91.0162 443.211 94.8634C445.117 98.7105 445.667 103.089 444.773 107.288L431.5 168.796C430.621 173.059 428.289 176.886 424.903 179.622C421.517 182.358 417.286 183.834 412.933 183.798H367.848L348.817 235.897C348.476 236.826 347.858 237.629 347.046 238.196C346.234 238.763 345.267 239.066 344.276 239.065ZM142.838 229.405H340.915L359.946 177.306C360.286 176.376 360.905 175.574 361.717 175.007C362.529 174.44 363.496 174.137 364.486 174.138H412.942C417.405 174.138 421.154 171.114 422.062 166.786L435.335 105.269C435.769 103.194 435.49 101.033 434.543 99.1362C433.596 97.2394 432.037 95.7174 430.119 94.8164L321.555 43.4811C320.231 42.8027 318.764 42.4484 317.276 42.4475H309.663C307.606 42.4475 305.635 43.201 303.635 44.766C302.92 45.3456 302.35 45.8093 301.558 46.215C287.019 57.4211 268.356 62.6377 241.809 62.6377C214.663 62.6377 195.632 57.1216 180.079 44.7467C179.255 44.0648 178.321 43.5289 177.316 43.1624C176.303 42.6905 175.198 42.4465 174.08 42.4475H166.468C165.018 42.4475 163.763 42.7373 162.41 43.3652L158.266 45.2973C158.014 45.4898 157.742 45.6549 157.454 45.79L53.6053 94.8357C51.6926 95.7377 50.1395 97.2578 49.1966 99.1506C48.2537 101.044 47.9759 103.199 48.408 105.269L61.6814 166.757C62.5991 171.104 66.3474 174.138 70.8105 174.138H119.267C120.257 174.137 121.224 174.44 122.036 175.007C122.848 175.574 123.467 176.376 123.807 177.306L142.838 229.405Z" fill="black"/>
<path d="M299.376 41.8481C297.256 56.234 290.026 69.3753 279.01 78.8664C267.993 88.3575 253.926 93.5634 239.385 93.5311C224.301 93.528 209.759 87.9056 198.595 77.7605C187.432 67.6154 180.449 53.6755 179.008 38.6602C180.553 39.2398 181.809 39.916 183.065 40.9786C199.488 54.0202 219.195 57.7877 241.8 57.7877C263.923 57.7877 283.243 54.2134 299.376 41.8481Z" fill="#283E42"/>
<path d="M239.384 98.3621C223.075 98.4389 207.329 92.3953 195.26 81.4256C183.19 70.4558 175.674 55.3579 174.196 39.115C174.121 38.2987 174.254 37.4765 174.584 36.7258C174.913 35.9751 175.428 35.3204 176.08 34.8231C176.732 34.3258 177.499 34.0022 178.31 33.8827C179.121 33.7632 179.949 33.8517 180.717 34.1399C182.9 34.9611 184.591 35.9368 186.194 37.3085C199.796 48.0992 216.992 52.9584 241.8 52.9584C266.105 52.9584 282.953 48.3504 296.439 38.0138C297.201 37.429 298.121 37.0851 299.08 37.0258C300.039 36.9666 300.994 37.1948 301.823 37.6812C302.652 38.1677 303.316 38.8903 303.732 39.7566C304.148 40.6229 304.296 41.5936 304.157 42.5445C299.559 74.3658 271.708 98.3621 239.384 98.3621ZM185.885 48.9783C189.303 60.4979 196.365 70.5981 206.012 77.7625C215.658 84.9268 227.369 88.7687 239.384 88.7114C250.745 88.6778 261.827 85.1978 271.167 78.7313C280.508 72.2647 287.666 63.1161 291.695 52.4947C278.441 59.4501 262.521 62.6381 241.8 62.6381C217.948 62.6381 200.357 58.3875 185.885 48.9783Z" fill="black"/>
<path d="M323.39 38.9991C321.483 38.0806 319.392 37.6082 317.275 37.6176H309.663C306.32 37.6176 303.316 38.8831 300.659 40.9601C300.196 41.3079 299.858 41.6557 299.394 41.8875C297.263 56.271 290.028 69.4078 279.012 78.8985C267.996 88.3892 253.934 93.6004 239.393 93.5802C224.305 93.5686 209.762 87.9347 198.604 77.7784C187.445 67.6221 180.472 53.6721 179.045 38.6513C177.483 37.9554 175.79 37.6029 174.08 37.6176H166.467C164.274 37.6176 162.313 38.0813 160.352 38.9991L155.387 41.3176V41.4238C157.489 62.2407 167.247 81.5351 182.769 95.5648C198.291 109.594 218.471 117.36 239.393 117.354C283.928 117.354 320.512 82.8475 323.632 39.115L323.39 38.9991Z" fill="#5AE4A7"/>
<path d="M239.384 122.184C217.246 122.258 195.877 114.071 179.454 99.2246C163.032 84.3782 152.738 63.9399 150.586 41.9065C150.483 40.893 150.693 39.8723 151.187 38.9814C151.681 38.0904 152.435 37.3717 153.349 36.9218L158.314 34.6226C160.923 33.3861 163.608 32.7871 166.468 32.7871H174.08C176.553 32.7871 178.968 33.2991 181.074 34.2748C181.841 34.6295 182.502 35.1792 182.99 35.8692C183.479 36.5591 183.777 37.3651 183.856 38.2066C185.102 52.054 191.498 64.93 201.78 74.2888C212.062 83.6476 225.481 88.808 239.384 88.7497C266.916 88.7497 290.662 68.3083 294.613 41.1916C294.725 40.4216 295.022 39.69 295.477 39.0593C295.933 38.4285 296.535 37.9173 297.231 37.569C301.385 34.2555 305.423 32.7871 309.663 32.7871H317.276C320.135 32.7871 322.811 33.3861 325.449 34.6322L325.516 34.6612L325.748 34.7771C326.613 35.2004 327.332 35.8726 327.812 36.7075C328.293 37.5424 328.512 38.5018 328.443 39.4624C325.13 85.8419 286.025 122.184 239.384 122.184ZM160.565 44.225C165.927 83.2143 199.323 112.524 239.394 112.524C279.707 112.524 313.73 82.0647 318.454 42.5151C318.063 42.4682 317.67 42.4456 317.276 42.4475H309.663C307.673 42.4475 305.77 43.1527 303.848 44.6114C298.342 75.428 271.003 98.4197 239.384 98.4197C223.653 98.4897 208.427 92.8616 196.524 82.5758C184.62 72.29 176.843 58.0423 174.631 42.4668C174.447 42.4533 174.264 42.4469 174.08 42.4475H166.468C165.019 42.4475 163.763 42.7373 162.41 43.3652L160.565 44.225Z" fill="black"/>
<path d="M459.931 403.418C460.539 411.716 457.11 419.879 450.396 424.796C439.306 432.93 414.102 445.508 382.483 455.912V456.009C360.332 463.36 332.607 469.678 298.854 472.605C279.129 474.286 259.323 474.789 239.539 474.112C217.957 474.769 198.154 474.209 180.147 472.605C146.384 469.678 118.765 463.36 96.5072 456.009V455.912C64.8985 445.508 44.3895 432.92 33.309 424.806C26.5854 419.879 23.1463 411.706 23.7742 403.398C33.2704 276.171 139.506 234.235 139.506 234.235H344.277C344.277 234.235 450.512 276.19 459.931 403.418Z" fill="#5AE4A7"/>
<path d="M222.073 479.212C207.937 479.233 193.806 478.634 179.722 477.415C149.302 474.788 120.794 469.107 95.0007 460.587C94.6979 460.489 94.4065 460.36 94.1312 460.2C62.9089 449.844 42.284 437.373 30.45 428.708C22.4802 422.853 18.1814 413.251 18.9542 403.04C28.5663 274.296 136.637 230.167 137.729 229.742C138.294 229.517 138.897 229.402 139.506 229.404H344.277C344.886 229.404 345.485 229.52 346.055 229.742C347.146 230.167 455.217 274.306 464.742 403.05C465.515 413.27 461.206 422.853 453.246 428.688C443.035 436.185 419.029 448.898 384.831 460.22C384.571 460.371 384.296 460.494 384.01 460.587C358.352 469.107 329.844 474.768 299.269 477.415C280.644 479.067 260.483 479.579 239.394 478.932C233.569 479.115 227.783 479.212 222.073 479.212ZM98.8745 451.69C123.74 459.833 151.214 465.243 180.563 467.793C200.127 469.449 219.772 469.942 239.394 469.271C260.367 469.909 280.151 469.397 298.429 467.793C327.932 465.233 355.425 459.824 380.146 451.69C380.41 451.539 380.688 451.416 380.977 451.323C412.392 440.986 437.046 428.592 447.537 420.892C452.792 417.047 455.623 410.643 455.111 403.764C446.474 286.98 352.991 243.286 343.301 239.065H140.482C130.802 243.277 37.3089 286.961 28.5856 403.755C28.0736 410.633 30.9041 417.047 36.1593 420.912C47.5392 429.239 67.5072 441.285 98.0147 451.323C98.3134 451.414 98.6016 451.537 98.8745 451.69Z" fill="black"/>
<path d="M222.074 479.212C207.937 479.233 193.806 478.634 179.722 477.415C149.302 474.788 120.794 469.107 95.0009 460.587C94.0343 460.269 93.1926 459.655 92.5959 458.831C91.9991 458.007 91.6778 457.015 91.6777 455.998C101.599 289.125 166.922 232.843 169.695 230.525C170.562 229.801 171.656 229.404 172.786 229.404H306.206C307.346 229.404 308.428 229.8 309.297 230.525C312.079 232.843 377.403 289.125 387.305 455.621L387.314 455.911V456.008C387.314 457.021 386.994 458.009 386.401 458.83C385.808 459.652 384.972 460.267 384.01 460.587C358.352 469.107 329.845 474.768 299.27 477.415C280.644 479.067 260.483 479.579 239.395 478.932C233.569 479.115 227.783 479.212 222.074 479.212ZM101.551 452.549C125.702 460.22 152.268 465.34 180.563 467.793C200.127 469.449 219.772 469.942 239.395 469.271C260.367 469.909 280.152 469.397 298.429 467.793C326.869 465.33 353.426 460.21 377.441 452.569C367.878 305.828 313.239 247.624 304.332 239.074H174.66C165.754 247.624 111.114 305.828 101.541 452.559L101.551 452.549Z" fill="black"/>
<path d="M222.073 479.212C207.937 479.233 193.806 478.634 179.722 477.415C178.506 477.308 177.376 476.744 176.558 475.837C175.741 474.93 175.298 473.748 175.317 472.527C177.945 294.139 206.472 234.544 207.679 232.1C208.077 231.291 208.694 230.611 209.459 230.134C210.223 229.658 211.106 229.405 212.007 229.404H267.071C267.974 229.403 268.859 229.655 269.625 230.132C270.392 230.608 271.01 231.29 271.409 232.1C272.616 234.544 301.153 294.138 303.684 472.546C303.699 473.764 303.253 474.942 302.436 475.844C301.619 476.747 300.492 477.308 299.279 477.415C280.634 479.067 260.483 479.579 239.394 478.932C233.569 479.115 227.783 479.212 222.073 479.212ZM185.045 468.161C202.076 469.494 220.325 469.861 239.394 469.271C257.588 469.897 275.803 469.526 293.956 468.161C291.377 315.72 269.264 252.251 263.912 239.065H215.195C209.843 252.328 187.692 316.193 185.045 468.161Z" fill="black"/>
<path d="M239.403 244.214C239.403 244.214 182.929 278.46 170.689 265.312C165.009 259.216 182.697 242.571 182.697 234.234C182.697 225.907 165.009 209.262 170.689 203.167C182.929 190.019 239.403 224.265 239.403 224.265V244.214Z" fill="#283E42"/>
<path d="M179.732 273.04C174.477 273.04 170.072 271.746 167.155 268.597C161.358 262.375 167.087 253.352 172.149 245.392C174.564 241.586 177.868 236.389 177.868 234.235C177.868 232.08 174.564 226.893 172.149 223.086C167.087 215.126 161.349 206.104 167.145 199.873C181.008 184.986 227.87 211.61 241.916 220.13C242.626 220.562 243.211 221.169 243.618 221.894C244.024 222.618 244.236 223.435 244.235 224.265V244.214C244.236 245.044 244.024 245.861 243.618 246.585C243.211 247.309 242.626 247.917 241.916 248.348C230.845 255.062 199.343 273.04 179.732 273.04ZM179.52 204.857C177.056 204.857 175.24 205.36 174.216 206.451C174.042 208.065 178.119 214.469 180.302 217.908C184.022 223.753 187.528 229.279 187.528 234.235C187.528 239.19 184.022 244.716 180.302 250.561C178.119 254.009 174.052 260.414 174.4 262.346C179.79 267.978 209.39 256.376 234.584 241.48V226.999C214.007 214.827 190.475 204.857 179.52 204.857Z" fill="black"/>
<path d="M239.607 244.214C239.607 244.214 296.082 278.46 308.331 265.312C314.002 259.216 296.314 242.571 296.314 234.234C296.314 225.907 314.002 209.262 308.331 203.167C296.082 190.019 239.607 224.265 239.607 224.265V244.214Z" fill="#283E42"/>
<path d="M299.28 273.04C279.669 273.04 248.176 255.063 237.106 248.349C236.394 247.918 235.807 247.311 235.399 246.587C234.991 245.862 234.777 245.045 234.777 244.214V224.265C234.776 223.435 234.988 222.618 235.395 221.894C235.801 221.17 236.387 220.562 237.096 220.131C251.142 211.61 298.024 185.005 311.867 199.873C317.663 206.104 311.925 215.127 306.863 223.087C304.448 226.893 301.144 232.09 301.144 234.235C301.144 236.379 304.448 241.596 306.863 245.392C311.925 253.353 317.663 262.375 311.858 268.606C308.94 271.746 304.535 273.04 299.28 273.04ZM244.438 241.48C269.622 256.367 299.231 267.998 304.796 262.018C304.97 260.414 300.903 254.01 298.71 250.58C294.99 244.716 291.484 239.2 291.484 234.235C291.484 229.269 294.99 223.753 298.71 217.909C300.903 214.46 304.97 208.065 304.612 206.123C299.231 200.52 269.622 212.112 244.428 226.999L244.438 241.48Z" fill="black"/>
<path d="M239.509 251.943C249.721 251.943 257.999 243.665 257.999 233.453C257.999 223.241 249.721 214.963 239.509 214.963C229.298 214.963 221.02 223.241 221.02 233.453C221.02 243.665 229.298 251.943 239.509 251.943Z" fill="#22373A"/>
<path d="M239.51 256.773C226.652 256.773 216.189 246.301 216.189 233.443C216.189 220.585 226.652 210.133 239.51 210.133C252.368 210.133 262.82 220.585 262.82 233.443C262.82 246.301 252.368 256.773 239.51 256.773ZM239.51 219.793C231.975 219.793 225.85 225.918 225.85 233.443C225.85 240.969 231.975 247.103 239.51 247.103C243.068 247.008 246.449 245.528 248.933 242.978C251.416 240.427 252.806 237.008 252.806 233.448C252.806 229.888 251.416 226.469 248.933 223.918C246.449 221.368 243.068 219.888 239.51 219.793Z" fill="black"/>
</svg>
