<svg width="512" height="512" viewBox="0 0 512 512" fill="none" xmlns="http://www.w3.org/2000/svg">
<mask id="mask0_301_2317" style="mask-type:luminance" maskUnits="userSpaceOnUse" x="0" y="0" width="512" height="512">
<path d="M0 0.00149536H511.999V512H0V0.00149536Z" fill="white"/>
</mask>
<g mask="url(#mask0_301_2317)">
<path d="M211.921 58.4648C211.921 86.6118 189.103 109.43 160.957 109.43C132.81 109.43 109.992 86.6118 109.992 58.4648C109.992 30.3179 132.81 7.50098 160.957 7.50098C189.103 7.50098 211.921 30.3179 211.921 58.4648Z" fill="#FB879E"/>
<path d="M184.414 58.4649C184.414 71.4218 173.91 81.9258 160.953 81.9258C147.996 81.9258 137.492 71.4218 137.492 58.4649C137.492 45.5079 147.996 35.0039 160.953 35.0039C173.91 35.0039 184.414 45.5079 184.414 58.4649Z" fill="#FB747E"/>
<path d="M300.078 58.4648C300.078 86.6118 322.896 109.43 351.043 109.43C379.189 109.43 402.007 86.6118 402.007 58.4648C402.007 30.3179 379.189 7.50098 351.043 7.50098C322.896 7.50098 300.078 30.3179 300.078 58.4648Z" fill="#FB879E"/>
<path d="M327.582 58.4649C327.582 71.4218 338.086 81.9258 351.043 81.9258C364 81.9258 374.504 71.4218 374.504 58.4649C374.504 45.5079 364 35.0039 351.043 35.0039C338.086 35.0039 327.582 45.5079 327.582 58.4649Z" fill="#FB747E"/>
<path d="M271.906 424.215C273.592 438.912 277.07 454.868 280.625 468.654L324.915 486.577L369.204 468.654C382.447 393.339 364.825 335.609 364.825 335.609L388.018 357.019L423.297 345.505L451.126 314.382C423.903 236.528 369.301 198.657 369.301 198.657H142.697C142.697 198.657 88.095 236.528 60.8711 314.382L88.7 345.505L123.979 357.019L147.173 335.609C147.173 335.609 129.55 393.339 142.794 468.654L187.083 486.577L231.372 468.654C234.928 454.868 238.406 438.912 240.091 424.215H271.906Z" fill="#FB879E"/>
<path d="M369.301 198.656H142.697C142.697 198.656 133.05 205.349 119.844 218.886C147.429 263.86 198.131 294.077 255.999 294.077C313.867 294.077 364.569 263.86 392.154 218.886C378.949 205.349 369.301 198.656 369.301 198.656Z" fill="#FB747E"/>
<path d="M271.906 244.849H240.09V424.214H271.906V244.849Z" fill="#E4E7EB"/>
<path d="M240.09 293.308C250.67 294.335 261.325 294.335 271.906 293.308V244.85H240.09V293.308Z" fill="#CACFD7"/>
<path d="M384.204 141.039C384.204 208.992 326.804 264.078 255.999 264.078C185.193 264.078 127.793 208.992 127.793 141.039C127.793 73.0867 185.193 18.0009 255.999 18.0009C326.804 18.0009 384.204 73.0867 384.204 141.039Z" fill="#FBA0AE"/>
<path d="M340.608 140.793C340.566 127.857 329.895 117.465 316.959 117.465H195.04C182.104 117.465 171.433 127.857 171.391 140.793V141.039C171.391 184.844 209.346 220.48 255.999 220.48C302.653 220.48 340.608 184.844 340.608 141.039V140.793Z" fill="#FB747E"/>
<path d="M123.979 357.019L108.537 371.28C105.201 374.362 100.921 376.227 96.3921 376.569C91.8632 376.912 87.3513 375.714 83.5896 373.169L62.3057 358.782C55.3007 354.054 51.9677 345.442 54.0217 337.236C55.9545 329.517 58.2402 321.891 60.8717 314.382L123.979 357.019Z" fill="#7EB8FF"/>
<path d="M449.693 358.781L428.408 373.168C424.647 375.713 420.135 376.911 415.606 376.568C411.077 376.226 406.797 374.362 403.461 371.279L388.02 357.018L451.127 314.38C453.759 321.89 456.044 329.516 457.976 337.235C460.03 345.441 456.697 354.053 449.693 358.781Z" fill="#7EB8FF"/>
<path d="M231.371 468.654C229.512 475.866 227.506 483.04 225.355 490.171C224.106 494.315 221.556 497.946 218.081 500.527C214.607 503.108 210.394 504.501 206.066 504.5H166.664C157.334 504.5 149.274 498.086 147.065 489.028C145.42 482.285 143.995 475.49 142.793 468.654H231.371Z" fill="#7EB8FF"/>
<path d="M369.203 468.654C368 475.49 366.576 482.285 364.931 489.028C362.722 498.086 354.661 504.5 345.332 504.5H305.93C301.602 504.501 297.389 503.108 293.914 500.527C290.44 497.946 287.89 494.315 286.641 490.171C284.49 483.04 282.484 475.866 280.625 468.654H369.203Z" fill="#7EB8FF"/>
<path d="M192.052 341.256C184.172 341.257 177.701 334.957 177.529 327.04C176.511 280.203 189.53 245.083 190.085 243.61C192.915 236.1 201.297 232.306 208.808 235.136C216.311 237.963 220.105 246.332 217.291 253.837C217.109 254.328 205.7 285.582 206.587 326.408C206.761 334.432 200.398 341.078 192.374 341.252C192.267 341.255 192.16 341.256 192.052 341.256Z" fill="#E4E7EB"/>
<path d="M319.945 341.256C327.825 341.257 334.296 334.957 334.468 327.04C335.486 280.203 322.467 245.083 321.912 243.61C319.082 236.1 310.7 232.306 303.189 235.136C295.686 237.963 291.892 246.332 294.706 253.837C294.888 254.328 306.297 285.582 305.41 326.408C305.236 334.432 311.599 341.078 319.623 341.252C319.73 341.255 319.838 341.256 319.945 341.256Z" fill="#E4E7EB"/>
<path d="M267.505 68.5302H244.491C239.919 68.5302 238.639 74.7921 242.838 76.6001C246.838 78.3241 251.297 79.2861 255.998 79.2861C260.699 79.2861 265.157 78.3241 269.158 76.6011C273.356 74.7921 272.077 68.5302 267.505 68.5302Z" fill="black"/>
</g>
</svg>
