<svg width="512" height="512" viewBox="0 0 512 512" fill="none" xmlns="http://www.w3.org/2000/svg">
<path d="M466.85 87.0398L426.045 172.296L403.005 161.978C376.397 137.309 366.778 95.1853 378.026 42.0459L466.85 87.0398ZM45.1484 87.0398L85.9533 172.296L108.993 161.978C135.602 137.309 145.221 95.1853 133.973 42.0459L45.1484 87.0398Z" fill="#6BBEEB"/>
<path d="M108.992 161.978V231.098H124.042L193.938 112.174H317.904L387.877 231.098H402.927V161.978C375.698 136.688 366.233 93.0133 378.801 38.012L326.282 15.4375C298.665 60.2763 208.987 60.6642 185.559 15.4375L133.118 38.012C145.686 93.0133 136.299 136.688 108.992 161.978Z" fill="#F1F3F6"/>
<path d="M461.187 452.577C425.347 479.263 380.353 493.304 327.602 496.562L293.236 414.487C268.489 420.46 243.82 420.46 218.996 414.565H218.918L184.242 496.562C131.49 493.304 86.4963 479.263 50.6562 452.577C54.2247 377.639 72.8429 303.864 103.02 231.02H123.965L193.939 112.097H317.905L387.801 231.02H408.746C439.078 303.942 457.619 377.639 461.187 452.577Z" fill="#6BBEEB"/>
<path d="M115.432 262.361C115.432 267.559 119.621 271.826 124.818 271.826C130.016 271.826 134.283 267.559 134.283 262.361C134.283 257.164 130.016 252.975 124.818 252.975C119.621 252.975 115.432 257.164 115.432 262.361Z" fill="#323535"/>
<path d="M133.972 264.611C132.964 268.722 129.24 271.825 124.818 271.825C119.621 271.825 115.432 267.559 115.432 262.361C115.432 257.939 118.457 254.216 122.569 253.207C122.413 253.905 122.336 254.681 122.336 255.457C122.336 260.654 126.525 264.921 131.723 264.921C132.576 264.921 133.274 264.843 133.972 264.611Z" fill="#252B2B"/>
<path d="M101.701 300.295C101.701 305.492 105.89 309.759 111.088 309.759C116.285 309.759 120.552 305.492 120.552 300.295C120.552 295.097 116.285 290.908 111.088 290.908C105.89 290.908 101.701 295.097 101.701 300.295Z" fill="#323535"/>
<path d="M120.242 302.624C119.685 304.857 118.33 306.809 116.431 308.111C114.533 309.412 112.223 309.972 109.939 309.686C107.655 309.399 105.556 308.285 104.038 306.555C102.52 304.825 101.689 302.598 101.701 300.297C101.701 295.875 104.727 292.151 108.838 291.143C108.683 291.918 108.606 292.694 108.606 293.47C108.606 298.667 112.795 302.934 117.992 302.934C118.768 302.857 119.544 302.779 120.242 302.624Z" fill="#252B2B"/>
<path d="M396.566 262.361C396.566 267.559 392.377 271.826 387.179 271.826C381.982 271.826 377.715 267.559 377.715 262.361C377.715 257.164 381.982 252.975 387.179 252.975C392.377 252.975 396.566 257.164 396.566 262.361Z" fill="#323535"/>
<path d="M396.255 264.689C395.247 268.8 391.601 271.826 387.179 271.826C381.982 271.826 377.715 267.559 377.715 262.362C377.715 257.94 380.74 254.216 384.852 253.285C384.697 253.983 384.619 254.759 384.619 255.535C384.619 260.732 388.886 264.999 394.083 264.999C394.782 264.922 395.48 264.844 396.255 264.689Z" fill="#252B2B"/>
<path d="M410.298 300.295C410.298 305.492 406.109 309.759 400.912 309.759C395.714 309.759 391.447 305.492 391.447 300.295C391.447 295.097 395.714 290.908 400.912 290.908C406.109 290.908 410.298 295.097 410.298 300.295Z" fill="#323535"/>
<path d="M409.988 302.624C408.979 306.735 405.333 309.761 400.912 309.761C395.714 309.761 391.447 305.494 391.447 300.297C391.447 295.875 394.473 292.151 398.584 291.143C398.429 291.841 398.352 292.617 398.352 293.392C398.352 298.59 402.541 302.857 407.816 302.857C408.514 302.857 409.29 302.779 409.988 302.624Z" fill="#252B2B"/>
<path d="M323.18 202.938V229.702L255.999 262.362L188.818 229.702V202.938H323.18Z" fill="#F1F3F6"/>
<path d="M188.818 229.701L255.999 262.361L323.18 229.701V293.081L255.999 325.74L188.818 293.081V229.701Z" fill="#FF9A9A"/>
<path d="M255.999 422.71C237.769 422.71 219.539 419.607 201.386 413.479C200.922 413.321 200.494 413.073 200.127 412.75C199.759 412.427 199.458 412.034 199.242 411.595C199.026 411.155 198.899 410.678 198.867 410.189C198.836 409.7 198.901 409.21 199.059 408.747C199.216 408.283 199.464 407.855 199.787 407.488C200.111 407.12 200.503 406.819 200.943 406.603C201.382 406.387 201.86 406.26 202.348 406.228C202.837 406.197 203.327 406.262 203.791 406.42C238.389 418.211 273.531 418.211 308.208 406.42C310.147 405.721 312.319 406.807 312.94 408.747C313.638 410.686 312.552 412.858 310.613 413.479C292.46 419.685 274.229 422.71 255.999 422.71Z" fill="black"/>
<path d="M327.679 500.364C326.205 500.364 324.809 499.433 324.188 498.036L291.063 418.909C267.946 424.029 244.518 424.029 221.323 418.987L187.888 498.114C187.267 499.588 185.871 500.519 184.164 500.441C129.395 497.028 83.7809 481.978 48.5615 455.68C47.553 454.904 47.01 453.741 47.0875 452.499C50.5009 380.664 68.2657 305.726 99.7615 229.702C100.305 228.305 101.701 227.374 103.252 227.374H122.026L190.913 110.313C191.249 109.747 191.725 109.278 192.296 108.952C192.867 108.625 193.513 108.453 194.171 108.451H318.137C319.456 108.451 320.697 109.149 321.395 110.313L390.205 227.374H408.978C410.53 227.374 411.849 228.305 412.469 229.702C443.965 305.726 461.652 380.742 465.066 452.499C465.093 453.109 464.974 453.716 464.717 454.27C464.461 454.823 464.075 455.307 463.592 455.68C428.372 481.901 382.758 496.95 328.067 500.441C327.834 500.364 327.757 500.364 327.679 500.364ZM54.69 450.793C87.97 474.996 130.792 489.115 181.992 492.684L215.582 413.168C216.28 411.539 218.22 410.531 219.926 410.996C244.052 416.737 268.411 416.659 292.382 410.919C294.166 410.453 296.028 411.384 296.726 413.091L330.006 492.684C381.206 489.115 424.028 474.996 457.308 450.793C453.74 380.276 437.061 309.605 406.341 234.822H387.878C387.22 234.82 386.574 234.647 386.003 234.321C385.432 233.995 384.955 233.526 384.62 232.96L315.81 115.898H196.188L127.301 232.96C126.965 233.526 126.489 233.995 125.918 234.321C125.346 234.647 124.7 234.82 124.043 234.822H105.657C75.4027 308.519 58.2584 381.207 54.69 450.793ZM426.045 176.019C425.502 176.019 425.037 175.942 424.494 175.709L401.454 165.391C401.072 165.232 400.729 164.994 400.445 164.693C372.285 138.55 363.054 94.7199 374.302 41.2702C374.535 40.1066 375.311 39.1757 376.319 38.6326C377.405 38.0896 378.569 38.1672 379.655 38.6326L468.557 83.6266C470.418 84.5575 471.117 86.7296 470.263 88.5914L429.458 173.847C429.159 174.5 428.678 175.052 428.073 175.437C427.467 175.823 426.763 176.025 426.045 176.019ZM405.1 158.797L424.261 167.331L461.885 88.7466L380.741 47.6314C371.509 95.9611 380.12 135.292 405.1 158.797ZM85.953 176.019C85.2373 176.015 84.5372 175.809 83.9333 175.425C83.3295 175.041 82.8464 174.494 82.5397 173.847L41.7348 88.669C41.31 87.7832 41.2509 86.7658 41.5703 85.8367C41.8896 84.9076 42.5618 84.1416 43.4415 83.7042L132.343 38.7102C133.352 38.1672 134.593 38.1672 135.679 38.7102C136.765 39.2533 137.463 40.1842 137.696 41.3478C149.022 94.8751 139.713 138.705 111.553 164.771C111.27 165.072 110.926 165.31 110.545 165.469L87.5045 175.787C86.9615 175.942 86.4184 176.019 85.953 176.019ZM50.113 88.7466L87.7372 167.331L106.898 158.797C131.878 135.292 140.489 95.9611 131.257 47.6314L50.113 88.7466Z" fill="black"/>
<path d="M71.2134 99.6849C69.817 99.6849 68.4982 98.9091 67.8776 97.5904C67.6514 97.1527 67.5141 96.6746 67.4736 96.1837C67.4331 95.6927 67.4902 95.1985 67.6416 94.7297C67.7931 94.261 68.0359 93.8268 68.356 93.4523C68.6761 93.0779 69.0672 92.7705 69.5067 92.5479L91.7709 81.2994C92.6581 80.8613 93.6812 80.7863 94.6228 81.0905C95.5644 81.3947 96.3502 82.0541 96.8134 82.9285C97.7443 84.7904 97.0461 87.0401 95.1843 87.971L72.92 99.297C72.377 99.5298 71.7564 99.6849 71.2134 99.6849ZM105.424 82.4631C104.028 82.4631 102.709 81.6873 102.089 80.3685C101.862 79.9309 101.725 79.4528 101.684 78.9618C101.644 78.4709 101.701 77.9767 101.853 77.5079C102.004 77.0391 102.247 76.605 102.567 76.2305C102.887 75.856 103.278 75.5487 103.718 75.3261L107.364 73.4643C108.251 73.0261 109.274 72.9512 110.216 73.2554C111.157 73.5596 111.943 74.219 112.406 75.0934C113.337 76.9552 112.639 79.2049 110.777 80.1358L107.131 81.9976C106.588 82.3079 106.045 82.4631 105.424 82.4631Z" fill="white"/>
<path d="M403.005 234.822H387.956C387.298 234.82 386.652 234.647 386.081 234.321C385.51 233.995 385.033 233.526 384.697 232.96L315.81 115.898H196.111L127.301 232.96C126.965 233.526 126.489 233.995 125.918 234.321C125.347 234.647 124.701 234.82 124.043 234.822H108.993C108.006 234.822 107.058 234.429 106.36 233.731C105.662 233.033 105.27 232.086 105.27 231.098V161.978C105.27 160.97 105.735 159.961 106.511 159.185C133.43 134.206 141.575 91.4617 129.551 38.7877C129.163 37.0035 130.094 35.2192 131.723 34.5211L184.242 11.9465C186.026 11.1708 188.12 11.9465 189.051 13.6532C198.671 32.1162 222.176 44.2956 250.414 45.3041C281.987 46.4677 310.613 33.978 323.257 13.4205C324.266 11.8689 326.205 11.1708 327.912 11.9465L380.431 34.5211C382.06 35.2192 382.991 37.0811 382.603 38.7877C370.501 91.4617 378.724 134.206 405.565 159.185C406.341 159.883 406.806 160.892 406.806 161.978V231.098C406.729 233.115 405.1 234.822 403.005 234.822ZM390.05 227.297H399.204V163.607C371.742 137.154 362.976 93.4786 374.535 40.1841L327.757 20.092C312.94 41.2702 282.685 54.0702 250.026 52.8289C220.159 51.7429 195.8 39.5635 184.009 20.1695L137.463 40.1841C148.945 93.4786 140.256 137.076 112.794 163.607V227.297H121.948L190.758 110.235C191.094 109.669 191.57 109.2 192.141 108.874C192.712 108.548 193.358 108.375 194.016 108.373H317.982C319.301 108.373 320.542 109.071 321.24 110.235L390.05 227.297Z" fill="black"/>
<path d="M302.699 144.679C313.017 149.178 325.119 144.291 329.463 133.896L371.276 34.6763L333.885 18.6182L291.994 118.07C287.65 128.388 292.382 140.257 302.699 144.679Z" fill="#FF9A9A"/>
<path d="M311.698 131.801C307.509 131.801 304.096 128.388 304.096 124.121C304.096 119.932 307.509 116.519 311.698 116.519C315.887 116.519 319.301 119.932 319.301 124.121C319.301 128.388 315.887 131.801 311.698 131.801ZM311.543 124.199C311.543 124.276 311.621 124.354 311.621 124.354L311.543 124.199ZM255.999 266.162C255.456 266.162 254.913 266.007 254.37 265.774L187.189 233.115C186.549 232.807 186.012 232.321 185.64 231.716C185.269 231.111 185.079 230.412 185.095 229.702V202.938C185.095 200.843 186.801 199.214 188.818 199.214H323.257C325.352 199.214 326.981 200.921 326.981 202.938V229.702C326.981 231.176 326.127 232.417 324.886 233.115L257.706 265.774C257.165 266.005 256.586 266.137 255.999 266.162ZM192.542 227.374L255.999 258.172L319.456 227.297V206.662H192.542V227.374Z" fill="black"/>
<path d="M255.999 329.463C255.456 329.463 254.913 329.308 254.37 329.075L187.189 296.416C186.549 296.108 186.012 295.622 185.64 295.017C185.269 294.412 185.079 293.713 185.095 293.003V229.623C185.1 228.985 185.266 228.358 185.578 227.8C185.889 227.242 186.336 226.772 186.876 226.432C187.417 226.092 188.035 225.893 188.672 225.855C189.31 225.816 189.947 225.938 190.525 226.21L255.999 258.171L321.55 226.288C322.128 226.016 322.765 225.893 323.403 225.932C324.041 225.971 324.658 226.169 325.199 226.509C325.74 226.849 326.186 227.32 326.498 227.877C326.809 228.435 326.975 229.062 326.981 229.701V293.08C326.981 294.554 326.127 295.795 324.886 296.494L257.706 329.153C257.085 329.386 256.542 329.463 255.999 329.463ZM192.542 290.753L255.999 321.551L319.456 290.753V235.752L257.628 265.774C256.619 266.317 255.378 266.317 254.37 265.774L192.542 235.752V290.753Z" fill="black"/>
<path d="M299.365 287.574C298.512 287.583 297.681 287.303 297.008 286.778C296.335 286.254 295.861 285.516 295.662 284.686C295.464 283.857 295.553 282.984 295.916 282.212C296.279 281.44 296.893 280.814 297.658 280.437L302.701 277.954C303.144 277.735 303.626 277.606 304.119 277.573C304.612 277.54 305.107 277.605 305.575 277.763C306.043 277.922 306.476 278.171 306.848 278.496C307.22 278.822 307.524 279.218 307.743 279.661C307.962 280.104 308.092 280.586 308.124 281.079C308.157 281.572 308.092 282.067 307.934 282.535C307.775 283.004 307.526 283.436 307.201 283.808C306.875 284.18 306.479 284.484 306.036 284.703L300.994 287.186C300.451 287.418 299.908 287.574 299.365 287.574ZM273.842 299.908C272.989 299.918 272.158 299.638 271.485 299.113C270.813 298.588 270.338 297.851 270.14 297.021C269.941 296.191 270.031 295.319 270.393 294.546C270.756 293.774 271.37 293.148 272.136 292.771L284.858 286.565C285.301 286.346 285.783 286.216 286.276 286.184C286.77 286.151 287.265 286.216 287.733 286.374C288.201 286.533 288.633 286.782 289.005 287.107C289.377 287.433 289.681 287.829 289.901 288.272C290.12 288.715 290.249 289.197 290.282 289.69C290.315 290.183 290.25 290.678 290.091 291.146C289.933 291.615 289.684 292.047 289.358 292.419C289.033 292.791 288.637 293.095 288.194 293.314L275.471 299.52C274.928 299.831 274.385 299.908 273.842 299.908ZM256 308.597C255.457 308.597 254.914 308.441 254.371 308.209L249.328 305.726C248.885 305.507 248.49 305.203 248.164 304.831C247.838 304.459 247.589 304.027 247.431 303.558C247.272 303.09 247.208 302.595 247.24 302.102C247.273 301.609 247.403 301.127 247.622 300.684C247.841 300.241 248.145 299.845 248.517 299.519C248.889 299.194 249.321 298.945 249.789 298.786C250.258 298.628 250.753 298.563 251.246 298.596C251.739 298.629 252.221 298.758 252.664 298.977L256 300.684L259.413 299.055C259.856 298.836 260.338 298.706 260.832 298.673C261.325 298.641 261.82 298.705 262.288 298.864C262.756 299.022 263.189 299.271 263.561 299.597C263.932 299.923 264.237 300.318 264.456 300.761C264.675 301.205 264.804 301.687 264.837 302.18C264.87 302.673 264.805 303.168 264.647 303.636C264.488 304.104 264.239 304.537 263.913 304.909C263.588 305.281 263.192 305.585 262.749 305.804L257.707 308.286C257.086 308.441 256.543 308.597 256 308.597ZM238.157 299.908C237.614 299.908 237.071 299.753 236.528 299.52L223.806 293.314C223.363 293.095 222.967 292.791 222.642 292.419C222.316 292.047 222.067 291.615 221.908 291.146C221.75 290.678 221.685 290.183 221.718 289.69C221.751 289.197 221.88 288.715 222.099 288.272C222.318 287.829 222.622 287.433 222.994 287.107C223.366 286.782 223.799 286.533 224.267 286.374C224.735 286.216 225.23 286.151 225.723 286.184C226.217 286.216 226.699 286.346 227.142 286.565L239.864 292.771C240.629 293.148 241.244 293.774 241.606 294.546C241.969 295.319 242.059 296.191 241.86 297.021C241.662 297.851 241.187 298.588 240.514 299.113C239.842 299.638 239.011 299.918 238.157 299.908ZM212.635 287.574C212.092 287.574 211.549 287.418 211.006 287.186L205.964 284.703C205.069 284.261 204.386 283.481 204.066 282.535C203.746 281.59 203.815 280.556 204.257 279.661C204.699 278.766 205.479 278.083 206.425 277.763C207.37 277.443 208.404 277.512 209.299 277.954L214.342 280.437C215.107 280.814 215.721 281.44 216.084 282.212C216.447 282.984 216.536 283.857 216.338 284.686C216.139 285.516 215.665 286.254 214.992 286.778C214.319 287.303 213.488 287.583 212.635 287.574Z" fill="white"/>
<path d="M387.103 275.549C379.811 275.549 373.915 269.653 373.915 262.361C373.915 255.069 379.811 249.173 387.103 249.173C394.395 249.173 400.291 255.069 400.291 262.361C400.291 269.653 394.395 275.549 387.103 275.549ZM387.103 256.698C384 256.698 381.44 259.258 381.44 262.361C381.44 265.464 384 268.024 387.103 268.024C390.206 268.024 392.766 265.464 392.766 262.361C392.766 259.18 390.283 256.698 387.103 256.698ZM400.911 313.561C393.619 313.561 387.723 307.665 387.723 300.373C387.723 293.081 393.619 287.185 400.911 287.185C408.203 287.185 414.099 293.081 414.099 300.373C414.022 307.587 408.126 313.561 400.911 313.561ZM400.911 294.71C397.808 294.71 395.248 297.27 395.248 300.373C395.248 303.476 397.808 306.036 400.911 306.036C404.014 306.036 406.574 303.476 406.574 300.373C406.566 298.874 405.967 297.438 404.907 296.378C403.846 295.317 402.411 294.718 400.911 294.71ZM124.897 275.549C117.605 275.549 111.709 269.653 111.709 262.361C111.709 255.069 117.605 249.173 124.897 249.173C132.189 249.173 138.085 255.069 138.085 262.361C138.085 269.653 132.111 275.549 124.897 275.549ZM124.897 256.698C121.716 256.698 119.234 259.18 119.234 262.361C119.234 265.464 121.794 268.024 124.897 268.024C128 268.024 130.56 265.464 130.56 262.361C130.56 259.258 128 256.698 124.897 256.698ZM111.088 313.561C103.796 313.561 97.9004 307.665 97.9004 300.373C97.9004 293.081 103.796 287.185 111.088 287.185C118.38 287.185 124.276 293.081 124.276 300.373C124.354 307.587 118.38 313.561 111.088 313.561ZM111.088 294.71C107.908 294.71 105.425 297.192 105.425 300.373C105.425 303.476 107.985 306.036 111.088 306.036C114.191 306.036 116.751 303.476 116.751 300.373C116.767 299.625 116.632 298.881 116.353 298.187C116.074 297.493 115.657 296.862 115.128 296.333C114.599 295.804 113.968 295.388 113.274 295.109C112.58 294.83 111.836 294.694 111.088 294.71ZM310.691 150.109C307.433 150.109 304.252 149.41 301.226 148.092C295.391 145.568 290.785 140.849 288.403 134.954C286.022 129.059 286.059 122.464 288.504 116.596L330.395 17.1438C330.783 16.2905 331.559 15.5147 332.49 15.1268C333.42 14.739 334.429 14.739 335.36 15.1268L372.674 31.185C374.536 32.0384 375.466 34.2105 374.691 36.0723L332.877 135.292C330.395 141.265 325.663 145.842 319.612 148.324C316.742 149.488 313.716 150.109 310.691 150.109ZM335.903 23.5826L295.486 119.544C293.803 123.579 293.779 128.115 295.42 132.167C297.062 136.22 300.235 139.461 304.252 141.187C308.286 142.972 312.785 142.972 316.974 141.343C321.163 139.714 324.344 136.533 326.128 132.421L366.468 36.6929L335.903 23.5826Z" fill="black"/>
<path d="M209.298 144.679C198.98 149.178 186.878 144.291 182.534 133.896L140.721 34.6763L178.035 18.6182L219.926 118.07C224.347 128.388 219.615 140.257 209.298 144.679Z" fill="#FF9A9A"/>
<path d="M200.3 131.801C196.111 131.801 192.697 128.388 192.697 124.121C192.697 119.932 196.111 116.519 200.3 116.519C204.489 116.519 207.902 119.932 207.902 124.121C207.98 128.388 204.566 131.801 200.3 131.801ZM200.3 124.043L200.377 124.121C200.455 124.121 200.377 124.043 200.3 124.043Z" fill="black"/>
<path d="M201.308 150.109C198.283 150.109 195.257 149.566 192.31 148.325C186.259 145.92 181.604 141.266 179.044 135.292L137.308 36.1504C136.533 34.211 137.386 32.0389 139.325 31.2632L176.639 15.205C177.57 14.8171 178.579 14.8171 179.51 15.205C180.44 15.5153 181.216 16.291 181.604 17.2219L223.495 116.674C228.615 128.853 222.874 142.972 210.773 148.17C207.747 149.411 204.489 150.109 201.308 150.109ZM145.686 36.6935L186.026 132.422C187.733 136.533 190.991 139.714 195.18 141.343C199.291 142.972 203.791 142.972 207.902 141.188C211.915 139.457 215.085 136.215 216.725 132.164C218.366 128.114 218.345 123.58 216.668 119.544L176.096 23.5832L145.686 36.6935Z" fill="black"/>
</svg>
