<svg width="512" height="512" viewBox="0 0 512 512" fill="none" xmlns="http://www.w3.org/2000/svg">
<path d="M357.33 224V420.78C357.33 424.03 354.69 426.67 351.44 426.67H160V213.33H197.33L255.97 319.78L315.21 223.67L315.31 224H357.33Z" fill="#E0CAA6"/>
<path d="M160 287.99C177.667 287.99 191.99 273.667 191.99 256C191.99 238.332 177.667 224.01 160 224.01C142.332 224.01 128.01 238.332 128.01 256C128.01 273.667 142.332 287.99 160 287.99Z" fill="#E0CAA6"/>
<path d="M103.319 436.919L110.209 421.359L117.089 405.799L72.3794 383.779L58.6094 414.899L103.319 436.919Z" fill="#B79F7B"/>
<path d="M67.1602 381.21L129.04 241.35L184.19 268.51L122.31 408.37L67.1602 381.21Z" fill="#E0CAA6"/>
<path d="M352 287.99C369.667 287.99 383.99 273.667 383.99 256C383.99 238.332 369.667 224.01 352 224.01C334.332 224.01 320.01 238.332 320.01 256C320.01 273.667 334.332 287.99 352 287.99Z" fill="#E0CAA6"/>
<path d="M408.569 436.919L401.679 421.359L394.799 405.799L439.509 383.779L453.279 414.899L408.569 436.919Z" fill="#B79F7B"/>
<path d="M444.729 381.21L382.849 241.35L327.699 268.51L389.579 408.37L444.729 381.21Z" fill="#E0CAA6"/>
<path d="M401.23 402.61L352 294.08V316.24L389.54 408.37L401.23 402.61Z" fill="#B79F7B"/>
<path d="M232.14 91.5999L188.11 138.05L166.1 114.82C153.93 101.98 153.93 81.0999 166.1 68.2599C172.09 61.8399 180.1 58.6299 188.11 58.6299C195.41 58.6299 202.92 61.4099 208.8 66.9799C209.21 67.4099 209.71 67.8399 210.12 68.2599L232.13 91.5899L232.14 91.5999ZM344.84 114.82L343.12 116.64L322.73 138.05L278.7 91.5999L300.71 68.2699C301.12 67.8399 301.62 67.4099 302.03 66.9899C307.91 61.4199 315.42 58.6399 322.83 58.6399C330.74 58.6399 338.76 61.8499 344.84 68.2699C356.91 81.1099 356.91 101.99 344.84 114.83V114.82Z" fill="#E0CAA6"/>
<path d="M232.139 91.5995L188.109 138.049L167.719 116.539C175.729 95.5595 190.339 78.0095 208.799 66.9795C209.209 67.4095 209.709 67.8395 210.119 68.2595L232.129 91.5895L232.139 91.5995ZM343.109 116.639L322.719 138.049L278.689 91.5995L300.699 68.2695C301.109 67.8395 301.609 67.4095 302.019 66.9895C320.479 78.1195 335.089 95.5695 343.099 116.649L343.109 116.639ZM326.779 223.999C303.449 270.769 269.669 318.619 264.089 326.539C262.159 329.219 259.119 330.819 255.969 330.819C252.819 330.819 249.779 329.209 247.849 326.539C242.169 318.729 207.979 270.879 184.249 223.999H196.629L255.969 320.109L315.209 223.999H326.769H326.779Z" fill="#B79F7B"/>
<path d="M171.17 153.55C171.17 202.64 255.94 319.76 255.94 319.76C255.94 319.76 339.66 202.64 339.66 153.55C339.66 104.46 301.94 64.6602 255.42 64.6602C208.89 64.6602 171.18 104.46 171.18 153.55H171.17Z" fill="#E0CAA6"/>
<path d="M170.67 437.33H341.34V456.61C341.34 457.74 340.42 458.66 339.29 458.66H172.72C171.59 458.66 170.67 457.74 170.67 456.61V437.33Z" fill="#B79F7B"/>
<path d="M266.669 456.37C260.769 456.37 255.999 453.85 255.999 450.74V310.3C255.999 309.32 277.329 303.99 277.329 303.99V450.73C277.329 453.84 272.559 456.36 266.659 456.36L266.669 456.37ZM255.739 274.3C232.359 239.27 206.799 194 206.799 175.48C206.799 147.2 228.609 124.18 255.419 124.18C282.229 124.18 304.039 147.19 304.039 175.48C304.039 194.01 278.829 239.27 255.739 274.3Z" fill="#B79F7B"/>
<path d="M101.33 442.67C100.47 442.67 99.6203 442.46 98.8503 442.06L56.1303 419.62C54.9327 418.991 54.0187 417.931 53.5731 416.654C53.1276 415.376 53.1838 413.977 53.7303 412.74L67.5003 381.62C67.7904 380.962 68.2113 380.371 68.7374 379.881C69.2634 379.391 69.8836 379.013 70.5603 378.77C71.9303 378.27 73.4303 378.36 74.7403 379L119.45 401.02C120.723 401.649 121.694 402.756 122.15 404.1C122.6 405.45 122.5 406.92 121.87 408.19L106.11 439.72C105.667 440.606 104.986 441.351 104.144 441.872C103.301 442.393 102.331 442.669 101.34 442.67H101.33ZM65.5003 412.5L98.9903 430.09L109.92 408.22L75.0103 391.02L65.5103 412.5H65.5003ZM408.57 442.25C407.95 442.25 407.34 442.14 406.75 441.93C406.075 441.684 405.457 441.305 404.931 440.816C404.405 440.326 403.983 439.736 403.69 439.08L389.92 407.96C389.361 406.702 389.311 405.276 389.781 403.982C390.251 402.688 391.204 401.626 392.44 401.02L437.15 379C438.45 378.36 439.96 378.28 441.33 378.77C442.7 379.27 443.8 380.3 444.39 381.63L458.16 412.75C459.32 415.37 458.21 418.43 455.64 419.69L410.93 441.71C410.19 442.07 409.38 442.26 408.57 442.26V442.25ZM401.75 408.32L411.2 429.68L446.33 412.37L436.88 391.01L401.75 408.32ZM256 325.33C254.29 325.33 252.68 324.51 251.68 323.12C248.18 318.27 165.84 203.79 165.84 153.55C165.84 103.31 206.02 59.3301 255.42 59.3301C304.82 59.3301 345 101.6 345 153.55C345 205.5 263.8 318.25 260.35 323.09C259.35 324.49 257.74 325.32 256.02 325.33H256ZM255.42 69.9901C211.91 69.9901 176.51 107.47 176.51 153.54C176.51 194.1 238.77 286.07 255.97 310.7C272.97 286.01 334.33 194.08 334.33 153.54C334.33 107.47 298.93 69.9901 255.42 69.9901Z" fill="black"/>
<path d="M357.33 224H320C317.05 224 314.67 221.61 314.67 218.67C314.67 215.73 317.06 213.34 320 213.34H357.33C360.28 213.34 362.66 215.73 362.66 218.67C362.66 221.61 360.27 224 357.33 224ZM357.33 373.33C354.38 373.33 352 370.94 352 368V293.33C352 290.38 354.39 288 357.33 288C360.27 288 362.66 290.39 362.66 293.33V368C362.66 370.95 360.27 373.33 357.33 373.33ZM351.22 437.33H160.78C154.47 437.33 149.33 432.31 149.33 426.15V272C149.33 269.05 151.72 266.67 154.66 266.67C157.6 266.67 159.99 269.06 159.99 272V426.15C159.99 426.37 160.29 426.67 160.77 426.67H351.2C351.69 426.67 351.98 426.37 351.98 426.15V400C351.98 397.05 354.37 394.67 357.31 394.67C360.25 394.67 362.64 397.06 362.64 400V426.15C362.64 432.32 357.5 437.33 351.19 437.33H351.22Z" fill="black"/>
<path d="M122.311 413.7C121.501 413.7 120.691 413.52 119.951 413.15L64.8011 385.99C62.2111 384.72 61.1111 381.62 62.3011 378.99L128.491 233.75C128.491 233.75 128.531 233.66 128.551 233.62C134.581 221.3 146.601 213.52 159.921 213.34H191.991C194.941 213.34 197.321 215.73 197.321 218.67C197.321 221.61 194.931 224 191.991 224H159.991C150.811 224.13 142.421 229.58 138.161 238.24L74.1511 378.7L119.691 401.13L149.791 333.81C150.991 331.12 154.151 329.92 156.841 331.12C159.531 332.32 160.731 335.48 159.531 338.17L127.171 410.54C126.75 411.48 126.067 412.278 125.203 412.839C124.339 413.4 123.331 413.699 122.301 413.7H122.311ZM248.001 314.67H264.001V448H248.001V314.67ZM255.741 279.63C253.961 279.63 252.291 278.74 251.301 277.26C242.981 264.79 201.461 201.3 201.461 175.48C201.461 144.25 225.661 118.85 255.411 118.85C285.161 118.85 309.371 144.25 309.371 175.48C309.371 201.32 268.401 264.77 260.191 277.23C259.706 277.965 259.046 278.568 258.272 278.987C257.497 279.405 256.632 279.626 255.751 279.63H255.731H255.741ZM255.421 129.52C231.551 129.52 212.131 150.14 212.131 175.48C212.131 189.02 229.461 224.3 255.711 264.57C281.621 224.32 298.711 189.04 298.711 175.48C298.711 150.14 279.291 129.52 255.421 129.52ZM335.131 130.31C334.002 130.313 332.902 129.956 331.99 129.29C331.079 128.625 330.403 127.686 330.061 126.61C323.501 106.23 309.961 89.5001 291.931 79.5101C291.22 79.1143 290.609 78.562 290.143 77.895C289.677 77.228 289.368 76.4638 289.241 75.6601C289.116 74.8561 289.178 74.0341 289.42 73.2574C289.663 72.4807 290.081 71.7701 290.641 71.1801L296.851 64.6301C303.751 57.3501 312.951 53.3401 322.751 53.3401C332.551 53.3401 341.751 57.3501 348.651 64.6301C362.721 79.4701 362.721 103.62 348.651 118.46L339.001 128.65C338.502 129.175 337.902 129.592 337.237 129.877C336.571 130.163 335.855 130.31 335.131 130.31ZM302.931 73.7101C318.051 83.6601 329.901 98.0001 337.141 115.1L340.911 111.12C351.141 100.33 351.141 82.7601 340.911 71.9601C336.041 66.8201 329.591 64.0001 322.751 64.0001C315.911 64.0001 309.461 66.8301 304.591 71.9601L302.931 73.7101ZM175.701 130.31C174.251 130.31 172.851 129.72 171.831 128.65L162.171 118.46C148.101 103.62 148.101 79.4701 162.171 64.6301C164.201 62.4901 167.571 62.4001 169.711 64.4301C171.851 66.4601 171.941 69.8301 169.911 71.9701C159.681 82.7701 159.681 100.33 169.911 111.13L173.681 115.11C180.931 98.0201 192.771 83.6701 207.891 73.7201L206.231 71.9701C200.201 65.6101 191.621 62.8101 183.271 64.4801C180.381 65.0601 177.571 63.1901 176.991 60.3001C176.411 57.4101 178.281 54.6001 181.171 54.0201C193.141 51.6201 205.401 55.5901 213.971 64.6301L220.181 71.1801C221.311 72.3801 221.831 74.0301 221.581 75.6601C221.331 77.2901 220.341 78.7101 218.901 79.5101C200.871 89.5001 187.331 106.23 180.771 126.61C180.486 127.49 179.978 128.282 179.296 128.908C178.615 129.533 177.783 129.972 176.881 130.18C176.491 130.27 176.091 130.31 175.701 130.31Z" fill="black"/>
<path d="M336 458.671H314.67C311.72 458.671 309.34 456.281 309.34 453.341C309.34 450.401 311.73 448.011 314.67 448.011H336C338.94 448.011 341.33 445.621 341.33 442.681V437.351H170.67V448.021H282.67C285.62 448.021 288 450.411 288 453.351C288 456.291 285.61 458.681 282.67 458.681H167.94C164.08 458.641 160.8 455.741 160.09 451.791L160.01 451.321V426.681H352.01V442.681C352.01 451.501 344.83 458.681 336.01 458.681L336 458.671ZM389.58 413.701C388.55 413.698 387.543 413.399 386.679 412.838C385.815 412.278 385.131 411.48 384.71 410.541L352.46 338.171C351.26 335.481 352.47 332.331 355.16 331.131C357.85 329.931 361 331.131 362.2 333.831L392.19 401.141L437.77 378.691L378.43 244.571C378.25 244.321 378.08 244.051 377.94 243.761C372.79 233.251 362.2 222.751 352.68 223.971C349.76 224.351 347.08 222.291 346.71 219.371C346.34 216.451 348.39 213.771 351.31 213.401C366.19 211.481 380.05 224.611 386.98 238.011C387.28 238.371 387.52 238.781 387.72 239.221L449.6 379.081C450.76 381.701 449.65 384.761 447.08 386.021L391.93 413.191C391.19 413.551 390.38 413.741 389.57 413.741L389.58 413.701Z" fill="black"/>
</svg>
