<svg width="512" height="512" viewBox="0 0 512 512" fill="none" xmlns="http://www.w3.org/2000/svg">
<mask id="mask0_301_2388" style="mask-type:luminance" maskUnits="userSpaceOnUse" x="0" y="0" width="512" height="512">
<path d="M0 0.00149536H511.999V512H0V0.00149536Z" fill="white"/>
</mask>
<g mask="url(#mask0_301_2388)">
<path d="M255.998 236.05L263.631 173.356H354.505C354.505 173.356 366.583 175.828 383.076 181.489C390.239 183.945 397.122 187.152 403.612 191.056L388.453 295.9C388.453 295.9 402.837 357.761 424.834 408.193C431.604 423.695 426.424 441.797 412.413 451.255C391.975 465.06 358.95 482.878 314.955 492.012L255.998 236.05Z" fill="#FB879E"/>
<path d="M344.957 484.026V294.761C344.975 277.33 339.575 260.324 329.504 246.097C319.432 231.869 305.188 221.124 288.742 215.348L293.414 176.981C293.561 175.771 293.625 174.561 293.625 173.355H263.633L256 236.05L314.957 492.012C325.097 489.906 335.112 487.24 344.957 484.026Z" fill="#FB747E"/>
<path d="M314.957 294.763V492.013C297.08 495.732 277.389 498.018 256 498.018C181.962 498.018 128.333 470.673 99.5855 451.256C85.5746 441.798 80.3946 423.696 87.1646 408.194C109.161 357.763 123.545 295.901 123.545 295.901L108.386 191.056C114.875 187.153 121.759 183.947 128.921 181.49C145.415 175.829 157.492 173.357 157.492 173.357H263.633L256 236.051L277.86 243.331C300.014 250.7 314.957 271.422 314.957 294.763Z" fill="#FB879E"/>
<path d="M157.493 173.355C157.493 173.355 152.292 174.42 144.054 176.752C131.651 180.263 119.484 184.376 108.387 191.055L112.909 222.332C117.725 218.124 122.905 214.35 128.387 211.055C134.876 207.152 141.759 203.946 148.922 201.489C165.415 195.828 177.493 193.355 177.493 193.355L157.493 173.355Z" fill="#FB747E"/>
<path d="M363.874 95.2912C343.672 49.5664 309.259 13.9845 256.001 13.9845C203.089 13.9845 168.191 49.8774 148.126 95.2912C143.989 104.655 141.852 114.78 141.852 125.017C141.852 135.254 143.989 145.379 148.126 154.743C168.34 200.497 202.701 236.051 256 236.051C309.118 236.051 343.757 200.275 363.874 154.743C368.012 145.379 370.149 135.254 370.149 125.017C370.149 114.78 368.012 104.655 363.874 95.2912Z" fill="#FBA0AE"/>
<path d="M309.732 111.152L202.268 111.153C188.112 111.153 178.297 125.622 183.907 138.619L184.023 138.884C192.423 157.895 202.7 172.48 214.57 182.232C226.505 192.038 240.057 196.805 255.999 196.805C271.851 196.805 285.393 192.011 297.399 182.147C309.339 172.339 319.626 157.782 327.977 138.883L328.092 138.618C333.703 125.621 323.889 111.152 309.732 111.152Z" fill="#FB747E"/>
<path d="M123.546 295.9L69.583 341.033L26.4121 310.617C36.9201 281.438 58.525 246.715 74.312 223.355C83.1819 210.234 94.8114 199.211 108.387 191.055C140.971 241.878 123.546 295.9 123.546 295.9Z" fill="#FBA0AE"/>
<path d="M48.173 325.949C59.192 297.8 79.358 265.482 94.3119 243.354C101.446 232.806 110.377 223.592 120.698 216.134C117.561 207.333 113.431 198.919 108.387 191.056C84.1189 205.622 69.228 229.886 54.989 253.537C48.792 263.826 42.8891 274.303 37.5351 285.058C33.3941 293.376 29.5621 301.871 26.4121 310.617L48.173 325.949Z" fill="#FB879E"/>
<path d="M485.588 310.617L442.418 341.033L388.455 295.9C388.455 295.9 371.02 241.878 403.614 191.055C417.189 199.21 428.819 210.234 437.689 223.355C453.475 246.715 475.08 281.438 485.588 310.617Z" fill="#FBA0AE"/>
<path d="M280.529 283.997C280.529 291.445 274.492 297.482 267.044 297.482C259.596 297.482 253.559 291.445 253.559 283.997C253.559 276.549 259.596 270.513 267.044 270.513C274.492 270.513 280.529 276.549 280.529 283.997Z" fill="#E4E7EB"/>
<path d="M213.07 283.997C213.07 291.445 207.033 297.482 199.585 297.482C192.137 297.482 186.1 291.445 186.1 283.997C186.1 276.549 192.137 270.513 199.585 270.513C207.033 270.513 213.07 276.549 213.07 283.997Z" fill="#E4E7EB"/>
<path d="M280.529 375.73C280.529 383.178 274.492 389.215 267.044 389.215C259.596 389.215 253.559 383.178 253.559 375.73C253.559 368.282 259.596 362.245 267.044 362.245C274.492 362.245 280.529 368.282 280.529 375.73Z" fill="#E4E7EB"/>
<path d="M213.07 375.73C213.07 383.178 207.033 389.215 199.585 389.215C192.137 389.215 186.1 383.178 186.1 375.73C186.1 368.282 192.137 362.245 199.585 362.245C207.033 362.245 213.07 368.282 213.07 375.73Z" fill="#E4E7EB"/>
<path d="M84.2994 317.472L39.9065 286.195C34.4385 282.343 26.8775 283.691 23.0786 289.197L9.6286 308.69C5.88261 314.119 7.20861 321.554 12.6016 325.353L56.9945 356.629C62.4624 360.482 70.0234 359.133 73.8214 353.628L87.2714 334.136C91.0184 328.706 89.6924 321.272 84.2994 317.472Z" fill="#E4E7EB"/>
<path d="M39.9065 286.193C34.4385 282.34 26.8776 283.689 23.0786 289.195L9.6286 308.687C5.88261 314.117 7.20861 321.552 12.6016 325.351L31.2055 338.459C27.0166 334.443 26.2336 327.884 29.6285 322.963L43.0785 303.47C46.8775 297.965 54.4385 296.616 59.9065 300.469L39.9065 286.193Z" fill="#CACFD7"/>
<path d="M427.699 317.472L472.092 286.195C477.56 282.343 485.121 283.691 488.919 289.197L502.37 308.69C506.116 314.119 504.79 321.554 499.397 325.353L455.004 356.629C449.536 360.482 441.975 359.133 438.177 353.628L424.727 334.136C420.98 328.706 422.306 321.272 427.699 317.472Z" fill="#E4E7EB"/>
</g>
</svg>
