<svg width="512" height="512" viewBox="0 0 512 512" fill="none" xmlns="http://www.w3.org/2000/svg">
<path d="M256.001 95.9999C288.041 95.9999 370.581 68.9099 400.341 57.2799C406.231 54.8499 412.221 60.9199 413.421 70.4699L427.921 186.93C414.191 181.2 399.911 168.53 387.921 172C369.721 177.21 355.111 215.74 337.781 219.03C319.581 222.33 299.961 190.05 282.301 191.26C264.211 192.3 246.331 227.01 228.351 225.8C210.581 224.76 194.341 187.96 176.141 184.49C158.811 181.37 137.771 211.39 119.571 206.18C107.251 202.54 97.0105 181.01 85.5605 166.61L97.1105 70.1099C98.3105 60.5599 106.001 56.3999 112.001 58.6499C142.081 70.4499 223.851 95.9799 256.001 95.9799V95.9999Z" fill="#CBF2F7"/>
<path d="M427.692 186.929L440.222 286.899C423.112 288.109 403.382 265.029 387.682 269.539C369.482 274.749 354.872 313.449 337.542 316.569C319.342 319.869 299.722 287.589 282.062 288.799C263.972 289.839 246.092 324.549 228.112 323.509C210.342 322.299 194.102 285.499 175.902 282.029C158.572 278.909 137.532 308.929 119.332 303.719C103.532 299.029 90.992 264.669 74.752 254.079L85.322 166.779V166.609C96.762 181.019 107.012 202.539 119.332 206.179C137.532 211.389 158.572 181.359 175.902 184.489C194.102 187.959 210.342 224.759 228.112 225.799C246.092 227.009 263.972 192.299 282.062 191.259C299.722 190.049 319.342 222.329 337.542 219.029C354.872 215.729 369.482 177.199 387.682 171.999C399.672 168.529 413.952 181.199 427.682 186.929H427.692Z" fill="#8DD1E8"/>
<path d="M427.692 186.929L440.222 286.899C423.112 288.109 403.382 265.029 387.682 269.539C369.482 274.749 354.872 313.449 337.542 316.569C319.342 319.869 299.722 287.589 282.062 288.799C263.972 289.839 246.092 324.549 228.112 323.509C210.342 322.299 194.102 285.499 175.902 282.029C158.572 278.909 137.532 308.929 119.332 303.719C103.532 299.029 90.992 264.669 74.752 254.079L85.322 166.779V166.609C96.762 181.019 107.012 202.539 119.332 206.179C137.532 211.389 158.572 181.359 175.902 184.489C194.102 187.959 210.342 224.759 228.112 225.799C246.092 227.009 263.972 192.299 282.062 191.259C299.722 190.049 319.342 222.329 337.542 219.029C354.872 215.729 369.482 177.199 387.682 171.999C399.672 168.529 413.952 181.199 427.682 186.929H427.692Z" fill="#8DD1E8"/>
<path d="M217.771 444.49C215.261 449.35 211.231 451.78 207.421 450.56L67.4713 408.04C61.6913 406.3 57.8813 397.28 58.9713 388.08L74.9913 254.09C91.2313 264.68 103.771 299.04 119.571 303.73C137.771 308.94 158.811 278.91 176.141 282.04C194.341 285.51 210.581 322.31 228.351 323.52C246.331 324.56 264.211 289.85 282.301 288.81C299.961 287.6 319.581 319.88 337.781 316.58C355.111 313.46 369.721 274.75 387.921 269.55C403.621 265.04 423.341 288.12 440.461 286.91L453.101 388.09C454.191 397.29 450.381 406.31 444.601 408.05L293.981 450.57C290.171 451.78 286.131 449.53 283.631 444.5L264.321 385.66C260.071 377.33 251.891 377.33 247.641 385.66L217.771 444.5V444.49Z" fill="#2F96B2"/>
<path d="M266.67 378.67C267.02 378.9 256 330.67 256 330.67L209.39 417.57C206.88 422.43 202.85 424.86 199.04 423.64L63.1203 382.33L61.4803 395.87C60.3903 405.07 63.5603 408.92 69.3403 410.66L202.67 453.33C206.49 454.55 216.16 452.86 218.67 448L250.67 384C256 373.33 266.67 378.67 266.67 378.67ZM440.45 286.9C438.27 287.07 435.98 286.73 433.8 286.21L442.19 353.38C443.28 362.58 439.47 371.6 433.69 373.34C433.69 373.34 278.35 417.68 277.33 421.35L283.62 444.5C286.13 449.53 290.16 451.79 293.97 450.57L444.59 408.05C450.37 406.31 454.18 397.29 453.09 388.09L440.45 286.91V286.9Z" fill="#22618C"/>
<path d="M400.791 173.22C409.531 176.4 418.841 183.14 427.921 186.93L413.421 70.4699C412.221 60.9199 406.231 54.8499 400.341 57.2799C396.621 58.7399 392.061 60.4999 386.891 62.4699L400.791 173.22Z" fill="#8DD1E8"/>
<path d="M400.791 173.22L415.751 278.16L440.451 286.9L427.921 186.93L400.791 173.22Z" fill="#2F96B2"/>
<path d="M92.2607 274.78C92.5607 274.86 92.8707 274.77 93.1607 274.84C87.3907 266.4 81.4907 258.34 74.9807 254.1L74.4707 258.37C80.1707 266.29 85.9507 272.92 92.2507 274.79L92.2607 274.78ZM444.591 408.04C450.371 406.3 454.181 397.28 453.091 388.08L440.451 286.9C432.531 287.46 424.051 282.81 415.661 278.1L425.791 359.13C426.881 368.33 423.071 377.35 417.291 379.09" fill="#22618C"/>
<path d="M205.751 459.03C203.941 459.03 202.351 458.81 201.121 458.44C201.072 458.43 201.025 458.413 200.981 458.39L65.8809 413.11C57.4809 410.5 52.2509 399.47 53.6909 387.41L91.8109 69.5201C91.8509 69.2301 91.9109 68.9301 91.9909 68.6501C94.3909 60.4901 99.4609 56.8001 103.291 55.1301C110.841 51.8601 119.571 53.6801 124.851 56.2701L151.321 66.9401C154.051 68.0401 155.371 71.1501 154.271 73.8801C153.171 76.6101 150.061 77.9301 147.331 76.8301L120.661 66.0901C120.521 66.0301 120.391 65.9701 120.251 65.9101C116.801 64.1701 111.321 63.2801 107.521 64.9201C105.051 65.9901 103.351 68.0701 102.331 71.2601L64.2609 388.68C63.3609 396.22 66.4909 402.15 69.0409 402.93C69.0909 402.94 69.1409 402.96 69.1809 402.98L204.251 448.25C206.051 448.74 215.121 448.25 219.141 440.44L242.711 383.65C242.761 383.52 242.821 383.4 242.881 383.28C246.061 377.02 251.941 373.13 258.221 373.13C263.771 373.13 268.701 376.29 271.401 381.59C271.571 381.92 271.701 382.26 271.791 382.61L287.651 440.75C289.801 444.97 291.411 447.79 297.861 448L363.571 427.09C366.381 426.2 369.381 427.75 370.271 430.55C371.161 433.36 369.611 436.36 366.811 437.25L300.271 458.42C299.751 458.59 299.201 458.67 298.651 458.67C284.811 458.67 280.531 450.25 277.971 445.23L277.901 445.09C277.731 444.77 277.601 444.42 277.511 444.07L261.671 386C260.801 384.53 259.651 383.78 258.231 383.78C256.061 383.78 253.821 385.41 252.481 387.94L228.921 444.71C228.871 444.83 228.821 444.94 228.761 445.05C223.491 455.6 212.911 459.03 205.741 459.03H205.751ZM413.701 422.75C412.558 422.75 411.445 422.383 410.527 421.702C409.608 421.022 408.933 420.064 408.601 418.97C408.396 418.3 408.325 417.597 408.393 416.9C408.46 416.203 408.665 415.526 408.995 414.908C409.325 414.29 409.773 413.743 410.315 413.299C410.856 412.855 411.48 412.522 412.151 412.32L443.001 402.94C445.561 402.16 448.691 396.22 447.781 388.69L443.341 353.16C443.254 352.465 443.304 351.76 443.49 351.085C443.675 350.41 443.992 349.778 444.422 349.225C444.852 348.673 445.387 348.21 445.996 347.864C446.605 347.519 447.276 347.296 447.971 347.21C448.666 347.123 449.371 347.174 450.046 347.359C450.721 347.545 451.353 347.862 451.906 348.292C452.458 348.722 452.921 349.256 453.267 349.865C453.612 350.474 453.835 351.145 453.921 351.84L458.361 387.39C459.821 399.51 454.541 410.58 446.091 413.15L415.241 422.53C414.721 422.69 414.201 422.76 413.691 422.76L413.701 422.75ZM442.421 308.04C439.771 308.04 437.471 306.07 437.131 303.37L408.181 71.6201C406.751 66.9901 405.131 65.6901 404.031 65.1101C401.531 63.8101 397.041 64.1901 391.031 66.2001C374.861 71.6301 292.361 98.7101 256.001 98.7101C243.001 98.7101 209.151 97.5101 175.851 86.4101C174.509 85.9612 173.401 84.9981 172.769 83.7325C172.137 82.4668 172.034 81.0021 172.481 79.6601C172.702 78.9953 173.053 78.3806 173.512 77.8513C173.971 77.322 174.53 76.8884 175.157 76.5754C175.784 76.2624 176.467 76.0761 177.166 76.0271C177.865 75.9782 178.566 76.0675 179.231 76.2901C211.051 86.9001 243.521 88.0401 256.001 88.0401C262.091 88.0401 297.051 86.5001 387.641 56.0901C396.711 53.0401 403.691 52.9001 408.961 55.6501C414.941 58.7701 417.291 64.7701 418.541 69.0101C418.621 69.2901 418.681 69.5701 418.721 69.8501L447.721 302.04C447.815 302.791 447.748 303.553 447.525 304.276C447.301 304.999 446.926 305.666 446.425 306.233C445.923 306.8 445.307 307.253 444.617 307.563C443.926 307.873 443.178 308.032 442.421 308.03V308.04Z" fill="black"/>
<path d="M229.2 328.8C228.79 328.8 228.38 328.79 227.97 328.76C216.67 328.04 207.08 317.05 197.8 306.43C190.17 297.69 182.28 288.66 175.23 287.36C168.99 286.2 160.51 291.86 152.31 297.33C141.32 304.66 129.96 312.24 118.09 308.81C107.64 305.79 99.6805 293.97 91.2505 281.46C84.9205 272.07 78.3805 262.37 71.7305 258.34L77.2505 249.21C85.9205 254.45 93.1305 265.15 100.1 275.49C107.1 285.87 114.33 296.61 121.06 298.55C128.17 300.6 137.44 294.42 146.4 288.44C156.37 281.79 166.68 274.92 177.17 276.86C187.88 278.84 197.01 289.3 205.84 299.41C213.68 308.39 221.79 317.67 228.65 318.11C235.62 318.54 244.18 310.27 252.47 302.26C261.7 293.34 271.25 284.11 281.92 283.43C292.51 282.73 302.46 290.74 312.08 298.47C320.75 305.44 329.72 312.63 336.76 311.34C343.54 310.08 351.18 299.98 358.57 290.2C367 279.04 375.72 267.5 386.42 264.41C396.81 261.41 407.4 267.37 417.64 273.13C425.46 277.53 433.54 282.07 440.08 281.63L440.81 292.27C431.08 292.95 421.59 287.59 412.4 282.42C404.07 277.73 395.46 272.89 389.37 274.65C382.08 276.76 374.45 286.86 367.07 296.63C358.06 308.55 349.55 319.82 338.69 321.83C326.84 324.03 315.93 315.26 305.39 306.79C297.36 300.34 289.05 293.66 282.59 294.08C275.83 294.51 267.72 302.36 259.87 309.94C250.27 319.22 240.34 328.81 229.19 328.81L229.2 328.8ZM229.2 231.24C228.79 231.24 228.38 231.23 227.97 231.2C216.67 230.48 207.08 219.49 197.8 208.87C190.17 200.13 182.28 191.1 175.23 189.8C168.99 188.65 160.51 194.3 152.31 199.77C141.32 207.1 129.96 214.68 118.09 211.25C107.64 208.23 99.6805 196.41 91.2505 183.9C88.0305 179.12 84.7005 174.19 81.3805 170.04L89.7005 163.37C93.3005 167.86 96.7505 172.99 100.09 177.94C107.09 188.32 114.32 199.05 121.05 201C128.16 203.05 137.43 196.87 146.39 190.89C156.36 184.24 166.67 177.37 177.16 179.31C187.87 181.29 197 191.75 205.83 201.86C213.67 210.84 221.78 220.12 228.64 220.56C235.61 220.96 244.17 212.72 252.46 204.71C261.69 195.79 271.24 186.56 281.91 185.88C292.51 185.19 302.45 193.19 312.07 200.92C320.74 207.89 329.72 215.09 336.75 213.79C343.53 212.54 351.17 202.43 358.56 192.65C366.99 181.49 375.71 169.95 386.41 166.86C396.79 163.86 407.39 169.82 417.63 175.59C421.74 177.9 425.99 180.29 429.97 181.93L425.91 191.8C421.33 189.91 416.79 187.36 412.4 184.89C404.07 180.2 395.46 175.35 389.37 177.12C382.08 179.23 374.45 189.33 367.07 199.1C358.06 211.02 349.55 222.29 338.69 224.3C326.84 226.5 315.93 217.73 305.39 209.26C297.36 202.81 289.05 196.16 282.59 196.55C275.83 196.98 267.72 204.83 259.87 212.41C250.27 221.69 240.34 231.28 229.19 231.28L229.2 231.24Z" fill="black"/>
<path d="M287.101 242.47C284.411 242.47 282.101 240.44 281.801 237.71L269.561 124.68C269.486 123.983 269.548 123.278 269.745 122.606C269.942 121.933 270.269 121.306 270.709 120.76C271.148 120.214 271.69 119.76 272.305 119.423C272.92 119.087 273.595 118.875 274.291 118.8C275.698 118.647 277.108 119.06 278.211 119.947C279.314 120.834 280.019 122.123 280.171 123.53L292.411 236.56C292.492 237.305 292.415 238.059 292.185 238.772C291.954 239.485 291.577 240.142 291.076 240.7C290.575 241.257 289.962 241.703 289.277 242.008C288.592 242.313 287.851 242.47 287.101 242.47ZM219.991 241.99C219.242 241.99 218.5 241.833 217.816 241.528C217.131 241.223 216.518 240.777 216.017 240.22C215.516 239.662 215.138 239.005 214.908 238.292C214.678 237.579 214.601 236.825 214.681 236.08L226.871 123.57C227.024 122.163 227.729 120.874 228.832 119.987C229.934 119.1 231.344 118.687 232.751 118.84C234.158 118.992 235.447 119.697 236.334 120.8C237.221 121.903 237.634 123.313 237.481 124.72L225.291 237.23C225.148 238.536 224.528 239.744 223.55 240.622C222.573 241.5 221.306 241.987 219.991 241.99ZM282.661 448C280.251 448 278.061 446.35 277.481 443.9L250.811 331.9C250.484 330.524 250.716 329.076 251.457 327.872C252.197 326.668 253.386 325.807 254.761 325.48C256.137 325.152 257.585 325.384 258.789 326.125C259.993 326.866 260.854 328.054 261.181 329.43L287.851 441.43C288.014 442.111 288.04 442.817 287.929 443.508C287.819 444.199 287.573 444.862 287.206 445.458C286.839 446.054 286.359 446.572 285.792 446.982C285.225 447.393 284.582 447.687 283.901 447.85C283.481 447.95 283.071 448 282.661 448Z" fill="black"/>
</svg>
