<svg width="512" height="512" viewBox="0 0 512 512" fill="none" xmlns="http://www.w3.org/2000/svg">
<mask id="mask0_301_2272" style="mask-type:luminance" maskUnits="userSpaceOnUse" x="0" y="0" width="512" height="512">
<path d="M0 0.00149536H511.999V512H0V0.00149536Z" fill="white"/>
</mask>
<g mask="url(#mask0_301_2272)">
<path d="M339.497 249.501L257.508 230.001L172.498 249.501C161.452 249.501 152.498 258.455 152.498 269.501V494.5C152.498 500.023 156.975 504.5 162.498 504.5H223.498C229.021 504.5 233.498 500.023 233.498 494.5V327.489C233.498 324.172 236.672 321.772 239.861 322.686C250.619 325.773 261.377 325.773 272.135 322.686C275.324 321.772 278.498 324.172 278.498 327.489V494.5C278.498 500.023 282.975 504.5 288.498 504.5H349.497C355.02 504.5 359.497 500.023 359.497 494.5V269.501C359.497 258.455 350.543 249.501 339.497 249.501Z" fill="#F9E385"/>
<path d="M359.496 269.501V473.5H329.496V269.501C329.496 258.451 320.546 249.501 309.496 249.501H339.496C350.546 249.501 359.496 258.451 359.496 269.501Z" fill="#F9C269"/>
<path d="M359.496 374.09V434.91C356.268 435.965 352.892 436.502 349.496 436.5C331.826 436.5 317.496 422.17 317.496 404.5C317.496 395.66 321.076 387.66 326.866 381.87C332.656 376.08 340.656 372.5 349.496 372.5C352.986 372.5 356.346 373.06 359.496 374.09Z" fill="#FFF3C0"/>
<path d="M359.496 374.09V434.91C356.268 435.965 352.892 436.502 349.496 436.5C341.926 436.5 334.976 433.88 329.496 429.48V379.53C335.161 374.966 342.221 372.484 349.496 372.5C352.986 372.5 356.346 373.06 359.496 374.09Z" fill="#F9E385"/>
<path d="M319.498 325.5C319.498 334.06 316.028 341.81 310.418 347.42C304.808 353.03 297.058 356.5 288.498 356.5C284.998 356.5 281.638 355.92 278.498 354.85V327.49C278.498 324.17 275.328 321.77 272.138 322.69C267.258 324.09 262.388 324.85 257.508 324.97C257.638 316.62 261.088 309.07 266.578 303.58C272.188 297.97 279.938 294.5 288.498 294.5C297.058 294.5 304.808 297.97 310.418 303.58C316.028 309.19 319.498 316.94 319.498 325.5Z" fill="#FFF3C0"/>
<path d="M189.498 366C189.498 376.36 185.298 385.73 178.518 392.52C171.838 399.19 162.658 403.36 152.498 403.49V328.51C162.658 328.64 171.838 332.81 178.518 339.48C185.298 346.27 189.498 355.64 189.498 366Z" fill="#FFF3C0"/>
<path d="M233.498 473.5V494.5C233.498 500.02 229.018 504.5 223.498 504.5H162.498C156.978 504.5 152.498 500.02 152.498 494.5V473.5H233.498Z" fill="#B2A6F4"/>
<path d="M359.496 473.5V494.5C359.496 500.02 355.016 504.5 349.496 504.5H288.496C282.976 504.5 278.496 500.02 278.496 494.5V473.5H359.496Z" fill="#B2A6F4"/>
<path d="M359.496 473.5V494.5C359.496 500.02 355.016 504.5 349.496 504.5H319.496C325.016 504.5 329.496 500.02 329.496 494.5V473.5H359.496Z" fill="#8686D1"/>
<path d="M155.639 24.9836L14.9163 225.696C11.7493 230.22 12.8483 236.456 17.3723 239.623L68.1602 275.185C72.6842 278.353 78.9191 277.253 82.0871 272.729L154.34 169.54L155.639 24.9836Z" fill="#F9E385"/>
<path d="M152.498 139.271V172.171L127.918 207.271C116.368 201.141 108.498 188.991 108.498 175.001C108.498 164.921 112.578 155.801 119.188 149.191C125.798 142.581 134.918 138.501 144.998 138.501C147.568 138.501 150.078 138.771 152.498 139.271Z" fill="#FFF3C0"/>
<path d="M339.497 249.501H172.498C161.452 249.501 152.498 240.547 152.498 229.501V37.5016C152.498 20.9327 165.929 7.5017 182.498 7.5017H219.498C243.831 20.1687 268.165 20.1687 292.498 7.5017H329.498C346.066 7.5017 359.497 20.9327 359.497 37.5016V229.501C359.497 240.547 350.543 249.501 339.497 249.501Z" fill="#B2A6F4"/>
<path d="M359.496 37.5016V229.501C359.496 240.551 350.546 249.501 339.496 249.501H309.496C314.116 249.501 318.376 247.931 321.766 245.281H321.776C326.476 241.631 329.496 235.921 329.496 229.501V37.5016C329.496 20.9317 316.066 7.5017 299.496 7.5017H329.496C346.066 7.5017 359.496 20.9317 359.496 37.5016Z" fill="#8686D1"/>
<path d="M262.276 96.421L271.64 115.394C272.357 116.848 273.417 118.106 274.729 119.059C276.041 120.012 277.564 120.632 279.169 120.865L300.108 123.907C305.849 124.742 308.142 131.798 303.987 135.847L288.836 150.616C287.675 151.748 286.806 153.144 286.305 154.686C285.804 156.228 285.686 157.869 285.96 159.467L289.537 180.321C290.518 186.04 284.516 190.4 279.38 187.7L260.652 177.855C259.217 177.1 257.62 176.706 255.998 176.706C254.377 176.706 252.78 177.1 251.345 177.855L232.618 187.7C227.482 190.4 221.48 186.04 222.461 180.321L226.038 159.467C226.312 157.869 226.193 156.228 225.692 154.686C225.191 153.145 224.323 151.748 223.162 150.616L208.01 135.847C203.856 131.798 206.148 124.742 211.89 123.907L232.828 120.865C234.432 120.632 235.956 120.012 237.268 119.059C238.58 118.106 239.64 116.848 240.358 115.394L249.722 96.421C252.289 91.218 259.708 91.218 262.276 96.421Z" fill="white"/>
<path d="M292.498 7.50109V9.00109C292.498 29.161 276.158 45.501 255.998 45.501C245.918 45.501 236.798 41.421 230.188 34.811C223.578 28.201 219.498 19.0811 219.498 9.00109V7.50109C243.828 20.1711 268.168 20.1711 292.498 7.50109Z" fill="#8686D1"/>
<path d="M93.5583 256.351L82.0883 272.731C78.9183 277.251 72.6884 278.351 68.1584 275.181L17.3685 239.621C12.8485 236.451 11.7485 230.221 14.9185 225.691L26.3985 209.321L93.5583 256.351Z" fill="#B2A6F4"/>
<path d="M356.883 25.7312L497.08 225.696C500.248 230.22 499.149 236.456 494.625 239.624L443.838 275.184C439.314 278.352 433.079 277.253 429.911 272.729L358.832 171.218L356.883 25.7312Z" fill="#F9E385"/>
<path d="M485.601 209.319L461.026 226.526L357.595 79.0038L356.879 25.73L485.601 209.319Z" fill="#F9C269"/>
<path d="M453.93 164.141C447.72 167.561 440.59 169.501 433 169.501C408.98 169.501 389.5 150.021 389.5 126.001C389.5 113.991 394.37 103.121 402.24 95.2412C402.9 94.5812 403.58 93.9412 404.28 93.3312L453.93 164.141Z" fill="#FFF3C0"/>
<path d="M453.93 164.144C447.719 167.565 440.592 169.504 432.996 169.5C428.43 169.505 423.891 168.789 419.548 167.38L389.531 124.564C389.897 113.125 394.682 102.804 402.241 95.2412C402.898 94.5829 403.575 93.9456 404.272 93.3302L453.93 164.144Z" fill="#F9E385"/>
<path d="M494.627 239.621L443.837 275.181C439.307 278.351 433.077 277.251 429.907 272.731L418.438 256.351L485.597 209.321L497.077 225.691C500.247 230.221 499.147 236.451 494.627 239.621Z" fill="#B2A6F4"/>
<path d="M497.077 225.697C500.243 230.219 499.151 236.452 494.629 239.619L470.055 256.826C474.577 253.66 475.669 247.426 472.502 242.904L461.023 226.527L485.597 209.32L497.077 225.697Z" fill="#8686D1"/>
</g>
</svg>
