<svg width="512" height="512" viewBox="0 0 512 512" fill="none" xmlns="http://www.w3.org/2000/svg">
<g clip-path="url(#clip0_301_2204)">
<path d="M499.742 196.719L427.624 124.601C405.578 102.555 382.487 89.9162 346.32 83.3789C322.016 87.1031 293.825 94.4234 256 94.4234C218.174 94.4234 189.984 87.1031 165.68 83.3789C129.513 89.9162 106.422 102.555 84.3762 124.601L12.257 196.719C5.89871 203.077 5.89871 213.387 12.257 219.745L62.8123 270.3C69.1706 276.659 79.48 276.659 85.8383 270.3L139.141 216.998C138.403 228.535 137.551 242.886 136.57 258.624C174.762 317.496 233.287 334.259 255.999 334.259C278.711 334.259 337.236 317.496 375.428 258.624C374.447 242.886 373.595 228.535 372.857 216.998L426.16 270.3C432.518 276.659 442.827 276.659 449.186 270.3L499.741 219.745C506.1 213.387 506.1 203.077 499.742 196.719Z" fill="#8CE0DF"/>
<path d="M165.7 83.3818C129.527 89.9181 106.424 102.553 84.3762 124.601L12.257 196.719C5.89871 203.077 5.89871 213.387 12.257 219.745L62.8123 270.3C69.1706 276.659 79.48 276.659 85.8383 270.3L139.141 216.998C138.403 228.535 137.551 242.886 136.57 258.624C159.806 294.44 190.566 314.67 216.21 325.024C196.381 256.911 192.217 170.123 191.719 87.935C182.469 86.287 173.857 84.6319 165.7 83.3818Z" fill="#6AD5BC"/>
<path d="M308.649 78.9736C293.495 83.3828 275.813 87.791 256.001 87.791C236.189 87.791 218.506 83.3828 203.352 78.9736C189.314 79.9257 176.862 81.3577 165.68 83.3788C173.976 127.475 211.313 160.852 256.001 160.852C300.689 160.852 338.025 127.475 346.322 83.3788C335.139 81.3577 322.688 79.9257 308.649 78.9736Z" fill="#F5ED85"/>
<path d="M308.667 78.967C293.214 77.919 275.82 77.459 255.999 77.459C236.179 77.459 218.786 77.919 203.332 78.967C209.209 104.299 230.555 123.074 255.999 123.074C281.444 123.075 302.79 104.299 308.667 78.967Z" fill="#6AD5BC"/>
<path d="M136.57 258.622C135.176 280.985 133.521 306.148 131.566 330.04L160.742 336.641L195.965 307.726C188.484 284.033 158.988 265.281 136.57 258.622ZM375.429 258.622C376.823 280.985 378.477 306.148 380.433 330.04L351.256 336.641L316.033 307.726C323.515 284.033 353.011 265.281 375.429 258.622Z" fill="#4F5C6F"/>
<path d="M131.567 330.04C129.332 357.362 126.703 383.017 123.619 400.901C121.869 411.048 128.296 420.793 138.328 423.115C164.922 429.269 202.398 434.539 256.001 434.539C309.603 434.539 347.08 429.268 373.672 423.115C383.704 420.793 390.132 411.048 388.382 400.901C385.298 383.017 382.668 357.362 380.433 330.04C348.51 304.251 304.545 288.314 256.001 288.314C207.456 288.314 163.491 304.252 131.567 330.04Z" fill="#D8A783"/>
<path d="M208.387 293.604C178.964 300.291 152.641 313.017 131.567 330.041C129.332 357.362 126.703 383.018 123.619 400.901C121.869 411.049 128.296 420.794 138.328 423.115C164.922 429.27 202.398 434.54 256.001 434.54C267.022 434.54 277.352 434.314 287.055 433.906C245.366 408.424 221.71 356.678 208.387 293.604Z" fill="#D0876F"/>
<path d="M176.44 398.255C192.653 398.255 205.797 387.788 205.797 374.877C205.797 361.966 192.653 351.499 176.44 351.499C160.227 351.499 147.084 361.966 147.084 374.877C147.084 387.788 160.227 398.255 176.44 398.255Z" fill="white"/>
<path d="M335.561 398.255C351.774 398.255 364.918 387.788 364.918 374.877C364.918 361.966 351.774 351.499 335.561 351.499C319.348 351.499 306.205 361.966 306.205 374.877C306.205 387.788 319.348 398.255 335.561 398.255Z" fill="white"/>
<path d="M268.714 348.452C268.714 343.023 264.099 340.716 255.999 340.716C247.898 340.716 243.283 343.023 243.283 348.452C243.283 353.881 248.976 360.13 255.999 360.13C263.022 360.13 268.714 353.881 268.714 348.452Z" fill="#4F5C6F"/>
<path d="M192.457 134.217C191.958 116.021 191.742 97.8389 191.682 79.9131C182.297 80.7971 173.661 81.9362 165.68 83.3782C169.404 103.172 178.992 120.791 192.457 134.217Z" fill="#EDCF76"/>
<path d="M186.048 340.371V352.372C186.048 354.361 186.839 356.269 188.245 357.675C189.652 359.082 191.56 359.872 193.549 359.872C195.538 359.872 197.446 359.082 198.852 357.675C200.259 356.269 201.049 354.361 201.049 352.372V340.371C201.049 338.382 200.259 336.474 198.852 335.068C197.446 333.661 195.538 332.871 193.549 332.871C191.56 332.871 189.652 333.661 188.245 335.068C186.839 336.474 186.048 338.382 186.048 340.371ZM310.951 340.371V352.372C310.951 354.361 311.741 356.269 313.148 357.675C314.554 359.082 316.462 359.872 318.451 359.872C320.441 359.872 322.348 359.082 323.755 357.675C325.162 356.269 325.952 354.361 325.952 352.372V340.371C325.952 338.382 325.162 336.474 323.755 335.068C322.348 333.661 320.441 332.871 318.451 332.871C316.462 332.871 314.554 333.661 313.148 335.068C311.741 336.474 310.951 338.382 310.951 340.371ZM234.608 375.058C233.108 376.365 232.189 378.214 232.053 380.198C231.916 382.183 232.574 384.14 233.881 385.64C236.634 388.802 240.033 391.338 243.848 393.075C247.664 394.813 251.808 395.713 256.001 395.714C264.478 395.714 272.541 392.042 278.121 385.64C279.428 384.14 280.085 382.183 279.949 380.198C279.812 378.214 278.893 376.365 277.394 375.058C275.894 373.751 273.936 373.093 271.952 373.23C269.967 373.366 268.118 374.285 266.811 375.785C265.466 377.331 263.805 378.571 261.94 379.421C260.075 380.272 258.05 380.712 256.001 380.714C253.951 380.713 251.926 380.272 250.061 379.422C248.196 378.572 246.535 377.331 245.19 375.785C243.883 374.285 242.034 373.366 240.049 373.23C238.065 373.093 236.107 373.751 234.608 375.058ZM505.046 191.415L432.928 119.297C395.118 81.4865 353.78 69.959 256.001 69.959C172.686 69.959 131.482 78.4694 98.5446 102.481C96.937 103.653 95.8608 105.416 95.5526 107.381C95.2445 109.346 95.7297 111.353 96.9015 112.961C98.0733 114.568 99.8356 115.645 101.801 115.953C103.766 116.261 105.773 115.776 107.381 114.604C121.733 104.143 138.114 96.9102 160.008 92.21C171.736 136.755 210.979 168.352 256.001 168.352C301.059 168.352 340.313 136.697 352.005 92.094C382.553 98.6603 402.821 110.405 422.321 129.906L494.439 202.024C497.863 205.448 497.863 211.019 494.439 214.443L443.884 264.999C443.069 265.815 442.101 266.462 441.035 266.904C439.97 267.345 438.828 267.572 437.674 267.572C436.521 267.572 435.379 267.345 434.313 266.904C433.248 266.462 432.28 265.815 431.465 264.999L378.162 211.696C373.287 206.819 364.933 210.59 365.374 217.479C366.004 227.325 366.746 239.714 367.587 253.326C349.783 259.797 329.257 272.563 317.188 289.338C277.811 277.982 234.227 277.965 194.809 289.335C182.74 272.562 162.216 259.797 144.414 253.326C145.152 241.386 145.997 227.33 146.627 217.479C147.067 210.595 138.717 206.817 133.838 211.696L80.5357 264.999C77.1116 268.423 71.5403 268.423 68.1162 264.999L17.5619 214.443C14.1378 211.019 14.1378 205.448 17.5619 202.024L81.8858 137.7C83.2821 136.291 84.0636 134.387 84.0592 132.403C84.0547 130.42 83.2648 128.519 81.8621 127.116C80.4595 125.714 78.5584 124.924 76.5749 124.92C74.5914 124.915 72.687 125.697 71.2783 127.094L6.95344 191.415C-2.31798 200.688 -2.31798 215.776 6.95444 225.049L57.5097 275.604C66.8031 284.898 81.8478 284.9 91.1432 275.604L130.429 236.319C127.894 277.646 123.125 359.643 116.228 399.628C113.804 413.686 122.769 427.214 136.638 430.424C169.954 438.133 210.114 442.042 256.001 442.042C282.357 442.042 306.961 440.756 329.13 438.221C330.116 438.119 331.073 437.822 331.944 437.348C332.815 436.874 333.584 436.232 334.205 435.459C334.827 434.685 335.289 433.797 335.564 432.844C335.84 431.891 335.924 430.893 335.811 429.908C335.698 428.922 335.391 427.969 334.908 427.103C334.424 426.237 333.774 425.476 332.994 424.863C332.214 424.25 331.32 423.798 330.365 423.533C329.409 423.267 328.41 423.194 327.426 423.318C305.82 425.789 281.789 427.042 256.001 427.042C211.25 427.042 172.228 423.263 140.019 415.811C133.893 414.392 129.936 408.404 131.01 402.178C134.005 384.813 136.572 360.214 138.767 333.917C204.21 283.123 307.681 283.038 373.233 333.917C375.428 360.215 377.996 384.814 380.99 402.179C382.064 408.405 378.106 414.392 371.981 415.811C368.763 416.556 365.441 417.272 362.107 417.941C360.282 418.305 358.657 419.335 357.549 420.831C356.44 422.327 355.928 424.181 356.111 426.034C356.294 427.886 357.16 429.604 358.539 430.854C359.919 432.104 361.714 432.796 363.575 432.796C365.058 432.796 373.919 430.759 375.363 430.425C389.233 427.215 398.197 413.688 395.773 399.63C388.883 359.676 384.136 278.123 381.572 236.321L420.858 275.606C430.152 284.9 445.196 284.902 454.492 275.606L505.047 225.051C514.318 215.776 514.318 200.688 505.046 191.415ZM256.001 84.9597C271.693 84.9597 285.799 85.2417 298.586 85.8697C291.119 103.724 274.624 115.575 256.001 115.575C237.391 115.575 220.908 103.743 213.434 85.9117C226.205 85.2627 240.309 84.9597 256.001 84.9597ZM256.001 153.351C218.21 153.351 185.173 126.941 174.804 89.5379C181.912 88.4738 189.551 87.6118 197.808 86.9357C206.471 112.927 229.584 130.576 256.001 130.576C282.441 130.576 305.572 112.896 314.217 86.8667C322.451 87.5258 330.08 88.3728 337.193 89.4289C326.855 126.884 293.822 153.351 256.001 153.351ZM140.315 314.359C141.468 299.021 142.504 283.574 143.429 269.042C156.192 274.356 170.284 283.246 179.69 294.332C165.681 299.572 152.46 306.282 140.315 314.359ZM332.315 294.327C341.721 283.243 355.81 274.355 368.571 269.042C369.497 283.571 370.531 299.015 371.684 314.35C359.541 306.275 346.324 299.565 332.315 294.327ZM256.001 360.13C263.023 360.13 268.716 353.882 268.716 348.453C268.716 343.023 264.101 340.716 256.001 340.716C247.9 340.716 243.285 343.023 243.285 348.453C243.285 353.882 248.977 360.13 256.001 360.13Z" fill="black"/>
</g>
<defs>
<clipPath id="clip0_301_2204">
<rect width="512" height="512" fill="white"/>
</clipPath>
</defs>
</svg>
