<svg width="512" height="512" viewBox="0 0 512 512" fill="none" xmlns="http://www.w3.org/2000/svg">
<g clip-path="url(#clip0_301_2191)">
<path d="M238.933 366.934C235.848 383.771 229.121 399.731 219.221 413.696C208.214 430.233 193.423 443.906 176.074 453.582C158.726 463.258 139.32 468.658 119.467 469.334C59.7332 469.334 8.5332 426.667 8.5332 349.867C8.5332 273.067 42.6665 247.467 42.6665 221.867V59.7337C42.7 55.2176 44.5089 50.8961 47.7023 47.7027C50.8957 44.5093 55.2172 42.7005 59.7332 42.667C64.2554 42.6805 68.5885 44.4829 71.7862 47.6806C74.9839 50.8783 76.7864 55.2115 76.7999 59.7337V221.867C83.039 242.064 92.7723 261.011 105.557 277.846C121.598 298.866 141.141 316.966 163.328 331.35C186.438 346.622 211.609 358.518 238.08 366.678H238.165L238.933 366.934ZM503.467 349.867C503.467 426.667 452.267 469.334 392.533 469.334C372.68 468.658 353.274 463.258 335.926 453.582C318.577 443.906 303.785 430.233 292.779 413.696C282.879 399.731 276.152 383.771 273.067 366.934L273.835 366.678H273.92C300.391 358.518 325.562 346.622 348.672 331.35C370.859 316.966 390.402 298.866 406.443 277.846C419.228 261.011 428.961 242.064 435.2 221.867V59.7337C435.213 55.2115 437.016 50.8783 440.214 47.6806C443.411 44.4829 447.744 42.6805 452.267 42.667C456.783 42.7005 461.104 44.5093 464.297 47.7027C467.491 50.8961 469.3 55.2176 469.333 59.7337V221.867C469.333 247.467 503.467 273.067 503.467 349.867Z" fill="#E91E63"/>
<path d="M469.333 221.867V59.7337C469.299 55.2176 467.49 50.8961 464.297 47.7027C461.104 44.5093 456.782 42.7005 452.266 42.667C449.828 42.6835 447.423 43.2257 445.214 44.2565C443.005 45.2874 441.044 46.7827 439.466 48.6403C442.205 51.6867 443.733 55.6377 443.733 59.7337V221.867C443.733 247.467 477.866 273.067 477.866 349.867C477.866 420.916 434.03 462.669 380.168 468.54C384.264 469.052 388.403 469.308 392.533 469.334C452.266 469.334 503.466 426.667 503.466 349.867C503.466 273.067 469.333 247.467 469.333 221.867ZM292.778 413.696C268.563 408.235 243.436 408.235 219.221 413.696C229.12 399.731 235.848 383.771 238.933 366.934H273.066C276.151 383.771 282.879 399.731 292.778 413.696Z" fill="#AD1457"/>
<path d="M127.999 256.001C128.024 259.243 127.657 262.486 126.889 265.643C118.734 267.528 111.315 271.772 105.556 277.846C92.7712 261.011 83.038 242.065 76.7988 221.867V214.187C82.9986 212.922 89.4022 213.051 95.5459 214.566C101.69 216.08 107.419 218.943 112.32 222.945C117.221 226.948 121.171 231.99 123.882 237.707C126.594 243.424 128 249.673 127.999 256.001Z" fill="#F5F5F5"/>
<path d="M179.199 307.2C179.199 311.629 178.542 316.024 177.237 320.256C171.846 322.894 167.098 326.68 163.327 331.35C141.14 316.966 121.597 298.866 105.557 277.846C111.315 271.771 118.735 267.527 126.89 265.643C133.146 264.192 139.649 264.171 145.914 265.583C152.179 266.995 158.045 269.804 163.073 273.798C168.102 277.793 172.163 282.872 174.956 288.655C177.748 294.439 179.198 300.778 179.199 307.2Z" fill="#CFD8DC"/>
<path d="M238.933 358.401C238.933 361.174 238.677 363.947 238.165 366.678H238.08C211.609 358.518 186.438 346.622 163.328 331.35C167.1 326.682 171.844 322.902 177.237 320.257C183.136 317.272 189.656 315.723 196.267 315.734C207.583 315.734 218.435 320.229 226.437 328.231C234.438 336.232 238.933 347.085 238.933 358.401ZM435.2 214.187V221.867C428.961 242.065 419.228 261.011 406.443 277.846C400.684 271.772 393.265 267.528 385.109 265.643C383.492 258.68 383.651 251.421 385.571 244.534C387.491 237.648 391.111 231.354 396.098 226.231C401.084 221.109 407.279 217.321 414.111 215.217C420.944 213.112 428.195 212.758 435.2 214.187Z" fill="#F5F5F5"/>
<path d="M406.442 277.846C390.401 298.866 370.858 316.966 348.671 331.35C344.9 326.68 340.153 322.894 334.762 320.256C333.454 316.028 332.792 311.626 332.799 307.2C332.796 298.662 335.355 290.319 340.145 283.251C344.935 276.183 351.736 270.715 359.667 267.553C367.598 264.392 376.296 263.683 384.635 265.517C392.973 267.352 400.57 271.647 406.442 277.846Z" fill="#CFD8DC"/>
<path d="M348.672 331.349C325.562 346.622 300.391 358.517 273.92 366.677H273.834C273.322 363.947 273.066 361.173 273.066 358.4C273.066 347.084 277.562 336.232 285.563 328.23C293.565 320.229 304.417 315.733 315.733 315.733C322.344 315.722 328.864 317.271 334.762 320.256C340.155 322.901 344.9 326.682 348.672 331.349Z" fill="#F5F5F5"/>
<path d="M477.866 221.867V59.7338C477.866 52.9442 475.169 46.4328 470.368 41.6319C465.567 36.8309 459.056 34.1338 452.266 34.1338C445.477 34.1338 438.965 36.8309 434.164 41.6319C429.364 46.4328 426.666 52.9442 426.666 59.7338V204.8C413.091 204.814 400.076 210.213 390.477 219.812C380.879 229.41 375.48 242.426 375.466 256C361.891 256.014 348.876 261.413 339.277 271.012C329.679 280.61 324.28 293.626 324.266 307.2C324.266 307.474 324.326 307.747 324.326 308.054C316.979 306.715 309.428 307.016 302.211 308.934C294.994 310.852 288.289 314.341 282.577 319.151C276.865 323.961 272.285 329.973 269.166 336.758C266.047 343.543 264.465 350.933 264.533 358.4H247.466C247.535 350.933 245.953 343.543 242.833 336.758C239.714 329.973 235.135 323.961 229.422 319.151C223.71 314.341 217.006 310.852 209.789 308.934C202.572 307.016 195.02 306.715 187.673 308.054C187.673 307.772 187.733 307.508 187.733 307.2C187.719 293.626 182.321 280.61 172.722 271.012C163.123 261.413 150.108 256.014 136.533 256C136.519 242.426 131.121 229.41 121.522 219.812C111.923 210.213 98.9079 204.814 85.333 204.8V59.7338C85.333 52.9442 82.6359 46.4328 77.8349 41.6319C73.034 36.8309 66.5226 34.1338 59.733 34.1338C52.9435 34.1338 46.432 36.8309 41.6311 41.6319C36.8301 46.4328 34.133 52.9442 34.133 59.7338V221.867C32.8415 231.382 29.6057 240.529 24.6269 248.739C7.97153 279.813 -0.503396 314.614 -0.00032511 349.867C-0.00032511 425.234 49.1261 477.867 119.466 477.867C140.037 477.234 160.177 471.814 178.287 462.038C196.397 452.262 211.979 438.398 223.795 421.547C245.039 417.145 266.96 417.145 288.204 421.547C300.02 438.398 315.602 452.262 333.712 462.038C351.822 471.814 371.962 477.234 392.533 477.867C462.873 477.867 512 425.234 512 349.867C512.503 314.614 504.028 279.813 487.372 248.739C482.394 240.529 479.158 231.382 477.866 221.867ZM426.197 221.918C421.157 237.346 413.954 251.982 404.804 265.387C401.12 262.774 397.102 260.667 392.857 259.124C392.789 258.057 392.533 257.135 392.533 256C392.546 247.037 396.083 238.439 402.382 232.062C408.681 225.685 417.235 222.042 426.197 221.918ZM375.466 273.067C378.078 273.033 380.672 273.323 383.215 273.92C387.3 274.897 391.164 276.634 394.607 279.04C381.544 294.708 366.412 308.528 349.627 320.12C347.334 318.056 344.848 316.215 342.203 314.624C341.655 312.187 341.363 309.699 341.333 307.2C341.333 298.148 344.929 289.466 351.33 283.065C357.732 276.663 366.414 273.067 375.466 273.067ZM315.733 324.267C321.053 324.271 326.298 325.528 331.042 327.936C332.195 328.564 333.306 329.266 334.37 330.036C317.752 340.077 300.189 348.463 281.933 355.072C282.741 346.66 286.648 338.848 292.895 333.155C299.142 327.462 307.281 324.294 315.733 324.267ZM230.067 355.072C211.814 348.464 194.254 340.081 177.638 330.044C178.747 329.242 179.891 328.508 181.094 327.868C185.801 325.499 190.997 324.265 196.266 324.267C204.718 324.294 212.858 327.462 219.104 333.155C225.351 338.848 229.258 346.66 230.067 355.072ZM170.666 307.2C170.643 309.704 170.357 312.198 169.813 314.642C167.168 316.237 164.693 318.072 162.389 320.128C145.598 308.535 130.46 294.712 117.393 279.04C120.891 276.626 124.817 274.893 128.955 273.92C133.954 272.782 139.144 272.785 144.141 273.927C149.139 275.07 153.814 277.324 157.821 280.521C161.828 283.718 165.064 287.776 167.288 292.395C169.511 297.014 170.666 302.074 170.666 307.2ZM119.466 256C119.402 257.047 119.282 258.09 119.108 259.124C114.866 260.673 110.848 262.779 107.161 265.387C98.0095 251.983 90.8066 237.347 85.7682 221.918C94.7364 222.033 103.299 225.672 109.605 232.05C115.911 238.428 119.454 247.032 119.466 256ZM17.0663 349.867C16.6406 317.216 24.5219 284.992 39.9698 256.222C46.2471 245.76 50.0855 234.017 51.1997 221.867V59.7338C51.1997 57.4706 52.0987 55.3001 53.699 53.6998C55.2993 52.0995 57.4698 51.2005 59.733 51.2005C61.9962 51.2005 64.1667 52.0995 65.767 53.6998C67.3673 55.3001 68.2663 57.4706 68.2663 59.7338V221.867C68.2663 222.72 68.3943 223.565 68.6418 224.376C75.4855 246.418 86.2461 267.043 100.403 285.278C80.798 314.596 69.6764 348.76 68.2663 384C67.7555 410.918 76.9588 437.12 94.1906 457.805C52.7954 448.086 17.0663 413.722 17.0663 349.867ZM121.898 460.681C110.171 451.705 100.741 440.073 94.3843 426.743C88.0276 413.412 84.9255 398.763 85.333 384C86.5237 353.844 95.706 324.545 111.94 299.102C144.321 332.901 184.515 358.22 228.983 372.83C218.086 415.932 174.711 459.367 121.898 460.681ZM235.699 402.313C240.102 393.797 243.481 384.786 245.76 375.467H266.24C268.529 384.784 271.918 393.796 276.335 402.313C262.837 400.715 249.197 400.715 235.699 402.313ZM283.016 372.83C327.484 358.22 367.678 332.901 400.059 299.102C416.293 324.545 425.476 353.844 426.666 384C427.137 398.769 424.067 413.437 417.712 426.777C411.356 440.116 401.901 451.742 390.135 460.681C337.297 459.384 293.913 415.941 283.016 372.83ZM417.843 457.805C435.062 437.115 444.253 410.914 443.733 384C442.323 348.76 431.201 314.596 411.597 285.278C425.754 267.049 436.513 246.419 443.358 224.376C443.614 223.565 443.733 222.72 443.733 221.867V59.7338C443.733 57.4706 444.632 55.3001 446.232 53.6998C447.833 52.0995 450.003 51.2005 452.266 51.2005C454.53 51.2005 456.7 52.0995 458.3 53.6998C459.901 55.3001 460.8 57.4706 460.8 59.7338V221.867C461.909 234.019 465.749 245.76 472.03 256.222C487.478 284.992 495.359 317.216 494.933 349.867C494.933 413.722 459.204 448.086 417.809 457.805H417.843Z" fill="black"/>
</g>
<defs>
<clipPath id="clip0_301_2191">
<rect width="512" height="512" fill="white"/>
</clipPath>
</defs>
</svg>
