<svg width="512" height="512" viewBox="0 0 512 512" fill="none" xmlns="http://www.w3.org/2000/svg">
<mask id="mask0_301_1954" style="mask-type:luminance" maskUnits="userSpaceOnUse" x="0" y="0" width="512" height="512">
<path d="M0 0.00149536H511.999V512H0V0.00149536Z" fill="white"/>
</mask>
<g mask="url(#mask0_301_1954)">
<path d="M157.919 465.551C75.9999 457.002 44 411.002 44 411.002C134 283.002 199.213 153.046 199.213 153.046H313.103C313.103 153.046 378.315 283.002 468.315 411.002C468.315 411.002 435.999 457.002 354.396 465.551H157.919Z" fill="#FE93BC"/>
<path d="M313.101 153.045H273.102C273.102 153.045 338.313 283.001 428.313 411.001C428.313 411.001 395.997 457.001 314.394 465.55H354.394C435.997 457.001 468.313 411.001 468.313 411.001C378.313 283.001 313.101 153.045 313.101 153.045Z" fill="#FE7AAC"/>
<path d="M295.093 163.083C295.093 163.083 315.814 328.829 357.658 478.697C326.039 496.256 288.687 505.197 256.265 504.654C197.152 504.654 154.34 478.697 154.34 478.697C196.185 328.829 217.155 162.455 217.155 162.455L217.5 149.001H293.999L295.093 163.083Z" fill="#FE66A0"/>
<path d="M176.288 96.8457C139.666 96.8457 117.666 65.6678 117.666 65.6678C157.918 47.0019 170.539 7.50197 170.539 7.50197H182.546L176.288 96.8457Z" fill="#FE93BC"/>
<path d="M336.028 96.8457C372.65 96.8457 394.65 65.6678 394.65 65.6678C354.397 47.0019 341.777 7.50197 341.777 7.50197H325.174L336.028 96.8457Z" fill="#FE93BC"/>
<path d="M193.621 7.50222C193.621 29.1612 209.062 35.9651 231.623 50.0821C253.914 64.0281 256 87.284 256 87.284C256 87.284 258.086 64.0281 280.377 50.0821C302.938 35.9651 318.379 29.1612 318.379 7.50222V98.002H193.621V7.50222Z" fill="#FE93BC"/>
<path d="M312.786 153.044C353.665 87.2836 341.459 7.50188 341.459 7.50188H318.378C318.378 7.50188 331.525 87.2836 255.999 87.2836C180.473 87.2836 193.62 7.50188 193.62 7.50188H170.538C170.538 7.50188 158.999 87.2836 199.212 153.044C241.774 171.74 270.224 171.74 312.786 153.044Z" fill="#FFD6E8"/>
<path d="M341.46 7.50194H318.378C318.378 7.50194 325.206 48.9648 300.721 72.1078C297.268 97.1937 289.425 126.28 272.787 153.045C259.424 158.914 247.454 162.938 236 165.122C261.029 169.895 283.587 165.87 312.787 153.045C353.666 87.2837 341.46 7.50194 341.46 7.50194Z" fill="#FFCCE2"/>
<path d="M405.019 153.045L414.505 174.528L431.85 184.014L414.505 193.5L405.019 214.982L395.533 193.5L378.188 184.014L395.533 174.528L405.019 153.045Z" fill="#FFED59"/>
<path d="M100.063 279.393L113.239 309.233L137.332 322.41L113.239 335.586L100.063 365.426L86.8859 335.586L62.793 322.41L86.8859 309.233L100.063 279.393Z" fill="#FFED59"/>
</g>
</svg>
