<svg width="512" height="512" viewBox="0 0 512 512" fill="none" xmlns="http://www.w3.org/2000/svg">
<g clip-path="url(#clip0_301_2143)">
<path d="M153.602 170.666H358.402V196.266C358.402 198.529 357.503 200.7 355.902 202.3C354.302 203.9 352.131 204.799 349.868 204.799H162.135C159.872 204.799 157.701 203.9 156.101 202.3C154.501 200.7 153.602 198.529 153.602 196.266V170.666Z" fill="#673AB7"/>
<path d="M332.799 170.666V196.266C332.799 198.529 331.9 200.7 330.3 202.3C328.699 203.9 326.529 204.799 324.266 204.799H349.866C352.129 204.799 354.299 203.9 355.9 202.3C357.5 200.7 358.399 198.529 358.399 196.266V170.666H332.799Z" fill="#4527A0"/>
<path d="M162.135 238.933H349.868C352.131 238.933 354.302 239.832 355.902 241.432C357.503 243.032 358.402 245.203 358.402 247.466V273.066H153.602V247.466C153.602 245.203 154.501 243.032 156.101 241.432C157.701 239.832 159.872 238.933 162.135 238.933Z" fill="#673AB7"/>
<path d="M349.866 238.933H324.266C326.529 238.933 328.699 239.832 330.3 241.432C331.9 243.032 332.799 245.203 332.799 247.466V273.066H358.399V247.466C358.399 245.203 357.5 243.032 355.9 241.432C354.299 239.832 352.129 238.933 349.866 238.933Z" fill="#4527A0"/>
<path d="M358.398 170.667C366.931 136.533 375.465 128 375.465 93.8667C375.465 93.8667 343.772 85.9393 341.468 16.6486C341.36 14.4587 340.414 12.3941 338.825 10.8831C337.236 9.37218 335.127 8.53075 332.934 8.53339H315.1C313.028 8.51972 311.023 9.26733 309.465 10.6343C307.908 12.0013 306.907 13.8925 306.652 15.9489C304.715 31.9489 295.925 68.2667 255.998 68.2667C216.07 68.2667 207.281 31.9489 205.344 15.9489C205.089 13.8925 204.088 12.0013 202.53 10.6343C200.973 9.26733 198.968 8.51972 196.896 8.53339H179.053C176.86 8.53075 174.751 9.37218 173.162 10.8831C171.573 12.3941 170.627 14.4587 170.52 16.6486C168.224 85.9393 136.531 93.8667 136.531 93.8667C136.531 128 145.065 136.533 153.598 170.667H358.398Z" fill="#9D27B0"/>
<path d="M341.469 16.6484C341.361 14.4585 340.415 12.3939 338.826 10.883C337.237 9.372 335.128 8.53058 332.935 8.53321H315.101C313.744 8.56776 312.415 8.92773 311.227 9.58281C312.562 10.2376 313.697 11.2385 314.513 12.4813C315.33 13.7241 315.798 15.1631 315.869 16.6484C318.173 85.9391 349.865 93.8665 349.865 93.8665C349.865 128 341.332 136.533 332.799 170.667H358.399C366.932 136.533 375.465 128 375.465 93.8665C375.465 93.8665 343.773 85.9391 341.469 16.6484Z" fill="#6A1B9A"/>
<path d="M375.466 392.533C375.466 417.365 374.015 440.661 372.308 459.434C339.92 457.196 308.465 447.626 280.319 431.445H280.234C279.551 426.922 278.783 422.314 277.93 417.791V417.706C288.253 400.442 302.197 385.62 318.799 374.262C335.401 362.904 354.268 355.28 374.1 351.914C374.954 364.373 375.466 377.941 375.466 392.533Z" fill="#FFDC00"/>
<path d="M374.1 351.914C365.502 353.511 357.058 355.844 348.859 358.886C349.456 369.442 349.866 380.586 349.866 392.533C349.866 415.812 348.577 437.597 347.016 455.679C354.883 457.19 363.178 458.53 372.308 459.4C374.015 440.627 375.466 417.331 375.466 392.499C375.466 377.941 374.954 364.373 374.1 351.914Z" fill="#FEC108"/>
<path d="M280.32 431.445C308.466 447.626 339.922 457.197 372.31 459.435C370.774 475.733 369.067 488.704 368.043 496.213C367.748 498.239 366.73 500.089 365.178 501.422C363.625 502.756 361.642 503.482 359.595 503.467H297.728C295.64 503.485 293.619 502.727 292.058 501.34C290.496 499.952 289.507 498.034 289.28 495.957C287.744 483.669 284.587 457.984 280.32 431.445Z" fill="#9D27B0"/>
<path d="M280.32 431.445C281.046 435.951 281.737 440.405 282.385 444.8C303.063 452.575 324.703 457.498 346.71 459.435C345.174 475.733 343.467 488.704 342.443 496.213C342.148 498.239 341.13 500.089 339.578 501.422C338.025 502.756 336.042 503.482 333.995 503.467H359.595C361.642 503.482 363.625 502.756 365.178 501.422C366.73 500.089 367.748 498.239 368.043 496.213C369.067 488.704 370.774 475.733 372.31 459.435C339.922 457.197 308.466 447.626 280.32 431.445Z" fill="#6A1B9A"/>
<path d="M234.067 417.706V417.791C233.214 422.314 232.446 426.922 231.763 431.445C231.741 431.445 231.719 431.454 231.703 431.47C231.687 431.486 231.678 431.507 231.678 431.53C203.503 447.631 172.06 457.169 139.689 459.434C137.982 440.661 136.531 417.365 136.531 392.533C136.531 377.941 137.043 364.373 137.897 351.914C157.729 355.28 176.596 362.904 193.198 374.262C209.8 385.62 223.744 400.442 234.067 417.706Z" fill="#FFDC00"/>
<path d="M139.69 459.434C172.062 457.169 203.505 447.631 231.68 431.53C227.413 458.069 224.256 483.669 222.72 495.957C222.493 498.033 221.504 499.952 219.943 501.339C218.381 502.727 216.36 503.485 214.272 503.466H152.405C150.358 503.482 148.375 502.755 146.823 501.422C145.27 500.089 144.252 498.239 143.957 496.213C142.933 488.704 141.226 475.733 139.69 459.434ZM374.101 351.914C354.269 355.28 335.402 362.904 318.8 374.262C302.197 385.62 288.254 400.442 277.93 417.706C271.701 382.549 263.85 349.866 256 349.866C248.149 349.866 240.298 382.549 234.069 417.706C223.745 400.442 209.802 385.62 193.2 374.262C176.598 362.904 157.731 355.28 137.898 351.914C140.714 313.429 147.114 285.952 153.6 273.066H358.4C364.885 285.952 371.285 313.429 374.101 351.914Z" fill="#9D27B0"/>
<path d="M358.4 273.066H332.8C339.285 285.952 345.685 313.429 348.501 351.914C319.844 356.99 293.416 370.684 272.742 391.168C274.56 399.479 276.301 408.482 277.93 417.672C288.254 400.408 302.197 385.586 318.8 374.228C335.402 362.87 354.269 355.246 374.101 351.88C371.285 313.429 364.885 285.952 358.4 273.066Z" fill="#6A1B9A"/>
<path d="M162.133 213.333H349.866C354.393 213.333 358.734 211.535 361.934 208.334C365.135 205.134 366.933 200.793 366.933 196.266V171.776C369.612 161.211 372.318 153.054 374.715 145.868C381.075 129.279 384.226 111.632 384 93.8663C383.954 92.0117 383.325 90.2185 382.203 88.7417C381.08 87.265 379.52 86.1797 377.745 85.6402C377.48 85.5634 352.008 77.1069 349.994 16.3581C349.845 11.944 347.977 7.76293 344.789 4.70682C341.601 1.6507 337.344 -0.0384757 332.928 -0.000344764H315.102C310.948 0.00212102 306.938 1.5193 303.823 4.26683C300.707 7.01436 298.701 10.8036 298.18 14.9245C296.158 31.6583 287.983 59.733 256 59.733C224.017 59.733 215.842 31.6583 213.819 14.9245C213.298 10.8036 211.292 7.01436 208.177 4.26683C205.062 1.5193 201.051 0.00212102 196.898 -0.000344764H179.055C174.637 -0.0384134 170.379 1.65194 167.19 4.70987C164.002 7.76781 162.135 11.951 161.988 16.3666C159.974 77.0727 134.502 85.5634 134.442 85.589C132.6 86.0545 130.966 87.1215 129.799 88.6209C128.632 90.1203 127.999 91.9663 128 93.8663C127.773 111.632 130.924 129.279 137.284 145.868C139.682 153.054 142.404 161.228 145.066 171.776V196.266C145.066 200.793 146.864 205.134 150.065 208.334C153.266 211.535 157.607 213.333 162.133 213.333ZM349.866 196.266H162.133V179.2H349.866V196.266ZM179.055 17.0663L196.872 16.9725C201.386 54.4338 223.513 76.7997 256 76.7997C288.486 76.7997 310.613 54.4338 315.102 17.0663L332.936 16.9298C334.805 73.2498 355.865 92.8167 366.856 99.2423C366.423 113.356 363.604 127.294 358.519 140.467C356.446 146.679 354.133 153.6 351.812 162.133H160.187C157.841 153.6 155.554 146.679 153.48 140.467C148.395 127.294 145.576 113.356 145.143 99.2423C156.16 92.8253 177.186 73.2583 179.055 17.0663ZM135.518 497.391C136.678 505.813 143.906 512.068 152.405 512H214.272C218.446 512.01 222.479 510.49 225.608 507.727C228.738 504.964 230.746 501.15 231.253 497.007C240.128 422.485 249.634 377.941 256 362.718C262.366 377.941 271.872 422.451 280.789 497.007C281.295 501.143 283.297 504.951 286.418 507.713C289.538 510.474 293.561 511.999 297.728 512H359.594C363.704 512.032 367.684 510.567 370.792 507.878C373.899 505.19 375.922 501.462 376.482 497.391C381.346 462.643 383.855 427.614 384 392.533C384 330.376 375.006 288.964 366.933 271.206V247.466C366.933 242.94 365.135 238.599 361.934 235.398C358.734 232.198 354.393 230.4 349.866 230.4H162.133C157.607 230.4 153.266 232.198 150.065 235.398C146.864 238.599 145.066 242.94 145.066 247.466V271.206C136.994 288.964 128 330.376 128 392.533C128.145 427.614 130.662 462.643 135.518 497.391ZM223.795 426.223C200.103 438.923 174.188 446.942 147.464 449.843C145.908 430.779 145.108 411.66 145.066 392.533C145.066 381.926 145.356 371.882 145.851 362.393C178.634 370.337 207.017 390.773 224.947 419.345C224.571 421.546 224.179 423.859 223.795 426.223ZM152.414 494.976C151.56 489.002 150.272 479.223 149 466.816C173.747 464.059 197.896 457.42 220.569 447.146C218.521 461.167 216.422 477.013 214.272 494.933L152.414 494.976ZM256 341.333C249.813 341.333 240.64 341.401 229.35 395.946C208.383 370.275 179.402 352.388 147.055 345.156C148.335 323.541 152.405 302.174 159.163 281.6H247.466V307.2C247.466 309.463 248.365 311.633 249.966 313.234C251.566 314.834 253.736 315.733 256 315.733C258.263 315.733 260.433 314.834 262.034 313.234C263.634 311.633 264.533 309.463 264.533 307.2V281.6H352.836C359.597 302.171 363.667 323.531 364.945 345.147C332.595 352.378 303.612 370.269 282.649 395.946C271.36 341.401 262.186 341.333 256 341.333ZM366.933 392.533C366.933 413.295 365.883 433.007 364.535 449.843C337.811 446.944 311.895 438.924 288.204 426.223C287.828 423.945 287.441 421.67 287.044 419.396C304.976 390.821 333.362 370.382 366.148 362.436C366.643 371.882 366.933 381.926 366.933 392.533ZM297.736 494.984C295.577 476.97 293.47 461.141 291.43 447.104C314.096 457.402 338.242 464.066 362.982 466.85C362.037 476.233 360.899 485.596 359.569 494.933L297.736 494.984ZM162.133 247.466H349.866V264.533H162.133V247.466Z" fill="black"/>
</g>
<defs>
<clipPath id="clip0_301_2143">
<rect width="512" height="512" fill="white"/>
</clipPath>
</defs>
</svg>
