<svg width="512" height="512" viewBox="0 0 512 512" fill="none" xmlns="http://www.w3.org/2000/svg">
<g clip-path="url(#clip0_301_2015)">
<path d="M375.469 76.8005C375.469 91.8191 362.242 410.795 359.085 487.168C358.887 491.56 357.002 495.707 353.822 498.743C350.643 501.779 346.414 503.472 342.018 503.467H313.687C309.531 503.477 305.517 501.962 302.403 499.21C299.289 496.458 297.292 492.659 296.791 488.534L264.535 237.142L256.002 170.667L247.468 237.142L215.212 488.534C214.711 492.659 212.715 496.458 209.601 499.21C206.487 501.962 202.472 503.477 198.316 503.467H169.986C165.589 503.472 161.361 501.779 158.181 498.743C155.002 495.707 153.117 491.56 152.919 487.168C149.762 410.795 136.535 91.8191 136.535 76.8005C136.535 59.7338 153.602 42.6671 153.602 42.6671L170.668 34.1338H341.335L358.402 42.6671C358.402 42.6671 375.469 59.7338 375.469 76.8005Z" fill="#4AA2C4"/>
<path d="M221.868 42.6665H153.602V17.0665C153.602 14.8034 154.501 12.6329 156.101 11.0326C157.701 9.43225 159.872 8.5332 162.135 8.5332H221.868V42.6665Z" fill="#3E8FA8"/>
<path d="M358.402 17.0665V42.6665H221.868C217.342 42.6665 213.001 40.8684 209.801 37.6678C206.6 34.4672 204.802 30.1262 204.802 25.5999C204.802 21.0735 206.6 16.7325 209.801 13.5319C213.001 10.3313 217.342 8.5332 221.868 8.5332H349.869C352.132 8.5332 354.302 9.43225 355.902 11.0326C357.503 12.6329 358.402 14.8034 358.402 17.0665ZM375.469 76.7999C375.469 79.1039 375.127 88.2345 374.701 102.4H349.869C343.079 102.4 336.568 99.7027 331.767 94.9018C326.966 90.1009 324.268 83.5894 324.268 76.7999V42.6665H358.402C358.402 42.6665 375.469 59.7332 375.469 76.7999ZM187.735 42.6665V76.7999C187.735 83.5894 185.038 90.1009 180.237 94.9018C175.436 99.7027 168.925 102.4 162.135 102.4H137.303C136.876 88.2345 136.535 79.1039 136.535 76.7999C136.535 59.7332 153.602 42.6665 153.602 42.6665H187.735Z" fill="#327B8C"/>
<path d="M349.867 0H162.133C157.607 0 153.266 1.79809 150.065 4.99871C146.865 8.19933 145.067 12.5403 145.067 17.0667V39.3472C135.291 49.5322 129.273 62.7404 128 76.8C128 80.9387 128.939 106.889 130.79 153.933C130.876 156.138 131.813 158.224 133.404 159.753C134.996 161.282 137.117 162.135 139.324 162.133H139.665C141.926 162.045 144.059 161.062 145.595 159.401C147.131 157.74 147.945 155.537 147.857 153.276C147.157 135.424 146.628 121.626 146.227 110.942H162.133C171.186 110.942 179.868 107.346 186.269 100.944C192.67 94.5432 196.267 85.8613 196.267 76.8085V51.2H247.467V170.103L206.771 487.484C206.508 489.541 205.504 491.432 203.948 492.803C202.391 494.174 200.389 494.931 198.315 494.933H169.975C167.776 494.949 165.657 494.109 164.065 492.592C162.473 491.075 161.533 488.998 161.442 486.801C159.428 438.263 153.344 291.618 149.18 187.392C149.089 185.129 148.103 182.994 146.439 181.458C144.775 179.922 142.568 179.109 140.305 179.2C138.042 179.291 135.907 180.276 134.371 181.941C132.835 183.605 132.023 185.812 132.113 188.075C136.277 292.301 142.353 438.955 144.375 487.509C144.639 494.113 147.454 500.356 152.23 504.925C157.005 509.493 163.367 512.03 169.975 512H198.315C204.537 511.986 210.543 509.712 215.215 505.601C219.886 501.49 222.905 495.822 223.71 489.651L256 237.764L288.29 489.651C289.095 495.822 292.114 501.49 296.785 505.601C301.457 509.712 307.463 511.986 313.685 512H342.025C348.632 512.032 354.994 509.497 359.77 504.93C364.545 500.363 367.361 494.12 367.625 487.518C370.347 421.666 384 92.416 384 76.8C382.727 62.7404 376.709 49.5322 366.933 39.3472V17.0667C366.933 12.5403 365.135 8.19933 361.935 4.99871C358.734 1.79809 354.393 0 349.867 0ZM354.628 51.2C361.306 58.2367 365.609 67.1899 366.933 76.8C366.933 78.5493 366.746 84.5568 366.421 93.8667H349.867C345.34 93.8667 340.999 92.0686 337.799 88.868C334.598 85.6673 332.8 81.3264 332.8 76.8V51.2H354.628ZM162.133 17.0667H197.837C196.826 19.7995 196.295 22.6864 196.267 25.6C196.295 28.5136 196.826 31.4005 197.837 34.1333H162.133V17.0667ZM179.2 76.8C179.2 81.3264 177.402 85.6673 174.201 88.868C171.001 92.0686 166.66 93.8667 162.133 93.8667H145.587C145.353 88.1798 145.179 82.4906 145.067 76.8C146.391 67.1899 150.694 58.2367 157.372 51.2H179.2V76.8ZM213.333 25.6C213.333 23.3368 214.232 21.1663 215.833 19.566C217.433 17.9657 219.603 17.0667 221.867 17.0667H349.867V34.1333H221.867C219.603 34.1333 217.433 33.2343 215.833 31.634C214.232 30.0337 213.333 27.8632 213.333 25.6ZM281.6 51.2V119.467H264.533V51.2H281.6ZM350.549 486.81C350.457 489.005 349.515 491.079 347.923 492.595C346.332 494.11 344.214 494.949 342.016 494.933H313.685C311.611 494.931 309.609 494.174 308.052 492.803C306.496 491.432 305.492 489.541 305.229 487.484L264.533 170.103V136.533H281.6C286.126 136.533 290.467 134.735 293.668 131.535C296.869 128.334 298.667 123.993 298.667 119.467V51.2H315.733V76.8C315.733 85.8527 319.33 94.5347 325.731 100.936C332.132 107.337 340.814 110.933 349.867 110.933H365.79C362.308 203.767 351.94 453.342 350.549 486.81Z" fill="#373737"/>
</g>
<defs>
<clipPath id="clip0_301_2015">
<rect width="512" height="512" fill="white"/>
</clipPath>
</defs>
</svg>
