<svg width="512" height="512" viewBox="0 0 512 512" fill="none" xmlns="http://www.w3.org/2000/svg">
<mask id="mask0_301_2095" style="mask-type:luminance" maskUnits="userSpaceOnUse" x="0" y="0" width="512" height="512">
<path d="M0 0.00149536H511.999V512H0V0.00149536Z" fill="white"/>
</mask>
<g mask="url(#mask0_301_2095)">
<path d="M334.999 72.5508H296.441V14.5C296.441 12.6434 297.179 10.863 298.492 9.55023C299.804 8.23747 301.585 7.49998 303.441 7.49998H327.999C329.856 7.49998 331.636 8.23747 332.949 9.55023C334.262 10.863 334.999 12.6434 334.999 14.5V72.5508Z" fill="#8795DE"/>
<path d="M328 7.50192H303.442C302.507 7.50055 301.582 7.68726 300.721 8.05092C301.989 8.58637 303.072 9.48392 303.833 10.6313C304.594 11.7787 305 13.125 305 14.5019V72.5527H335V14.5019C335 12.6454 334.262 10.8649 332.949 9.55217C331.637 8.23942 329.856 7.50192 328 7.50192Z" fill="#6C7FD8"/>
<path d="M215.558 72.5508H177V14.5C177 12.6434 177.737 10.863 179.05 9.55023C180.363 8.23747 182.143 7.49998 184 7.49998H208.558C210.414 7.49998 212.195 8.23747 213.508 9.55023C214.82 10.863 215.558 12.6434 215.558 14.5V72.5508Z" fill="#8795DE"/>
<path d="M335 67.5012H177C177.568 83.2663 176.827 99.0513 174.787 114.694C172.48 132.356 168.526 149.764 162.976 166.689C162.326 168.68 161.997 170.761 162 172.855V271.724H349.999V172.546C349.999 170.601 349.707 168.668 349.156 166.803C339.638 134.566 334.869 101.114 335 67.5012Z" fill="#8795DE"/>
<path d="M349.156 166.803C344.27 150.259 340.629 133.374 338.263 116.287C336.025 100.123 334.935 83.8198 334.999 67.5012H304.999C304.935 83.8198 306.025 100.123 308.263 116.287C310.629 133.374 314.271 150.259 319.156 166.803C319.707 168.668 319.999 170.601 319.999 172.546V271.724H349.999V172.546C349.999 170.601 349.707 168.668 349.156 166.803Z" fill="#6C7FD8"/>
<path d="M345.999 504.5H289.432C288.476 504.5 287.552 504.158 286.827 503.536C286.101 502.914 285.623 502.052 285.478 501.108L259.954 335.198C259.258 330.677 252.742 330.677 252.046 335.198L226.522 501.108C226.377 502.052 225.898 502.914 225.173 503.536C224.447 504.158 223.523 504.5 222.568 504.5H166C164.939 504.5 163.922 504.079 163.172 503.328C162.421 502.578 162 501.561 162 500.5V271.724H349.999V500.5C349.999 501.561 349.578 502.578 348.828 503.328C348.078 504.079 347.06 504.5 345.999 504.5Z" fill="#8795DE"/>
<path d="M251.285 340.143C235.694 336.436 220.258 346.823 217.821 362.662L196.521 501.109C196.376 502.053 195.897 502.914 195.172 503.536C194.447 504.158 193.524 504.5 192.568 504.5H222.568C223.524 504.5 224.447 504.158 225.172 503.536C225.897 502.914 226.376 502.053 226.521 501.109L251.285 340.143Z" fill="#6C7FD8"/>
<path d="M320 271.724V500.5C320 501.561 319.579 502.578 318.828 503.328C318.078 504.079 317.061 504.5 316 504.5H346C347.061 504.5 348.078 504.079 348.828 503.328C349.578 502.578 350 501.561 350 500.5V271.724H320Z" fill="#6C7FD8"/>
<path d="M166 504.5H222.568C223.523 504.5 224.447 504.158 225.173 503.536C225.898 502.914 226.377 502.052 226.522 501.108L230.615 474.5H162V500.5C162 501.561 162.421 502.578 163.172 503.328C163.922 504.079 164.939 504.5 166 504.5Z" fill="#7A6D79"/>
<path d="M200.615 474.5L196.522 501.108C196.377 502.052 195.898 502.914 195.173 503.536C194.448 504.158 193.524 504.5 192.568 504.5H222.568C223.524 504.5 224.448 504.158 225.173 503.536C225.898 502.914 226.377 502.052 226.522 501.108L230.615 474.5H200.615Z" fill="#685E68"/>
<path d="M289.432 504.5H346C347.06 504.5 348.078 504.079 348.828 503.328C349.578 502.578 350 501.561 350 500.5V474.5H281.385L285.478 501.108C285.623 502.052 286.102 502.914 286.827 503.536C287.552 504.158 288.476 504.5 289.432 504.5Z" fill="#7A6D79"/>
<path d="M320 474.5V500.5C320 501.561 319.579 502.578 318.828 503.328C318.078 504.079 317.061 504.5 316 504.5H346C347.061 504.5 348.078 504.079 348.828 503.328C349.578 502.578 350 501.561 350 500.5V474.5H320Z" fill="#685E68"/>
<path d="M256 197.612C234.737 197.612 217.5 180.375 217.5 159.112V130.613C217.5 129.552 217.921 128.534 218.672 127.784C219.422 127.034 220.439 126.613 221.5 126.613H290.5C291.561 126.613 292.578 127.034 293.328 127.784C294.078 128.534 294.5 129.552 294.5 130.613V159.112C294.5 180.375 277.263 197.612 256 197.612Z" fill="#7A6D79"/>
<path d="M290.5 126.612H260.5C261.561 126.612 262.578 127.034 263.328 127.784C264.079 128.534 264.5 129.552 264.5 130.612V159.112C264.5 175.053 254.811 188.732 241 194.58C245.746 196.588 250.847 197.619 256 197.612C277.263 197.612 294.5 180.375 294.5 159.112V130.612C294.5 129.552 294.078 128.534 293.328 127.784C292.578 127.034 291.561 126.612 290.5 126.612Z" fill="#685E68"/>
<path d="M162 286.724H349.999V256.724H162V286.724Z" fill="#7A6D79"/>
<path d="M320 286.724H350V256.724H320V286.724Z" fill="#685E68"/>
<path d="M278.5 256.724H233.5V286.724H278.5V256.724Z" fill="#D5DAF3"/>
</g>
</svg>
