<svg width="512" height="512" viewBox="0 0 512 512" fill="none" xmlns="http://www.w3.org/2000/svg">
<path d="M348.001 208C380.869 108.828 336.813 28.688 336.001 28H176.001C175.189 28.688 131.133 108.828 164.001 208C173.545 236.8 184.001 284 184.001 336C184.677 357.448 169.749 402.812 196.001 496C197.021 499.616 200.241 504 204.001 504H230.069C235.041 504 236.001 500 236.001 496V336C243.997 281.492 244.001 208 244.001 168C244.001 161.48 249.481 148 256.001 148C262.521 148 268.001 161.48 268.001 168C268.001 212 268.005 281.492 276.001 336L276.197 496C276.001 500 276.961 504 281.933 504H308.001C311.761 504 314.981 499.616 316.001 496C342.253 402.812 327.325 357.448 328.001 336C328.001 284 338.457 236.8 348.001 208Z" fill="url(#paint0_linear_301_2022)"/>
<path d="M336 28H176V12C176 10.9391 176.421 9.92172 177.172 9.17157C177.922 8.42143 178.939 8 180 8H332C333.061 8 334.078 8.42143 334.828 9.17157C335.579 9.92172 336 10.9391 336 12V28Z" fill="url(#paint1_linear_301_2022)"/>
<path d="M355.548 179.404L268.068 197.504C268.1 202.676 268.148 208.004 268.22 213.472L351.532 196.236C353.074 190.676 354.414 185.062 355.548 179.404Z" fill="url(#paint2_linear_301_2022)"/>
<path d="M268.5 229.416C268.612 234.656 268.752 239.964 268.924 245.328L341.508 230.312C342.968 224.61 344.565 218.945 346.3 213.32L268.5 229.416Z" fill="url(#paint3_linear_301_2022)"/>
<path d="M359.469 179.896C374.641 102.336 347.253 38.936 340.001 26.936V12C340.001 7.588 336.413 4 332.001 4H180.001C175.589 4 172.001 7.588 172.001 12V26.936C163.849 40.42 130.225 118.812 160.205 209.256C166.157 227.212 180.001 275.508 180.005 336.124C180.145 340.6 179.549 346.34 178.793 353.6C176.065 379.848 171.505 423.784 192.149 497.084C193.681 502.508 198.241 508 204.001 508H230.069C233.057 508 240.001 506.832 240.001 496V336.292C248.001 281.496 248.001 207.688 248.001 168C248.001 162.168 253.085 152 256.001 152C258.917 152 264.001 162.168 264.001 168C264.001 213.22 264.001 281.52 272.001 336.292L272.201 495.804C272.001 499.94 272.929 503.12 274.957 505.248C276.149 506.5 278.329 508 281.933 508H308.001C313.761 508 318.321 502.508 319.853 497.084C340.497 423.784 335.937 379.848 333.209 353.6C332.453 346.34 331.857 340.6 332.001 336C332.001 275.512 345.845 227.216 351.797 209.256C353.157 205.148 354.345 201.076 355.449 197.024L355.453 197.004C357.002 191.353 358.341 185.646 359.469 179.896ZM338.253 226.896L272.761 240.448C272.688 237.852 272.622 235.256 272.561 232.66L340.549 218.592C339.752 221.351 338.987 224.119 338.253 226.896ZM344.205 206.744C343.893 207.688 343.545 208.768 343.193 209.876L272.389 224.528C272.341 221.928 272.297 219.328 272.257 216.728L345.837 201.504C345.301 203.244 344.785 204.984 344.205 206.744ZM348.317 192.816L272.161 208.576C272.133 205.936 272.109 203.336 272.093 200.76L350.345 184.568C349.717 187.329 349.041 190.079 348.317 192.816ZM332.001 12V24H180.001V12H332.001ZM256.001 144C246.045 144 240.001 160.668 240.001 168C240.001 207.552 240.001 281.172 232.045 335.416C232.016 335.609 232.001 335.805 232.001 336V496C232.001 500 231.065 500 230.069 500H204.001C202.801 500 200.609 497.604 199.853 494.916C179.617 423.092 184.085 380.112 186.753 354.432C187.537 346.864 188.157 340.892 188.001 336C188.001 274.348 173.873 225.068 167.797 206.744C138.249 117.584 172.273 43.94 178.361 32H333.641C339.013 42.536 366.113 101.132 352.109 176.028L272.041 192.596C272.005 183.876 272.001 175.588 272.001 168C272.001 160.668 265.957 144 256.001 144ZM325.249 354.428C327.917 380.108 332.381 423.088 312.149 494.912C311.393 497.604 309.201 500 308.001 500H281.933C281.349 500 280.905 499.904 280.749 499.736C280.673 499.66 280.057 498.928 280.193 495.996L279.997 335.996C279.996 335.802 279.981 335.608 279.953 335.416C275.989 308.384 274.001 277.916 273.001 248.568L336.077 235.516C330.145 260.076 323.997 295.272 324.001 335.876C323.845 340.892 324.465 346.864 325.249 354.428Z" fill="#3A322B"/>
<defs>
<linearGradient id="paint0_linear_301_2022" x1="256.001" y1="-1189.6" x2="256.001" y2="3269.08" gradientUnits="userSpaceOnUse">
<stop stop-color="#967E7F"/>
<stop offset="1" stop-color="#373638"/>
</linearGradient>
<linearGradient id="paint1_linear_301_2022" x1="246.468" y1="-392.484" x2="257.468" y2="83.516" gradientUnits="userSpaceOnUse">
<stop stop-color="#58595B"/>
<stop offset="1" stop-color="#414042"/>
</linearGradient>
<linearGradient id="paint2_linear_301_2022" x1="268.068" y1="179.404" x2="355.548" y2="179.404" gradientUnits="userSpaceOnUse">
<stop stop-color="#F18774"/>
<stop offset="0.284" stop-color="#EE8372"/>
<stop offset="0.579" stop-color="#E7766C"/>
<stop offset="0.877" stop-color="#DA6263"/>
<stop offset="1" stop-color="#D3575E"/>
</linearGradient>
<linearGradient id="paint3_linear_301_2022" x1="268.5" y1="213.32" x2="346.3" y2="213.32" gradientUnits="userSpaceOnUse">
<stop stop-color="#F18774"/>
<stop offset="0.284" stop-color="#EE8372"/>
<stop offset="0.579" stop-color="#E7766C"/>
<stop offset="0.877" stop-color="#DA6263"/>
<stop offset="1" stop-color="#D3575E"/>
</linearGradient>
</defs>
</svg>
