<svg width="512" height="512" viewBox="0 0 512 512" fill="none" xmlns="http://www.w3.org/2000/svg">
<path fill-rule="evenodd" clip-rule="evenodd" d="M337.854 144.824C337.854 174.633 304.318 198.799 262.949 198.799C221.581 198.799 188.045 174.633 188.045 144.824C188.045 100.784 203.842 98.6668 173.758 46.4591L190.623 31.9736C210.495 58.3785 234.168 80.0443 262.949 95.3418C290.224 80.5051 314.129 58.9765 335.275 31.9736L351.747 46.1212C318.604 100.202 337.854 101.716 337.854 144.824Z" fill="#FA6E85"/>
<path fill-rule="evenodd" clip-rule="evenodd" d="M262.753 166.209C285.304 166.209 306.511 169.325 324.996 174.804L315.628 227.895H209.88L200.512 174.804C218.997 169.325 240.204 166.209 262.753 166.209ZM397.254 461.695C379.08 480.713 348.097 478.443 332.854 457.015C316.156 480.492 281.286 480.492 264.587 457.015C247.889 480.491 213.018 480.492 196.319 457.015C188.733 467.681 176.272 474.64 162.185 474.64C148.22 474.64 135.854 467.799 128.25 457.286C133.409 368.07 163.285 290.994 206.252 245.52H319.069C362.599 291.584 392.685 370.087 397.256 460.78L397.254 461.695Z" fill="#FCD4A9"/>
<path fill-rule="evenodd" clip-rule="evenodd" d="M397.254 424.435C379.08 443.453 348.097 441.183 332.854 419.755C316.156 443.232 281.286 443.232 264.587 419.755C247.889 443.231 213.018 443.232 196.319 419.755C188.733 430.421 176.272 437.38 162.185 437.38C148.22 437.38 135.854 430.538 128.25 420.026C133.409 330.81 163.285 253.734 206.252 208.26H319.069C362.599 254.324 392.685 332.827 397.256 423.52L397.254 424.435Z" fill="#FA6E85"/>
<path fill-rule="evenodd" clip-rule="evenodd" d="M373.345 169.439C397.027 174.695 415.395 194.073 419.153 218.284C422.911 194.074 441.277 174.695 464.96 169.439C441.278 164.184 422.911 144.807 419.152 120.597C415.394 144.807 397.027 164.183 373.345 169.439ZM46.9277 245.257C65.842 249.455 80.5108 264.931 83.5132 284.269C86.5146 264.932 101.183 249.456 120.099 245.257C101.184 241.06 86.5146 225.584 83.5132 206.248C80.5098 225.584 65.841 241.06 46.9277 245.257ZM100.077 90.198C114.537 93.4072 125.752 105.24 128.047 120.022C130.342 105.238 141.557 93.4062 156.018 90.198C141.558 86.9888 130.342 75.1575 128.047 60.375C125.751 75.1575 114.537 86.9888 100.077 90.198Z" fill="#F7BB43"/>
<path fill-rule="evenodd" clip-rule="evenodd" d="M128.097 80.6629C131.24 85.4983 135.318 89.6564 140.092 92.8925C135.318 96.1262 131.239 100.283 128.097 105.117C124.95 100.284 120.869 96.1283 116.095 92.8925C120.867 89.6521 124.947 85.4949 128.097 80.6629ZM98.7274 99.1912C110.606 101.83 119.85 111.683 121.708 123.706C122.829 130.93 133.355 130.938 134.473 123.706C136.337 111.683 145.575 101.83 157.465 99.1912C164.166 97.7064 164.161 88.0715 157.465 86.5878C145.575 83.9489 136.337 74.1021 134.473 62.0783C133.354 54.8397 122.83 54.8479 121.708 62.0783C119.85 74.1021 110.606 83.9489 98.7274 86.5878C92.0161 88.0746 92.0223 97.7105 98.7274 99.1912ZM83.5579 267.756C78.9057 259.597 72.2283 252.775 64.1705 247.95C72.2285 243.125 78.906 236.303 83.5579 228.144C88.213 236.3 94.8898 243.121 102.945 247.95C94.8909 252.779 88.2144 259.6 83.5579 267.756ZM126.601 247.95C126.6 246.481 126.099 245.056 125.18 243.91C124.261 242.764 122.98 241.965 121.546 241.645C105.205 238.024 92.5066 224.478 89.9405 207.952C88.8141 200.717 78.3007 200.718 77.1753 207.952C74.6143 224.478 61.9167 238.024 45.5685 241.645C38.8787 243.134 38.8777 252.766 45.5685 254.254C61.9156 257.875 74.6132 271.422 77.1753 287.952C78.2996 295.179 88.8141 295.18 89.9405 287.952C92.5066 271.422 105.205 257.875 121.546 254.254C122.98 253.935 124.262 253.136 125.181 251.99C126.099 250.844 126.6 249.419 126.601 247.95ZM419.196 200.348C413.092 188.426 403.446 178.523 391.641 172.134C403.446 165.74 413.092 155.837 419.196 143.914C425.331 155.882 434.938 165.718 446.757 172.134C434.953 178.521 425.294 188.431 419.196 200.348ZM466.402 165.829C445.301 161.148 428.893 143.651 425.584 122.3C424.46 115.069 413.939 115.059 412.819 122.3C409.505 143.651 393.102 161.148 371.99 165.829C365.294 167.318 365.289 176.941 371.99 178.432C393.102 183.119 409.504 200.609 412.819 221.967C413.938 229.203 424.461 229.187 425.584 221.967C428.893 200.609 445.301 183.118 466.402 178.432C473.132 176.936 473.127 167.326 466.402 165.829ZM390.749 461.761C375.06 475.971 350.382 473.184 338.154 455.964C335.58 452.339 330.212 452.353 327.643 455.964C313.505 475.836 284.012 475.859 269.892 455.964C267.319 452.338 261.937 452.354 259.369 455.964C245.225 475.857 215.724 475.837 201.619 455.964C199.047 452.34 193.673 452.349 191.108 455.964C184.468 465.304 173.667 470.871 162.235 470.871C151.646 470.871 141.581 466.079 134.886 457.951C135.287 451.635 135.829 445.32 136.481 439.049C155.603 451.085 180.342 448.36 196.346 432.415C215.036 451.222 245.933 451.221 264.636 432.438C283.325 451.22 314.222 451.223 332.908 432.421C347.756 447.239 370.543 450.742 389.146 441.181C389.828 447.997 390.375 454.882 390.749 461.761ZM209.112 217.409H226.429C208.749 267.7 198.93 354.741 196.235 381.481C195.853 385.273 198.86 388.589 202.662 388.589C204.261 388.588 205.802 387.993 206.986 386.919C208.171 385.846 208.914 384.371 209.073 382.781C211.823 355.599 222.011 265.199 240.171 217.408H256.205L255.301 376.181C255.296 377.032 255.459 377.876 255.781 378.664C256.103 379.452 256.577 380.168 257.177 380.771C257.777 381.375 258.491 381.854 259.277 382.181C260.063 382.508 260.905 382.676 261.756 382.675C265.299 382.675 268.184 379.808 268.212 376.254L269.11 217.409H285.423C303.589 265.2 313.782 355.6 316.521 382.782C316.694 384.485 317.537 386.051 318.863 387.133C320.19 388.216 321.892 388.728 323.596 388.556C325.299 388.382 326.863 387.54 327.945 386.213C329.027 384.886 329.538 383.184 329.365 381.481C326.665 354.741 316.839 267.7 299.165 217.409H316.31C358.422 263.354 386.128 340.369 390.748 424.498C375.101 438.63 350.411 435.974 338.153 418.706C335.581 415.083 330.212 415.093 327.642 418.706C313.505 438.57 284.011 438.593 269.891 418.706C267.317 415.081 261.937 415.096 259.368 418.706C245.224 438.592 215.721 438.571 201.618 418.706C199.046 415.082 193.672 415.091 191.107 418.706C184.467 428.04 173.666 433.613 162.234 433.613C151.645 433.613 141.58 428.821 134.885 420.691C140.097 338.159 167.709 262.578 209.112 217.409ZM182.031 50.5911L189.713 43.9965C210.278 69.9898 233.32 89.5727 259.972 103.733C260.913 104.235 261.965 104.495 263.032 104.491C264.099 104.486 265.149 104.216 266.086 103.705C291.409 89.924 314.971 69.828 336.183 43.9187L343.447 50.162C312.888 102.048 331.441 106.79 331.441 147.519C331.441 155.474 328.545 163.246 323.039 170.215C285.117 159.81 240.835 159.781 202.885 170.126C197.417 163.185 194.544 155.435 194.544 147.519C194.545 105.77 209.763 100.532 182.031 50.5911ZM289.915 204.493H211.873L207.929 182.143C242.296 173.156 283.303 173.156 317.666 182.143L313.728 204.493H289.915ZM403.753 427.148V425.887C401.505 381.337 392.896 337.668 378.87 299.613C365.575 263.526 347.342 232.282 326.046 208.962L331.018 180.776C339.744 170.923 344.352 159.464 344.352 147.519C344.352 103.102 325.559 104.031 357.302 52.1865C358.102 50.8783 358.411 49.3279 358.173 47.8128C357.934 46.2978 357.165 44.917 356.001 43.9177L339.531 29.7691C336.743 27.375 332.505 27.7876 330.242 30.6845C309.877 56.6778 287.265 76.8413 262.957 90.6664C237.488 76.5454 215.5 56.9235 195.827 30.7849C195.296 30.0792 194.626 29.4899 193.858 29.0535C193.091 28.6171 192.241 28.3428 191.363 28.2476C190.486 28.1524 189.597 28.2383 188.754 28.5C187.91 28.7617 187.13 29.1936 186.46 29.7691L169.599 44.2525C168.457 45.2319 167.692 46.5799 167.438 48.0634C167.185 49.5469 167.458 51.0724 168.21 52.3759C197.086 102.465 181.634 102.892 181.634 147.518C181.634 159.228 186.068 170.493 194.483 180.217L199.526 208.789C150.37 262.501 126.039 346.481 121.847 422.344C121.698 425.045 123.083 426.637 124.687 428.61C123.4 438.907 122.453 449.243 121.847 459.602C121.763 461.086 122.192 462.554 123.064 463.759C140.605 487.902 175.339 490.595 196.346 469.678C215.043 488.479 245.932 488.492 264.636 469.695C283.338 488.503 314.216 488.475 332.919 469.678C351.984 488.673 383.072 488.592 401.961 468.847C403.625 467.108 403.808 465.335 403.752 463.145C403.225 452.862 402.364 442.598 401.169 432.371C402.681 430.889 403.753 429.565 403.753 427.148Z" fill="#2B3F4F"/>
</svg>
