<svg width="512" height="512" viewBox="0 0 512 512" fill="none" xmlns="http://www.w3.org/2000/svg">
<path d="M419.619 193.448C419.33 182.049 417.204 170.65 413.34 159.927L374.505 53.9526C366.101 30.8643 338.279 21.7835 317.896 35.5013L309.395 41.2009V253.42C324.368 244.417 332.096 233.346 332.096 233.346C332.096 233.346 334.251 231.172 337.796 228.158C359.242 209.958 392.271 224.536 393.218 252.647L400.878 478.333C412.084 484.129 425.222 475.918 425.029 463.456L419.619 193.448Z" fill="black"/>
<path d="M408.566 485.067C405.195 485.067 401.804 484.255 398.655 482.632C397.891 482.238 397.247 481.646 396.789 480.919C396.33 480.193 396.074 479.357 396.046 478.498L388.395 252.812C388.277 247.387 386.597 242.111 383.558 237.615C380.518 233.12 376.248 229.595 371.258 227.463C360.902 222.904 349.561 224.507 340.924 231.849C337.63 234.651 335.611 236.679 335.534 236.747C335.621 236.747 327.467 248.194 311.885 257.565C311.153 258.007 310.316 258.247 309.46 258.259C308.604 258.271 307.761 258.055 307.016 257.633C306.272 257.211 305.653 256.598 305.223 255.858C304.794 255.118 304.569 254.276 304.572 253.421V41.2112C304.571 40.42 304.764 39.6406 305.135 38.9415C305.505 38.2425 306.042 37.6452 306.698 37.2021L315.199 31.5025C320.556 27.8735 326.674 25.52 333.083 24.6225C339.491 23.7249 346.02 24.3071 352.169 26.3245C358.336 28.3147 363.966 31.6919 368.624 36.1966C373.283 40.7014 376.848 46.2139 379.044 52.3109L417.879 158.266C421.936 169.52 424.139 181.316 424.448 193.333V193.352L429.858 463.36C429.939 467.057 429.049 470.71 427.278 473.956C425.506 477.202 422.915 479.927 419.763 481.86C416.324 483.985 412.459 485.067 408.566 485.067ZM405.601 475.01C408.653 475.832 411.918 475.358 414.681 473.639C418.198 471.455 420.265 467.688 420.197 463.534L414.788 193.565C414.516 182.645 412.494 171.839 408.798 161.56L369.973 55.6148C368.272 50.9004 365.514 46.6382 361.911 43.1551C358.307 39.672 353.953 37.0606 349.184 35.5212C344.429 33.9606 339.38 33.5087 334.424 34.2003C329.468 34.8918 324.735 36.7084 320.589 39.5109L314.223 43.7905V244.301C323.304 237.365 328.086 230.67 328.144 230.584C328.656 229.956 330.926 227.656 334.674 224.478C340.174 219.762 346.902 216.708 354.072 215.671C361.243 214.635 368.56 215.659 375.17 218.624C381.801 221.519 387.472 226.239 391.523 232.234C395.573 238.229 397.835 245.252 398.046 252.484L405.601 475.01Z" fill="black"/>
<path d="M346.2 459.979C335.284 478.044 308.911 470.992 308.911 470.992C294.711 486.835 260.706 475.918 260.706 475.918C245.926 489.057 216.268 481.425 216.268 481.425C193.277 486.352 174.149 467.707 174.149 467.707C159.852 475.339 134.638 458.916 134.638 458.916L176.274 301.066C167.841 281.223 169.995 246.262 172.314 225.425C173.212 217.426 175.55 209.775 178.206 202.172C181.829 191.836 182.843 173.935 182.843 173.935C171.348 113.075 199.363 102.158 199.363 102.158C197.431 100.709 195.499 99.3569 193.663 98.101C184.969 92.6912 173.473 97.7146 170.961 107.665L140.241 231.028C138.019 240.012 129.325 245.905 120.148 244.649L102.759 242.33C92.1325 240.881 85.0804 230.738 87.3989 220.305C96.4797 180.601 118.119 91.3388 137.343 61.0052C141.883 53.8565 155.408 41.9742 166.517 32.7969C174.922 25.938 187.287 27.0973 194.339 35.212C219.746 64.3863 248.148 71.4384 248.148 71.4384L312.776 80.7124V287.976C312.776 303.597 314.766 319.15 318.688 334.278L337.12 405.359C338.791 411.831 340.114 418.372 341.08 424.97L346.2 459.979Z" fill="#DDDDDD"/>
<path d="M234.941 488.457C228.632 488.427 222.343 487.727 216.181 486.371C196.222 490.119 179.375 478.391 173.24 473.329C156.992 478.778 134.657 464.703 132 462.964C131.151 462.409 130.498 461.601 130.134 460.654C129.77 459.707 129.713 458.67 129.972 457.689L171.202 301.384C163.377 281.194 164.845 248.813 167.521 224.893C168.497 216.102 171.047 208.007 173.656 200.569C176.66 191.971 177.781 177.297 177.984 174.234C169.608 129.12 182.36 109.732 190.928 102.091C189.606 101.303 188.116 100.839 186.58 100.735C185.045 100.631 183.506 100.89 182.089 101.492C178.901 102.777 176.486 105.52 175.646 108.853L144.926 232.206C143.581 237.724 140.233 242.544 135.532 245.729C130.831 248.914 125.113 250.237 119.49 249.44L102.121 247.122C98.9538 246.692 95.9104 245.611 93.1821 243.946C90.4537 242.282 88.0996 240.071 86.268 237.452C84.4513 234.83 83.196 231.86 82.581 228.73C81.9659 225.6 82.0042 222.376 82.6936 219.261C93.5229 171.906 114.486 88.0735 133.275 58.4161C137.197 52.2528 147.351 42.3799 163.454 29.0679C168.489 25.0271 174.887 23.0815 181.318 23.6357C187.75 24.1898 193.721 27.2009 197.99 32.0433C222.122 59.7493 249.055 66.6854 249.325 66.753L313.47 75.9304C314.623 76.0933 315.677 76.6668 316.441 77.5454C317.204 78.4239 317.624 79.5485 317.624 80.7123V287.976C317.624 303.181 319.556 318.358 323.372 333.09L341.804 404.161C343.514 410.778 344.896 417.55 345.871 424.293L350.991 459.302C351.151 460.408 350.923 461.535 350.344 462.49C339.853 479.86 318.194 477.705 310.466 476.276C296.072 489.095 270.047 483.482 261.778 481.27C254.03 486.912 243.838 488.467 234.951 488.467L234.941 488.457ZM216.268 476.604C216.673 476.604 217.079 476.643 217.466 476.749C217.746 476.817 244.833 483.56 257.498 472.305C258.127 471.749 258.889 471.365 259.71 471.193C260.532 471.02 261.384 471.064 262.183 471.32C270.82 474.093 295.415 478.816 305.317 467.775C305.915 467.118 306.68 466.636 307.531 466.381C308.382 466.125 309.286 466.106 310.147 466.326C310.379 466.393 331.728 471.803 341.157 458.868L336.307 425.675C335.362 419.244 334.072 412.869 332.443 406.576L314.011 335.495C309.986 319.973 307.948 304.002 307.945 287.966V84.9145L247.471 76.2299C245.77 75.8434 216.809 68.376 190.697 38.3902C188.091 35.4186 184.439 33.5686 180.502 33.2265C176.565 32.8845 172.648 34.0769 169.569 36.5547C150.509 52.3011 143.738 59.9618 141.419 63.6038C123.412 92.0342 102.787 174.669 92.1125 221.396C91.2913 225.077 92.0255 228.835 94.1895 231.936C96.3534 235.046 99.6282 237.046 103.415 237.558L120.784 239.877C124.048 240.336 127.365 239.569 130.095 237.724C132.826 235.879 134.774 233.087 135.565 229.888L166.275 106.505C167.073 103.385 168.593 100.495 170.713 98.0684C172.832 95.6421 175.491 93.7474 178.476 92.5366C181.338 91.3566 184.439 90.8752 187.523 91.1322C190.607 91.3892 193.586 92.3773 196.213 94.0146C198.28 95.4347 200.27 96.8161 202.27 98.3135C202.958 98.8312 203.496 99.5236 203.827 100.319C204.158 101.115 204.27 101.984 204.152 102.838C204.034 103.691 203.689 104.497 203.155 105.173C202.62 105.848 201.914 106.368 201.111 106.679C200.937 106.747 177.104 117.576 187.586 173.046C187.663 173.433 187.683 173.819 187.663 174.225C187.625 174.978 186.572 192.908 182.775 203.766C180.36 210.673 177.993 218.141 177.124 225.985C174.989 245.113 172.612 280.083 180.717 299.191C181.141 300.18 181.223 301.281 180.949 302.321L140.231 456.646C148.21 461.186 163.474 467.948 171.878 463.437C173.714 462.471 176.013 462.78 177.51 464.239C177.694 464.403 195.121 481.077 215.263 476.701C215.594 476.633 215.93 476.607 216.268 476.604Z" fill="black"/>
<path d="M140.241 231.028L170.961 107.665C173.473 97.7147 184.969 92.6913 193.663 98.1011C195.499 99.357 197.431 100.709 199.363 102.158C199.363 102.158 171.348 113.075 182.843 173.935C182.843 173.935 181.829 191.826 178.206 202.172C176.545 206.906 175.173 211.717 174.033 216.566H312.776V80.7221L248.148 71.4482C248.148 71.4482 219.746 64.3961 194.339 35.2217C187.287 27.107 174.922 25.9478 166.517 32.8066C155.408 41.984 141.883 53.8663 137.343 61.015C118.119 91.3485 96.4797 180.61 87.3989 220.315C85.0804 230.748 92.1325 240.891 102.759 242.34L120.148 244.659C129.325 245.915 138.019 240.012 140.241 231.028Z" fill="#5AE4A7"/>
<path d="M122.659 249.653C121.615 249.653 120.553 249.595 119.49 249.44L102.121 247.122C98.9538 246.692 95.9104 245.611 93.1821 243.946C90.4537 242.282 88.0996 240.071 86.268 237.452C84.4513 234.83 83.196 231.86 82.581 228.73C81.9659 225.6 82.0042 222.376 82.6936 219.261C93.5229 171.906 114.486 88.0735 133.275 58.4161C137.197 52.2528 147.351 42.3799 163.454 29.0679C168.489 25.0271 174.887 23.0815 181.318 23.6357C187.75 24.1898 193.721 27.2009 197.99 32.0433C222.122 59.7493 249.055 66.6854 249.325 66.753L313.47 75.9304C314.623 76.0933 315.677 76.6668 316.441 77.5454C317.204 78.4239 317.624 79.5485 317.624 80.7123V216.585C317.624 217.867 317.115 219.095 316.21 220.001C315.304 220.907 314.075 221.416 312.794 221.416H174.023C173.294 221.417 172.574 221.252 171.918 220.934C171.262 220.616 170.687 220.153 170.236 219.58C169.318 218.431 168.98 216.924 169.318 215.475C170.526 210.355 171.975 205.331 173.646 200.569C176.65 191.99 177.771 177.306 177.974 174.244C169.598 129.13 182.35 109.742 190.919 102.1C189.596 101.313 188.107 100.849 186.571 100.744C185.035 100.64 183.496 100.9 182.08 101.501C178.892 102.786 176.477 105.53 175.636 108.863L144.916 232.216C143.688 237.194 140.827 241.617 136.791 244.779C132.755 247.942 127.776 249.661 122.649 249.663L122.659 249.653ZM179.133 33.1639C175.752 33.1639 172.352 34.2652 169.569 36.545C150.509 52.2914 143.738 59.9521 141.419 63.5941C123.412 92.0246 102.787 174.659 92.1125 221.387C91.2913 225.067 92.0255 228.825 94.1895 231.926C96.3534 235.037 99.6282 237.036 103.415 237.548L120.784 239.867C124.048 240.327 127.365 239.56 130.095 237.715C132.826 235.869 134.774 233.077 135.565 229.878L166.275 106.505C167.072 103.383 168.591 100.491 170.711 98.0629C172.83 95.6349 175.49 93.7386 178.476 92.5269C181.338 91.3469 184.439 90.8655 187.523 91.1225C190.607 91.3796 193.586 92.3676 196.213 94.005C198.28 95.425 200.27 96.8065 202.27 98.3038C202.958 98.8215 203.496 99.514 203.827 100.309C204.158 101.105 204.27 101.974 204.152 102.828C204.034 103.681 203.689 104.488 203.155 105.163C202.62 105.839 201.914 106.359 201.111 106.67C200.937 106.737 177.104 117.567 187.586 173.037C187.663 173.423 187.683 173.809 187.663 174.215C187.625 174.969 186.572 192.898 182.775 203.756C181.867 206.345 181.027 209.012 180.263 211.746H307.945V84.9049L247.471 76.2202C245.77 75.8338 216.809 68.3663 190.697 38.3805C189.255 36.7342 187.476 35.4166 185.481 34.5166C183.486 33.6167 181.322 33.1554 179.133 33.1639Z" fill="black"/>
<path d="M381.556 478.333C392.762 484.129 405.9 475.918 405.707 463.456L400.297 193.448C400.007 182.049 397.882 170.65 394.018 159.927L355.183 53.9526C346.779 30.8643 318.957 21.7835 298.573 35.5013L246.021 70.7616L199.265 102.158C197.912 102.737 171.636 114.62 182.842 173.934C182.842 173.934 181.828 191.883 178.195 202.21C175.529 209.784 173.201 217.426 172.312 225.395C170.467 241.886 168.738 267.254 172.312 286.961V287.251L176.369 301.065C176.369 301.065 209.601 265.418 250.658 264.742C291.521 264.066 312.774 233.346 312.774 233.346C312.774 233.346 314.928 231.172 318.474 228.158C339.92 209.958 372.948 224.536 373.895 252.647L381.556 478.333Z" fill="white"/>
<path d="M389.247 485.067C385.876 485.067 382.485 484.256 379.335 482.633C378.572 482.238 377.928 481.647 377.47 480.92C377.011 480.193 376.755 479.357 376.727 478.498L369.076 252.812C368.957 247.387 367.278 242.111 364.239 237.615C361.199 233.12 356.929 229.595 351.939 227.463C341.592 222.904 330.241 224.507 321.605 231.849C318.311 234.651 316.292 236.679 316.215 236.747C315.828 237.443 293.59 268.868 250.737 269.583C212.288 270.201 180.216 304.022 179.907 304.36C179.327 304.988 178.591 305.45 177.774 305.7C176.956 305.95 176.088 305.978 175.256 305.781C174.424 305.584 173.66 305.17 173.041 304.581C172.422 303.992 171.971 303.249 171.734 302.428L167.677 288.614C167.548 288.171 167.483 287.712 167.483 287.252C163.938 267.863 165.532 242.563 167.512 224.855C168.507 216.016 171.164 207.64 173.637 200.608C176.651 192.049 177.781 177.307 177.984 174.235C166.566 112.746 194.185 99.0771 197.373 97.7246L295.88 31.4931C301.238 27.8657 307.356 25.5139 313.765 24.618C320.173 23.7221 326.702 24.306 332.85 26.3248C339.017 28.3149 344.646 31.6921 349.305 36.1969C353.964 40.7016 357.529 46.2142 359.725 52.3112L398.56 158.266C402.617 169.521 404.82 181.316 405.129 193.333L410.539 463.36C410.619 467.057 409.73 470.711 407.958 473.957C406.187 477.202 403.596 479.927 400.443 481.86C397.004 483.985 393.14 485.067 389.247 485.067ZM386.281 475.011C389.344 475.832 392.599 475.358 395.362 473.639C398.878 471.456 400.946 467.688 400.878 463.534L395.468 193.546C395.195 182.636 393.173 171.84 389.479 161.57L350.654 55.6054C348.953 50.891 346.195 46.6288 342.591 43.1457C338.988 39.6626 334.634 37.0512 329.865 35.5118C325.11 33.9512 320.061 33.4993 315.105 34.1909C310.148 34.8824 305.416 36.699 301.27 39.5015L201.961 106.158C200.918 106.709 177.105 117.528 187.587 173.037C187.664 173.423 187.683 173.81 187.664 174.196C187.625 174.969 186.572 192.957 182.747 203.805C180.457 210.326 177.994 218.045 177.115 225.927C175.202 242.988 173.647 267.274 177.067 286.092L177.105 286.421L178.757 292.053C190.398 281.571 217.862 260.454 250.582 259.913C288.344 259.285 308.612 230.874 308.815 230.593C309.336 229.946 311.616 227.647 315.355 224.469C320.855 219.753 327.583 216.698 334.753 215.662C341.923 214.625 349.241 215.649 355.851 218.615C362.482 221.509 368.153 226.229 372.203 232.224C376.254 238.219 378.516 245.242 378.727 252.474L386.281 475.011Z" fill="black"/>
<path d="M398.365 175.964C379.721 167.366 349.773 160.121 327.361 186.107C292.294 226.681 265.245 248.61 237.52 246.485C219.938 245.035 190.087 260.009 170.573 271.215C169.636 255.237 170.902 238.177 172.254 225.889C173.153 217.755 175.471 209.939 178.195 202.221C181.828 191.884 182.842 173.935 182.842 173.935C180.234 160.314 179.654 149.205 180.234 140.22L348.807 42.8438C351.512 46.0317 353.637 49.7992 355.183 53.9532L394.018 159.928C395.853 165.144 397.399 170.457 398.365 175.964Z" fill="#4BC98C"/>
<path d="M170.574 276.055C169.343 276.057 168.157 275.587 167.261 274.743C166.364 273.899 165.825 272.743 165.753 271.514C164.778 254.927 166.14 237.258 167.454 225.357C168.478 216.141 171.154 207.678 173.636 200.626C176.66 192.029 177.781 177.325 177.983 174.244C175.626 161.676 174.757 150.132 175.414 139.911C175.466 139.117 175.713 138.349 176.135 137.675C176.556 137 177.138 136.441 177.829 136.047L346.402 38.6701C347.379 38.1034 348.524 37.8984 349.637 38.0909C350.749 38.2835 351.759 38.8612 352.489 39.7231C355.503 43.2684 357.937 47.4997 359.714 52.2719L398.549 158.266C400.723 164.419 402.22 169.916 403.128 175.133C403.273 175.999 403.179 176.889 402.857 177.706C402.536 178.524 401.998 179.239 401.302 179.774C400.605 180.31 399.776 180.646 398.904 180.748C398.031 180.849 397.147 180.711 396.347 180.349C377.538 171.693 350.943 166.197 331.013 189.256C297.337 228.255 268.405 253.797 237.153 251.305C224.537 250.174 201.835 258.84 172.979 275.407C172.247 275.828 171.418 276.051 170.574 276.055ZM184.929 143.089C184.601 152.035 185.49 162.091 187.586 173.036C187.663 173.423 187.682 173.809 187.663 174.215C187.625 174.978 186.572 192.975 182.746 203.824C180.447 210.364 177.964 218.17 177.056 226.41C175.993 236.08 174.892 249.633 175.114 263.139C195.788 251.797 221.426 240.388 237.916 241.673C261.217 243.509 286.112 226.458 323.701 182.948C340.5 163.473 364.351 158.314 391.536 167.955C390.908 165.794 390.218 163.652 389.468 161.531L350.653 55.6144C349.784 53.2959 348.721 51.1416 347.484 49.1806L184.929 143.089Z" fill="black"/>
<path d="M174.109 467.678L190.735 355.328Z" fill="white"/>
<path d="M174.119 472.518C173.425 472.518 172.738 472.369 172.107 472.081C171.476 471.792 170.914 471.371 170.46 470.845C170.006 470.32 169.671 469.703 169.477 469.036C169.283 468.37 169.236 467.669 169.337 466.982L185.953 354.623C186.14 353.354 186.823 352.212 187.852 351.448C188.881 350.683 190.172 350.359 191.44 350.546C192.708 350.733 193.85 351.416 194.615 352.445C195.379 353.474 195.704 354.765 195.517 356.033L178.891 468.393C178.722 469.538 178.147 470.585 177.271 471.342C176.395 472.099 175.277 472.516 174.119 472.518Z" fill="black"/>
<path d="M216.316 481.386L225.078 348.749Z" fill="white"/>
<path d="M216.316 486.207H215.997C215.363 486.165 214.744 485.999 214.174 485.717C213.605 485.436 213.096 485.045 212.678 484.567C212.26 484.088 211.94 483.532 211.737 482.93C211.534 482.328 211.452 481.692 211.496 481.058L220.267 348.431C220.303 347.795 220.465 347.174 220.743 346.602C221.022 346.03 221.412 345.519 221.891 345.1C222.37 344.681 222.927 344.361 223.531 344.16C224.134 343.959 224.772 343.88 225.407 343.929C226.04 343.971 226.658 344.137 227.227 344.418C227.796 344.699 228.304 345.089 228.722 345.566C229.14 346.043 229.46 346.598 229.664 347.199C229.867 347.8 229.95 348.435 229.908 349.068L221.137 481.705C221.056 482.929 220.513 484.075 219.618 484.913C218.722 485.751 217.542 486.207 216.316 486.207Z" fill="black"/>
<path d="M260.706 475.899L255.229 346.006Z" fill="white"/>
<path d="M260.705 480.73C259.46 480.731 258.263 480.251 257.363 479.391C256.463 478.53 255.93 477.356 255.875 476.112L250.397 346.218C250.369 345.583 250.466 344.949 250.683 344.351C250.901 343.753 251.234 343.205 251.664 342.736C252.094 342.268 252.612 341.889 253.189 341.621C253.765 341.353 254.389 341.202 255.025 341.176C257.768 341.311 259.952 343.127 260.048 345.803L265.535 475.697C265.562 476.331 265.464 476.965 265.246 477.561C265.028 478.157 264.695 478.705 264.265 479.173C263.835 479.64 263.318 480.018 262.742 480.285C262.166 480.553 261.542 480.703 260.908 480.73H260.705Z" fill="black"/>
<path d="M308.94 470.972L293.039 338.335Z" fill="white"/>
<path d="M308.94 475.802C307.758 475.803 306.617 475.372 305.732 474.588C304.847 473.805 304.28 472.725 304.139 471.551L288.247 338.914C288.172 338.285 288.221 337.646 288.392 337.035C288.564 336.424 288.853 335.853 289.245 335.354C289.638 334.856 290.124 334.439 290.677 334.128C291.23 333.817 291.839 333.619 292.469 333.543C293.1 333.46 293.741 333.503 294.355 333.671C294.969 333.84 295.544 334.129 296.044 334.522C296.545 334.916 296.961 335.405 297.27 335.962C297.578 336.519 297.772 337.132 297.84 337.765L313.731 470.392C313.813 471.071 313.75 471.759 313.547 472.412C313.343 473.065 313.003 473.667 312.549 474.178C312.095 474.689 311.538 475.099 310.914 475.378C310.29 475.658 309.624 475.803 308.94 475.802Z" fill="black"/>
<path d="M381.557 478.333L346.2 459.978L341.08 424.979C340.114 418.371 338.791 411.821 337.12 405.368L318.688 334.268C314.765 319.15 312.778 303.594 312.775 287.975V233.346C312.775 233.346 314.901 231.124 318.475 228.129C339.921 209.968 372.96 224.555 373.926 252.667L381.557 478.333Z" fill="#4BC98C"/>
<path d="M381.557 483.163C380.784 483.165 380.021 482.98 379.335 482.622L343.978 464.268C343.3 463.918 342.714 463.411 342.271 462.789C341.827 462.167 341.538 461.449 341.428 460.693L336.308 425.674C335.363 419.244 334.073 412.868 332.444 406.576L314.012 335.495C309.987 319.972 307.948 304.002 307.945 287.966V233.356C307.945 232.119 308.428 230.921 309.278 230.023C309.278 230.023 311.549 227.637 315.374 224.429C320.88 219.73 327.607 216.69 334.772 215.664C341.938 214.638 349.248 215.668 355.851 218.633C362.482 221.532 368.154 226.254 372.207 232.25C376.26 238.246 378.527 245.269 378.746 252.503L386.378 478.169C386.4 478.816 386.292 479.461 386.059 480.066C385.827 480.67 385.476 481.222 385.026 481.688C384.576 482.154 384.037 482.524 383.442 482.778C382.846 483.031 382.205 483.162 381.557 483.163ZM350.625 456.839L376.457 470.238L369.105 252.831C368.981 247.402 367.296 242.124 364.252 237.627C361.208 233.13 356.933 229.605 351.939 227.473C347.001 225.199 341.512 224.4 336.131 225.172C330.75 225.943 325.706 228.251 321.605 231.82C320.235 232.962 318.901 234.148 317.606 235.375V287.966C317.606 303.171 319.538 318.348 323.363 333.08L341.795 404.151C343.505 410.768 344.887 417.54 345.862 424.283L350.625 456.839Z" fill="black"/>
</svg>
