<svg width="512" height="512" viewBox="0 0 512 512" fill="none" xmlns="http://www.w3.org/2000/svg">
<mask id="mask0_301_2062" style="mask-type:luminance" maskUnits="userSpaceOnUse" x="0" y="0" width="512" height="512">
<path d="M0 0.00149536H511.999V512H0V0.00149536Z" fill="white"/>
</mask>
<g mask="url(#mask0_301_2062)">
<path d="M430.988 165.511H81.0078L84.7648 113.865C85.4338 104.675 93.0848 97.5609 102.3 97.5609H409.696C418.911 97.5609 426.561 104.675 427.23 113.865L430.988 165.511Z" fill="#ACC8E8"/>
<path d="M427.23 113.864C426.562 104.675 418.911 97.56 409.697 97.56H385.627C394.842 97.56 402.493 104.675 403.162 113.864L406.919 165.51H430.989L427.23 113.864Z" fill="#94B9E3"/>
<path d="M255.999 165.51V344.325L233.202 380.395L216.775 407.103C214.897 410.157 212.014 412.459 208.621 413.616C205.228 414.772 201.538 414.709 198.186 413.438L17.449 344.897C9.46898 341.87 5.46899 332.933 8.52798 324.965L19.1869 297.21L38.3659 247.264L65.7398 175.99C66.9248 172.906 69.0167 170.254 71.7398 168.383C74.4628 166.512 77.689 165.51 80.9928 165.51H255.999Z" fill="#ACC8E8"/>
<path d="M231.929 97.5612V344.325L209.133 380.394L192.705 407.103C191.967 408.301 191.068 409.392 190.033 410.346L198.186 413.437C201.538 414.708 205.227 414.771 208.62 413.615C212.013 412.459 214.897 410.156 216.775 407.103L233.201 380.394L255.998 344.325V97.5612H231.929Z" fill="#94B9E3"/>
<path d="M233.202 380.395L216.775 407.103C214.897 410.157 212.014 412.459 208.621 413.616C205.228 414.772 201.538 414.709 198.186 413.438L17.449 344.897C9.46898 341.871 5.46899 332.933 8.52798 324.965L19.186 297.21L233.202 380.395Z" fill="#D5E3F4"/>
<path d="M233.199 380.391L216.779 407.101C212.899 413.401 205.098 416.061 198.188 413.441L181.779 407.221C187.909 408.111 194.219 404.631 197.589 399.17L209.129 380.391L213.879 372.881L233.199 380.391Z" fill="#C0D6F1"/>
<path d="M178.77 179.601H163.645V97.5608H193.885V164.486C193.885 172.833 187.119 179.601 178.77 179.601Z" fill="#D5E3F4"/>
<path d="M256 165.51V344.325L278.796 380.395L295.224 407.103C297.102 410.157 299.986 412.459 303.378 413.616C306.771 414.772 310.461 414.709 313.813 413.438L494.55 344.897C502.53 341.87 506.53 332.933 503.471 324.965L492.812 297.21L473.633 247.264L446.258 175.99C445.074 172.906 442.982 170.254 440.259 168.383C437.536 166.512 434.309 165.51 431.005 165.51H256Z" fill="#ACC8E8"/>
<path d="M503.472 324.965L492.813 297.209L473.634 247.264L446.259 175.99C445.074 172.906 442.982 170.253 440.259 168.382C437.536 166.511 434.31 165.51 431.006 165.509H406.938C410.242 165.51 413.468 166.512 416.191 168.383C418.914 170.254 421.006 172.906 422.191 175.99L449.565 247.264L468.744 297.209L479.403 324.965C482.462 332.933 478.462 341.87 470.482 344.897L297.896 410.347C300 412.29 302.604 413.609 305.416 414.155C308.227 414.701 311.135 414.453 313.813 413.438L494.551 344.897C502.532 341.87 506.532 332.933 503.472 324.965Z" fill="#94B9E3"/>
<path d="M278.795 380.395L295.223 407.103C297.101 410.157 299.985 412.459 303.377 413.616C306.77 414.772 310.46 414.709 313.812 413.438L494.549 344.897C502.529 341.871 506.529 332.933 503.47 324.965L492.812 297.21L278.795 380.395Z" fill="#D5E3F4"/>
<path d="M503.47 324.965L492.811 297.209L471.861 305.353L482.553 333.271C485.213 340.198 482.533 347.854 476.543 351.725L494.549 344.897C502.53 341.87 506.53 332.933 503.47 324.965Z" fill="#C0D6F1"/>
<path d="M333.229 179.601H348.355V97.5608H318.113V164.486C318.113 172.833 324.88 179.601 333.229 179.601Z" fill="#D5E3F4"/>
<path d="M290.621 125.774C289.865 125.156 288.994 124.694 288.058 124.413C287.123 124.132 286.142 124.038 285.17 124.136C284.198 124.235 283.256 124.523 282.396 124.986C281.536 125.449 280.775 126.077 280.158 126.834C279.541 127.59 279.078 128.461 278.797 129.396C278.516 130.331 278.422 131.313 278.52 132.284C278.619 133.256 278.907 134.198 279.37 135.058C279.833 135.918 280.46 136.678 281.217 137.296C281.972 137.929 282.845 138.407 283.785 138.701C284.726 138.994 285.716 139.098 286.697 139.005C287.678 138.913 288.631 138.627 289.501 138.163C290.37 137.699 291.139 137.067 291.762 136.304C292.385 135.54 292.85 134.66 293.131 133.716C293.411 132.771 293.5 131.78 293.394 130.8C293.288 129.82 292.988 128.871 292.512 128.008C292.036 127.146 291.393 126.386 290.621 125.774Z" fill="black"/>
</g>
</svg>
