<svg width="512" height="512" viewBox="0 0 512 512" fill="none" xmlns="http://www.w3.org/2000/svg">
<path d="M152 96V72H216V120H152V96Z" fill="#FFC26F"/>
<path d="M152 96V120H120V72H152V96ZM392 72V120H216V72H392ZM96.64 353.44L100.4 354C99.68 359.28 98.96 364.72 98.4 370.16C97.68 377.84 97.04 385.52 96.64 393.44C41.84 381.68 8 363.92 8 344C10.96 341.04 17.44 335.52 25.52 328C47.5845 340.513 71.6451 349.119 96.64 353.44Z" fill="#F0BCB9"/>
<path d="M184 416C192.176 423.219 201.689 428.764 212 432.32C197.918 437.519 183.01 440.121 168 440C120 440 96 416 96 416C96 408.4 96.24 400.88 96.64 393.44C97.04 385.52 97.68 377.84 98.4 370.16C118.447 385.132 142.993 392.834 168 392C173.428 392.021 178.852 391.7 184.24 391.04C184.08 399.2 184 407.52 184 416ZM486.48 328C494.56 335.52 501.04 341.04 504 344C504 363.92 470.16 381.68 415.36 393.44C414.96 385.52 414.32 377.84 413.6 370.16C413.04 364.72 412.32 359.28 411.6 354L415.36 353.44C440.355 349.119 464.415 340.513 486.48 328Z" fill="#F0BCB9"/>
<path d="M415.36 393.44C415.76 400.88 416 408.4 416 416C416 416 392 440 344 440C328.99 440.121 314.082 437.519 300 432.32C310.311 428.764 319.824 423.219 328 416C328 407.52 327.92 399.2 327.76 391.04C333.148 391.7 338.572 392.021 344 392C369.007 392.834 393.553 385.132 413.6 370.16C414.32 377.84 414.96 385.52 415.36 393.44Z" fill="#F0BCB9"/>
<path d="M327.76 391.04C327.92 399.2 328 407.52 328 416C319.824 423.219 310.311 428.763 300 432.32C271.56 442.56 240.44 442.56 212 432.32C201.689 428.763 192.176 423.219 184 416C184 407.52 184.08 399.2 184.24 391.04C184.4 386.16 184.48 381.36 184.64 376.56C188.72 380.32 212.56 400 256 400C299.44 400 323.28 380.32 327.36 376.56C327.52 381.36 327.6 386.16 327.76 391.04Z" fill="#CFA2A0"/>
<path d="M392 120C400 152 424 152 424 216C424 264 462.32 305.28 486.48 328C464.415 340.513 440.355 349.119 415.36 353.44L411.6 354C403.13 291.44 382.908 231.046 352 176V120H392Z" fill="#F7F3EB"/>
<path d="M327.36 376.56C325.403 309.156 317.587 242.05 304 176V120H352V176C382.908 231.046 403.13 291.44 411.6 354C412.32 359.28 413.04 364.72 413.6 370.16C393.552 385.132 369.006 392.834 344 392C338.571 392.021 333.147 391.7 327.76 391.04C327.6 386.16 327.52 381.36 327.36 376.56ZM160 120V176C129.091 231.046 108.869 291.44 100.4 354L96.6395 353.44C71.6446 349.119 47.5841 340.513 25.5195 328C49.6795 305.28 87.9995 264 87.9995 216C87.9995 152 112 152 120 120H160Z" fill="#F7F3EB"/>
<path d="M184.64 376.56C184.48 381.36 184.4 386.16 184.24 391.04C178.853 391.7 173.428 392.021 168 392C142.994 392.834 118.447 385.132 98.4004 370.16C98.9604 364.72 99.6804 359.28 100.4 354C108.87 291.44 129.092 231.046 160 176V120H208V176C194.413 242.05 186.597 309.156 184.64 376.56Z" fill="#F7F3EB"/>
<path d="M216.001 120H304.001V176C317.588 242.05 325.404 309.156 327.361 376.56C323.281 380.32 299.441 400 256.001 400C212.561 400 188.721 380.32 184.641 376.56C186.597 309.156 194.413 242.05 208.001 176V120H216.001Z" fill="#E8E4DC"/>
<path d="M208.168 390.792C199.603 387.36 191.656 382.553 184.64 376.56C184.48 381.36 184.4 386.16 184.24 391.04C184.08 399.2 184 407.52 184 416C191.093 422.24 199.213 427.204 208 430.672C208 421.312 208.056 398.848 208.16 391.04L208.168 390.792ZM303.84 391.04C303.944 398.848 303.992 421.312 304 430.672C312.787 427.204 320.907 422.24 328 416C328 407.52 327.92 399.2 327.76 391.04C327.6 386.16 327.52 381.36 327.36 376.56C320.344 382.553 312.397 387.36 303.832 390.792L303.84 391.04Z" fill="#F0BCB9"/>
<path d="M303.577 376.56C303.681 381.28 303.737 386 303.833 390.792C312.398 387.36 320.345 382.553 327.361 376.56C325.404 309.156 317.588 242.05 304.001 176V136C299.757 136 295.687 137.686 292.687 140.686C289.686 143.687 288.001 147.757 288.001 152V176C297.104 242.492 302.305 309.46 303.577 376.56ZM208.001 136V176C194.413 242.05 186.597 309.156 184.641 376.56C191.656 382.553 199.603 387.36 208.169 390.792C208.265 385.992 208.321 381.28 208.425 376.56C209.697 309.46 214.898 242.492 224.001 176V152C224.001 147.757 222.315 143.687 219.314 140.686C216.314 137.686 212.244 136 208.001 136Z" fill="#F7F3EB"/>
<path d="M327.999 416C319.823 423.219 310.31 428.764 299.999 432.32C314.081 437.519 328.989 440.121 343.999 440C348.687 440 353.071 439.712 357.303 439.304C333.391 437.36 327.999 432 327.999 432V416ZM183.999 432C183.999 432 178.607 437.36 154.695 439.304C158.927 439.712 163.311 440 167.999 440C183.01 440.121 197.917 437.519 211.999 432.32C201.688 428.764 192.175 423.219 183.999 416V432Z" fill="#BB9391"/>
<path d="M439.448 347.48C431.944 349.608 423.936 351.6 415.36 353.44L411.6 354C412.32 359.28 413.04 364.72 413.6 370.16C414.32 377.84 414.96 385.52 415.36 393.44C470.16 381.68 504 363.92 504 344C489.556 352.806 473.186 357.962 456.304 359.024C452.581 359.412 448.842 358.464 445.755 356.349C442.667 354.234 440.431 351.091 439.448 347.48Z" fill="#CFA2A0"/>
<path d="M439.448 347.48C439.234 346.782 439.066 346.072 438.944 345.352C430.064 278.344 368 168 368 168V152C368 147.757 369.686 143.687 372.686 140.686C375.687 137.686 379.757 136 384 136H398.352C395.528 130.975 393.391 125.594 392 120H352V176C382.908 231.046 403.13 291.44 411.6 354L415.36 353.44C423.936 351.6 431.944 349.6 439.448 347.48Z" fill="#E8E4DC"/>
<path d="M72.552 347.48C71.5609 351.081 69.3249 354.214 66.2415 356.322C63.1581 358.43 59.4272 359.376 55.712 358.992C38.8278 357.936 22.4535 352.791 8 344C8 363.92 41.84 381.68 96.64 393.44C97.04 385.52 97.68 377.84 98.4 370.16C98.96 364.72 99.68 359.28 100.4 354L96.64 353.44C88.5491 351.711 80.5157 349.723 72.552 347.48Z" fill="#CFA2A0"/>
<path d="M152.001 120H120.001C118.61 125.594 116.473 130.975 113.649 136H128.001C132.244 136 136.314 137.686 139.314 140.686C142.315 143.687 144.001 147.757 144.001 152V168C144.001 168 81.9367 278.336 73.0567 345.344C72.936 346.066 72.7676 346.78 72.5527 347.48C80.0567 349.6 88.0647 351.6 96.6407 353.44L100.401 354C108.871 291.44 129.092 231.046 160.001 176V120H152.001Z" fill="#E8E4DC"/>
<path d="M415.52 398.952C406.81 403.296 397.813 407.038 388.592 410.152C386.267 410.955 383.788 411.21 381.348 410.899C378.908 410.588 376.572 409.718 374.523 408.357C372.474 406.997 370.766 405.182 369.532 403.054C368.298 400.927 367.571 398.543 367.408 396.089C367.289 394.024 367.156 391.959 367.008 389.896C359.415 391.271 351.716 391.975 344 392C338.572 392.021 333.148 391.701 327.76 391.04C327.92 399.2 328 407.52 328 416V432C328 432 333.392 437.36 357.304 439.304C378.862 438.03 399.439 429.861 416 416C416 410.256 415.752 404.608 415.52 398.952Z" fill="#CFA2A0"/>
<path d="M367.008 389.928C360.888 301.008 328 176 328 176V152C328 147.757 329.686 143.687 332.686 140.686C335.687 137.686 339.757 136 344 136H352V120H304V176C317.587 242.05 325.403 309.156 327.36 376.56C327.52 381.36 327.6 386.16 327.76 391.04C333.148 391.7 338.572 392.021 344 392C351.715 391.986 359.414 391.292 367.008 389.928Z" fill="#E8E4DC"/>
<path d="M184 416C184 407.52 184.08 399.2 184.24 391.04C178.852 391.7 173.428 392.02 168 392C160.285 391.985 152.586 391.292 144.992 389.928C144.848 392 144.704 394.08 144.592 396.12C144.429 398.574 143.702 400.958 142.468 403.086C141.234 405.214 139.526 407.028 137.477 408.389C135.428 409.749 133.092 410.619 130.652 410.93C128.212 411.242 125.733 410.986 123.408 410.184C114.187 407.07 105.19 403.328 96.48 398.984C96.248 404.608 96 410.256 96 416C112.561 429.86 133.138 438.03 154.696 439.304C178.608 437.36 184 432 184 432V416Z" fill="#CFA2A0"/>
<path d="M184 152V176C184 176 151.112 301.008 144.992 389.928C152.586 391.292 160.285 391.986 168 392C173.428 392.021 178.852 391.7 184.24 391.04C184.4 386.16 184.48 381.36 184.64 376.56C186.597 309.156 194.413 242.05 208 176V120H160V136H168C172.244 136 176.313 137.686 179.314 140.686C182.314 143.687 184 147.757 184 152Z" fill="#E8E4DC"/>
<path d="M248 72V80C248 86.3652 250.529 92.4697 255.029 96.9706C259.53 101.471 265.635 104 272 104H392V120H216V72H248ZM136 72V88C136 92.2435 134.314 96.3131 131.314 99.3137C128.313 102.314 124.243 104 120 104V120H152V72H136Z" fill="#CFA2A0"/>
<path d="M371.808 334C368.198 331.117 365.488 327.261 364 322.888C361.558 316.792 360.204 310.315 360 303.752C359.967 297.198 360.921 290.677 362.832 284.408C366.032 271.952 363.376 258.712 364.632 245.888C364.88 243.36 365.856 239.976 368.96 240C373.672 240 378.416 248.8 380.424 252.376C383.504 257.959 385.815 263.933 387.296 270.136C389.275 279.623 390.675 289.222 391.488 298.88C392.775 308.557 391.716 318.402 388.4 327.584C387.968 329.269 387.14 330.827 385.984 332.128C384.828 333.429 383.379 334.435 381.756 335.063C380.133 335.69 378.383 335.921 376.653 335.736C374.923 335.551 373.262 334.956 371.808 334ZM401.6 154.072C398.564 152.531 395.176 151.816 391.776 152C388.059 151.728 384.353 152.653 381.2 154.64C379.423 155.996 378.021 157.782 377.123 159.829C376.226 161.876 375.865 164.118 376.072 166.344C376.618 169.462 377.88 172.412 379.76 174.96L403.672 212.672C404.648 214.2 405.784 215.872 407.296 215.992C407.833 215.975 408.36 215.849 408.846 215.62C409.331 215.392 409.765 215.066 410.12 214.664C413.228 211.307 415.153 207.025 415.6 202.472C416.153 197.656 416.119 192.791 415.496 187.984C415.002 183.089 414.316 178.216 413.44 173.376C412.178 165.637 407.926 158.705 401.6 154.072ZM140.192 334C143.802 331.117 146.512 327.261 148 322.888C150.443 316.792 151.797 310.315 152 303.752C152.034 297.198 151.079 290.677 149.168 284.408C145.968 271.952 148.624 258.712 147.368 245.888C147.12 243.36 146.144 239.976 143.04 240C138.328 240 133.584 248.8 131.576 252.376C128.497 257.959 126.185 263.933 124.704 270.136C122.725 279.623 121.325 289.222 120.512 298.88C119.225 308.557 120.284 318.402 123.6 327.584C124.032 329.269 124.861 330.827 126.016 332.128C127.172 333.429 128.622 334.435 130.245 335.063C131.868 335.69 133.617 335.921 135.347 335.736C137.077 335.551 138.738 334.956 140.192 334ZM110.4 154.072C113.436 152.531 116.824 151.816 120.224 152C123.941 151.728 127.647 152.653 130.8 154.64C132.577 155.996 133.98 157.782 134.877 159.829C135.774 161.876 136.136 164.118 135.928 166.344C135.382 169.462 134.12 172.412 132.24 174.96L108.328 212.672C107.352 214.2 106.216 215.872 104.704 215.992C104.168 215.975 103.64 215.849 103.155 215.62C102.669 215.392 102.235 215.066 101.88 214.664C98.7718 211.307 96.8473 207.025 96.4002 202.472C95.8469 197.656 95.8818 192.791 96.5042 187.984C97.0002 183.072 97.6882 178.192 98.5602 173.376C99.8228 165.637 104.075 158.705 110.4 154.072Z" fill="#FFFDFA"/>
<path d="M294.656 312.072C293.963 303.05 290.306 294.511 284.256 287.784C282.476 286.473 280.438 285.556 278.277 285.093C276.116 284.63 273.881 284.63 271.72 285.096C267.855 285.775 264.41 287.94 262.12 291.128C260.497 293.719 259.273 296.54 258.488 299.496C256.752 304.896 256.088 310.12 254.64 315.536C252.108 323.698 248.104 331.328 242.824 338.048C238.288 343.976 232.64 348.808 228.248 354.848C225.47 358.289 223.785 362.481 223.408 366.888C223.409 371.646 225.29 376.212 228.64 379.592C231.857 382.743 235.663 385.23 239.84 386.912C247.292 390.569 255.548 392.281 263.84 391.888C268.048 391.601 272.141 390.39 275.828 388.34C279.514 386.291 282.703 383.454 285.168 380.032C287.593 376.217 289.419 372.054 290.584 367.688C295.991 349.67 297.381 330.685 294.656 312.072Z" fill="#F7F3EB"/>
<path d="M376 72H280C275.582 72 272 75.5817 272 80C272 84.4183 275.582 88 280 88H376C380.418 88 384 84.4183 384 80C384 75.5817 380.418 72 376 72Z" fill="#FFC8C5"/>
<path d="M336 112H352V128H336V112Z" fill="black"/>
<path d="M512 344C512 341.878 511.156 339.844 509.656 338.344C507.367 336.133 505.025 333.977 502.632 331.88C483.32 314.568 432 268.584 432 216C432 172.536 421.16 156.352 411.592 142.072C406.356 135.086 402.429 127.21 400 118.824V72C400 69.8783 399.157 67.8434 397.657 66.3431C396.157 64.8429 394.122 64 392 64H120C117.878 64 115.843 64.8429 114.343 66.3431C112.843 67.8434 112 69.8783 112 72V118.824C109.573 127.21 105.645 135.087 100.408 142.072C90.84 156.352 80 172.536 80 216C80 268.584 28.68 314.568 9.368 331.88C6.296 334.624 3.88 336.808 2.344 338.344C0.843605 339.844 0.000453099 341.878 0 344C0 372.952 46.576 390.16 88.368 399.776C88.1421 405.181 88.0194 410.59 88 416C88.0005 418.122 88.8436 420.156 90.344 421.656C91.424 422.736 117.272 448 168 448C182.908 448.071 197.722 445.637 211.824 440.8C240.485 450.443 271.515 450.443 300.176 440.8C314.278 445.637 329.092 448.071 344 448C394.728 448 420.576 422.736 421.656 421.656C423.156 420.156 424 418.122 424 416C424 410.8 423.848 405.376 423.632 399.776C465.424 390.16 512 372.952 512 344ZM208 80V112H160V104H184V88H160V80H208ZM128 80H144V112H128V80ZM96 216C96 177.4 105 164 113.704 150.984C118.773 143.908 122.855 136.176 125.84 128H320V112H224V80H384V112H368V128H386.16C389.145 136.176 393.227 143.908 398.296 150.984C407 164 416 177.4 416 216C416 262.04 448.744 301.904 473.288 326.312C455.751 334.575 437.285 340.704 418.288 344.568C410.522 295.741 396.044 248.222 375.264 203.36L360.768 210.136C383.713 259.609 398.674 312.405 405.096 366.56C387.024 378.551 365.679 384.644 344 384C341.08 384 338.264 383.896 335.536 383.72C333.846 313.315 325.903 243.199 311.8 174.2L296.2 177.8C309.372 242.08 317.066 307.363 319.2 372.944C300.759 385.986 278.576 392.674 256 392C233.423 392.68 211.238 385.991 192.8 372.944C194.933 307.363 202.622 242.082 215.784 177.8L200.184 174.2C186.081 243.199 178.138 313.315 176.448 383.72C173.72 383.896 170.904 384 167.984 384C146.325 384.644 124.998 378.562 106.936 366.592C108.898 348.84 111.855 331.213 115.792 313.792L100.176 310.256C97.6259 321.622 95.4911 333.078 93.776 344.6C74.7651 340.734 56.2865 334.603 38.736 326.336C63.256 301.904 96 262.04 96 216ZM16.496 346.992C17.528 346.048 18.72 344.984 20.04 343.792C21.912 342.112 24.144 340.088 26.52 337.92C47.0245 348.482 68.9262 356.075 91.568 360.472C90.624 368.205 89.88 375.904 89.336 383.568C40.336 372 19.808 357.424 16.496 346.992ZM168 432C145.078 432.724 122.564 425.81 104 412.344C104.064 406.488 104.264 400.4 104.616 393.84C104.776 390.704 105.08 387.536 105.312 384.384C124.472 395.008 146.095 400.395 168 400C170.784 400 173.48 399.912 176.128 399.768C176.056 405.128 176 410.528 176 416C176 418.122 176.844 420.156 178.344 421.656C181.78 424.862 185.533 427.711 189.544 430.16C182.429 431.395 175.221 432.011 168 432ZM192 412.336C192 405.403 192.088 398.557 192.264 391.8C211.672 402.819 233.686 408.414 256 408C278.311 408.413 300.323 402.817 319.728 391.8C319.872 398.557 319.96 405.4 319.992 412.328C301.434 425.801 278.922 432.722 256 432C233.076 432.725 210.562 425.807 192 412.336ZM344 432C336.779 432.011 329.571 431.395 322.456 430.16C326.467 427.711 330.22 424.862 333.656 421.656C335.156 420.156 336 418.122 336 416C336 410.528 335.944 405.128 335.872 399.768C338.52 399.912 341.216 400 344 400C365.918 400.393 387.553 394.998 406.72 384.36C406.952 387.52 407.208 390.664 407.368 393.864C407.72 400.408 407.92 406.488 407.984 412.344C389.425 425.808 366.917 432.723 344 432ZM422.704 383.568C422.165 375.85 421.434 368.146 420.512 360.464C443.126 356.065 465 348.478 485.48 337.928C487.88 340.096 490.088 342.12 491.96 343.8C493.28 344.984 494.472 346.048 495.504 347C492.192 357.416 471.68 371.952 422.704 383.568Z" fill="black"/>
<path d="M353.672 195.648L367.904 188.336C362.504 177.824 358.96 172.048 358.816 171.808L345.216 180.192C345.216 180.248 348.584 185.744 353.672 195.648ZM166.816 180.192L153.216 171.808C131.462 210.004 114.992 250.975 104.256 293.6L119.744 297.648C130.17 256.586 145.999 217.089 166.816 180.192Z" fill="black"/>
</svg>
