<svg width="512" height="512" viewBox="0 0 512 512" fill="none" xmlns="http://www.w3.org/2000/svg">
<path d="M174.303 392.082L249.596 402.265L252.656 386.885L178.362 375.284L174.303 392.082Z" fill="white" stroke="#232323" stroke-width="6.43657" stroke-linecap="round" stroke-linejoin="round"/>
<path d="M321.033 323.116H190.967L178.363 375.285L252.657 386.885L255.769 371.253L259.093 386.79L333.96 376.622L321.033 323.116Z" fill="#FF6F4D" stroke="#232323" stroke-width="6.43657" stroke-linecap="round" stroke-linejoin="round"/>
<path d="M259.092 386.79L262.402 402.265L337.696 392.083L333.959 376.622L259.092 386.79ZM177.93 332.835H334.069L333.818 315.517H178.181L177.93 332.835Z" fill="white" stroke="#232323" stroke-width="6.43657" stroke-linecap="round" stroke-linejoin="round"/>
<path d="M256.073 152.263C285.885 152.263 296.659 122.757 299.783 110.905C299.02 111.267 298.297 111.709 297.626 112.222C291.921 116.586 278.259 125.164 258.932 125.164H253.074C233.747 125.164 220.081 116.586 214.38 112.222C213.714 111.713 212.997 111.274 212.24 110.914C215.4 122.771 226.269 152.263 256.073 152.263Z" fill="#FF6F4D" stroke="#232323" stroke-width="6.43657" stroke-linecap="round" stroke-linejoin="round"/>
<path d="M387.145 161.576C387.145 161.576 332.526 109.735 323.73 109.735H304.973C303.178 109.735 301.405 110.135 299.783 110.905C296.658 122.754 285.886 152.263 256.073 152.263C226.26 152.263 215.405 122.77 212.234 110.912C210.607 110.136 208.828 109.734 207.026 109.733H188.269C179.475 109.733 124.857 161.574 124.857 161.574L155.406 206.01L179.938 194.901L178.183 315.515H333.824L332.068 194.901L356.6 206.01L387.145 161.576ZM180.398 175.925L179.935 195.811ZM331.602 175.925L332.064 195.811Z" fill="#FFB164"/>
<path d="M180.398 175.925L179.935 195.811M331.602 175.925L332.064 195.811M387.145 161.576C387.145 161.576 332.526 109.735 323.73 109.735H304.973C303.178 109.735 301.405 110.135 299.783 110.905C296.658 122.754 285.886 152.263 256.073 152.263C226.26 152.263 215.405 122.77 212.234 110.912C210.607 110.136 208.828 109.734 207.026 109.733H188.269C179.475 109.733 124.857 161.574 124.857 161.574L155.406 206.01L179.938 194.901L178.183 315.515H333.824L332.068 194.901L356.6 206.01L387.145 161.576Z" stroke="#232323" stroke-width="6.43657" stroke-linecap="round" stroke-linejoin="round"/>
<path d="M247.735 233.891C247.735 233.891 250.253 297.49 242.412 332.835ZM221.843 207.12C221.843 207.12 220.844 304.95 214.322 332.835ZM211.164 357.648C211.164 357.648 204.151 383.202 195.877 395.001ZM293.376 192.199C293.376 192.199 294.592 302.317 313.953 332.835Z" fill="black"/>
<path d="M247.735 233.891C247.735 233.891 250.253 297.49 242.412 332.835M221.843 207.12C221.843 207.12 220.844 304.95 214.322 332.835M211.164 357.648C211.164 357.648 204.151 383.202 195.877 395.001M293.376 192.199C293.376 192.199 294.592 302.317 313.953 332.835" stroke="#232323" stroke-width="6.43657" stroke-linecap="round" stroke-linejoin="round"/>
</svg>
