<svg width="512" height="512" viewBox="0 0 512 512" fill="none" xmlns="http://www.w3.org/2000/svg">
<path d="M468.217 362.395H413.374L104.963 75.8464L102.598 22.6935L468.217 362.395Z" fill="#FF54E6"/>
<path d="M52.3359 362.395H107.179L415.739 75.7084L417.955 22.6935L52.3359 362.395Z" fill="#FF70EA"/>
<mask id="mask0_301_2162" style="mask-type:luminance" maskUnits="userSpaceOnUse" x="0" y="0" width="512" height="512">
<path d="M0 0.00149536H511.999V512H0V0.00149536Z" fill="white"/>
</mask>
<g mask="url(#mask0_301_2162)">
<path d="M470.581 195.683V28.8715C470.581 23.3495 466.104 18.8715 460.581 18.8715H425.738C420.215 18.8715 415.738 23.3495 415.738 28.8715V161.135C415.738 215.745 372.394 260.015 318.928 260.015H201.77C148.305 260.015 104.961 215.745 104.961 161.135V28.8715C104.961 23.3495 100.484 18.8715 94.9607 18.8715H60.1179C54.5959 18.8715 50.1179 23.3495 50.1179 28.8715V187.357C24.058 209.931 7.5 243.598 7.5 281.233C7.5 318.868 24.058 352.536 50.1179 375.109V436.07H470.581V366.784C491.564 344.636 504.499 314.486 504.499 281.233C504.499 247.98 491.564 217.829 470.581 195.683Z" fill="#FFA8F2"/>
<path d="M74.9609 28.8713V161.135C74.9609 215.744 118.304 260.015 171.771 260.015H201.771C148.304 260.015 104.961 215.744 104.961 161.135V28.8713C104.961 23.3494 100.484 18.8714 94.9608 18.8714H64.9609C70.4839 18.8714 74.9609 23.3494 74.9609 28.8713Z" fill="#FF96EF"/>
<path d="M470.58 195.683V28.8715C470.58 23.3495 466.103 18.8715 460.58 18.8715H430.58C436.103 18.8715 440.58 23.3495 440.58 28.8715V195.683C461.563 217.829 474.498 247.98 474.498 281.234C474.498 314.486 461.563 344.636 440.58 366.783V436.07H470.58V366.783C491.563 344.636 504.498 314.486 504.498 281.234C504.498 247.98 491.563 217.829 470.58 195.683Z" fill="#FF96EF"/>
<path d="M461.051 493.13H60.1172C54.5952 493.13 50.1172 488.652 50.1172 483.13V436.069H471.051V483.13C471.051 488.652 466.573 493.13 461.051 493.13Z" fill="#FF70EA"/>
<path d="M441.051 436.07V483.131C441.051 488.653 436.573 493.131 431.051 493.131H461.051C466.573 493.131 471.051 488.653 471.051 483.131V436.07H441.051Z" fill="#FF54E6"/>
</g>
</svg>
