<svg width="512" height="512" viewBox="0 0 512 512" fill="none" xmlns="http://www.w3.org/2000/svg">
<path d="M189.033 15.9951C189.033 15.9951 201.158 135.17 256.006 135.17C310.839 135.17 324.112 15.9951 324.112 15.9951L328.708 191.273H183.273L189.033 15.9951Z" fill="#0066FF"/>
<path d="M189.321 16.0254C189.321 16.0254 187.19 16.0556 175.201 16.0556C167.536 16.0556 159.917 21.1957 158.647 30.4177C147.309 113.415 111.902 144.528 110.375 193.828C108.849 243.127 145.736 272.683 145.736 272.683L85.6424 417.664C83.8888 428.761 72.8073 496.746 256.4 496.777C439.992 496.807 428.911 428.746 427.157 417.649L367.063 272.683C367.063 272.683 403.951 243.127 402.424 193.828C400.897 144.528 365.476 113.43 354.153 30.4177C352.883 21.1957 345.263 16.0556 337.598 16.0556C325.61 16.0556 323.478 16.0254 323.478 16.0254C323.478 16.0254 320.122 99.3254 310.552 133.643C300.998 167.961 287.875 180.63 256.4 180.63C224.939 180.63 211.802 167.961 202.247 133.643C192.678 99.3254 189.321 16.0254 189.321 16.0254Z" fill="#00A1FF"/>
<path d="M255.992 182.731C255.992 182.731 232.302 209.067 228.069 224.276C223.836 239.469 188.46 226.392 197.304 198.454C206.148 170.531 255.992 169.821 255.992 182.731ZM259.711 182.731C259.711 182.731 283.401 209.067 287.634 224.276C291.882 239.469 327.243 226.392 318.399 198.454C309.555 170.531 259.711 169.821 259.711 182.731Z" fill="#A8D0FF"/>
<path d="M256.672 163.804C261.736 163.804 266.593 165.815 270.174 169.396C273.754 172.977 275.766 177.834 275.766 182.898C275.766 187.962 273.754 192.818 270.174 196.399C266.593 199.98 261.736 201.992 256.672 201.992C251.608 201.992 246.751 199.98 243.171 196.399C239.59 192.818 237.578 187.962 237.578 182.898C237.578 177.834 239.59 172.977 243.171 169.396C246.751 165.815 251.608 163.804 256.672 163.804Z" fill="white"/>
</svg>
