<svg width="512" height="512" viewBox="0 0 512 512" fill="none" xmlns="http://www.w3.org/2000/svg">
<path d="M494.652 180.306L428.677 114.33C414.939 100.593 398.631 89.6955 380.683 82.2609C362.734 74.8263 343.497 70.9998 324.07 71H187.929C148.694 71 122.985 74.668 95.2405 102.412L17.3475 180.306C4.2175 193.436 4.2175 214.725 17.3475 227.855L59.4335 269.941C72.5635 283.071 93.8525 283.071 106.983 269.941L117.472 259.452C119.808 272.017 125.856 283.594 134.836 292.688V360.307C134.836 404.524 170.689 441 215.529 441H296.474C341.257 441 377.167 404.583 377.167 360.307V292.688C386.146 283.594 392.194 272.018 394.531 259.453L405.02 269.941C418.15 283.071 439.438 283.071 452.569 269.941L494.655 227.855C507.782 214.725 507.782 193.436 494.652 180.306Z" fill="#B0EBD8"/>
<path d="M211.766 267.073C211.766 251.617 215.859 236.436 223.628 223.074C231.398 209.712 242.567 198.646 255.999 191V71H187.929C148.694 71 122.985 74.668 95.2405 102.412L17.3475 180.306C4.2175 193.436 4.2175 214.725 17.3475 227.855L59.4335 269.941C72.5635 283.071 93.8525 283.071 106.983 269.941L117.472 259.452C119.808 272.017 125.856 283.594 134.836 292.688V360.307C134.836 404.524 170.689 441 215.529 441H245.99C229.274 423.535 213.832 406.176 213.832 378.22L255.999 335.751L211.766 279.375V267.073Z" fill="#5FD9B3"/>
<path d="M234.004 391H218.842C214.44 391 210.965 387.22 211.365 382.836C214.292 350.707 234.196 334.3 246.459 324.191C257.962 314.708 271 303.96 271 280.528C271 263.675 263.225 256 256 256V226C278.362 226 301 244.73 301 280.528C301 318.109 278.803 336.406 265.541 347.339C255.188 355.874 243.592 365.433 241.377 384.34C240.934 388.116 237.806 391 234.004 391Z" fill="#C9AAF2"/>
<path d="M293.159 391H277.997C274.195 391 271.067 388.116 270.624 384.34C268.408 365.433 256.813 355.874 246.46 347.34C233.197 336.406 211 318.109 211 280.528C211 244.73 233.638 226 256 226C262.579 233.922 263.82 245.866 256 256C248.775 256 241 263.676 241 280.528C241 303.96 254.038 314.708 265.541 324.19C277.805 334.3 297.709 350.706 300.636 382.835C301.035 387.22 297.561 391 293.159 391Z" fill="#B28AE4"/>
<path d="M316.932 101H195.071C180.4 101 168.506 112.894 168.506 127.564C168.506 131.334 169.308 135.061 170.86 138.497C172.412 141.933 174.677 145 177.505 147.493L205.005 171.733C234.149 197.421 277.852 197.421 306.997 171.733L334.497 147.493C337.325 145 339.59 141.933 341.142 138.497C342.693 135.061 343.496 131.334 343.496 127.564C343.496 112.894 331.603 101 316.932 101Z" fill="#00CE8E"/>
<path d="M339.454 153.12C362.89 132.464 348.254 93.5 316.93 93.5H195.069C163.703 93.5 149.124 132.477 172.544 153.119L200.044 177.358C231.937 205.472 280.05 205.481 311.954 177.358L339.454 153.12ZM209.962 166.106L182.462 141.867C169.39 130.343 177.504 108.5 195.068 108.5H316.929C334.483 108.5 342.638 130.317 329.535 141.867L302.035 166.106C275.791 189.239 236.207 189.239 209.962 166.106Z" fill="black"/>
<path d="M499.956 175.001L433.981 109.026C404.623 79.668 365.589 63.5 324.07 63.5H187.93C151.451 63.5 121.071 65.975 89.938 97.108L70.611 116.434C69.2146 117.843 68.433 119.747 68.4372 121.73C68.4415 123.714 69.2312 125.615 70.6337 127.017C72.0361 128.42 73.937 129.21 75.9204 129.214C77.9039 129.219 79.8083 128.437 81.217 127.041L100.544 107.715C125.542 82.718 147.705 78.5 187.93 78.5H324.07C361.582 78.5 396.849 93.108 423.374 119.634L489.349 185.608C499.558 195.819 499.559 212.341 489.349 222.551L447.263 264.637C437.058 274.844 420.53 274.846 410.322 264.638L402.526 256.841C402.912 253.814 403.121 250.747 403.121 247.648C403.121 231.45 397.545 215.557 387.419 202.898L383.023 197.403C382.408 196.634 381.647 195.993 380.784 195.518C379.921 195.043 378.974 194.742 377.995 194.634C377.016 194.525 376.025 194.61 375.079 194.884C374.133 195.159 373.25 195.617 372.481 196.232C371.712 196.847 371.072 197.608 370.596 198.471C370.121 199.334 369.821 200.282 369.712 201.26C369.603 202.239 369.689 203.23 369.963 204.176C370.237 205.122 370.695 206.005 371.31 206.774C376.285 212.991 388.122 225.719 388.122 247.648C388.122 262.631 382.334 276.757 371.824 287.424C370.442 288.827 369.667 290.718 369.667 292.688V332.695C369.667 334.684 370.457 336.592 371.864 337.998C373.27 339.405 375.178 340.195 377.167 340.195C379.156 340.195 381.064 339.405 382.47 337.998C383.877 336.592 384.667 334.684 384.667 332.695L384.668 295.666C390.48 289.247 395.075 281.823 398.229 273.758C417.499 293.028 443.029 290.087 457.873 275.245L499.959 233.158C507.723 225.39 512 215.063 512 204.081C512 193.097 507.723 182.77 499.956 175.001ZM377.349 355.196C373.242 355.089 369.754 358.334 369.633 362.474C368.469 402.301 336.333 433.499 296.473 433.499H215.528C175.169 433.499 142.335 400.665 142.335 360.306V292.687C142.335 290.717 141.56 288.826 140.177 287.423C129.668 276.756 123.88 262.63 123.88 247.646C123.88 226.063 135.287 213.529 140.692 206.773C141.9 205.217 142.447 203.247 142.214 201.291C141.982 199.335 140.99 197.548 139.452 196.318C137.913 195.087 135.953 194.511 133.993 194.714C132.034 194.917 130.233 195.882 128.979 197.402L124.583 202.897C114.457 215.554 108.88 231.447 108.88 247.646C108.88 250.746 109.089 253.813 109.475 256.84L101.68 264.636C91.471 274.843 74.947 274.847 64.737 264.636L22.652 222.551C12.444 212.342 12.441 195.819 22.652 185.608L60.006 148.254C61.4024 146.845 62.184 144.941 62.1798 142.958C62.1755 140.974 61.3858 139.073 59.9833 137.671C58.5809 136.268 56.68 135.478 54.6965 135.474C52.7131 135.469 50.8087 136.251 49.4 137.647L12.046 175.001C4.277 182.769 0 193.096 0 204.079C0 215.062 4.277 225.39 12.044 233.158L54.13 275.244C69.07 290.183 94.582 292.951 113.773 273.756C116.926 281.821 121.522 289.245 127.334 295.665V360.307C127.334 408.937 166.897 448.5 215.527 448.5H296.472C319.628 448.5 341.5 439.589 358.06 423.408C374.521 407.322 383.956 385.839 384.626 362.912C384.684 360.924 383.95 358.994 382.585 357.547C381.221 356.1 379.337 355.254 377.349 355.196Z" fill="black"/>
<path d="M203.5 280.528C203.5 301.86 210.004 319.992 223.344 335.74C214.156 346.528 205.796 361.294 203.895 382.155C203.096 390.928 210.04 398.5 218.841 398.5H234.004C241.567 398.5 247.938 392.788 248.826 385.213C249.718 377.604 252.374 371.848 255.995 366.991C259.325 371.472 262.248 377.303 263.175 385.213C264.063 392.788 270.434 398.5 277.997 398.5H293.16C301.969 398.5 308.905 390.92 308.106 382.155C306.501 364.532 300.099 349.286 288.609 335.745C299.009 323.465 308.501 305.942 308.501 280.528C308.5 197.975 203.5 198.004 203.5 280.528ZM233.909 383.5L218.833 383.517C223.968 327.142 278.5 333.071 278.5 280.529C278.5 237.816 233.5 237.819 233.5 280.529C233.5 296.889 239.326 307.836 245.385 315.327C241.774 318.385 238.098 321.263 233.917 325.006C223.427 312.209 218.5 297.902 218.5 280.529C218.5 217.936 293.5 217.961 293.5 280.529C293.5 314.572 273.804 330.808 260.768 341.554C249.959 350.465 236.509 361.553 233.909 383.5ZM263.5 280.528C263.5 291.111 260.502 298.535 256.007 304.559C251.813 298.951 248.5 291.529 248.5 280.528C248.5 268.783 252.886 263.5 256 263.5C259.114 263.5 263.5 268.783 263.5 280.528ZM278.061 383.5C278.07 383.495 278.075 383.485 278.073 383.467C276.629 371.144 271.643 362.418 266.613 356.203C270.203 353.164 273.844 350.316 278.065 346.518C287.028 357.436 291.876 369.351 293.159 383.499H278.061V383.5Z" fill="black"/>
</svg>
