<svg width="512" height="512" viewBox="0 0 512 512" fill="none" xmlns="http://www.w3.org/2000/svg">
<path d="M490.081 206.4C490.569 205.44 490.801 204.32 490.801 203.2V147.12C490.801 142.72 487.209 139.12 482.801 139.12H348.721C344.721 123.6 324.241 112.16 298.801 112.16C277.929 112.16 260.321 119.92 252.481 131.2C244.721 119.92 227.121 112.16 206.249 112.16C180.729 112.16 160.249 123.6 156.249 139.12H30.2408C25.7528 139.12 22.2408 142.72 22.2408 147.12C22.2408 147.12 22.1528 205.04 22.0728 205.36C21.2008 209.76 14.3928 247.92 39.0328 255.12C47.9928 257.68 57.4328 256.56 65.5928 254.16C63.9928 263.76 66.1448 274.64 76.6328 284.56C87.1928 294.64 100.073 295.04 111.673 291.44C109.993 300.48 111.593 310.24 119.841 318.96C132.713 332.56 150.881 333.52 164.321 331.68C161.121 339.2 158.641 348 159.921 355.44C163.361 375.28 170.881 388.72 182.321 395.36C188.241 398.88 194.081 399.84 198.721 399.84H313.281C317.921 399.84 323.761 398.88 329.681 395.36C341.121 388.72 348.641 375.28 352.081 355.44C353.361 348 350.889 339.12 347.681 331.68C361.201 333.52 379.281 332.64 392.161 318.96C400.401 310.24 402.001 300.48 400.329 291.44C411.929 295.04 424.809 294.64 435.369 284.56C445.857 274.64 448.009 263.76 446.409 254.16C454.577 256.56 464.009 257.68 472.897 255.12C496.241 248.32 491.441 213.92 490.081 206.4ZM298.801 128.16C318.641 128.16 333.529 136.96 333.529 144.72C333.529 152.56 318.649 161.28 298.801 161.28C278.889 161.28 264.001 152.56 264.001 144.72C264.001 136.96 278.881 128.16 298.801 128.16ZM206.241 128.16C226.153 128.16 240.961 136.96 240.961 144.72C240.961 152.56 226.153 161.28 206.241 161.28C186.321 161.28 171.433 152.56 171.433 144.72C171.441 136.96 186.321 128.16 206.241 128.16ZM43.5208 239.76C37.0408 237.84 36.0808 225.52 36.8008 215.92C43.8488 218.88 57.2088 225.04 73.4408 233.92C66.0808 237.68 53.3608 242.56 43.5208 239.76ZM87.6008 272.96C74.1608 260.24 85.6008 246.16 88.0008 243.52C88.2408 243.28 88.4808 242.96 88.7208 242.64C100.081 249.52 112.241 257.52 124.161 266.64C117.761 271.52 99.2008 283.92 87.6008 272.96ZM131.441 307.92C120.401 296.32 133.849 280.32 136.889 276.96C149.849 287.84 162.081 300.08 172.329 313.6C163.201 316.24 143.041 320.24 131.441 307.92ZM190.161 381.44C183.209 377.28 178.249 367.36 175.681 352.72C174.721 347.28 178.881 337.28 183.281 329.52C193.113 346.08 199.761 364.08 201.281 383.6C198.881 384 194.481 384 190.161 381.44ZM336.321 352.72C333.761 367.36 328.801 377.28 321.841 381.44C315.433 385.36 308.961 383.28 308.793 383.2C307.113 382.64 305.353 382.64 303.753 383.12C305.593 361.84 313.841 342.24 325.841 324.64C330.081 331.12 337.521 345.44 336.321 352.72ZM380.561 307.92C366.001 323.36 337.921 313.2 335.201 312.08C346.393 298.4 359.601 286 373.521 275.04C373.841 275.52 374.153 276 374.561 276.4C375.281 277.12 392.641 295.2 380.561 307.92ZM424.401 272.96C411.601 285.12 390.401 268.8 386.321 265.36C398.083 256.928 410.287 249.131 422.881 242C423.201 242.56 423.521 243.04 424.001 243.52C425.521 245.2 438.321 259.76 424.401 272.96ZM287.601 383.76H217.441C209.761 270.48 54.4808 205.68 38.2408 199.2V155.12H158.001C164.641 168.16 183.441 177.28 206.241 177.28C212.721 177.28 218.881 176.56 224.473 175.12C213.673 197.52 202.713 233.44 219.993 267.04C220.467 267.974 221.121 268.804 221.918 269.483C222.715 270.162 223.638 270.677 224.635 270.997C225.632 271.317 226.683 271.436 227.726 271.347C228.769 271.258 229.784 270.964 230.713 270.48C234.633 268.4 236.233 263.6 234.233 259.68C211.593 215.68 249.993 162.8 250.313 162.24C250.953 161.36 251.433 160.4 251.673 159.36C251.993 158.96 252.233 158.64 252.473 158.24C252.666 158.595 252.911 158.919 253.201 159.2L253.281 159.28C253.521 160.32 254.001 161.28 254.641 162.24C255.041 162.8 293.521 215.52 270.801 259.68C268.801 263.6 270.321 268.4 274.249 270.48C275.441 271.04 276.649 271.36 277.929 271.36C280.801 271.36 283.609 269.76 285.049 267.04C302.329 233.44 291.369 197.52 280.569 175.12C286.161 176.56 292.329 177.28 298.801 177.28C321.529 177.28 340.321 168.16 346.969 155.12H474.801V199.12C457.601 205.68 295.601 270.4 287.601 383.76ZM468.481 239.76C458.569 242.64 445.441 237.52 438.161 233.68C454.401 225.12 467.761 219.28 475.209 216.16C475.921 225.68 474.881 237.84 468.481 239.76Z" fill="#010101"/>
<path d="M240.962 144.72C240.962 152.56 226.154 161.28 206.242 161.28C186.322 161.28 171.434 152.56 171.434 144.72C171.434 136.96 186.314 128.16 206.242 128.16C226.162 128.16 240.962 136.96 240.962 144.72ZM333.522 144.72C333.522 152.56 318.642 161.28 298.794 161.28C278.882 161.28 263.994 152.56 263.994 144.72C263.994 136.96 278.874 128.16 298.794 128.16C318.642 128.16 333.522 136.96 333.522 144.72Z" fill="#FBB040"/>
<path d="M73.4408 233.92C66.0807 237.68 53.3607 242.56 43.5287 239.76C37.0407 237.84 36.0807 225.52 36.8007 215.92C43.8407 218.88 57.2008 225.04 73.4408 233.92ZM124.161 266.64C117.761 271.52 99.2087 283.92 87.6087 272.96C74.1607 260.24 85.6007 246.16 88.0007 243.52C88.2407 243.28 88.4807 242.96 88.7207 242.64C100.081 249.52 112.241 257.52 124.161 266.64ZM172.321 313.6C163.201 316.24 143.041 320.24 131.441 307.92C120.401 296.32 133.849 280.32 136.889 276.96C149.841 287.84 162.081 300.08 172.321 313.6ZM201.281 383.6C198.881 384 194.481 384 190.161 381.44C183.209 377.28 178.249 367.36 175.681 352.72C174.721 347.28 178.881 337.28 183.281 329.52C193.121 346.08 199.761 364.08 201.281 383.6ZM336.321 352.72C333.761 367.36 328.801 377.28 321.841 381.44C315.433 385.36 308.961 383.28 308.793 383.2C307.113 382.64 305.353 382.64 303.753 383.12C305.593 361.84 313.841 342.24 325.841 324.64C330.081 331.12 337.521 345.44 336.321 352.72ZM380.561 307.92C366.001 323.36 337.921 313.2 335.201 312.08C346.393 298.4 359.601 286 373.521 275.04C373.841 275.52 374.153 276 374.561 276.4C375.281 277.12 392.641 295.2 380.561 307.92ZM424.401 272.96C411.601 285.12 390.401 268.8 386.321 265.36C398.083 256.928 410.287 249.13 422.881 242C423.201 242.56 423.521 243.04 424.001 243.52C425.521 245.2 438.321 259.76 424.401 272.96ZM468.481 239.76C458.569 242.64 445.441 237.52 438.161 233.68C454.401 225.12 467.761 219.28 475.209 216.16C475.921 225.68 474.881 237.84 468.481 239.76Z" fill="#F9D19B"/>
<path d="M474.8 155.12V199.12C457.6 205.68 295.6 270.4 287.6 383.76H217.44C209.76 270.48 54.4802 205.68 38.2402 199.2V155.12H158C164.64 168.16 183.44 177.28 206.24 177.28C212.72 177.28 218.88 176.56 224.472 175.12C213.672 197.52 202.712 233.44 219.992 267.04C220.466 267.974 221.12 268.804 221.917 269.483C222.714 270.162 223.638 270.677 224.635 270.997C225.631 271.316 226.682 271.436 227.725 271.347C228.768 271.258 229.784 270.964 230.712 270.48C234.632 268.4 236.232 263.6 234.232 259.68C211.592 215.68 249.992 162.8 250.312 162.24C250.952 161.36 251.432 160.4 251.672 159.36C251.992 158.96 252.232 158.64 252.472 158.24C252.665 158.595 252.91 158.919 253.2 159.2L253.28 159.28C253.52 160.32 254 161.28 254.64 162.24C255.04 162.8 293.52 215.52 270.8 259.68C268.8 263.6 270.32 268.4 274.248 270.48C275.44 271.04 276.648 271.36 277.928 271.36C280.8 271.36 283.608 269.76 285.048 267.04C302.328 233.44 291.368 197.52 280.568 175.12C286.16 176.56 292.328 177.28 298.8 177.28C321.528 177.28 340.32 168.16 346.968 155.12H474.8Z" fill="#FBB040"/>
</svg>
